<svg width="230" height="307" viewBox="0 0 230 307" fill="none" xmlns="http://www.w3.org/2000/svg">
<path d="M57.7119 76.7495C52.4307 76.7495 48.1494 81.0308 48.1494 86.312C48.1494 91.5932 52.4307 95.8745 57.7119 95.8745H172.462C177.743 95.8745 182.024 91.5932 182.024 86.312C182.024 81.0308 177.743 76.7495 172.462 76.7495H57.7119Z" fill="url(#paint0_linear_963_1992)"/>
<path d="M48.1494 124.562C48.1494 119.281 52.4307 115 57.7119 115H172.462C177.743 115 182.024 119.281 182.024 124.562C182.024 129.843 177.743 134.125 172.462 134.125H57.7119C52.4307 134.125 48.1494 129.843 48.1494 124.562Z" fill="url(#paint1_linear_963_1992)"/>
<path d="M57.7119 153.25C52.4307 153.25 48.1494 157.531 48.1494 162.812C48.1494 168.093 52.4307 172.375 57.7119 172.375H172.462C177.743 172.375 182.024 168.093 182.024 162.812C182.024 157.531 177.743 153.25 172.462 153.25H57.7119Z" fill="url(#paint2_linear_963_1992)"/>
<path d="M57.7119 191.5C52.4307 191.5 48.1494 195.781 48.1494 201.062C48.1494 206.343 52.4307 210.625 57.7119 210.625H115.087C120.368 210.625 124.649 206.343 124.649 201.062C124.649 195.781 120.368 191.5 115.087 191.5H57.7119Z" fill="url(#paint3_linear_963_1992)"/>
<path d="M0.336914 38.4995C0.336914 17.3746 17.462 0.249512 38.5869 0.249512H191.587C212.712 0.249512 229.837 17.3746 229.837 38.4995V268C229.837 289.124 212.712 306.25 191.587 306.25H38.5869C17.462 306.25 0.336914 289.124 0.336914 268V38.4995ZM191.587 19.3745H38.5869C28.0245 19.3745 19.4619 27.9371 19.4619 38.4995V268C19.4619 278.562 28.0245 287.125 38.5869 287.125H191.587C202.149 287.125 210.712 278.562 210.712 268V38.4995C210.712 27.9371 202.149 19.3745 191.587 19.3745Z" fill="url(#paint4_linear_963_1992)"/>
<defs>
<linearGradient id="paint0_linear_963_1992" x1="115.087" y1="0.249512" x2="115.087" y2="306.25" gradientUnits="userSpaceOnUse">
<stop stop-color="#F5BD00"/>
<stop offset="1" stop-color="#FD7E14"/>
</linearGradient>
<linearGradient id="paint1_linear_963_1992" x1="115.087" y1="0.249512" x2="115.087" y2="306.25" gradientUnits="userSpaceOnUse">
<stop stop-color="#F5BD00"/>
<stop offset="1" stop-color="#FD7E14"/>
</linearGradient>
<linearGradient id="paint2_linear_963_1992" x1="115.087" y1="0.249512" x2="115.087" y2="306.25" gradientUnits="userSpaceOnUse">
<stop stop-color="#F5BD00"/>
<stop offset="1" stop-color="#FD7E14"/>
</linearGradient>
<linearGradient id="paint3_linear_963_1992" x1="115.087" y1="0.249512" x2="115.087" y2="306.25" gradientUnits="userSpaceOnUse">
<stop stop-color="#F5BD00"/>
<stop offset="1" stop-color="#FD7E14"/>
</linearGradient>
<linearGradient id="paint4_linear_963_1992" x1="115.087" y1="0.249512" x2="115.087" y2="306.25" gradientUnits="userSpaceOnUse">
<stop stop-color="#F5BD00"/>
<stop offset="1" stop-color="#FD7E14"/>
</linearGradient>
</defs>
</svg>
