<svg width="225" height="246" viewBox="0 0 225 246" fill="none" xmlns="http://www.w3.org/2000/svg">
<path d="M71.6327 218.613C45.3935 211.582 23.3336 194.831 9.5183 171.443L8.40541 169.562L10.3331 170.592C15.3602 173.281 20.6998 175.39 26.2011 176.864C65.9237 187.507 106.901 163.849 117.545 124.128C128.189 84.4037 104.53 43.4276 64.8072 32.784C59.3043 31.3095 53.6256 30.4661 47.9294 30.2811L45.745 30.2083L47.6499 29.1339C71.3095 15.7888 98.7896 12.3118 125.027 19.3422C179.966 34.0629 212.686 90.7362 197.965 145.676C183.244 200.617 126.571 233.334 71.6327 218.613ZM11.6939 172.672C25.4018 194.814 46.7206 210.669 71.9499 217.43C126.237 231.976 182.236 199.645 196.782 145.358C211.328 91.0708 178.997 35.0703 124.711 20.5242C99.4829 13.7644 73.0907 16.8361 50.1486 29.1573C55.207 29.4691 60.2362 30.2872 65.1283 31.5981C105.504 42.4168 129.551 84.0668 118.732 124.443C107.914 164.819 66.2639 188.864 25.888 178.045C20.995 176.737 16.2301 174.933 11.6939 172.672Z" fill="url(#paint0_linear_963_1995)"/>
<defs>
<linearGradient id="paint0_linear_963_1995" x1="139.218" y1="23.1445" x2="85.8231" y2="222.415" gradientUnits="userSpaceOnUse">
<stop stop-color="#F5BD00"/>
<stop offset="1" stop-color="#FD7E14"/>
</linearGradient>
</defs>
</svg>
