<svg width="268" height="216" viewBox="0 0 268 216" fill="none" xmlns="http://www.w3.org/2000/svg">
<g clip-path="url(#clip0_963_1690)">
<path d="M213.685 39.3449C212.298 54.5879 208.346 70.6609 202.149 86.1691C194.486 105.347 184.016 122.239 171.87 135.019L171.196 134.432C183.283 121.714 193.705 104.897 201.337 85.7983C208.234 68.5392 212.336 50.5785 213.206 33.8658L214.067 34.0096C213.975 35.7747 213.848 37.5531 213.685 39.3449Z" fill="#F2F2F2"/>
<path d="M219.208 127.874C202.149 154.944 181.453 174.286 160.932 182.336L160.517 181.577C180.896 173.582 201.471 154.339 218.452 127.393L219.208 127.874Z" fill="#F2F2F2"/>
<path d="M213.271 58.3231C211.884 73.5662 207.932 89.6391 201.735 105.147C194.072 124.325 183.602 141.217 171.456 153.997L170.782 153.411C182.869 140.692 193.291 123.875 200.923 104.776C207.82 87.5174 211.922 69.5567 212.792 52.844L213.653 52.9878C213.561 54.7529 213.434 56.5313 213.271 58.3231Z" fill="#F2F2F2"/>
<path d="M21.7618 97.4566H10.5691C10.3299 97.4571 10.0938 97.4036 9.87834 97.3001C9.6629 97.1966 9.47375 97.0458 9.32509 96.8589C9.17822 96.6769 9.07461 96.464 9.02202 96.2363C8.96943 96.0086 8.96923 95.7719 9.02144 95.5441C10.0874 90.8525 10.0205 85.9753 8.82606 81.3146C8.75051 81.0077 8.76878 80.6853 8.87851 80.3889C8.98824 80.0924 9.18441 79.8355 9.44177 79.6513C15.1971 75.5225 19.7296 75.6423 22.9135 80.008C23.057 80.207 23.1523 80.4364 23.192 80.6783C24.0427 85.7795 24.0898 90.9819 23.3316 96.0976C23.2789 96.4751 23.0908 96.8208 22.8022 97.0707C22.5136 97.3206 22.1439 97.4577 21.7618 97.4566Z" fill="#E6E6E6"/>
<path d="M18.2928 86.2766H14.4424C14.2295 86.2766 14.0253 86.1922 13.8748 86.0421C13.7242 85.8919 13.6396 85.6882 13.6396 85.4759C13.6396 85.2635 13.7242 85.0598 13.8748 84.9096C14.0253 84.7595 14.2295 84.6751 14.4424 84.6751H18.2928C18.5054 84.6756 18.7091 84.7601 18.8593 84.9102C19.0095 85.0604 19.0939 85.2638 19.0939 85.4759C19.0939 85.6879 19.0095 85.8913 18.8593 86.0415C18.7091 86.1916 18.5054 86.2761 18.2928 86.2766Z" fill="#222222"/>
<path d="M18.2928 89.0849H14.4424C14.2295 89.0849 14.0253 89.0005 13.8748 88.8503C13.7242 88.7002 13.6396 88.4965 13.6396 88.2841C13.6396 88.0718 13.7242 87.8681 13.8748 87.7179C14.0253 87.5678 14.2295 87.4834 14.4424 87.4834H18.2928C18.5054 87.4838 18.7091 87.5684 18.8593 87.7185C19.0095 87.8686 19.0939 88.0721 19.0939 88.2841C19.0939 88.4962 19.0095 88.6996 18.8593 88.8498C18.7091 88.9999 18.5054 89.0844 18.2928 89.0849Z" fill="#222222"/>
<path d="M18.2928 91.8932H14.4424C14.2295 91.8932 14.0253 91.8088 13.8748 91.6586C13.7242 91.5085 13.6396 91.3048 13.6396 91.0924C13.6396 90.8801 13.7242 90.6764 13.8748 90.5262C14.0253 90.3761 14.2295 90.2917 14.4424 90.2917H18.2928C18.5054 90.2921 18.7091 90.3767 18.8593 90.5268C19.0095 90.6769 19.0939 90.8803 19.0939 91.0924C19.0939 91.3045 19.0095 91.5079 18.8593 91.658C18.7091 91.8082 18.5054 91.8927 18.2928 91.8932Z" fill="#222222"/>
<path d="M225.18 147.303H213.987C213.748 147.304 213.512 147.25 213.296 147.147C213.081 147.043 212.892 146.892 212.743 146.706C212.596 146.524 212.493 146.311 212.44 146.083C212.387 145.855 212.387 145.619 212.439 145.391C213.505 140.699 213.438 135.822 212.244 131.161C212.168 130.854 212.187 130.532 212.296 130.236C212.406 129.939 212.602 129.682 212.86 129.498C218.615 125.369 223.148 125.489 226.331 129.855C226.475 130.054 226.57 130.283 226.61 130.525C227.461 135.626 227.508 140.829 226.75 145.944C226.697 146.322 226.509 146.668 226.22 146.917C225.932 147.167 225.562 147.304 225.18 147.303Z" fill="#E6E6E6"/>
<path d="M221.709 136.123H217.859C217.646 136.123 217.442 136.038 217.292 135.888C217.142 135.738 217.058 135.535 217.058 135.323C217.058 135.11 217.142 134.907 217.292 134.757C217.442 134.607 217.646 134.522 217.859 134.522H221.709C221.922 134.522 222.126 134.606 222.277 134.756C222.427 134.907 222.512 135.11 222.512 135.323C222.512 135.535 222.427 135.739 222.277 135.889C222.126 136.039 221.922 136.123 221.709 136.123Z" fill="#222222"/>
<path d="M221.709 138.932H217.859C217.646 138.931 217.442 138.847 217.292 138.696C217.142 138.546 217.058 138.343 217.058 138.131C217.058 137.919 217.142 137.715 217.292 137.565C217.442 137.415 217.646 137.331 217.859 137.33H221.709C221.922 137.33 222.126 137.414 222.277 137.565C222.427 137.715 222.512 137.918 222.512 138.131C222.512 138.343 222.427 138.547 222.277 138.697C222.126 138.847 221.922 138.932 221.709 138.932Z" fill="#222222"/>
<path d="M221.709 141.74H217.859C217.646 141.739 217.442 141.655 217.292 141.505C217.142 141.355 217.058 141.151 217.058 140.939C217.058 140.727 217.142 140.524 217.292 140.373C217.442 140.223 217.646 140.139 217.859 140.138H221.709C221.922 140.138 222.126 140.223 222.277 140.373C222.427 140.523 222.512 140.727 222.512 140.939C222.512 141.151 222.427 141.355 222.277 141.505C222.126 141.655 221.922 141.74 221.709 141.74Z" fill="#222222"/>
<path d="M267.532 215.582C267.532 215.637 267.522 215.692 267.501 215.742C267.48 215.793 267.449 215.839 267.41 215.878C267.371 215.917 267.325 215.948 267.274 215.969C267.223 215.989 267.168 216 267.113 216H0.951026C0.839954 216 0.733435 215.956 0.654895 215.878C0.576355 215.799 0.532227 215.693 0.532227 215.582C0.532227 215.471 0.576355 215.365 0.654895 215.287C0.733435 215.209 0.839954 215.165 0.951026 215.165H267.113C267.168 215.164 267.223 215.175 267.274 215.196C267.325 215.217 267.371 215.248 267.41 215.287C267.449 215.325 267.48 215.371 267.501 215.422C267.522 215.473 267.532 215.527 267.532 215.582Z" fill="#CCCCCC"/>
<path d="M70.7434 190.006L70.0453 180.321C65.4725 178.041 60.4109 176.909 55.2998 177.023C62.4904 182.567 61.9144 193.647 66.8942 201.23C68.4656 203.583 70.5477 205.554 72.9862 206.995C75.4248 208.437 78.1573 209.312 80.9812 209.557L86.9655 212.991C87.6501 208.478 87.3456 203.871 86.0731 199.487C84.8006 195.103 82.5903 191.046 79.5946 187.595C77.8947 185.677 75.9594 183.979 73.8342 182.542C72.5261 186.288 70.7434 190.006 70.7434 190.006Z" fill="#F2F2F2"/>
<path d="M197.322 191.41L198.02 181.726C202.592 179.445 207.654 178.313 212.765 178.427C205.575 183.971 206.151 195.051 201.171 202.634C199.599 204.988 197.517 206.958 195.079 208.399C192.64 209.841 189.908 210.717 187.084 210.961L181.099 214.395C180.415 209.883 180.719 205.275 181.992 200.891C183.264 196.507 185.475 192.45 188.47 189C190.17 187.081 192.106 185.383 194.231 183.946C195.539 187.692 197.322 191.41 197.322 191.41Z" fill="#F2F2F2"/>
<path d="M130.863 82.1215C134.556 82.1215 137.55 79.1355 137.55 75.4519C137.55 71.7684 134.556 68.7823 130.863 68.7823C127.17 68.7823 124.177 71.7684 124.177 75.4519C124.177 79.1355 127.17 82.1215 130.863 82.1215Z" fill="#F5BD00"/>
<path d="M134.297 72.6722C134.197 72.5765 134.063 72.5231 133.924 72.5231C133.785 72.5231 133.652 72.5765 133.551 72.6722C132.132 73.8009 130.858 75.0993 129.756 76.5381C129.486 76.0163 129.216 75.4946 128.945 74.9728C128.633 74.3705 127.722 74.9025 128.034 75.5043C128.429 76.2675 128.825 77.0307 129.22 77.7938C129.268 77.8718 129.335 77.9361 129.415 77.9808C129.494 78.0255 129.584 78.0489 129.676 78.0489C129.767 78.0489 129.857 78.0255 129.937 77.9808C130.017 77.9361 130.084 77.8718 130.132 77.7938C131.305 76.1453 132.708 74.6715 134.297 73.4169C134.396 73.3177 134.451 73.184 134.451 73.0446C134.451 72.9052 134.396 72.7714 134.297 72.6722Z" fill="#222222"/>
<path d="M100.946 94.3645L90.8623 78.5696L102.539 72.3323L105.603 84.3831L127.196 96.0216C128.049 95.7156 128.972 95.6636 129.854 95.8719C130.735 96.0803 131.537 96.54 132.161 97.195C132.785 97.8501 133.205 98.6721 133.369 99.5609C133.533 100.45 133.434 101.367 133.084 102.201C132.735 103.034 132.149 103.748 131.4 104.256C130.65 104.764 129.769 105.043 128.863 105.059C127.957 105.076 127.066 104.829 126.298 104.35C125.53 103.87 124.919 103.177 124.539 102.357L100.946 94.3645Z" fill="#A0616A"/>
<path d="M83.4966 59.6251C80.3284 64.2649 91.5875 81.1303 91.5875 81.1303C92.136 79.951 97.3792 93.1939 98.2575 92.4117C100.753 90.1883 104.661 83.9952 106.832 83.7191C108.074 83.5612 103.952 74.7753 103.952 74.7753C103.952 74.7753 102.068 69.5872 99.511 62.96C98.8231 61.073 97.6677 59.3903 96.1523 58.0685C94.637 56.7467 92.811 55.8288 90.8444 55.4003C90.8444 55.4003 86.6649 54.9852 83.4966 59.6251Z" fill="#3F3D56"/>
<path d="M83.6505 210.792L88.4392 210.792L90.7173 192.368L83.6494 192.368L83.6505 210.792Z" fill="#A0616A"/>
<path d="M82.4287 209.233L83.7766 209.233L89.0391 207.098L91.8596 209.232H91.86C93.4539 209.232 94.9825 209.864 96.1096 210.988C97.2367 212.112 97.87 213.637 97.8701 215.227V215.422L82.429 215.422L82.4287 209.233Z" fill="#2C2A4E"/>
<path d="M105.896 210.792L110.685 210.792L112.963 192.368L105.896 192.368L105.896 210.792Z" fill="#A0616A"/>
<path d="M104.677 209.233L106.025 209.233L111.287 207.098L114.108 209.232H114.108C115.702 209.232 117.231 209.864 118.358 210.988C119.485 212.112 120.118 213.637 120.118 215.227V215.422L104.677 215.422L104.677 209.233Z" fill="#2C2A4E"/>
<path d="M107.971 110.067L76.8229 110.844C70.9071 114.049 70.8173 120.985 72.7556 129.221C72.7556 129.221 72.1013 134.116 73.41 135.422C74.7187 136.727 75.373 136.727 74.7187 139.011C74.0643 141.296 77.5216 145.027 77.1017 145.446C76.6817 145.865 75.7002 148.149 75.7002 148.149L78.972 166.75C78.972 166.75 81.2622 199.058 81.9165 199.711C82.5709 200.363 83.2252 199.711 82.5709 201.342C81.9165 202.974 81.2622 202.321 81.9165 202.974C82.4962 203.597 83.0422 204.251 83.5524 204.932H91.4626C91.4626 204.932 92.059 201.669 92.059 201.342C92.059 201.016 92.7133 199.058 92.7133 198.732C92.7133 198.405 92.135 197.828 92.135 197.828C91.9351 197.165 91.8001 196.484 91.7318 195.795C91.7318 195.142 89.7687 170.014 89.7687 170.014L93.6948 137.38L103.183 169.361C103.183 169.361 103.183 197.426 103.837 198.079C104.492 198.732 104.492 198.405 104.164 199.711C103.837 201.016 102.529 200.69 103.51 201.669C104.492 202.648 104.819 201.016 104.492 202.648L104.164 204.28L113.98 204.42C113.98 204.42 115.288 201.669 114.634 200.69C113.98 199.711 114.019 199.978 114.817 198.376C115.616 196.774 115.943 196.447 115.616 196.121C115.288 195.795 115.288 194.059 115.288 194.059L113.653 162.834C113.653 162.834 113.325 129.874 113.325 128.895C113.301 128.391 113.394 127.889 113.597 127.427V126.098L112.344 121.389L107.971 110.067Z" fill="#2C2A4E"/>
<path d="M89.2591 45.4641C94.6041 45.4641 98.9371 41.1422 98.9371 35.8108C98.9371 30.4794 94.6041 26.1575 89.2591 26.1575C83.9141 26.1575 79.5811 30.4794 79.5811 35.8108C79.5811 41.1422 83.9141 45.4641 89.2591 45.4641Z" fill="#A0616A"/>
<path d="M94.0979 51.8442C96.1829 53.0806 97.4301 55.3522 98.1461 57.6639C99.4716 61.9436 100.27 66.3684 100.522 70.8406L101.278 84.2295L110.644 112.738C102.527 119.589 72.0164 114.295 72.0164 114.295C72.0164 114.295 71.0798 113.984 72.0164 113.05C72.9529 112.115 73.8647 112.943 72.9281 112.009C71.9916 111.075 72.6372 112.115 72.9494 111.181C73.2616 110.247 72.9494 110.87 72.6372 110.558C72.325 110.247 75.054 107.444 75.054 107.444L72.5565 91.0802L69.4346 58.0721C73.1809 53.4012 80.7153 50.6477 80.7153 50.6477L82.662 47.1524L92.396 47.9291L94.0979 51.8442Z" fill="#3F3D56"/>
<path d="M97.2369 30.682C97.9891 31.2416 98.5464 32.0225 98.8303 32.9146C98.9393 31.4567 98.9463 29.993 98.851 28.5341C98.7369 27.509 98.0134 27.2784 97.1755 27.0112C96.4189 26.7698 95.5632 26.4971 95.3329 25.5019C92.2907 22.55 86.9948 22.6988 83.3705 23.7285C81.3762 24.2951 80.2286 25.0231 80.126 25.4496L80.1047 25.5374L80.0237 25.5778C78.4864 26.3445 78.1872 28.7655 78.2069 30.6614C78.2444 34.2334 79.4809 38.2904 80.1775 38.62C80.2144 38.6374 80.2237 38.6306 80.2397 38.6173C81.2885 37.7812 82.5682 38.6808 83.1306 39.1699C83.4622 36.9498 84.5302 34.9046 86.164 33.361C87.7977 31.8173 89.9029 30.8643 92.1433 30.654C92.875 30.5835 93.6009 30.4621 94.3156 30.2907C94.6781 30.1971 95.0508 30.1483 95.4253 30.1454C96.0699 30.1357 96.7021 30.3229 97.2369 30.682Z" fill="#2C2A4E"/>
<path d="M157.317 117.759L175.934 98.9022L180.839 83.8206L172.946 80.6362C169.036 84.5702 165.011 96.6134 165.011 96.6134L152.304 113.624C152.203 113.662 152.102 113.701 152.002 113.748C151.417 114.024 150.913 114.445 150.539 114.972C150.165 115.498 149.933 116.112 149.867 116.754C149.8 117.396 149.9 118.044 150.158 118.636C150.416 119.228 150.823 119.743 151.339 120.132C151.855 120.522 152.462 120.772 153.104 120.858C153.745 120.945 154.397 120.865 154.998 120.626C155.6 120.388 156.129 119.998 156.535 119.496C156.941 118.994 157.211 118.396 157.317 117.759Z" fill="#FFB8B8"/>
<path d="M170.792 82.3614L180.774 85.2416L180.811 85.2344C184.48 84.5238 187.383 78.4418 189.171 73.4648C189.76 71.8232 189.701 70.02 189.008 68.4197C188.314 66.8195 187.037 65.5415 185.436 64.8443C184.25 64.3379 182.947 64.1723 181.672 64.3661C180.397 64.56 179.203 65.1056 178.223 65.9413L173.246 70.216L170.792 82.3614Z" fill="#F5BD00"/>
<path d="M162.253 210.232L156.885 210.232L154.331 189.579L162.254 189.579L162.253 210.232Z" fill="#FFB8B8"/>
<path d="M163.621 208.484L162.11 208.484L156.211 206.091L153.049 208.483H153.049C151.262 208.483 149.548 209.192 148.285 210.452C147.022 211.712 146.312 213.421 146.312 215.203V215.422L163.621 215.422L163.621 208.484Z" fill="#2C2A4E"/>
<path d="M186.073 210.232L180.705 210.232L178.151 189.579L186.074 189.579L186.073 210.232Z" fill="#FFB8B8"/>
<path d="M187.442 208.484L185.931 208.484L180.031 206.091L176.87 208.483H176.869C175.082 208.483 173.369 209.192 172.105 210.452C170.842 211.712 170.132 213.421 170.132 215.203V215.422L187.441 215.422L187.442 208.484Z" fill="#2C2A4E"/>
<path d="M194.256 121.271C194.256 121.271 194.883 128.774 193.316 135.964C191.749 143.155 191.749 163.405 191.749 163.405L188.302 202.865L177.959 201.927L175.138 135.964L165.109 158.16L166.049 161.287L164.796 162.068C164.796 162.068 165.735 168.164 165.109 168.164C164.482 168.164 162.915 169.102 162.915 169.102L164.168 201.302L153.512 200.989L149.751 155.659L153.825 129.712L154.139 124.71L155.549 124.768L156.267 122.678L157.586 119.083L194.256 121.271Z" fill="#2C2A4E"/>
<path d="M194.799 122.847L194.855 122.769C197.838 118.603 193.352 108.592 192.675 107.141L195.525 106.218L194.883 100.776L194.579 98.3503L196.758 96.1774L196.764 96.1232L198.017 85.1815L199.84 77.9142C200.527 75.1669 200.469 72.2867 199.671 69.5694C198.873 66.8522 197.364 64.3956 195.3 62.4519L191.087 58.4894L185.966 50.9321H177.709L174.877 56.2664C172.132 56.8992 169.697 58.4725 167.995 60.7123C166.293 62.952 165.433 65.7162 165.565 68.5233L166.207 82.5137L163.695 99.9331L163.693 103.086L160.866 106.219L161.483 109.298L159.332 110.218L158.382 114.64C157.989 115.157 155.394 118.608 155.394 119.552C155.394 119.694 155.498 119.83 155.723 119.982C157.492 121.177 167.267 123.612 171.593 121.885C176.201 120.047 194.52 122.805 194.704 122.833L194.799 122.847Z" fill="#F5BD00"/>
<path d="M180.771 48.4924C186.811 48.4924 191.707 43.6087 191.707 37.5843C191.707 31.5598 186.811 26.6761 180.771 26.6761C174.731 26.6761 169.835 31.5598 169.835 37.5843C169.835 43.6087 174.731 48.4924 180.771 48.4924Z" fill="#FFB8B8"/>
<path d="M179.723 48.6691C181.417 48.6518 183.106 48.4903 184.772 48.1863C186.421 47.8073 190.061 45.0004 191.052 43.3422C191.789 42.1102 192.232 40.2046 192.473 38.823C192.799 36.9945 192.736 35.1182 192.289 33.3155C191.841 31.5128 191.019 29.8239 189.876 28.3582C189.435 27.7442 188.836 27.2604 188.142 26.958C188.081 26.9358 188.018 26.9164 187.954 26.9001C186.949 26.6637 186.037 26.1329 185.336 25.3758C185.2 25.2225 185.053 25.0792 184.896 24.947C184.11 24.319 183.185 23.8855 182.199 23.682C180.605 23.3003 178.325 23.7787 175.423 25.1051C173.965 25.7716 172.347 25.5857 171.099 25.3492C171.029 25.3376 170.958 25.3445 170.891 25.3691C170.825 25.3937 170.766 25.4353 170.72 25.4897C170.205 25.9974 169.517 26.292 168.793 26.3141C168.35 26.3449 167.901 26.9692 167.359 27.7822C167.236 27.9668 167.093 28.1822 166.989 28.3136L166.968 28.0668L166.724 28.349C166.341 28.7926 166.077 29.3256 165.956 29.8985C165.836 30.4714 165.862 31.0654 166.033 31.6254C166.205 32.1853 166.515 32.6929 166.936 33.1009C167.357 33.5089 167.874 33.804 168.441 33.9587C168.89 34.0656 169.348 34.1265 169.81 34.1404C170.09 34.1583 170.379 34.1767 170.657 34.2175C171.55 34.376 172.386 34.7627 173.084 35.3398C173.782 35.9169 174.318 36.6647 174.64 37.5102C174.716 37.7056 174.836 37.881 174.991 38.0228C175.146 38.1646 175.331 38.269 175.533 38.328C175.734 38.387 175.947 38.399 176.154 38.3631C176.361 38.3272 176.557 38.2443 176.727 38.1208C177.009 37.8895 177.343 37.7298 177.701 37.6553C178.059 37.5807 178.429 37.5936 178.781 37.6928C179.087 37.8522 179.328 38.1117 179.465 38.4276C179.63 38.7793 179.897 39.0738 180.231 39.2737C181.369 39.8226 181.513 42.3805 181.165 44.5249C180.829 46.5919 180.099 48.0997 179.388 48.1916C178.842 48.2623 178.78 48.3027 178.743 48.4004L178.71 48.4879L178.773 48.5673C179.079 48.6689 179.403 48.7037 179.723 48.6691Z" fill="#2C2A4E"/>
<path d="M170.651 83.5281L165.395 76.8472C160.04 78.3179 150.539 86.7648 150.539 86.7648L131.027 95.2105C130.376 95.1014 129.708 95.1652 129.089 95.3958C128.47 95.6263 127.924 96.0152 127.504 96.5235C127.084 97.0318 126.805 97.6415 126.697 98.2912C126.588 98.9409 126.653 99.6077 126.885 100.224C127.117 100.841 127.507 101.386 128.017 101.804C128.527 102.223 129.139 102.5 129.791 102.607C130.442 102.715 131.11 102.649 131.728 102.417C132.347 102.185 132.892 101.795 133.311 101.286L158.871 94.1732L170.651 83.5281Z" fill="#FFB8B8"/>
<path d="M169.392 85.0554L177.686 75.8328L178.146 69.298C178.232 68.0147 177.956 66.7332 177.35 65.5981C176.744 64.463 175.832 63.5197 174.716 62.8747C173.198 62.0105 171.408 61.7535 169.707 62.1556C168.006 62.5577 166.522 63.589 165.555 65.0409C162.624 69.4466 159.471 75.4033 161.093 78.7617L161.11 78.7958L169.392 85.0554Z" fill="#F5BD00"/>
<path d="M92.9426 119.72L71.3853 108.707C69.8519 107.924 69.344 105.847 70.253 104.076L84.3089 76.7012C85.218 74.9307 87.205 74.1275 88.7384 74.9109L110.296 85.9232C111.829 86.7065 112.337 88.7842 111.428 90.5547L97.3722 117.93C96.4631 119.7 94.476 120.503 92.9426 119.72Z" fill="#E6E6E6"/>
<path d="M89.2593 114.657L74.613 107.175C73.1769 106.442 72.7011 104.496 73.5525 102.838L85.2299 80.0953C86.0813 78.4371 87.9423 77.6851 89.3784 78.4187L107.068 87.4553C108.504 88.189 108.98 90.1347 108.129 91.7929L101.785 104.148C97.9925 111.534 95.6562 117.925 89.2593 114.657Z" fill="#222222"/>
<path d="M96.4998 102.238L83.5271 95.6107C83.3684 95.498 83.2558 95.3321 83.2096 95.1434C83.1635 94.9546 83.1869 94.7556 83.2757 94.5827C83.3645 94.4098 83.5127 94.2745 83.6932 94.2016C83.8737 94.1286 84.0745 94.1229 84.2589 94.1854L97.2316 100.812C97.3902 100.925 97.5029 101.091 97.549 101.28C97.5952 101.468 97.5717 101.667 97.483 101.84C97.3942 102.013 97.246 102.149 97.0655 102.221C96.885 102.294 96.6842 102.3 96.4998 102.238Z" fill="#F5BD00"/>
<path d="M85.0422 99.9392L82.0817 98.4268C81.9231 98.3141 81.8104 98.1482 81.7643 97.9594C81.7182 97.7707 81.7416 97.5717 81.8304 97.3988C81.9192 97.2259 82.0674 97.0906 82.2479 97.0176C82.4284 96.9447 82.6292 96.9389 82.8136 97.0014L85.7741 98.5137C85.9328 98.6265 86.0454 98.7924 86.0916 98.9811C86.1377 99.1699 86.1142 99.3689 86.0255 99.5418C85.9367 99.7147 85.7885 99.85 85.608 99.9229C85.4275 99.9959 85.2267 100.002 85.0422 99.9392Z" fill="#F5BD00"/>
<path d="M88.8403 105.434L80.6364 101.243C80.4778 101.13 80.3651 100.964 80.319 100.776C80.2729 100.587 80.2963 100.388 80.3851 100.215C80.4739 100.042 80.6221 99.9067 80.8026 99.8338C80.9831 99.7608 81.1839 99.7551 81.3683 99.8176L89.5722 104.008C89.7308 104.121 89.8435 104.287 89.8897 104.476C89.9358 104.665 89.9123 104.864 89.8235 105.036C89.7348 105.209 89.5866 105.345 89.4061 105.418C89.2256 105.491 89.0248 105.496 88.8403 105.434Z" fill="#F5BD00"/>
<path d="M101.633 92.2396L88.6599 85.6126C88.5013 85.4999 88.3886 85.334 88.3424 85.1452C88.2963 84.9565 88.3198 84.7575 88.4085 84.5846C88.4973 84.4117 88.6455 84.2764 88.826 84.2035C89.0065 84.1305 89.2073 84.1248 89.3917 84.1873L102.364 90.8142C102.523 90.9269 102.636 91.0928 102.682 91.2816C102.728 91.4703 102.705 91.6693 102.616 91.8422C102.527 92.0151 102.379 92.1504 102.198 92.2234C102.018 92.2963 101.817 92.3021 101.633 92.2396Z" fill="#F5BD00"/>
<path d="M90.177 89.941L87.2165 88.4287C87.0579 88.316 86.9452 88.1501 86.8991 87.9613C86.8529 87.7726 86.8764 87.5736 86.9652 87.4007C87.054 87.2277 87.2022 87.0925 87.3827 87.0195C87.5632 86.9465 87.764 86.9408 87.9484 87.0033L90.9089 88.5156C91.0675 88.6284 91.1802 88.7943 91.2263 88.983C91.2725 89.1717 91.249 89.3707 91.1602 89.5436C91.0714 89.7166 90.9233 89.8519 90.7427 89.9248C90.5622 89.9978 90.3614 90.0035 90.177 89.941Z" fill="#F5BD00"/>
<path d="M93.9731 95.4357L85.7692 91.2448C85.6106 91.1321 85.498 90.9662 85.4518 90.7774C85.4057 90.5887 85.4291 90.3897 85.5179 90.2168C85.6067 90.0438 85.7549 89.9086 85.9354 89.8356C86.1159 89.7626 86.3167 89.7569 86.5011 89.8194L94.705 94.0103C94.8637 94.123 94.9763 94.2889 95.0225 94.4776C95.0686 94.6664 95.0451 94.8654 94.9564 95.0383C94.8676 95.2112 94.7194 95.3465 94.5389 95.4195C94.3584 95.4924 94.1576 95.4982 93.9731 95.4357Z" fill="#F5BD00"/>
<path d="M75.0781 95.8874L70.208 77.8031L83.2222 75.3458L82.5224 87.7587L99.6219 105.321C100.527 105.284 101.424 105.51 102.202 105.973C102.98 106.435 103.607 107.114 104.006 107.925C104.404 108.737 104.557 109.647 104.446 110.544C104.336 111.441 103.965 112.286 103.381 112.977C102.797 113.667 102.024 114.174 101.156 114.434C100.288 114.694 99.3637 114.696 98.4945 114.441C97.6253 114.186 96.8494 113.684 96.2613 112.997C95.6731 112.309 95.2982 111.466 95.1822 110.57L75.0781 95.8874Z" fill="#A0616A"/>
<path d="M68.8764 57.5269C64.4589 61.0054 70.1288 80.4626 70.1288 80.4626C71.0066 79.5017 72.0267 93.7035 73.0997 93.2199C76.1493 91.8455 81.7387 87.1062 83.8935 87.4925C85.1258 87.7135 83.8347 78.0988 83.8347 78.0988C83.8347 78.0988 83.5973 72.5859 83.151 65.4989C83.062 63.493 82.4657 61.5421 81.4176 59.8279C80.3694 58.1136 78.9035 56.6918 77.1562 55.6947C77.1562 55.6947 73.2939 54.0485 68.8764 57.5269Z" fill="#3F3D56"/>
<path d="M142.38 136.027L130.616 130.486C130.364 130.368 130.143 130.195 129.968 129.98C129.793 129.764 129.669 129.512 129.606 129.242C129.542 128.978 129.539 128.703 129.597 128.438C129.655 128.172 129.773 127.923 129.941 127.71C133.348 123.366 135.688 118.286 136.773 112.877C136.855 112.463 137.078 112.09 137.405 111.822C137.732 111.554 138.142 111.407 138.565 111.406C144.565 111.427 149.049 113.612 151.892 117.9C152.042 118.123 152.141 118.376 152.183 118.642C152.225 118.907 152.208 119.178 152.134 119.436C150.488 125.096 147.983 130.472 144.706 135.376C144.462 135.746 144.093 136.017 143.665 136.136C143.237 136.256 142.781 136.217 142.38 136.027Z" fill="#E6E6E6"/>
<path d="M145.839 128.256L136.844 124.019C136.62 123.914 136.448 123.724 136.364 123.492C136.281 123.259 136.293 123.003 136.399 122.78C136.505 122.557 136.695 122.385 136.928 122.301C137.161 122.218 137.417 122.231 137.641 122.336L146.636 126.572C146.747 126.625 146.846 126.698 146.928 126.789C147.011 126.879 147.074 126.985 147.116 127.1C147.157 127.215 147.175 127.337 147.169 127.459C147.163 127.581 147.133 127.701 147.081 127.811C147.029 127.922 146.955 128.021 146.864 128.103C146.774 128.185 146.668 128.249 146.552 128.29C146.437 128.331 146.315 128.35 146.192 128.344C146.07 128.338 145.95 128.308 145.839 128.256Z" fill="#222222"/>
<path d="M147.237 125.304L138.243 121.068C138.019 120.962 137.846 120.772 137.763 120.54C137.679 120.308 137.692 120.052 137.797 119.829C137.903 119.605 138.093 119.433 138.326 119.35C138.559 119.267 138.816 119.279 139.04 119.384L148.034 123.621C148.258 123.726 148.431 123.916 148.514 124.148C148.598 124.381 148.585 124.637 148.48 124.86C148.374 125.083 148.184 125.255 147.951 125.339C147.718 125.422 147.461 125.409 147.237 125.304Z" fill="#222222"/>
<path d="M135.218 32.6514L134.381 32.7429C130.648 18.1103 123.412 7.97297 113.454 3.42668C100.796 -2.35245 85.1437 1.52834 69.3804 14.3543C53.537 27.2458 39.5114 47.6088 29.8876 71.6931L29.0752 71.3223C38.7412 47.1328 52.8388 26.6714 68.771 13.7083C84.7831 0.679587 100.755 -3.22967 113.744 2.70078C123.987 7.37734 131.413 17.7341 135.218 32.6514Z" fill="#F2F2F2"/>
<path d="M42.8461 51.7084C40.6565 56.3093 38.5738 61.0758 36.6559 65.8754C25.6191 93.4955 20.0262 121.703 20.4832 147.45L19.6206 147.358C19.1631 121.515 24.7722 93.2108 35.8435 65.5046C37.7669 60.6914 39.8555 55.9114 42.0514 51.2976L42.8461 51.7084Z" fill="#F2F2F2"/>
<path d="M42.432 70.6866C40.2424 75.2875 38.1598 80.054 36.2418 84.8536C25.2051 112.474 19.6121 140.681 20.0692 166.428L19.2066 166.336C18.7491 140.494 24.3581 112.189 35.4294 84.4827C37.3529 79.6696 39.4414 74.8896 41.6373 70.2758L42.432 70.6866Z" fill="#F2F2F2"/>
<path d="M19.2486 77.5887C20.2022 76.1592 19.6378 74.1128 17.988 73.018C16.3383 71.9232 14.2279 72.1946 13.2744 73.6242C12.3208 75.0537 12.8852 77.1001 14.535 78.1949C16.1847 79.2897 18.2951 79.0183 19.2486 77.5887Z" fill="#CCCCCC"/>
<path d="M222.292 129.215C223.245 127.785 222.681 125.739 221.031 124.644C219.381 123.549 217.271 123.821 216.317 125.25C215.364 126.68 215.928 128.726 217.578 129.821C219.228 130.916 221.338 130.644 222.292 129.215Z" fill="#CCCCCC"/>
</g>
<defs>
<clipPath id="clip0_963_1690">
<rect width="267" height="216" fill="white" transform="translate(0.532227)"/>
</clipPath>
</defs>
</svg>
