<svg width="379" height="329" viewBox="0 0 379 329" fill="none" xmlns="http://www.w3.org/2000/svg">
<g clip-path="url(#clip0_963_1840)">
<path d="M350.482 304.738L360.664 301.509C361.933 296.046 361.849 290.355 360.419 284.932C356.328 294.025 344.327 296.253 337.489 303.511C335.373 305.791 333.798 308.518 332.88 311.489C331.962 314.46 331.725 317.6 332.185 320.676L330.043 327.941C335.046 327.514 339.898 326.007 344.262 323.525C348.627 321.042 352.402 317.644 355.326 313.563C356.944 311.257 358.265 308.757 359.258 306.121C354.916 305.686 350.482 304.738 350.482 304.738Z" fill="#F2F2F2"/>
<path d="M339.601 291.304L347.274 283.874C345.972 278.418 343.359 273.362 339.659 269.146C340.054 279.108 330.306 286.454 327.424 295.999C326.547 298.983 326.354 302.126 326.858 305.194C327.362 308.263 328.55 311.179 330.334 313.727L331.658 321.184C335.945 318.571 339.615 315.06 342.414 310.892C345.214 306.724 347.076 301.999 347.873 297.042C348.293 294.257 348.36 291.43 348.073 288.628C343.992 290.176 339.601 291.304 339.601 291.304Z" fill="#F2F2F2"/>
<path d="M288.594 22.528H1.61536C1.31687 22.5216 1.03275 22.3987 0.823884 22.1854C0.61502 21.9721 0.498047 21.6855 0.498047 21.387C0.498047 21.0886 0.61502 20.802 0.823884 20.5887C1.03275 20.3754 1.31687 20.2524 1.61536 20.2461H288.594C288.892 20.2524 289.176 20.3754 289.385 20.5887C289.594 20.802 289.711 21.0886 289.711 21.387C289.711 21.6855 289.594 21.9721 289.385 22.1854C289.176 22.3987 288.892 22.5216 288.594 22.528Z" fill="#3F3D56"/>
<path d="M21.1511 14.4206C24.8448 14.4206 27.8392 11.3603 27.8392 7.58519C27.8392 3.81009 24.8448 0.749756 21.1511 0.749756C17.4573 0.749756 14.4629 3.81009 14.4629 7.58519C14.4629 11.3603 17.4573 14.4206 21.1511 14.4206Z" fill="#3F3D56"/>
<path d="M44.2565 14.4206C47.9503 14.4206 50.9447 11.3603 50.9447 7.58519C50.9447 3.81009 47.9503 0.749756 44.2565 0.749756C40.5628 0.749756 37.5684 3.81009 37.5684 7.58519C37.5684 11.3603 40.5628 14.4206 44.2565 14.4206Z" fill="#3F3D56"/>
<path d="M67.36 14.4206C71.0538 14.4206 74.0482 11.3603 74.0482 7.58519C74.0482 3.81009 71.0538 0.749756 67.36 0.749756C63.6663 0.749756 60.6719 3.81009 60.6719 7.58519C60.6719 11.3603 63.6663 14.4206 67.36 14.4206Z" fill="#3F3D56"/>
<path d="M274.683 2.44397H258.271C257.946 2.45045 257.636 2.58418 257.408 2.81647C257.18 3.04876 257.053 3.36107 257.053 3.68635C257.053 4.01163 257.18 4.32394 257.408 4.55623C257.636 4.78852 257.946 4.92225 258.271 4.92873H274.683C275.008 4.92225 275.318 4.78852 275.546 4.55623C275.774 4.32394 275.901 4.01163 275.901 3.68635C275.901 3.36107 275.774 3.04876 275.546 2.81647C275.318 2.58418 275.008 2.45045 274.683 2.44397Z" fill="#3F3D56"/>
<path d="M274.683 7.10754H258.271C257.946 7.11398 257.636 7.2477 257.408 7.48C257.18 7.71229 257.053 8.02462 257.053 8.34992C257.053 8.67523 257.18 8.98757 257.408 9.21986C257.636 9.45215 257.946 9.58587 258.271 9.5923H274.683C275.009 9.58587 275.319 9.45215 275.546 9.21986C275.774 8.98757 275.902 8.67523 275.902 8.34992C275.902 8.02462 275.774 7.71229 275.546 7.48C275.319 7.2477 275.009 7.11398 274.683 7.10754Z" fill="#3F3D56"/>
<path d="M274.683 11.7649H258.271C257.946 11.7713 257.636 11.905 257.408 12.1373C257.18 12.3696 257.053 12.682 257.053 13.0073C257.053 13.3326 257.18 13.6449 257.408 13.8772C257.636 14.1095 257.946 14.2432 258.271 14.2497H274.683C275.009 14.2432 275.319 14.1095 275.546 13.8772C275.774 13.6449 275.902 13.3326 275.902 13.0073C275.902 12.682 275.774 12.3696 275.546 12.1373C275.319 11.905 275.009 11.7713 274.683 11.7649Z" fill="#3F3D56"/>
<path d="M22.7315 68.8831C27.2981 68.8831 31.0001 65.1821 31.0001 60.6167C31.0001 56.0512 27.2981 52.3502 22.7315 52.3502C18.1649 52.3502 14.4629 56.0512 14.4629 60.6167C14.4629 65.1821 18.1649 68.8831 22.7315 68.8831Z" fill="#E6E7E8"/>
<path d="M233.292 78.9215H16.9251C16.2721 78.9215 15.6458 78.6621 15.184 78.2005C14.7223 77.7389 14.4629 77.1127 14.4629 76.4599C14.4629 75.807 14.7223 75.1809 15.184 74.7193C15.6458 74.2576 16.2721 73.9983 16.9251 73.9983H233.292C233.945 73.9983 234.572 74.2576 235.033 74.7193C235.495 75.1809 235.754 75.807 235.754 76.4599C235.754 77.1127 235.495 77.7389 235.033 78.2005C234.572 78.6621 233.945 78.9215 233.292 78.9215Z" fill="#E6E7E8"/>
<path d="M176.546 88.6485H16.9252C16.2722 88.6485 15.6459 88.3892 15.1841 87.9275C14.7223 87.4658 14.4629 86.8397 14.4629 86.1868C14.4629 85.5339 14.7223 84.9078 15.1841 84.4461C15.6459 83.9844 16.2722 83.7251 16.9252 83.7251H176.546C177.199 83.7251 177.826 83.9844 178.287 84.4461C178.749 84.9078 179.009 85.5339 179.009 86.1868C179.009 86.8397 178.749 87.4658 178.287 87.9275C177.826 88.3892 177.199 88.6485 176.546 88.6485Z" fill="#E6E7E8"/>
<path d="M22.7315 197.91C27.2981 197.91 31.0001 194.209 31.0001 189.643C31.0001 185.078 27.2981 181.377 22.7315 181.377C18.1649 181.377 14.4629 185.078 14.4629 189.643C14.4629 194.209 18.1649 197.91 22.7315 197.91Z" fill="#E6E7E8"/>
<path d="M233.292 207.948H16.9251C16.6015 207.948 16.2809 207.885 15.9817 207.762C15.6825 207.638 15.4106 207.457 15.1815 207.228C14.9525 207 14.7708 206.728 14.6468 206.429C14.5228 206.13 14.459 205.81 14.459 205.486C14.459 205.163 14.5228 204.842 14.6468 204.543C14.7708 204.245 14.9525 203.973 15.1815 203.744C15.4106 203.516 15.6825 203.334 15.9817 203.211C16.2809 203.088 16.6015 203.024 16.9251 203.025H233.292C233.978 203.063 234.625 203.356 235.106 203.847C235.587 204.337 235.867 204.99 235.891 205.676C235.871 205.996 235.788 206.309 235.646 206.597C235.504 206.885 235.307 207.142 235.065 207.353C234.823 207.564 234.542 207.726 234.238 207.828C233.934 207.93 233.612 207.971 233.292 207.948Z" fill="#E6E7E8"/>
<path d="M176.546 217.675H16.9252C16.2722 217.675 15.6459 217.416 15.1841 216.954C14.7223 216.492 14.4629 215.866 14.4629 215.213C14.4629 214.56 14.7223 213.934 15.1841 213.473C15.6459 213.011 16.2722 212.752 16.9252 212.752H176.546C177.199 212.752 177.826 213.011 178.287 213.473C178.749 213.934 179.009 214.56 179.009 215.213C179.009 215.866 178.749 216.492 178.287 216.954C177.826 217.416 177.199 217.675 176.546 217.675Z" fill="#E6E7E8"/>
<path d="M22.7315 128.533C27.2981 128.533 31.0001 124.832 31.0001 120.266C31.0001 115.701 27.2981 112 22.7315 112C18.1649 112 14.4629 115.701 14.4629 120.266C14.4629 124.832 18.1649 128.533 22.7315 128.533Z" fill="#E6E7E8"/>
<path d="M233.292 138.571H16.9251C16.2721 138.571 15.6458 138.312 15.184 137.85C14.7223 137.389 14.4629 136.763 14.4629 136.11C14.4629 135.457 14.7223 134.831 15.184 134.369C15.6458 133.908 16.2721 133.648 16.9251 133.648H233.292C233.945 133.648 234.572 133.908 235.033 134.369C235.495 134.831 235.754 135.457 235.754 136.11C235.754 136.763 235.495 137.389 235.033 137.85C234.572 138.312 233.945 138.571 233.292 138.571Z" fill="#E6E7E8"/>
<path d="M203.162 148.298H16.9252C16.2722 148.298 15.6459 148.039 15.1841 147.577C14.7223 147.115 14.4629 146.489 14.4629 145.836C14.4629 145.184 14.7223 144.557 15.1841 144.096C15.6459 143.634 16.2722 143.375 16.9252 143.375H203.162C203.815 143.375 204.441 143.634 204.903 144.096C205.365 144.557 205.624 145.184 205.624 145.836C205.624 146.489 205.365 147.115 204.903 147.577C204.441 148.039 203.815 148.298 203.162 148.298Z" fill="#E6E7E8"/>
<path d="M190.521 158.025H16.9252C16.2722 158.025 15.6459 157.766 15.1841 157.304C14.7223 156.842 14.4629 156.216 14.4629 155.563C14.4629 154.911 14.7223 154.284 15.1841 153.823C15.6459 153.361 16.2722 153.102 16.9252 153.102H190.521C191.174 153.102 191.801 153.361 192.262 153.823C192.724 154.284 192.984 154.911 192.984 155.563C192.984 156.216 192.724 156.842 192.262 157.304C191.801 157.766 191.174 158.025 190.521 158.025Z" fill="#E6E7E8"/>
<path d="M194.114 266.852C227.932 266.852 255.347 239.444 255.347 205.634C255.347 171.825 227.932 144.417 194.114 144.417C160.296 144.417 132.881 171.825 132.881 205.634C132.881 239.444 160.296 266.852 194.114 266.852Z" fill="#F5BD00"/>
<path d="M194.029 226.993C198.86 226.993 202.776 223.078 202.776 218.248C202.776 213.418 198.86 209.502 194.029 209.502C189.198 209.502 185.281 213.418 185.281 218.248C185.281 223.078 189.198 226.993 194.029 226.993Z" fill="#3F3D56"/>
<path d="M194.03 222.284C196.259 222.284 198.067 220.477 198.067 218.248C198.067 216.019 196.259 214.212 194.03 214.212C191.8 214.212 189.992 216.019 189.992 218.248C189.992 220.477 191.8 222.284 194.03 222.284Z" fill="#F5BD00"/>
<path d="M210.267 237.715H177.959C174.76 237.712 171.693 236.44 169.431 234.178C167.169 231.917 165.896 228.851 165.893 225.653V210.843C165.896 207.645 167.169 204.579 169.431 202.317C171.693 200.056 174.76 198.784 177.959 198.78H210.267C213.466 198.784 216.533 200.056 218.795 202.317C221.057 204.579 222.329 207.645 222.333 210.843V225.653C222.329 228.851 221.057 231.917 218.795 234.178C216.533 236.44 213.466 237.712 210.267 237.715ZM177.959 200.043C175.095 200.046 172.349 201.185 170.324 203.21C168.298 205.235 167.159 207.98 167.156 210.843V225.653C167.159 228.516 168.299 231.261 170.324 233.286C172.349 235.31 175.095 236.449 177.959 236.452H210.267C213.131 236.449 215.877 235.31 217.902 233.286C219.927 231.261 221.066 228.516 221.07 225.653V210.843C221.066 207.98 219.927 205.235 217.902 203.21C215.877 201.185 213.131 200.046 210.267 200.043L177.959 200.043Z" fill="#222222"/>
<path d="M176.047 229.676H204.723C206.211 229.676 207.685 229.383 209.06 228.814C210.436 228.244 211.685 227.41 212.738 226.358C213.79 225.305 214.625 224.056 215.195 222.681C215.764 221.307 216.057 219.833 216.057 218.345V205.952C216.055 204.578 215.802 203.215 215.31 201.932C216.709 202.985 217.844 204.349 218.626 205.916C219.407 207.482 219.814 209.209 219.814 210.96V223.353C219.814 224.841 219.521 226.315 218.952 227.689C218.382 229.064 217.547 230.313 216.495 231.366C215.442 232.418 214.193 233.252 212.817 233.822C211.442 234.391 209.968 234.684 208.48 234.684H179.803C177.505 234.683 175.262 233.983 173.371 232.677C171.48 231.371 170.031 229.521 169.217 227.373C171.18 228.868 173.579 229.677 176.047 229.676Z" fill="#3F3D56"/>
<path d="M263.861 320.651L256.815 320.65L253.463 293.477L263.863 293.478L263.861 320.651Z" fill="#A0616A"/>
<path d="M264.111 328L242.441 327.999V327.725C242.442 325.489 243.33 323.344 244.912 321.763C246.494 320.182 248.639 319.293 250.876 319.293L254.834 316.291L262.219 319.294L264.111 319.294L264.111 328Z" fill="#2C2A4E"/>
<path d="M313.722 320.651L320.769 320.65L324.121 293.477L313.721 293.478L313.722 320.651Z" fill="#A0616A"/>
<path d="M313.475 328L335.144 327.999V327.725C335.144 325.489 334.255 323.344 332.674 321.763C331.092 320.182 328.947 319.293 326.71 319.293L322.751 316.291L315.366 319.294L313.475 319.294L313.475 328Z" fill="#2C2A4E"/>
<path d="M253.154 273.509C253.258 271.959 254.086 263.384 254.086 263.384L256.068 245.199L259.561 196.995L259.789 193.839L278.088 190.327L290.594 184.333L305.459 189.084L317.033 193.423C317.033 193.423 317.053 195.281 317.142 197.525C317.261 200.462 317.469 204.064 317.965 205C318.792 206.655 318.584 215.537 318.584 215.537C318.584 215.537 319.407 233.607 320.442 235.589C321.478 237.57 321.686 241.697 321.374 242.524C321.062 243.351 322.41 265.053 322.41 265.053C322.41 265.053 325.869 303.458 323.698 309.249C321.528 315.04 313.327 311.246 313.327 311.246C313.327 311.246 313.723 309.701 311.345 308.973C308.967 308.244 301.723 253.789 301.723 253.789C301.723 253.789 300.375 242.623 299.136 239.423C297.897 236.223 296.758 227.232 296.758 227.232C296.758 227.232 289.107 212.351 289.008 209.042C289.008 209.042 288.007 205.946 287.061 209.354C286.115 212.762 283.325 220.926 283.325 220.926L280.605 230.952L277.404 245.932L275.333 258.544C275.333 258.544 272.231 275.283 271.735 276.006C271.24 276.729 271.735 292.021 271.735 292.021C271.735 292.021 269.337 305.044 265.948 307.318C262.559 309.592 253.579 307.354 253.579 307.354C253.579 307.354 253.05 275.06 253.154 273.509Z" fill="#2C2A4E"/>
<path d="M260.961 149.875L265.029 162.126L260.009 168.1L262.22 170.374L260.589 173.588L256.338 207.283L279.646 216.121L287.495 206.282L293.684 216.121L320.653 209.532L313.775 166.564V163.755L311.834 158.331V146.848L316.962 112.668L301.656 107.308L294.337 101.518L291.969 109.661L281.886 107.868L281.623 101.75L273.908 109.037L267.412 110.89L259.633 112.668L258.642 115.145L260.623 114.65L260.302 146.873L260.961 149.875Z" fill="#2C2A4E"/>
<path d="M253.993 194.698L257.908 156.817L258.941 141.227L247.984 139.246C247.984 139.246 248.419 150.394 246.983 156.683C245.567 162.89 246.795 193.867 246.883 194.695C246.078 195.414 245.511 196.361 245.256 197.409C245.001 198.458 245.071 199.559 245.456 200.568C245.841 201.576 246.523 202.444 247.412 203.056C248.3 203.668 249.354 203.996 250.434 203.997C251.513 203.997 252.567 203.67 253.457 203.059C254.346 202.447 255.029 201.58 255.415 200.572C255.801 199.565 255.871 198.463 255.617 197.414C255.364 196.365 254.797 195.418 253.993 194.698Z" fill="#A0616A"/>
<path d="M243.307 164.667L246.354 165.296L256.809 167.461L257.388 167.579L258.622 162.675L260.054 161.15L262.779 146.873L262.923 146.13L267.041 137.332L269.89 110.89L259.296 112.792C259.241 112.846 259.192 112.906 259.142 112.965C257.621 114.689 256.536 117.087 254.762 119.499C248.99 127.351 244.56 146.427 244.734 156.88C244.739 157.048 244.565 157.231 244.357 157.42C243.375 158.322 242.734 159.536 242.542 160.856C242.351 162.177 242.621 163.522 243.307 164.667Z" fill="#2C2A4E"/>
<path d="M322.104 194.698L318.189 156.817L317.156 141.227L328.113 139.246C328.113 139.246 327.679 150.394 329.114 156.683C330.531 162.89 329.302 193.867 329.215 194.695C330.019 195.414 330.586 196.361 330.841 197.409C331.096 198.458 331.026 199.559 330.642 200.568C330.257 201.576 329.575 202.444 328.686 203.056C327.797 203.668 326.743 203.996 325.664 203.997C324.584 203.997 323.53 203.67 322.641 203.059C321.751 202.447 321.068 201.58 320.683 200.572C320.297 199.565 320.226 198.463 320.48 197.414C320.734 196.365 321.3 195.418 322.104 194.698Z" fill="#A0616A"/>
<path d="M332.793 164.667L329.746 165.296L319.291 167.461L318.711 167.58L317.477 162.675L316.045 161.15L313.32 146.873L313.176 146.13L309.059 137.332L310 110.89L316.803 112.792C316.858 112.846 316.908 112.906 316.957 112.965C318.478 114.689 319.563 117.087 321.337 119.499C327.11 127.351 331.539 146.427 331.366 156.88C331.361 157.048 331.534 157.231 331.742 157.42C332.725 158.322 333.366 159.536 333.557 160.856C333.748 162.177 333.478 163.522 332.793 164.667Z" fill="#2C2A4E"/>
<path d="M276.645 114.802L281.623 101.75L294.337 101.517L298.556 114.802L313.721 199.494C313.721 199.494 267.263 212.428 267.734 196.881C268.23 180.533 270.465 158.819 270.465 158.819L276.645 114.802Z" fill="#F5BD00"/>
<path d="M287.696 98.0996C295.968 98.0996 302.674 91.3956 302.674 83.1258C302.674 74.856 295.968 68.152 287.696 68.152C279.424 68.152 272.719 74.856 272.719 83.1258C272.719 91.3956 279.424 98.0996 287.696 98.0996Z" fill="#A0616A"/>
<path d="M271.835 72.2633C274.273 69.6099 277.323 64.753 286.561 62.7135C297.976 60.1933 303.37 70.5026 300.492 70.6716C308.909 73.22 303.502 90.635 301.089 89.1744C301.068 89.16 301.048 89.1445 301.029 89.1279C299.731 88.1724 298.642 86.9624 297.828 85.5718C297.013 84.1812 296.491 82.6392 296.293 81.04L295.835 76.919C295.77 80.272 292.342 80.7155 288.84 79.4806C289.047 78.7455 289.442 78.077 289.986 77.5412C290.53 77.0054 291.205 76.6207 291.944 76.4251C289.502 78.6377 286.401 79.9867 283.118 80.2643C283.29 79.4248 283.64 78.6318 284.143 77.9385C284.647 77.2453 285.294 76.6679 286.039 76.2451L285.901 76.1093C284.534 77.2623 282.963 78.1511 281.271 78.7304C279.34 79.2836 277.027 78.9844 275.705 77.4736C275.348 77.0566 275.079 76.5726 274.913 76.05C275.199 78.7055 273.418 81.7367 272.034 81.2162C270.883 80.9926 270.212 74.0296 271.835 72.2633Z" fill="#2C2A4E"/>
<path d="M378.501 327.998C378.501 328.097 378.482 328.195 378.444 328.286C378.407 328.377 378.351 328.46 378.281 328.53C378.212 328.6 378.129 328.655 378.037 328.693C377.946 328.731 377.848 328.75 377.749 328.75H200.689C200.49 328.75 200.299 328.671 200.158 328.53C200.017 328.389 199.938 328.198 199.938 327.998C199.938 327.799 200.017 327.608 200.158 327.467C200.299 327.326 200.49 327.247 200.689 327.247H377.749C377.848 327.246 377.946 327.266 378.037 327.303C378.129 327.341 378.212 327.396 378.281 327.466C378.351 327.536 378.407 327.619 378.444 327.71C378.482 327.802 378.501 327.899 378.501 327.998Z" fill="#CCCCCC"/>
<path d="M194.611 172.442C188.622 172.442 183.358 175.152 180.377 179.221C183.563 176.903 187.411 175.668 191.351 175.701C200.626 175.701 208.171 182.196 208.171 190.179V196.815H211.431V186.92C211.431 178.937 203.886 172.442 194.611 172.442Z" fill="#3F3D56"/>
<path d="M213.67 200.211H174.557V188.706C174.557 179.424 183.33 171.872 194.114 171.872C204.897 171.872 213.67 179.424 213.67 188.706V200.211ZM175.82 198.948H212.407V188.706C212.407 180.12 204.201 173.135 194.114 173.135C184.026 173.135 175.82 180.12 175.82 188.706V198.948Z" fill="#222222"/>
<path d="M204.131 195.819H184.097C183.195 195.818 182.331 195.459 181.694 194.822C181.057 194.185 180.698 193.321 180.697 192.42V187.841C180.697 181.458 186.716 176.264 194.114 176.264C201.512 176.264 207.53 181.458 207.53 187.841V192.42C207.529 193.321 207.171 194.185 206.534 194.822C205.896 195.459 205.032 195.818 204.131 195.819ZM194.114 177.527C187.413 177.527 181.961 182.154 181.961 187.841V192.42C181.961 192.986 182.186 193.529 182.587 193.93C182.987 194.33 183.53 194.555 184.097 194.556H204.131C204.697 194.555 205.24 194.33 205.641 193.93C206.041 193.529 206.266 192.986 206.267 192.42V187.841C206.267 182.154 200.815 177.527 194.114 177.527Z" fill="#222222"/>
</g>
<defs>
<clipPath id="clip0_963_1840">
<rect width="378" height="328" fill="white" transform="translate(0.5 0.749756)"/>
</clipPath>
</defs>
</svg>
