<svg width="444" height="408" viewBox="0 0 444 408" fill="none" xmlns="http://www.w3.org/2000/svg">
<path d="M224.805 337.732C294.178 337.732 350.415 281.532 350.415 212.205C350.415 142.878 294.178 86.6775 224.805 86.6775C155.433 86.6775 99.1953 142.878 99.1953 212.205C99.1953 281.532 155.433 337.732 224.805 337.732Z" fill="url(#paint0_linear_101_59)"/>
<path d="M350.415 212.205C350.415 281.531 294.178 337.732 224.806 337.732C155.433 337.732 99.1953 281.531 99.1953 212.205C99.1953 142.877 155.433 86.677 224.806 86.677C294.178 86.677 350.415 142.877 350.415 212.205ZM104.775 212.205C104.775 278.451 158.514 332.156 224.806 332.156C291.096 332.156 344.835 278.451 344.835 212.205C344.835 145.957 291.096 92.253 224.806 92.253C158.514 92.253 104.775 145.957 104.775 212.205Z" fill="url(#paint1_linear_101_59)"/>
<mask id="mask0_101_59" style="mask-type:luminance" maskUnits="userSpaceOnUse" x="97" y="85" width="255" height="255">
<path d="M350.415 212.205C350.415 281.532 294.178 337.732 224.806 337.732C155.433 337.732 99.1953 281.532 99.1953 212.205C99.1953 142.878 155.433 86.6772 224.806 86.6772C294.178 86.6772 350.415 142.878 350.415 212.205ZM104.775 212.205C104.775 278.452 158.514 332.156 224.806 332.156C291.096 332.156 344.835 278.452 344.835 212.205C344.835 145.957 291.096 92.2533 224.806 92.2533C158.514 92.2533 104.775 145.957 104.775 212.205Z" stroke="url(#paint2_linear_101_59)" stroke-width="2.90708"/>
</mask>
<g mask="url(#mask0_101_59)">
<path d="M350.415 212.205C350.415 281.532 294.178 337.732 224.806 337.732C155.433 337.732 99.1953 281.532 99.1953 212.205C99.1953 142.878 155.433 86.6772 224.806 86.6772C294.178 86.6772 350.415 142.878 350.415 212.205ZM104.775 212.205C104.775 278.452 158.514 332.156 224.806 332.156C291.096 332.156 344.835 278.452 344.835 212.205C344.835 145.957 291.096 92.2533 224.806 92.2533C158.514 92.2533 104.775 145.957 104.775 212.205Z" stroke="url(#paint3_linear_101_59)" stroke-width="2.90708"/>
</g>
<g filter="url(#filter0_dd_101_59)">
<path d="M176.615 251.273L213.501 166.949H241.467L278.352 251.273H248.94L221.697 180.442H232.788L205.545 251.273H176.615ZM198.554 236.577L205.786 216.098H244.601L251.833 236.577H198.554Z" fill="url(#paint4_linear_101_59)"/>
<path d="M156.881 232.356V184.545H170.14L189.278 215.759H182.306L200.897 184.545H214.156L214.294 232.356H199.598L199.462 206.675H201.785L189.072 228.053H181.964L168.705 206.675H171.576V232.356H156.881Z" fill="url(#paint5_linear_101_59)"/>
<path d="M245.356 232.357V184.545H270.918C277.524 184.545 282.401 185.729 285.545 188.096C288.688 190.419 290.261 193.401 290.261 197.045C290.261 199.458 289.577 201.62 288.21 203.533C286.888 205.4 284.952 206.88 282.401 207.973C279.849 209.066 276.705 209.612 272.968 209.612L274.336 205.923C278.071 205.923 281.284 206.447 283.972 207.495C286.707 208.542 288.802 210.067 290.261 212.071C291.764 214.029 292.516 216.397 292.516 219.175C292.516 223.319 290.785 226.552 287.321 228.874C283.904 231.196 278.892 232.357 272.285 232.357H245.356ZM261.213 221.087H270.918C272.695 221.087 274.017 220.769 274.882 220.131C275.793 219.494 276.249 218.56 276.249 217.33C276.249 216.101 275.793 215.167 274.882 214.53C274.017 213.892 272.695 213.574 270.918 213.574H260.119V202.918H268.731C270.554 202.918 271.875 202.622 272.695 202.031C273.561 201.393 273.994 200.505 273.994 199.367C273.994 198.183 273.561 197.295 272.695 196.703C271.875 196.111 270.554 195.815 268.731 195.815H261.213V221.087Z" fill="url(#paint6_linear_101_59)"/>
</g>
<g filter="url(#filter1_d_101_59)">
<path d="M157 232.2V184.388H170.259L189.397 215.603H182.425L201.016 184.388H214.276L214.412 232.2H199.718L199.581 206.518H201.904L189.192 227.897H182.084L168.824 206.518H171.695V232.2H157Z" fill="url(#paint7_linear_101_59)"/>
<path d="M245.475 232.2V184.388H271.037C277.644 184.388 282.519 185.572 285.663 187.94C288.807 190.262 290.379 193.245 290.379 196.887C290.379 199.301 289.695 201.464 288.329 203.376C287.007 205.243 285.071 206.723 282.519 207.816C279.967 208.909 276.824 209.456 273.087 209.456L274.454 205.767C278.191 205.767 281.402 206.29 284.091 207.337C286.825 208.385 288.921 209.911 290.379 211.914C291.883 213.872 292.635 216.24 292.635 219.017C292.635 223.161 290.903 226.394 287.44 228.717C284.023 231.039 279.01 232.2 272.404 232.2H245.475ZM261.331 220.93H271.037C272.814 220.93 274.135 220.611 275.001 219.974C275.912 219.336 276.368 218.403 276.368 217.173C276.368 215.944 275.912 215.011 275.001 214.373C274.135 213.736 272.814 213.417 271.037 213.417H260.238V202.762H268.85C270.672 202.762 271.993 202.465 272.814 201.873C273.68 201.236 274.113 200.348 274.113 199.21C274.113 198.026 273.68 197.138 272.814 196.546C271.993 195.954 270.672 195.658 268.85 195.658H261.331V220.93Z" fill="url(#paint8_linear_101_59)"/>
</g>
<g filter="url(#filter2_dd_101_59)">
<path d="M133.426 191.238L118.236 175.755L119.9 171.544L141.587 170.58L139.82 175.053L120.884 175.37L121.55 173.686L135.152 186.869L133.426 191.238ZM131.098 185.574L128.306 183.165L132.049 173.691L135.745 173.811L131.098 185.574Z" fill="url(#paint9_linear_101_59)"/>
<path d="M141.952 170.354L125.521 159.282L127.643 156.138L146.01 154.423L144.982 155.948L133.151 147.975L135.684 144.222L152.115 155.295L150.01 158.415L131.626 160.153L132.655 158.628L144.485 166.602L141.952 170.354Z" fill="url(#paint10_linear_101_59)"/>
<path d="M157.07 150.366L145.72 138.982L141.228 143.455L138.59 140.81L150.824 128.628L153.462 131.274L148.969 135.747L160.319 147.131L157.07 150.366Z" fill="url(#paint11_linear_101_59)"/>
<path d="M162.3 130.1L170.132 124.655L172.169 127.581L164.337 133.026L162.3 130.1ZM167.235 136.595L176.089 130.439L178.191 133.458L165.595 142.216L154.277 125.958L166.572 117.411L168.673 120.43L160.121 126.376L167.235 136.595Z" fill="url(#paint12_linear_101_59)"/>
<path d="M180.608 132.51L171.639 114.85L175.728 112.775L184.698 130.435L180.608 132.51Z" fill="url(#paint13_linear_101_59)"/>
<path d="M187.95 128.78L181.301 110.124L185.621 108.586L191.017 123.724L200.378 120.392L201.632 123.91L187.95 128.78Z" fill="url(#paint14_linear_101_59)"/>
<path d="M208.805 122.061L207.678 102.288L211.465 102.072L220.684 115.547L218.677 115.661L226.164 101.236L229.923 101.021L231.107 120.791L226.81 121.036L226.03 107.846L226.821 107.801L220.84 119.279L218.777 119.396L211.388 108.68L212.349 108.625L213.101 121.816L208.805 122.061Z" fill="url(#paint15_linear_101_59)"/>
<path d="M231.217 120.833L243.444 102.92L247.901 103.727L253.085 124.794L248.349 123.937L244.339 105.44L246.122 105.763L235.842 121.67L231.217 120.833ZM236.32 117.444L238.139 114.237L248.168 116.054L248.773 119.7L236.32 117.444Z" fill="url(#paint16_linear_101_59)"/>
<path d="M254.068 125.772L260.486 107.034L264.825 108.519L258.408 127.256L254.068 125.772Z" fill="url(#paint17_linear_101_59)"/>
<path d="M261.68 128.125L270.956 110.623L274.308 112.398L277.962 130.469L276.336 129.608L283.015 117.007L287.018 119.126L277.741 136.627L274.414 134.866L270.736 116.782L272.361 117.643L265.682 130.244L261.68 128.125Z" fill="url(#paint18_linear_101_59)"/>
<path d="M278.199 136.871L292.267 133.3L290.129 135.866L291.166 121.89L295.169 125.222L294.406 134.934L292.713 133.561L302.086 130.98L305.915 134.167L292.518 137.597L294.619 135.075L293.6 149.692L289.533 146.306L290.433 136.119L292.043 137.459L282.246 140.239L278.199 136.871Z" fill="url(#paint19_linear_101_59)"/>
<path d="M298.217 155.147L314.526 143.896L320.027 151.859C321.442 153.908 322.115 155.713 322.046 157.273C321.988 158.849 321.322 160.076 320.048 160.954C319.194 161.543 318.303 161.848 317.377 161.869C316.466 161.878 315.588 161.636 314.743 161.142C313.897 160.648 313.147 159.928 312.493 158.981L313.753 158.764C314.462 159.789 314.918 160.815 315.123 161.843C315.344 162.859 315.278 163.81 314.925 164.695C314.584 165.594 313.94 166.372 312.992 167.025C311.594 167.99 310.119 168.194 308.566 167.639C307.027 167.072 305.519 165.718 304.039 163.575L298.217 155.147ZM303.649 156.935L306.688 161.335C307.364 162.313 308.029 162.943 308.682 163.226C309.362 163.513 310.052 163.416 310.751 162.933C311.434 162.462 311.762 161.857 311.735 161.12C311.733 160.388 311.394 159.533 310.719 158.555L307.486 153.875L310.235 151.978L313.018 156.006C313.65 156.922 314.288 157.513 314.932 157.78C315.601 158.052 316.261 157.963 316.914 157.513C317.551 157.073 317.853 156.498 317.821 155.787C317.815 155.081 317.495 154.27 316.862 153.354L314.273 149.605L303.649 156.935Z" fill="url(#paint20_linear_101_59)"/>
<path d="M309.158 172.281L326.959 163.574L328.975 167.691L311.174 176.398L309.158 172.281Z" fill="url(#paint21_linear_101_59)"/>
<path d="M314.111 183.574L329.356 178.459L327.337 172.451L330.88 171.263L336.376 187.624L332.834 188.813L330.815 182.805L315.571 187.919L314.111 183.574Z" fill="url(#paint22_linear_101_59)"/>
</g>
<g filter="url(#filter3_dd_101_59)">
<path d="M142.948 259.661L139.453 257.166L140.116 256.846L139.911 261.12L137.218 260.877L137.585 256.807L137.986 257.055L134.464 258.81L133.311 256.412L136.869 254.734L136.811 255.201L133.402 252.947L134.905 250.717L138.374 253.226L137.711 253.545L137.941 249.258L140.622 249.477L140.23 253.558L139.854 253.299L143.389 251.569L144.542 253.966L140.971 255.619L141.003 255.164L144.439 257.407L142.948 259.661Z" fill="url(#paint23_linear_101_59)"/>
</g>
<g filter="url(#filter4_dd_101_59)">
<path d="M153.518 274.806L149.599 273.05L150.186 272.606L150.831 276.836L148.142 277.13L147.696 273.069L148.138 273.231L145.034 275.649L143.428 273.528L146.584 271.178L146.62 271.647L142.832 270.112L143.864 267.63L147.761 269.402L147.174 269.846L146.551 265.599L149.223 265.283L149.646 269.361L149.227 269.181L152.348 266.786L153.954 268.908L150.78 271.235L150.722 270.782L154.533 272.301L153.518 274.806Z" fill="url(#paint24_linear_101_59)"/>
</g>
<g filter="url(#filter5_dd_101_59)">
<path d="M166.43 287.168L162.244 286.205L162.734 285.657L164.188 289.681L161.607 290.49L160.381 286.593L160.847 286.667L158.27 289.639L156.284 287.87L158.924 284.954L159.05 285.407L155.035 284.635L155.566 282L159.733 282.983L159.243 283.532L157.808 279.487L160.367 278.658L161.574 282.577L161.128 282.482L163.726 279.528L165.712 281.298L163.051 284.196L162.906 283.763L166.939 284.514L166.43 287.168Z" fill="url(#paint25_linear_101_59)"/>
</g>
<g filter="url(#filter6_dd_101_59)">
<path d="M175.444 312.778L182.22 298.204L176.469 295.534L178.043 292.146L193.705 299.419L192.131 302.806L186.379 300.135L179.603 314.709L175.444 312.778Z" fill="url(#paint26_linear_101_59)"/>
</g>
<g filter="url(#filter7_dd_101_59)">
<path d="M199.13 321.572C197.604 321.219 196.245 320.642 195.055 319.845C193.883 319.051 192.923 318.092 192.175 316.971C191.446 315.854 190.956 314.627 190.704 313.291C190.47 311.959 190.519 310.576 190.851 309.143C191.183 307.71 191.747 306.446 192.543 305.353C193.357 304.263 194.347 303.379 195.511 302.7C196.676 302.02 197.96 301.582 199.362 301.384C200.764 301.186 202.219 301.261 203.726 301.609C205.252 301.962 206.592 302.534 207.747 303.323C208.919 304.117 209.869 305.074 210.599 306.191C211.346 307.312 211.846 308.541 212.098 309.877C212.355 311.196 212.315 312.58 211.978 314.032C211.647 315.466 211.071 316.736 210.252 317.843C209.438 318.933 208.449 319.817 207.284 320.496C206.142 321.161 204.87 321.593 203.468 321.791C202.084 321.993 200.638 321.92 199.13 321.572ZM199.984 317.762C200.848 317.962 201.672 317.998 202.458 317.869C203.262 317.746 204.003 317.472 204.682 317.048C205.362 316.625 205.936 316.071 206.405 315.385C206.892 314.704 207.242 313.904 207.455 312.985C207.668 312.067 207.705 311.194 207.567 310.368C207.447 309.547 207.175 308.797 206.752 308.118C206.347 307.443 205.81 306.874 205.143 306.41C204.475 305.946 203.71 305.613 202.845 305.413C201.981 305.214 201.147 305.175 200.344 305.299C199.558 305.427 198.826 305.703 198.146 306.126C197.467 306.55 196.883 307.102 196.397 307.783C195.927 308.469 195.587 309.271 195.374 310.189C195.165 311.09 195.119 311.96 195.234 312.8C195.372 313.625 195.644 314.376 196.05 315.05C196.474 315.73 197.019 316.301 197.686 316.766C198.354 317.23 199.12 317.561 199.984 317.762Z" fill="url(#paint27_linear_101_59)"/>
</g>
<g filter="url(#filter8_dd_101_59)">
<path d="M219.69 319.573L219.447 314.282L228.955 304.316L234.051 304.327L225.48 313.503L222.925 316.214L219.69 319.573ZM215.574 324.09L215.62 304.285L220.178 304.296L220.132 324.101L215.574 324.09ZM229.136 324.121L222.106 315.476L225.114 312.229L234.487 324.133L229.136 324.121Z" fill="url(#paint28_linear_101_59)"/>
</g>
<g filter="url(#filter9_dd_101_59)">
<path d="M240.07 311.024L249.425 309.147L250.127 312.642L240.772 314.519L240.07 311.024ZM242.008 318.946L252.584 316.825L253.308 320.43L238.263 323.448L234.363 304.03L249.048 301.086L249.772 304.691L239.557 306.741L242.008 318.946Z" fill="url(#paint29_linear_101_59)"/>
</g>
<g filter="url(#filter10_dd_101_59)">
<path d="M259.242 318.736L251.348 300.57L254.828 299.059L271.236 307.484L269.548 308.217L263.865 295.137L268.02 293.334L275.913 311.5L272.459 312.999L256.025 304.586L257.713 303.853L263.397 316.933L259.242 318.736Z" fill="url(#paint30_linear_101_59)"/>
</g>
<g filter="url(#filter11_dd_101_59)">
<path d="M290.516 279.299L289.105 283.354L288.612 282.808L292.772 281.798L293.299 284.449L289.289 285.246L289.412 284.792L292.092 287.673L290.116 289.456L287.5 286.517L287.965 286.441L286.763 290.346L284.198 289.534L285.627 285.5L286.121 286.046L281.941 287.034L281.395 284.403L285.422 283.626L285.28 284.06L282.622 281.16L284.598 279.378L287.192 282.335L286.746 282.432L287.93 278.506L290.516 279.299Z" fill="url(#paint31_linear_101_59)"/>
</g>
<g filter="url(#filter12_dd_101_59)">
<path d="M301.904 265.119L301.316 269.371L300.725 268.932L304.608 267.127L305.643 269.625L301.866 271.191L301.899 270.721L305.09 273.023L303.502 275.157L300.362 272.786L300.802 272.62L300.388 276.685L297.714 276.391L298.326 272.155L298.917 272.594L295.011 274.381L293.959 271.907L297.758 270.359L297.703 270.811L294.528 268.487L296.117 266.353L299.241 268.745L298.822 268.928L299.214 264.846L301.904 265.119Z" fill="url(#paint32_linear_101_59)"/>
</g>
<g filter="url(#filter13_dd_101_59)">
<path d="M310.197 249.275L310.437 253.56L309.773 253.243L313.237 250.727L314.733 252.978L311.328 255.24L311.27 254.773L314.844 256.418L313.697 258.818L310.158 257.096L310.56 256.849L310.936 260.917L308.256 261.142L308.04 256.868L308.704 257.185L305.215 259.69L303.707 257.464L307.136 255.213L307.17 255.668L303.607 253.998L304.755 251.599L308.282 253.345L307.906 253.606L307.505 249.525L310.197 249.275Z" fill="url(#paint33_linear_101_59)"/>
</g>
<path d="M295.578 407.25C283.272 373.601 256.026 352.826 224.324 352.826C223.996 352.826 223.673 352.828 223.343 352.832C192.079 353.254 165.751 374.099 154.637 407.23L153.222 406.756C168.002 362.694 172.236 343.203 171.577 340.196C170.613 341.058 166.722 346.201 154.623 376.857L153.236 376.31C162.941 351.712 164.682 334.894 157.891 331.327C150.587 327.492 131.438 340.142 106.67 376.999L105.43 376.167C132.517 335.859 138.691 317.896 136.219 316.041C135.787 315.721 131.358 313.782 106.625 343.416L105.478 342.461C120.157 324.876 126.434 311.862 122.273 307.646C114.588 299.842 80.0797 320.308 51.5226 343.518L50.5812 342.359C88.461 311.575 100.419 289.335 95.4968 281.7C91.2852 275.168 74.7935 278.231 51.3833 289.902L50.7185 288.565C83.0533 272.443 87.6947 267.919 88.3575 266.92C85.571 266.421 67.1904 271.96 25.7898 289.918L25.1947 288.549C60.2462 273.345 73.7684 266.275 77.1042 263.901C72.8469 264.595 57.6349 269.597 25.7659 282.162L25.2186 280.775C59.474 267.27 67.5885 262.693 69.5032 261.248C65.5623 261.459 47.8664 265.893 1.47403 282.172L0.982422 280.765C39.72 267.171 62.8754 244.714 59.9755 223.553C57.4319 204.987 35.4528 192.57 1.18145 190.335L1.27898 188.846C12.0068 189.546 21.4409 190.142 29.6172 190.641C28.2697 190.542 26.8785 190.438 25.4395 190.335L25.5489 188.846C54.0742 190.932 73.3803 183.643 77.2216 169.339C81.3257 154.045 66.8222 129.576 25.1708 109.384L25.8216 108.039C69.6604 129.293 88.5505 135.008 90.1747 133.593C90.1687 133.286 89.4144 129.377 54.2414 109.36L54.9798 108.063C76.5191 120.323 91.9022 123.346 97.1706 116.354C104.449 106.711 91.9878 77.5013 54.0882 40.3341L55.1331 39.2693C89.2093 72.6887 111.069 86.5374 115.05 82.9608C117.683 80.5883 112.94 67.9816 90.9051 40.2664L92.0754 39.3369C119.924 74.3626 125.015 72.3066 125.497 71.9503C128.341 69.9142 121.455 48.9522 90.8653 1.38351L92.1192 0.575439C121.763 46.6732 154.723 60.295 172.791 53.4284C183.127 49.5035 189.281 39.2892 190.74 24.3598C190.425 22.5207 190.097 20.5901 189.752 18.5759L191.07 18.353C191.148 13.0687 190.714 7.29675 189.752 1.0969L191.225 0.868017C193.612 16.2233 195.355 27.809 196.615 36.5505C204.292 53.8066 218.087 64.9583 235.641 67.4024C268.481 71.9642 296.571 45.9488 309.836 18.1321L311.186 18.7729C292.678 57.5822 286.848 74.8821 287.318 77.5332C288.299 76.9699 292.885 72.7663 309.856 41.7094L311.166 42.4239C292.891 75.8653 298.093 82.9468 300.122 84.3241C306.238 88.458 326.087 76.8644 355.23 41.59L356.38 42.5433C323.544 82.288 319.356 94.1026 320.481 95.1077C320.524 95.1375 324.103 97.6334 355.269 65.4897L356.342 66.5267C339.6 83.7947 331.815 96.6621 335.517 100.943C340.758 107.006 369.673 96.6084 412.953 65.4042L413.827 66.6123C373.791 95.4819 359.358 114.903 362.89 120.733C365.539 125.11 380.115 123.91 413.054 107.398L413.723 108.731C386.577 122.339 373.075 129.779 368.573 132.751C373.996 130.995 390.096 124.377 426.336 107.388L426.969 108.741C384.965 128.432 369.319 146.737 372.446 156.143C375.571 165.545 395.778 167.378 426.499 161.037L426.802 162.498C406.618 166.662 393.567 169.514 385.942 171.309C396.011 169.713 414.665 166.393 442.686 161.035L442.967 162.5C407.217 169.337 384.571 186.973 383.864 208.53C383.128 231.023 405.794 251.008 443.017 260.686L442.64 262.133C407.274 252.936 389.471 248.816 381.812 247.325C387.328 249.218 399.59 253.042 426.855 260.692L426.451 262.131C396.364 253.686 376.229 253.945 372.609 262.828C368.823 272.103 384.177 291.968 427.011 315.434L426.294 316.744C377.674 290.107 359.827 285.008 358.82 286.726C358.798 286.762 357.162 290.539 395.679 315.462L394.867 316.714C365.918 297.983 352.614 295.209 349.826 298.873C345.877 304.055 358.569 324.739 395.77 357.91L394.775 359.026C358.786 326.932 335.935 314.14 331.933 318.069C329.292 320.673 334.323 332.525 356.368 357.981L355.242 358.956C327.047 326.401 321.319 323.712 320.351 323.537C320.178 325.686 327.379 339.201 356.396 376.776L355.214 377.689C325.313 338.966 302 327.028 292.99 332.322C285.411 336.772 286.896 353.453 296.963 376.939L295.592 377.526C281.988 345.785 277.9 341.135 276.976 340.456C276.226 343.235 280.833 362.599 296.979 406.74L295.578 407.25ZM171.714 338.52C171.881 338.52 172.015 338.568 172.132 338.611C175.639 339.891 166.907 369.388 159.758 391.64C173.215 366.778 196.478 351.706 223.323 351.344C223.657 351.338 223.994 351.336 224.326 351.336C251.562 351.336 275.553 366.321 289.937 391.508C282.207 369.447 272.8 340.363 276.393 338.936C277.281 338.582 279.169 337.861 288.998 358.994C285.107 344.481 286.146 334.611 292.236 331.032C301.587 325.543 319.575 335.789 339.753 357.175C327.791 340.831 316.818 324.405 319.366 322.321C320.071 321.745 321.896 320.257 339.056 338.613C332.329 329.08 327.674 320.171 330.888 317.007C335.181 312.781 351.735 321.7 375.019 340.313C354.447 319.425 344.356 303.592 348.642 297.969C351.633 294.044 360.763 295.937 374.97 303.259C362.064 293.99 356.215 288.191 357.542 285.961C359.965 281.895 383.95 293.003 403.943 303.214C379.846 286.945 367.367 271.739 371.232 262.265C374.106 255.217 385.407 252.942 403.196 255.5C375.612 247.455 375.839 246.611 376.06 245.789C376.285 244.959 376.634 243.763 422.992 255.539C396.911 244.495 381.759 227.374 382.38 208.486C382.969 190.472 398.175 175.144 423.231 166.242C376.393 175.005 376.218 174.117 376.048 173.258C375.885 172.436 375.758 171.803 403.224 165.917C385.074 167.177 373.487 163.987 371.035 156.615C367.93 147.276 379.822 133.819 402.352 120.124C366.535 136.385 365.854 134.976 365.498 134.239C365.125 133.475 364.606 132.398 388.928 119.698C373.901 125.197 364.286 125.924 361.613 121.507C357.743 115.12 369.564 99.988 392.554 81.056C362.737 99.976 340 108.411 334.385 101.919C331.396 98.4614 333.883 91.354 341.413 81.3566C328.967 93.1253 321.609 98.119 319.481 96.2183C316.281 93.3542 327.825 76.6136 339.094 61.8514C320.698 80.6241 305.639 89.8791 299.282 85.5561C294.971 82.6383 295.506 74.0521 300.558 61.1628C289.197 80.3057 287.364 79.3822 286.587 78.9781C283.395 77.3481 293.249 53.9578 302.663 33.4376C287.401 55.4585 263.082 72.7365 235.43 68.8753C218.807 66.5625 205.466 56.7005 197.296 41.371C200.377 63.3342 199.728 63.4377 199.051 63.5472C198.128 63.7024 197.535 63.7343 191.574 29.2321C189.285 42.195 183.069 51.1216 173.316 54.8236C154.106 62.1161 126.934 47.5868 103.42 18.7431C118.845 44.4262 131.438 69.5321 126.365 73.1644C123.264 75.3976 115.275 68.3956 106.412 58.6689C114.001 69.9043 119.697 80.7834 116.051 84.0694C111.62 88.0719 95.0111 77.7163 71.9493 57.1085C95.1584 83.94 105.832 107.356 98.3628 117.254C94.1314 122.859 84.7888 122.956 71.4179 117.742C93.1621 131.115 91.9301 133.451 91.4723 134.319C89.4601 138.14 63.7472 127.305 43.9335 118.231C66.454 132.854 83.3737 152.17 78.6606 169.725C75.5697 181.239 63.1939 188.454 44.4351 190.249C71.605 192.311 71.589 192.604 71.5273 193.469C71.4577 194.464 71.4597 194.504 52.8323 193.493C44.5585 193.043 33.9541 192.414 21.5763 191.64C44.865 196.815 59.3585 208.076 61.4523 223.352C63.9024 241.241 48.6387 259.928 21.4568 273.715C33.5739 269.631 43.9972 266.299 52.1874 263.897C70.7093 258.465 71.1452 259.663 71.4676 260.529C71.6945 261.14 72.0687 262.143 62.4176 266.763C78.581 261.186 79.0567 262.328 79.3294 262.989C79.5881 263.616 80.0778 264.806 64.1393 272.571C77.7949 267.44 88.8352 264.088 89.8443 266.243C90.2204 267.051 91.1061 268.944 69.9132 280.355C83.9131 275.576 93.3791 275.668 96.7487 280.894C102.069 289.15 91.0484 307.33 68.6792 328.517C95.7495 309.173 117.126 300.312 123.329 306.597C126.771 310.084 124.866 317.57 118.001 328.22C126.418 319.293 134.181 312.67 137.108 314.847C141.282 317.978 131.898 336.756 119.546 356.954C136.161 336.482 150.931 325.989 158.58 330.005C164.025 332.867 164.859 342.355 161.217 356.887C168.404 340.369 170.687 338.52 171.714 338.52ZM193.924 33.971C195.274 41.6437 196.356 47.549 197.2 51.9396C196.697 48.0306 196.012 43.027 195.134 36.8988C194.714 35.9454 194.31 34.9642 193.924 33.971ZM192.3 23.6313C192.837 25.8943 193.458 28.0876 194.163 30.2073C193.669 26.8437 193.128 23.2034 192.541 19.2964C192.501 20.7772 192.421 22.2242 192.3 23.6313Z" fill="#FD7E14" fill-opacity="0.5"/>
<defs>
<filter id="filter0_dd_101_59" x="155.718" y="165.786" width="137.96" height="86.6495" filterUnits="userSpaceOnUse" color-interpolation-filters="sRGB">
<feFlood flood-opacity="0" result="BackgroundImageFix"/>
<feColorMatrix in="SourceAlpha" type="matrix" values="0 0 0 0 0 0 0 0 0 0 0 0 0 0 0 0 0 0 127 0" result="hardAlpha"/>
<feOffset dx="-0.872125" dy="-0.872125"/>
<feGaussianBlur stdDeviation="0.145354"/>
<feComposite in2="hardAlpha" operator="out"/>
<feColorMatrix type="matrix" values="0 0 0 0 1 0 0 0 0 1 0 0 0 0 0.333333 0 0 0 1 0"/>
<feBlend mode="normal" in2="BackgroundImageFix" result="effect1_dropShadow_101_59"/>
<feColorMatrix in="SourceAlpha" type="matrix" values="0 0 0 0 0 0 0 0 0 0 0 0 0 0 0 0 0 0 127 0" result="hardAlpha"/>
<feOffset dx="0.872125" dy="0.872125"/>
<feGaussianBlur stdDeviation="0.145354"/>
<feComposite in2="hardAlpha" operator="out"/>
<feColorMatrix type="matrix" values="0 0 0 0 0 0 0 0 0 0 0 0 0 0 0 0 0 0 1 0"/>
<feBlend mode="normal" in2="effect1_dropShadow_101_59" result="effect2_dropShadow_101_59"/>
<feBlend mode="normal" in="SourceGraphic" in2="effect2_dropShadow_101_59" result="shape"/>
</filter>
<filter id="filter1_d_101_59" x="155.256" y="181.481" width="139.123" height="51.3004" filterUnits="userSpaceOnUse" color-interpolation-filters="sRGB">
<feFlood flood-opacity="0" result="BackgroundImageFix"/>
<feColorMatrix in="SourceAlpha" type="matrix" values="0 0 0 0 0 0 0 0 0 0 0 0 0 0 0 0 0 0 127 0" result="hardAlpha"/>
<feOffset dy="-1.16283"/>
<feGaussianBlur stdDeviation="0.872125"/>
<feComposite in2="hardAlpha" operator="out"/>
<feColorMatrix type="matrix" values="0 0 0 0 0 0 0 0 0 0 0 0 0 0 0 0 0 0 0.25 0"/>
<feBlend mode="normal" in2="BackgroundImageFix" result="effect1_dropShadow_101_59"/>
<feBlend mode="normal" in="SourceGraphic" in2="effect1_dropShadow_101_59" result="shape"/>
</filter>
<filter id="filter2_dd_101_59" x="117.073" y="99.8587" width="220.466" height="92.5425" filterUnits="userSpaceOnUse" color-interpolation-filters="sRGB">
<feFlood flood-opacity="0" result="BackgroundImageFix"/>
<feColorMatrix in="SourceAlpha" type="matrix" values="0 0 0 0 0 0 0 0 0 0 0 0 0 0 0 0 0 0 127 0" result="hardAlpha"/>
<feOffset dx="-0.872125" dy="-0.872125"/>
<feGaussianBlur stdDeviation="0.145354"/>
<feComposite in2="hardAlpha" operator="out"/>
<feColorMatrix type="matrix" values="0 0 0 0 1 0 0 0 0 1 0 0 0 0 0.333333 0 0 0 1 0"/>
<feBlend mode="normal" in2="BackgroundImageFix" result="effect1_dropShadow_101_59"/>
<feColorMatrix in="SourceAlpha" type="matrix" values="0 0 0 0 0 0 0 0 0 0 0 0 0 0 0 0 0 0 127 0" result="hardAlpha"/>
<feOffset dx="0.872125" dy="0.872125"/>
<feGaussianBlur stdDeviation="0.145354"/>
<feComposite in2="hardAlpha" operator="out"/>
<feColorMatrix type="matrix" values="0 0 0 0 0 0 0 0 0 0 0 0 0 0 0 0 0 0 1 0"/>
<feBlend mode="normal" in2="effect1_dropShadow_101_59" result="effect2_dropShadow_101_59"/>
<feBlend mode="normal" in="SourceGraphic" in2="effect2_dropShadow_101_59" result="shape"/>
</filter>
<filter id="filter3_dd_101_59" x="132.148" y="248.095" width="13.5572" height="14.1881" filterUnits="userSpaceOnUse" color-interpolation-filters="sRGB">
<feFlood flood-opacity="0" result="BackgroundImageFix"/>
<feColorMatrix in="SourceAlpha" type="matrix" values="0 0 0 0 0 0 0 0 0 0 0 0 0 0 0 0 0 0 127 0" result="hardAlpha"/>
<feOffset dx="-0.872125" dy="-0.872125"/>
<feGaussianBlur stdDeviation="0.145354"/>
<feComposite in2="hardAlpha" operator="out"/>
<feColorMatrix type="matrix" values="0 0 0 0 1 0 0 0 0 1 0 0 0 0 0.333333 0 0 0 1 0"/>
<feBlend mode="normal" in2="BackgroundImageFix" result="effect1_dropShadow_101_59"/>
<feColorMatrix in="SourceAlpha" type="matrix" values="0 0 0 0 0 0 0 0 0 0 0 0 0 0 0 0 0 0 127 0" result="hardAlpha"/>
<feOffset dx="0.872125" dy="0.872125"/>
<feGaussianBlur stdDeviation="0.145354"/>
<feComposite in2="hardAlpha" operator="out"/>
<feColorMatrix type="matrix" values="0 0 0 0 0 0 0 0 0 0 0 0 0 0 0 0 0 0 1 0"/>
<feBlend mode="normal" in2="effect1_dropShadow_101_59" result="effect2_dropShadow_101_59"/>
<feBlend mode="normal" in="SourceGraphic" in2="effect2_dropShadow_101_59" result="shape"/>
</filter>
<filter id="filter4_dd_101_59" x="141.669" y="264.12" width="14.027" height="14.1732" filterUnits="userSpaceOnUse" color-interpolation-filters="sRGB">
<feFlood flood-opacity="0" result="BackgroundImageFix"/>
<feColorMatrix in="SourceAlpha" type="matrix" values="0 0 0 0 0 0 0 0 0 0 0 0 0 0 0 0 0 0 127 0" result="hardAlpha"/>
<feOffset dx="-0.872125" dy="-0.872125"/>
<feGaussianBlur stdDeviation="0.145354"/>
<feComposite in2="hardAlpha" operator="out"/>
<feColorMatrix type="matrix" values="0 0 0 0 1 0 0 0 0 1 0 0 0 0 0.333333 0 0 0 1 0"/>
<feBlend mode="normal" in2="BackgroundImageFix" result="effect1_dropShadow_101_59"/>
<feColorMatrix in="SourceAlpha" type="matrix" values="0 0 0 0 0 0 0 0 0 0 0 0 0 0 0 0 0 0 127 0" result="hardAlpha"/>
<feOffset dx="0.872125" dy="0.872125"/>
<feGaussianBlur stdDeviation="0.145354"/>
<feComposite in2="hardAlpha" operator="out"/>
<feColorMatrix type="matrix" values="0 0 0 0 0 0 0 0 0 0 0 0 0 0 0 0 0 0 1 0"/>
<feBlend mode="normal" in2="effect1_dropShadow_101_59" result="effect2_dropShadow_101_59"/>
<feBlend mode="normal" in="SourceGraphic" in2="effect2_dropShadow_101_59" result="shape"/>
</filter>
<filter id="filter5_dd_101_59" x="153.872" y="277.495" width="14.2297" height="14.1575" filterUnits="userSpaceOnUse" color-interpolation-filters="sRGB">
<feFlood flood-opacity="0" result="BackgroundImageFix"/>
<feColorMatrix in="SourceAlpha" type="matrix" values="0 0 0 0 0 0 0 0 0 0 0 0 0 0 0 0 0 0 127 0" result="hardAlpha"/>
<feOffset dx="-0.872125" dy="-0.872125"/>
<feGaussianBlur stdDeviation="0.145354"/>
<feComposite in2="hardAlpha" operator="out"/>
<feColorMatrix type="matrix" values="0 0 0 0 1 0 0 0 0 1 0 0 0 0 0.333333 0 0 0 1 0"/>
<feBlend mode="normal" in2="BackgroundImageFix" result="effect1_dropShadow_101_59"/>
<feColorMatrix in="SourceAlpha" type="matrix" values="0 0 0 0 0 0 0 0 0 0 0 0 0 0 0 0 0 0 127 0" result="hardAlpha"/>
<feOffset dx="0.872125" dy="0.872125"/>
<feGaussianBlur stdDeviation="0.145354"/>
<feComposite in2="hardAlpha" operator="out"/>
<feColorMatrix type="matrix" values="0 0 0 0 0 0 0 0 0 0 0 0 0 0 0 0 0 0 1 0"/>
<feBlend mode="normal" in2="effect1_dropShadow_101_59" result="effect2_dropShadow_101_59"/>
<feBlend mode="normal" in="SourceGraphic" in2="effect2_dropShadow_101_59" result="shape"/>
</filter>
<filter id="filter6_dd_101_59" x="174.281" y="290.983" width="20.587" height="24.8885" filterUnits="userSpaceOnUse" color-interpolation-filters="sRGB">
<feFlood flood-opacity="0" result="BackgroundImageFix"/>
<feColorMatrix in="SourceAlpha" type="matrix" values="0 0 0 0 0 0 0 0 0 0 0 0 0 0 0 0 0 0 127 0" result="hardAlpha"/>
<feOffset dx="-0.872125" dy="-0.872125"/>
<feGaussianBlur stdDeviation="0.145354"/>
<feComposite in2="hardAlpha" operator="out"/>
<feColorMatrix type="matrix" values="0 0 0 0 1 0 0 0 0 1 0 0 0 0 0.333333 0 0 0 1 0"/>
<feBlend mode="normal" in2="BackgroundImageFix" result="effect1_dropShadow_101_59"/>
<feColorMatrix in="SourceAlpha" type="matrix" values="0 0 0 0 0 0 0 0 0 0 0 0 0 0 0 0 0 0 127 0" result="hardAlpha"/>
<feOffset dx="0.872125" dy="0.872125"/>
<feGaussianBlur stdDeviation="0.145354"/>
<feComposite in2="hardAlpha" operator="out"/>
<feColorMatrix type="matrix" values="0 0 0 0 0 0 0 0 0 0 0 0 0 0 0 0 0 0 1 0"/>
<feBlend mode="normal" in2="effect1_dropShadow_101_59" result="effect2_dropShadow_101_59"/>
<feBlend mode="normal" in="SourceGraphic" in2="effect2_dropShadow_101_59" result="shape"/>
</filter>
<filter id="filter7_dd_101_59" x="189.396" y="300.113" width="24.0317" height="22.9524" filterUnits="userSpaceOnUse" color-interpolation-filters="sRGB">
<feFlood flood-opacity="0" result="BackgroundImageFix"/>
<feColorMatrix in="SourceAlpha" type="matrix" values="0 0 0 0 0 0 0 0 0 0 0 0 0 0 0 0 0 0 127 0" result="hardAlpha"/>
<feOffset dx="-0.872125" dy="-0.872125"/>
<feGaussianBlur stdDeviation="0.145354"/>
<feComposite in2="hardAlpha" operator="out"/>
<feColorMatrix type="matrix" values="0 0 0 0 1 0 0 0 0 1 0 0 0 0 0.333333 0 0 0 1 0"/>
<feBlend mode="normal" in2="BackgroundImageFix" result="effect1_dropShadow_101_59"/>
<feColorMatrix in="SourceAlpha" type="matrix" values="0 0 0 0 0 0 0 0 0 0 0 0 0 0 0 0 0 0 127 0" result="hardAlpha"/>
<feOffset dx="0.872125" dy="0.872125"/>
<feGaussianBlur stdDeviation="0.145354"/>
<feComposite in2="hardAlpha" operator="out"/>
<feColorMatrix type="matrix" values="0 0 0 0 0 0 0 0 0 0 0 0 0 0 0 0 0 0 1 0"/>
<feBlend mode="normal" in2="effect1_dropShadow_101_59" result="effect2_dropShadow_101_59"/>
<feBlend mode="normal" in="SourceGraphic" in2="effect2_dropShadow_101_59" result="shape"/>
</filter>
<filter id="filter8_dd_101_59" x="214.411" y="303.123" width="21.238" height="22.1736" filterUnits="userSpaceOnUse" color-interpolation-filters="sRGB">
<feFlood flood-opacity="0" result="BackgroundImageFix"/>
<feColorMatrix in="SourceAlpha" type="matrix" values="0 0 0 0 0 0 0 0 0 0 0 0 0 0 0 0 0 0 127 0" result="hardAlpha"/>
<feOffset dx="-0.872125" dy="-0.872125"/>
<feGaussianBlur stdDeviation="0.145354"/>
<feComposite in2="hardAlpha" operator="out"/>
<feColorMatrix type="matrix" values="0 0 0 0 1 0 0 0 0 1 0 0 0 0 0.333333 0 0 0 1 0"/>
<feBlend mode="normal" in2="BackgroundImageFix" result="effect1_dropShadow_101_59"/>
<feColorMatrix in="SourceAlpha" type="matrix" values="0 0 0 0 0 0 0 0 0 0 0 0 0 0 0 0 0 0 127 0" result="hardAlpha"/>
<feOffset dx="0.872125" dy="0.872125"/>
<feGaussianBlur stdDeviation="0.145354"/>
<feComposite in2="hardAlpha" operator="out"/>
<feColorMatrix type="matrix" values="0 0 0 0 0 0 0 0 0 0 0 0 0 0 0 0 0 0 1 0"/>
<feBlend mode="normal" in2="effect1_dropShadow_101_59" result="effect2_dropShadow_101_59"/>
<feBlend mode="normal" in="SourceGraphic" in2="effect2_dropShadow_101_59" result="shape"/>
</filter>
<filter id="filter9_dd_101_59" x="233.2" y="299.923" width="21.2705" height="24.6883" filterUnits="userSpaceOnUse" color-interpolation-filters="sRGB">
<feFlood flood-opacity="0" result="BackgroundImageFix"/>
<feColorMatrix in="SourceAlpha" type="matrix" values="0 0 0 0 0 0 0 0 0 0 0 0 0 0 0 0 0 0 127 0" result="hardAlpha"/>
<feOffset dx="-0.872125" dy="-0.872125"/>
<feGaussianBlur stdDeviation="0.145354"/>
<feComposite in2="hardAlpha" operator="out"/>
<feColorMatrix type="matrix" values="0 0 0 0 1 0 0 0 0 1 0 0 0 0 0.333333 0 0 0 1 0"/>
<feBlend mode="normal" in2="BackgroundImageFix" result="effect1_dropShadow_101_59"/>
<feColorMatrix in="SourceAlpha" type="matrix" values="0 0 0 0 0 0 0 0 0 0 0 0 0 0 0 0 0 0 127 0" result="hardAlpha"/>
<feOffset dx="0.872125" dy="0.872125"/>
<feGaussianBlur stdDeviation="0.145354"/>
<feComposite in2="hardAlpha" operator="out"/>
<feColorMatrix type="matrix" values="0 0 0 0 0 0 0 0 0 0 0 0 0 0 0 0 0 0 1 0"/>
<feBlend mode="normal" in2="effect1_dropShadow_101_59" result="effect2_dropShadow_101_59"/>
<feBlend mode="normal" in="SourceGraphic" in2="effect2_dropShadow_101_59" result="shape"/>
</filter>
<filter id="filter10_dd_101_59" x="250.185" y="292.171" width="26.8913" height="27.7276" filterUnits="userSpaceOnUse" color-interpolation-filters="sRGB">
<feFlood flood-opacity="0" result="BackgroundImageFix"/>
<feColorMatrix in="SourceAlpha" type="matrix" values="0 0 0 0 0 0 0 0 0 0 0 0 0 0 0 0 0 0 127 0" result="hardAlpha"/>
<feOffset dx="-0.872125" dy="-0.872125"/>
<feGaussianBlur stdDeviation="0.145354"/>
<feComposite in2="hardAlpha" operator="out"/>
<feColorMatrix type="matrix" values="0 0 0 0 1 0 0 0 0 1 0 0 0 0 0.333333 0 0 0 1 0"/>
<feBlend mode="normal" in2="BackgroundImageFix" result="effect1_dropShadow_101_59"/>
<feColorMatrix in="SourceAlpha" type="matrix" values="0 0 0 0 0 0 0 0 0 0 0 0 0 0 0 0 0 0 127 0" result="hardAlpha"/>
<feOffset dx="0.872125" dy="0.872125"/>
<feGaussianBlur stdDeviation="0.145354"/>
<feComposite in2="hardAlpha" operator="out"/>
<feColorMatrix type="matrix" values="0 0 0 0 0 0 0 0 0 0 0 0 0 0 0 0 0 0 1 0"/>
<feBlend mode="normal" in2="effect1_dropShadow_101_59" result="effect2_dropShadow_101_59"/>
<feBlend mode="normal" in="SourceGraphic" in2="effect2_dropShadow_101_59" result="shape"/>
</filter>
<filter id="filter11_dd_101_59" x="280.232" y="277.343" width="14.2302" height="14.1659" filterUnits="userSpaceOnUse" color-interpolation-filters="sRGB">
<feFlood flood-opacity="0" result="BackgroundImageFix"/>
<feColorMatrix in="SourceAlpha" type="matrix" values="0 0 0 0 0 0 0 0 0 0 0 0 0 0 0 0 0 0 127 0" result="hardAlpha"/>
<feOffset dx="-0.872125" dy="-0.872125"/>
<feGaussianBlur stdDeviation="0.145354"/>
<feComposite in2="hardAlpha" operator="out"/>
<feColorMatrix type="matrix" values="0 0 0 0 1 0 0 0 0 1 0 0 0 0 0.333333 0 0 0 1 0"/>
<feBlend mode="normal" in2="BackgroundImageFix" result="effect1_dropShadow_101_59"/>
<feColorMatrix in="SourceAlpha" type="matrix" values="0 0 0 0 0 0 0 0 0 0 0 0 0 0 0 0 0 0 127 0" result="hardAlpha"/>
<feOffset dx="0.872125" dy="0.872125"/>
<feGaussianBlur stdDeviation="0.145354"/>
<feComposite in2="hardAlpha" operator="out"/>
<feColorMatrix type="matrix" values="0 0 0 0 0 0 0 0 0 0 0 0 0 0 0 0 0 0 1 0"/>
<feBlend mode="normal" in2="effect1_dropShadow_101_59" result="effect2_dropShadow_101_59"/>
<feBlend mode="normal" in="SourceGraphic" in2="effect2_dropShadow_101_59" result="shape"/>
</filter>
<filter id="filter12_dd_101_59" x="292.796" y="263.683" width="14.0095" height="14.1649" filterUnits="userSpaceOnUse" color-interpolation-filters="sRGB">
<feFlood flood-opacity="0" result="BackgroundImageFix"/>
<feColorMatrix in="SourceAlpha" type="matrix" values="0 0 0 0 0 0 0 0 0 0 0 0 0 0 0 0 0 0 127 0" result="hardAlpha"/>
<feOffset dx="-0.872125" dy="-0.872125"/>
<feGaussianBlur stdDeviation="0.145354"/>
<feComposite in2="hardAlpha" operator="out"/>
<feColorMatrix type="matrix" values="0 0 0 0 1 0 0 0 0 1 0 0 0 0 0.333333 0 0 0 1 0"/>
<feBlend mode="normal" in2="BackgroundImageFix" result="effect1_dropShadow_101_59"/>
<feColorMatrix in="SourceAlpha" type="matrix" values="0 0 0 0 0 0 0 0 0 0 0 0 0 0 0 0 0 0 127 0" result="hardAlpha"/>
<feOffset dx="0.872125" dy="0.872125"/>
<feGaussianBlur stdDeviation="0.145354"/>
<feComposite in2="hardAlpha" operator="out"/>
<feColorMatrix type="matrix" values="0 0 0 0 0 0 0 0 0 0 0 0 0 0 0 0 0 0 1 0"/>
<feBlend mode="normal" in2="effect1_dropShadow_101_59" result="effect2_dropShadow_101_59"/>
<feBlend mode="normal" in="SourceGraphic" in2="effect2_dropShadow_101_59" result="shape"/>
</filter>
<filter id="filter13_dd_101_59" x="302.445" y="248.112" width="13.5626" height="14.1927" filterUnits="userSpaceOnUse" color-interpolation-filters="sRGB">
<feFlood flood-opacity="0" result="BackgroundImageFix"/>
<feColorMatrix in="SourceAlpha" type="matrix" values="0 0 0 0 0 0 0 0 0 0 0 0 0 0 0 0 0 0 127 0" result="hardAlpha"/>
<feOffset dx="-0.872125" dy="-0.872125"/>
<feGaussianBlur stdDeviation="0.145354"/>
<feComposite in2="hardAlpha" operator="out"/>
<feColorMatrix type="matrix" values="0 0 0 0 1 0 0 0 0 1 0 0 0 0 0.333333 0 0 0 1 0"/>
<feBlend mode="normal" in2="BackgroundImageFix" result="effect1_dropShadow_101_59"/>
<feColorMatrix in="SourceAlpha" type="matrix" values="0 0 0 0 0 0 0 0 0 0 0 0 0 0 0 0 0 0 127 0" result="hardAlpha"/>
<feOffset dx="0.872125" dy="0.872125"/>
<feGaussianBlur stdDeviation="0.145354"/>
<feComposite in2="hardAlpha" operator="out"/>
<feColorMatrix type="matrix" values="0 0 0 0 0 0 0 0 0 0 0 0 0 0 0 0 0 0 1 0"/>
<feBlend mode="normal" in2="effect1_dropShadow_101_59" result="effect2_dropShadow_101_59"/>
<feBlend mode="normal" in="SourceGraphic" in2="effect2_dropShadow_101_59" result="shape"/>
</filter>
<linearGradient id="paint0_linear_101_59" x1="224.805" y1="86.677" x2="224.805" y2="337.732" gradientUnits="userSpaceOnUse">
<stop stop-color="#4F4F4F"/>
<stop offset="1" stop-color="#323232"/>
</linearGradient>
<linearGradient id="paint1_linear_101_59" x1="224.806" y1="86.677" x2="224.806" y2="337.732" gradientUnits="userSpaceOnUse">
<stop stop-color="#FFD800"/>
<stop offset="1" stop-color="#CD7C00"/>
</linearGradient>
<linearGradient id="paint2_linear_101_59" x1="135.584" y1="104.456" x2="327.366" y2="314.153" gradientUnits="userSpaceOnUse">
<stop stop-opacity="0.62"/>
<stop offset="0.580336" stop-color="#FFFA85" stop-opacity="0.37"/>
</linearGradient>
<linearGradient id="paint3_linear_101_59" x1="135.584" y1="104.456" x2="327.366" y2="314.153" gradientUnits="userSpaceOnUse">
<stop stop-opacity="0.62"/>
<stop offset="0.580336" stop-color="#FFFA85" stop-opacity="0.37"/>
</linearGradient>
<linearGradient id="paint4_linear_101_59" x1="267.983" y1="166.361" x2="267.983" y2="249.597" gradientUnits="userSpaceOnUse">
<stop stop-color="#FDD401"/>
<stop offset="0.575127" stop-color="#E7AC01"/>
<stop offset="1" stop-color="#D28401"/>
</linearGradient>
<linearGradient id="paint5_linear_101_59" x1="267.982" y1="166.361" x2="267.982" y2="249.597" gradientUnits="userSpaceOnUse">
<stop stop-color="#FDD401"/>
<stop offset="0.575127" stop-color="#E7AC01"/>
<stop offset="1" stop-color="#D28401"/>
</linearGradient>
<linearGradient id="paint6_linear_101_59" x1="267.982" y1="166.361" x2="267.982" y2="249.597" gradientUnits="userSpaceOnUse">
<stop stop-color="#FDD401"/>
<stop offset="0.575127" stop-color="#E7AC01"/>
<stop offset="1" stop-color="#D28401"/>
</linearGradient>
<linearGradient id="paint7_linear_101_59" x1="185.986" y1="166.411" x2="185.986" y2="249.806" gradientUnits="userSpaceOnUse">
<stop stop-color="#FDD401"/>
<stop offset="0.575127" stop-color="#E7AC01"/>
<stop offset="1" stop-color="#D28401"/>
</linearGradient>
<linearGradient id="paint8_linear_101_59" x1="268.44" y1="166.411" x2="268.44" y2="249.806" gradientUnits="userSpaceOnUse">
<stop stop-color="#FDD401"/>
<stop offset="0.575127" stop-color="#E7AC01"/>
<stop offset="1" stop-color="#D28401"/>
</linearGradient>
<linearGradient id="paint9_linear_101_59" x1="148.119" y1="183.66" x2="133.071" y2="183.916" gradientUnits="userSpaceOnUse">
<stop stop-color="#E6AC00"/>
<stop offset="1" stop-color="#FCD301"/>
</linearGradient>
<linearGradient id="paint10_linear_101_59" x1="156.762" y1="167.859" x2="141.972" y2="164.633" gradientUnits="userSpaceOnUse">
<stop stop-color="#E6AC00"/>
<stop offset="1" stop-color="#FCD301"/>
</linearGradient>
<linearGradient id="paint11_linear_101_59" x1="167.016" y1="155.815" x2="153.25" y2="151.479" gradientUnits="userSpaceOnUse">
<stop stop-color="#E6AC00"/>
<stop offset="1" stop-color="#FCD301"/>
</linearGradient>
<linearGradient id="paint12_linear_101_59" x1="178.638" y1="146.395" x2="165.869" y2="139.069" gradientUnits="userSpaceOnUse">
<stop stop-color="#E6AC00"/>
<stop offset="1" stop-color="#FCD301"/>
</linearGradient>
<linearGradient id="paint13_linear_101_59" x1="188.421" y1="140.742" x2="177.14" y2="136.417" gradientUnits="userSpaceOnUse">
<stop stop-color="#E6AC00"/>
<stop offset="1" stop-color="#FCD301"/>
</linearGradient>
<linearGradient id="paint14_linear_101_59" x1="198.481" y1="136.576" x2="187.89" y2="126.776" gradientUnits="userSpaceOnUse">
<stop stop-color="#E6AC00"/>
<stop offset="1" stop-color="#FCD301"/>
</linearGradient>
<linearGradient id="paint15_linear_101_59" x1="222.294" y1="132.185" x2="216.607" y2="117.815" gradientUnits="userSpaceOnUse">
<stop stop-color="#E6AC00"/>
<stop offset="1" stop-color="#FCD301"/>
</linearGradient>
<linearGradient id="paint16_linear_101_59" x1="241.524" y1="133.752" x2="238.337" y2="119.052" gradientUnits="userSpaceOnUse">
<stop stop-color="#E6AC00"/>
<stop offset="1" stop-color="#FCD301"/>
</linearGradient>
<linearGradient id="paint17_linear_101_59" x1="253.608" y1="137.109" x2="248.848" y2="126.01" gradientUnits="userSpaceOnUse">
<stop stop-color="#E6AC00"/>
<stop offset="1" stop-color="#FCD301"/>
</linearGradient>
<linearGradient id="paint18_linear_101_59" x1="265.733" y1="142.576" x2="267.369" y2="127.537" gradientUnits="userSpaceOnUse">
<stop stop-color="#E6AC00"/>
<stop offset="1" stop-color="#FCD301"/>
</linearGradient>
<linearGradient id="paint19_linear_101_59" x1="279.757" y1="152.321" x2="283.709" y2="138.022" gradientUnits="userSpaceOnUse">
<stop stop-color="#E6AC00"/>
<stop offset="1" stop-color="#FCD301"/>
</linearGradient>
<linearGradient id="paint20_linear_101_59" x1="294.853" y1="169.419" x2="303.013" y2="156.782" gradientUnits="userSpaceOnUse">
<stop stop-color="#E6AC00"/>
<stop offset="1" stop-color="#FCD301"/>
</linearGradient>
<linearGradient id="paint21_linear_101_59" x1="300.808" y1="179.968" x2="305.289" y2="168.754" gradientUnits="userSpaceOnUse">
<stop stop-color="#E6AC00"/>
<stop offset="1" stop-color="#FCD301"/>
</linearGradient>
<linearGradient id="paint22_linear_101_59" x1="304.812" y1="190.065" x2="314.797" y2="179.649" gradientUnits="userSpaceOnUse">
<stop stop-color="#E6AC00"/>
<stop offset="1" stop-color="#FCD301"/>
</linearGradient>
<linearGradient id="paint23_linear_101_59" x1="149.414" y1="250.527" x2="118.504" y2="265.401" gradientUnits="userSpaceOnUse">
<stop stop-color="#DF9D01"/>
<stop offset="1" stop-color="#D08101"/>
</linearGradient>
<linearGradient id="paint24_linear_101_59" x1="158.048" y1="264.573" x2="130.697" y2="285.269" gradientUnits="userSpaceOnUse">
<stop stop-color="#DF9D01"/>
<stop offset="1" stop-color="#D08101"/>
</linearGradient>
<linearGradient id="paint25_linear_101_59" x1="168.887" y1="276.252" x2="146.073" y2="301.857" gradientUnits="userSpaceOnUse">
<stop stop-color="#DF9D01"/>
<stop offset="1" stop-color="#D08101"/>
</linearGradient>
<linearGradient id="paint26_linear_101_59" x1="188.901" y1="289.396" x2="174.46" y2="320.494" gradientUnits="userSpaceOnUse">
<stop stop-color="#DF9D01"/>
<stop offset="1" stop-color="#D08101"/>
</linearGradient>
<linearGradient id="paint27_linear_101_59" x1="205.337" y1="295.076" x2="197.607" y2="328.48" gradientUnits="userSpaceOnUse">
<stop stop-color="#DF9D01"/>
<stop offset="1" stop-color="#D08101"/>
</linearGradient>
<linearGradient id="paint28_linear_101_59" x1="223.938" y1="297.238" x2="223.86" y2="331.522" gradientUnits="userSpaceOnUse">
<stop stop-color="#DF9D01"/>
<stop offset="1" stop-color="#D08101"/>
</linearGradient>
<linearGradient id="paint29_linear_101_59" x1="240.203" y1="295.652" x2="246.946" y2="329.267" gradientUnits="userSpaceOnUse">
<stop stop-color="#DF9D01"/>
<stop offset="1" stop-color="#D08101"/>
</linearGradient>
<linearGradient id="paint30_linear_101_59" x1="256.996" y1="290.414" x2="270.646" y2="321.868" gradientUnits="userSpaceOnUse">
<stop stop-color="#DF9D01"/>
<stop offset="1" stop-color="#D08101"/>
</linearGradient>
<linearGradient id="paint31_linear_101_59" x1="279.921" y1="275.678" x2="302.893" y2="301.141" gradientUnits="userSpaceOnUse">
<stop stop-color="#DF9D01"/>
<stop offset="1" stop-color="#D08101"/>
</linearGradient>
<linearGradient id="paint32_linear_101_59" x1="290.806" y1="263.639" x2="318.321" y2="284.117" gradientUnits="userSpaceOnUse">
<stop stop-color="#DF9D01"/>
<stop offset="1" stop-color="#D08101"/>
</linearGradient>
<linearGradient id="paint33_linear_101_59" x1="299.02" y1="249.957" x2="329.966" y2="264.758" gradientUnits="userSpaceOnUse">
<stop stop-color="#DF9D01"/>
<stop offset="1" stop-color="#D08101"/>
</linearGradient>
</defs>
</svg>
