<svg width="41" height="41" viewBox="0 0 41 41" fill="none" xmlns="http://www.w3.org/2000/svg">
<path fill-rule="evenodd" clip-rule="evenodd" d="M41 20.5C41 31.8218 31.8218 41 20.5 41C9.17818 41 0 31.8218 0 20.5C0 9.17818 9.17818 0 20.5 0C31.8218 0 41 9.17818 41 20.5ZM22.4645 14.2096C18.9427 15.7309 8.78801 20.051 8.78801 20.051C6.38143 21.0246 7.79009 21.9373 7.79009 21.9373C7.79009 21.9373 9.8445 22.6675 11.6055 23.215C13.3664 23.7627 14.3056 23.1542 14.3056 23.1542C14.3056 23.1542 18.4144 20.3553 22.5819 17.3737C25.5167 15.3049 24.8124 17.0086 24.108 17.7388C22.5819 19.3209 20.0579 21.8156 17.9447 23.8236C17.0056 24.6755 17.4752 25.4056 17.8861 25.7707C19.0811 26.8189 21.8956 28.7252 23.1734 29.5907C23.5275 29.8305 23.7636 29.9904 23.8146 30.03C24.108 30.2734 25.7516 31.3686 26.7494 31.1253C27.7472 30.8819 27.8646 29.4823 27.8646 29.4823C27.8646 29.4823 28.6277 24.4929 29.3321 19.9293C29.4626 19.0333 29.593 18.1561 29.7147 17.3381C30.0309 15.212 30.2875 13.4862 30.3299 12.871C30.5061 10.8022 28.3929 11.654 28.3929 11.654C28.3929 11.654 23.8145 13.6012 22.4645 14.2096Z" fill="#34AADF"/>
</svg>
