<svg width="41" height="41" viewBox="0 0 41 41" fill="none" xmlns="http://www.w3.org/2000/svg">
<path d="M0 41L2.94166 30.0719C0.569284 25.8149 -0.184442 20.8473 0.818787 16.0807C1.82202 11.3141 4.51491 7.0682 8.40331 4.12218C12.2917 1.17615 17.1148 -0.272402 21.9875 0.0423216C26.8603 0.357045 31.4558 2.41394 34.9308 5.83556C38.4058 9.25718 40.5273 13.814 40.9058 18.6699C41.2844 23.5257 39.8946 28.3549 36.9917 32.2712C34.0887 36.1875 29.8672 38.9282 25.1018 39.9905C20.3364 41.0528 15.3468 40.3653 11.0486 38.0543L0 41ZM11.5813 33.9649L12.2646 34.3692C15.3779 36.2099 19.0142 36.9715 22.6068 36.5356C26.1994 36.0996 29.5465 34.4905 32.1266 31.959C34.7066 29.4275 36.3746 26.1158 36.8707 22.54C37.3668 18.9641 36.663 15.3251 34.8691 12.1899C33.0752 9.05464 30.2919 6.5994 26.953 5.20673C23.6141 3.81406 19.907 3.56221 16.4096 4.49041C12.9122 5.41862 9.82086 7.47475 7.61732 10.3384C5.41377 13.202 4.22181 16.7123 4.22718 20.3222C4.22426 23.3153 5.05416 26.2506 6.62452 28.8012L7.05303 29.5059L5.40848 35.6053L11.5813 33.9649Z" fill="#00D95F"/>
<path fill-rule="evenodd" clip-rule="evenodd" d="M28.1655 23.1282C27.7649 22.8059 27.2959 22.5791 26.7941 22.465C26.2924 22.3509 25.7711 22.3525 25.2701 22.4698C24.5173 22.7817 24.0309 23.9599 23.5445 24.5491C23.4419 24.6903 23.2912 24.7894 23.1206 24.8277C22.9501 24.8659 22.7713 24.8408 22.618 24.757C19.862 23.6803 17.5519 21.7059 16.063 19.1544C15.936 18.9951 15.8759 18.793 15.8953 18.5904C15.9148 18.3879 16.0122 18.2008 16.1672 18.0685C16.7097 17.5328 17.108 16.8693 17.3253 16.1393C17.3736 15.3342 17.1887 14.5322 16.7926 13.829C16.4864 12.8431 15.9037 11.9652 15.1133 11.2991C14.7056 11.1162 14.2536 11.0549 13.8118 11.1225C13.37 11.1902 12.9572 11.3839 12.6233 11.6803C12.0436 12.1792 11.5835 12.8014 11.2769 13.5011C10.9702 14.2008 10.8248 14.9603 10.8514 15.7235C10.8532 16.152 10.9076 16.5788 11.0135 16.9942C11.2824 17.9921 11.696 18.9456 12.2411 19.8244C12.6344 20.4975 13.0636 21.1492 13.5267 21.7766C15.0317 23.8375 16.9236 25.5872 19.0973 26.9288C20.1881 27.6105 21.3539 28.1648 22.5717 28.5807C23.8367 29.1527 25.2335 29.3722 26.6136 29.216C27.3999 29.0973 28.1449 28.7876 28.7831 28.3143C29.4212 27.8409 29.933 27.2183 30.2733 26.5014C30.4732 26.0682 30.5339 25.584 30.447 25.1151C30.2385 24.1563 28.953 23.5903 28.1655 23.1282Z" fill="#00D95F"/>
</svg>
