<svg width="311" height="649" viewBox="0 0 311 649" fill="none" xmlns="http://www.w3.org/2000/svg">
<path d="M10 21H271C287.569 21 301 34.4315 301 51V294C301 310.569 287.569 324 271 324H40C23.4315 324 10 337.431 10 354V597C10 613.569 23.4315 627 40 627H301" stroke="url(#paint0_linear_2_37)" stroke-width="4"/>
<path d="M10 118H253.75C266.038 118 276 127.962 276 140.25V140.25C276 152.538 266.038 162.5 253.75 162.5H32.25C19.9617 162.5 10 172.462 10 184.75V184.75C10 197.038 19.9617 207 32.25 207H276" stroke="url(#paint1_linear_2_37)"/>
<path d="M35 431H278.75C291.038 431 301 440.962 301 453.25V453.25C301 465.538 291.038 475.5 278.75 475.5H57.25C44.9617 475.5 35 485.462 35 497.75V497.75C35 510.038 44.9617 520 57.25 520H301" stroke="url(#paint2_linear_2_37)"/>
<path d="M210.572 39.168C209.816 39.168 209.111 39.0467 208.458 38.804C207.814 38.552 207.254 38.1973 206.778 37.74C206.302 37.2827 205.928 36.746 205.658 36.13C205.396 35.514 205.266 34.8373 205.266 34.1C205.266 33.3627 205.396 32.686 205.658 32.07C205.928 31.454 206.302 30.9173 206.778 30.46C207.263 30.0027 207.828 29.6527 208.472 29.41C209.116 29.158 209.82 29.032 210.586 29.032C211.435 29.032 212.2 29.1813 212.882 29.48C213.572 29.7693 214.151 30.1987 214.618 30.768L213.162 32.112C212.826 31.7293 212.452 31.4447 212.042 31.258C211.631 31.062 211.183 30.964 210.698 30.964C210.24 30.964 209.82 31.0387 209.438 31.188C209.055 31.3373 208.724 31.552 208.444 31.832C208.164 32.112 207.944 32.4433 207.786 32.826C207.636 33.2087 207.562 33.6333 207.562 34.1C207.562 34.5667 207.636 34.9913 207.786 35.374C207.944 35.7567 208.164 36.088 208.444 36.368C208.724 36.648 209.055 36.8627 209.438 37.012C209.82 37.1613 210.24 37.236 210.698 37.236C211.183 37.236 211.631 37.1427 212.042 36.956C212.452 36.76 212.826 36.466 213.162 36.074L214.618 37.418C214.151 37.9873 213.572 38.4213 212.882 38.72C212.2 39.0187 211.43 39.168 210.572 39.168ZM215.995 39V31.468H218.081V33.596L217.787 32.98C218.011 32.448 218.371 32.0467 218.865 31.776C219.36 31.496 219.962 31.356 220.671 31.356V33.372C220.578 33.3627 220.494 33.358 220.419 33.358C220.345 33.3487 220.265 33.344 220.181 33.344C219.584 33.344 219.099 33.5167 218.725 33.862C218.361 34.198 218.179 34.7253 218.179 35.444V39H215.995ZM223.182 41.828C222.79 41.828 222.402 41.7673 222.02 41.646C221.637 41.5247 221.324 41.3567 221.082 41.142L221.88 39.588C222.048 39.7373 222.239 39.854 222.454 39.938C222.678 40.022 222.897 40.064 223.112 40.064C223.42 40.064 223.662 39.9893 223.84 39.84C224.026 39.7 224.194 39.462 224.344 39.126L224.736 38.202L224.904 37.964L227.606 31.468H229.706L226.304 39.462C226.061 40.0687 225.781 40.5447 225.464 40.89C225.156 41.2353 224.81 41.478 224.428 41.618C224.054 41.758 223.639 41.828 223.182 41.828ZM224.47 39.294L221.11 31.468H223.364L225.968 37.768L224.47 39.294ZM235.049 39.112C234.414 39.112 233.859 38.972 233.383 38.692C232.907 38.412 232.534 37.9873 232.263 37.418C232.002 36.8393 231.871 36.1113 231.871 35.234C231.871 34.3473 231.997 33.6193 232.249 33.05C232.501 32.4807 232.865 32.056 233.341 31.776C233.817 31.496 234.386 31.356 235.049 31.356C235.758 31.356 236.393 31.5193 236.953 31.846C237.522 32.1633 237.97 32.6113 238.297 33.19C238.633 33.7687 238.801 34.45 238.801 35.234C238.801 36.0273 238.633 36.7133 238.297 37.292C237.97 37.8707 237.522 38.3187 236.953 38.636C236.393 38.9533 235.758 39.112 235.049 39.112ZM230.597 41.716V31.468H232.683V33.008L232.641 35.248L232.781 37.474V41.716H230.597ZM234.671 37.32C235.035 37.32 235.357 37.236 235.637 37.068C235.926 36.9 236.155 36.662 236.323 36.354C236.5 36.0367 236.589 35.6633 236.589 35.234C236.589 34.7953 236.5 34.422 236.323 34.114C236.155 33.806 235.926 33.568 235.637 33.4C235.357 33.232 235.035 33.148 234.671 33.148C234.307 33.148 233.98 33.232 233.691 33.4C233.402 33.568 233.173 33.806 233.005 34.114C232.837 34.422 232.753 34.7953 232.753 35.234C232.753 35.6633 232.837 36.0367 233.005 36.354C233.173 36.662 233.402 36.9 233.691 37.068C233.98 37.236 234.307 37.32 234.671 37.32ZM243.343 39.112C242.456 39.112 241.766 38.888 241.271 38.44C240.776 37.9827 240.529 37.306 240.529 36.41V29.802H242.713V36.382C242.713 36.6993 242.797 36.9467 242.965 37.124C243.133 37.292 243.362 37.376 243.651 37.376C243.996 37.376 244.29 37.2827 244.533 37.096L245.121 38.636C244.897 38.7947 244.626 38.916 244.309 39C244.001 39.0747 243.679 39.112 243.343 39.112ZM239.367 33.316V31.636H244.589V33.316H239.367ZM249.698 39.112C248.896 39.112 248.182 38.944 247.556 38.608C246.94 38.272 246.45 37.8147 246.086 37.236C245.732 36.648 245.554 35.9807 245.554 35.234C245.554 34.478 245.732 33.8107 246.086 33.232C246.45 32.644 246.94 32.1867 247.556 31.86C248.182 31.524 248.896 31.356 249.698 31.356C250.492 31.356 251.201 31.524 251.826 31.86C252.452 32.1867 252.942 32.6393 253.296 33.218C253.651 33.7967 253.828 34.4687 253.828 35.234C253.828 35.9807 253.651 36.648 253.296 37.236C252.942 37.8147 252.452 38.272 251.826 38.608C251.201 38.944 250.492 39.112 249.698 39.112ZM249.698 37.32C250.062 37.32 250.389 37.236 250.678 37.068C250.968 36.9 251.196 36.662 251.364 36.354C251.532 36.0367 251.616 35.6633 251.616 35.234C251.616 34.7953 251.532 34.422 251.364 34.114C251.196 33.806 250.968 33.568 250.678 33.4C250.389 33.232 250.062 33.148 249.698 33.148C249.334 33.148 249.008 33.232 248.718 33.4C248.429 33.568 248.196 33.806 248.018 34.114C247.85 34.422 247.766 34.7953 247.766 35.234C247.766 35.6633 247.85 36.0367 248.018 36.354C248.196 36.662 248.429 36.9 248.718 37.068C249.008 37.236 249.334 37.32 249.698 37.32ZM198.426 57.112C197.567 57.112 196.811 56.944 196.158 56.608C195.514 56.272 195.014 55.8147 194.66 55.236C194.305 54.648 194.128 53.9807 194.128 53.234C194.128 52.478 194.3 51.8107 194.646 51.232C195 50.644 195.481 50.1867 196.088 49.86C196.694 49.524 197.38 49.356 198.146 49.356C198.883 49.356 199.546 49.5147 200.134 49.832C200.731 50.14 201.202 50.588 201.548 51.176C201.893 51.7547 202.066 52.45 202.066 53.262C202.066 53.346 202.061 53.444 202.052 53.556C202.042 53.6587 202.033 53.7567 202.024 53.85H195.906V52.576H200.876L200.036 52.954C200.036 52.562 199.956 52.2213 199.798 51.932C199.639 51.6427 199.42 51.4187 199.14 51.26C198.86 51.092 198.533 51.008 198.16 51.008C197.786 51.008 197.455 51.092 197.166 51.26C196.886 51.4187 196.666 51.6473 196.508 51.946C196.349 52.2353 196.27 52.5807 196.27 52.982V53.318C196.27 53.7287 196.358 54.0927 196.536 54.41C196.722 54.718 196.979 54.956 197.306 55.124C197.642 55.2827 198.034 55.362 198.482 55.362C198.883 55.362 199.233 55.3013 199.532 55.18C199.84 55.0587 200.12 54.8767 200.372 54.634L201.534 55.894C201.188 56.286 200.754 56.5893 200.232 56.804C199.709 57.0093 199.107 57.112 198.426 57.112ZM202.363 57L205.737 52.576L205.695 53.78L202.461 49.468H204.911L206.955 52.282L206.031 52.31L208.145 49.468H210.469L207.221 53.738V52.562L210.581 57H208.103L205.961 54.004L206.871 54.13L204.743 57H202.363ZM215.048 57.112C214.236 57.112 213.513 56.9487 212.878 56.622C212.244 56.286 211.744 55.824 211.38 55.236C211.026 54.648 210.848 53.9807 210.848 53.234C210.848 52.478 211.026 51.8107 211.38 51.232C211.744 50.644 212.244 50.1867 212.878 49.86C213.513 49.524 214.236 49.356 215.048 49.356C215.842 49.356 216.532 49.524 217.12 49.86C217.708 50.1867 218.142 50.658 218.422 51.274L216.728 52.184C216.532 51.8293 216.285 51.568 215.986 51.4C215.697 51.232 215.38 51.148 215.034 51.148C214.661 51.148 214.325 51.232 214.026 51.4C213.728 51.568 213.49 51.806 213.312 52.114C213.144 52.422 213.06 52.7953 213.06 53.234C213.06 53.6727 213.144 54.046 213.312 54.354C213.49 54.662 213.728 54.9 214.026 55.068C214.325 55.236 214.661 55.32 215.034 55.32C215.38 55.32 215.697 55.2407 215.986 55.082C216.285 54.914 216.532 54.648 216.728 54.284L218.422 55.208C218.142 55.8147 217.708 56.286 217.12 56.622C216.532 56.9487 215.842 57.112 215.048 57.112ZM224.217 49.356C224.814 49.356 225.346 49.4773 225.813 49.72C226.289 49.9533 226.662 50.3173 226.933 50.812C227.204 51.2973 227.339 51.9227 227.339 52.688V57H225.155V53.024C225.155 52.4173 225.02 51.9693 224.749 51.68C224.488 51.3907 224.114 51.246 223.629 51.246C223.284 51.246 222.971 51.3207 222.691 51.47C222.42 51.61 222.206 51.8293 222.047 52.128C221.898 52.4267 221.823 52.8093 221.823 53.276V57H219.639V46.612H221.823V51.554L221.333 50.924C221.604 50.42 221.991 50.0327 222.495 49.762C222.999 49.4913 223.573 49.356 224.217 49.356ZM233.939 57V55.53L233.799 55.208V52.576C233.799 52.1093 233.654 51.7453 233.365 51.484C233.085 51.2227 232.651 51.092 232.063 51.092C231.661 51.092 231.265 51.1573 230.873 51.288C230.49 51.4093 230.163 51.5773 229.893 51.792L229.109 50.266C229.519 49.9767 230.014 49.7527 230.593 49.594C231.171 49.4353 231.759 49.356 232.357 49.356C233.505 49.356 234.396 49.6267 235.031 50.168C235.665 50.7093 235.983 51.554 235.983 52.702V57H233.939ZM231.643 57.112C231.055 57.112 230.551 57.014 230.131 56.818C229.711 56.6127 229.389 56.3373 229.165 55.992C228.941 55.6467 228.829 55.2593 228.829 54.83C228.829 54.382 228.936 53.99 229.151 53.654C229.375 53.318 229.725 53.0567 230.201 52.87C230.677 52.674 231.297 52.576 232.063 52.576H234.065V53.85H232.301C231.787 53.85 231.433 53.934 231.237 54.102C231.05 54.27 230.957 54.48 230.957 54.732C230.957 55.012 231.064 55.236 231.279 55.404C231.503 55.5627 231.806 55.642 232.189 55.642C232.553 55.642 232.879 55.558 233.169 55.39C233.458 55.2127 233.668 54.956 233.799 54.62L234.135 55.628C233.976 56.1133 233.687 56.482 233.267 56.734C232.847 56.986 232.305 57.112 231.643 57.112ZM242.537 49.356C243.135 49.356 243.667 49.4773 244.133 49.72C244.609 49.9533 244.983 50.3173 245.253 50.812C245.524 51.2973 245.659 51.9227 245.659 52.688V57H243.475V53.024C243.475 52.4173 243.34 51.9693 243.069 51.68C242.808 51.3907 242.435 51.246 241.949 51.246C241.604 51.246 241.291 51.3207 241.011 51.47C240.741 51.61 240.526 51.8293 240.367 52.128C240.218 52.4267 240.143 52.8093 240.143 53.276V57H237.959V49.468H240.045V51.554L239.653 50.924C239.924 50.42 240.311 50.0327 240.815 49.762C241.319 49.4913 241.893 49.356 242.537 49.356ZM251.236 59.828C250.526 59.828 249.84 59.7393 249.178 59.562C248.524 59.394 247.978 59.1373 247.54 58.792L248.408 57.224C248.725 57.4853 249.126 57.6907 249.612 57.84C250.106 57.9987 250.592 58.078 251.068 58.078C251.842 58.078 252.402 57.9053 252.748 57.56C253.102 57.2147 253.28 56.7013 253.28 56.02V54.886L253.42 52.996L253.392 51.092V49.468H255.464V55.74C255.464 57.14 255.1 58.1713 254.372 58.834C253.644 59.4967 252.598 59.828 251.236 59.828ZM250.9 56.636C250.2 56.636 249.565 56.4867 248.996 56.188C248.436 55.88 247.983 55.4553 247.638 54.914C247.302 54.3633 247.134 53.724 247.134 52.996C247.134 52.2587 247.302 51.6193 247.638 51.078C247.983 50.5273 248.436 50.1027 248.996 49.804C249.565 49.5053 250.2 49.356 250.9 49.356C251.534 49.356 252.094 49.4867 252.58 49.748C253.065 50 253.443 50.3967 253.714 50.938C253.984 51.47 254.12 52.156 254.12 52.996C254.12 53.8267 253.984 54.5127 253.714 55.054C253.443 55.586 253.065 55.9827 252.58 56.244C252.094 56.5053 251.534 56.636 250.9 56.636ZM251.334 54.844C251.716 54.844 252.057 54.7693 252.356 54.62C252.654 54.4613 252.888 54.242 253.056 53.962C253.224 53.682 253.308 53.36 253.308 52.996C253.308 52.6227 253.224 52.3007 253.056 52.03C252.888 51.75 252.654 51.5353 252.356 51.386C252.057 51.2273 251.716 51.148 251.334 51.148C250.951 51.148 250.61 51.2273 250.312 51.386C250.013 51.5353 249.775 51.75 249.598 52.03C249.43 52.3007 249.346 52.6227 249.346 52.996C249.346 53.36 249.43 53.682 249.598 53.962C249.775 54.242 250.013 54.4613 250.312 54.62C250.61 54.7693 250.951 54.844 251.334 54.844ZM261.234 57.112C260.376 57.112 259.62 56.944 258.966 56.608C258.322 56.272 257.823 55.8147 257.468 55.236C257.114 54.648 256.936 53.9807 256.936 53.234C256.936 52.478 257.109 51.8107 257.454 51.232C257.809 50.644 258.29 50.1867 258.896 49.86C259.503 49.524 260.189 49.356 260.954 49.356C261.692 49.356 262.354 49.5147 262.942 49.832C263.54 50.14 264.011 50.588 264.356 51.176C264.702 51.7547 264.874 52.45 264.874 53.262C264.874 53.346 264.87 53.444 264.86 53.556C264.851 53.6587 264.842 53.7567 264.832 53.85H258.714V52.576H263.684L262.844 52.954C262.844 52.562 262.765 52.2213 262.606 51.932C262.448 51.6427 262.228 51.4187 261.948 51.26C261.668 51.092 261.342 51.008 260.968 51.008C260.595 51.008 260.264 51.092 259.974 51.26C259.694 51.4187 259.475 51.6473 259.316 51.946C259.158 52.2353 259.078 52.5807 259.078 52.982V53.318C259.078 53.7287 259.167 54.0927 259.344 54.41C259.531 54.718 259.788 54.956 260.114 55.124C260.45 55.2827 260.842 55.362 261.29 55.362C261.692 55.362 262.042 55.3013 262.34 55.18C262.648 55.0587 262.928 54.8767 263.18 54.634L264.342 55.894C263.997 56.286 263.563 56.5893 263.04 56.804C262.518 57.0093 261.916 57.112 261.234 57.112Z" fill="#F7F7F7"/>
<path d="M220.056 16.096C219.213 16.096 218.429 15.9573 217.704 15.68C216.989 15.392 216.365 14.992 215.832 14.48C215.309 13.9573 214.899 13.3547 214.6 12.672C214.312 11.9787 214.168 11.2213 214.168 10.4C214.168 9.57867 214.312 8.82667 214.6 8.144C214.899 7.45067 215.309 6.848 215.832 6.336C216.365 5.81333 216.989 5.41333 217.704 5.136C218.419 4.848 219.203 4.704 220.056 4.704C220.899 4.704 221.677 4.848 222.392 5.136C223.107 5.41333 223.725 5.808 224.248 6.32C224.781 6.832 225.192 7.43467 225.48 8.128C225.779 8.82133 225.928 9.57867 225.928 10.4C225.928 11.2213 225.779 11.9787 225.48 12.672C225.192 13.3653 224.781 13.968 224.248 14.48C223.725 14.992 223.107 15.392 222.392 15.68C221.677 15.9573 220.899 16.096 220.056 16.096ZM223.72 18.224C223.379 18.224 223.048 18.1813 222.728 18.096C222.408 18.0107 222.083 17.872 221.752 17.68C221.432 17.4987 221.101 17.2587 220.76 16.96C220.419 16.6613 220.045 16.2987 219.64 15.872L220.936 15.552C221.267 15.9467 221.587 16.272 221.896 16.528C222.216 16.784 222.525 16.9707 222.824 17.088C223.133 17.216 223.437 17.28 223.736 17.28C224.568 17.28 225.277 16.9387 225.864 16.256L226.44 16.944C225.736 17.7973 224.829 18.224 223.72 18.224ZM220.056 15.04C220.728 15.04 221.347 14.928 221.912 14.704C222.488 14.4693 222.984 14.1387 223.4 13.712C223.827 13.2853 224.157 12.7947 224.392 12.24C224.627 11.6747 224.744 11.0613 224.744 10.4C224.744 9.728 224.627 9.11467 224.392 8.56C224.157 7.99467 223.827 7.504 223.4 7.088C222.984 6.66133 222.488 6.336 221.912 6.112C221.347 5.87733 220.728 5.76 220.056 5.76C219.384 5.76 218.76 5.87733 218.184 6.112C217.608 6.336 217.107 6.66133 216.68 7.088C216.264 7.504 215.933 7.99467 215.688 8.56C215.453 9.11467 215.336 9.728 215.336 10.4C215.336 11.0613 215.453 11.6747 215.688 12.24C215.933 12.7947 216.264 13.2853 216.68 13.712C217.107 14.1387 217.608 14.4693 218.184 14.704C218.76 14.928 219.384 15.04 220.056 15.04ZM227.226 16V15.184L231.882 10.624C232.308 10.208 232.628 9.84533 232.842 9.536C233.055 9.216 233.199 8.91733 233.274 8.64C233.348 8.36267 233.386 8.10133 233.386 7.856C233.386 7.20533 233.162 6.69333 232.714 6.32C232.276 5.94667 231.626 5.76 230.762 5.76C230.1 5.76 229.514 5.86133 229.002 6.064C228.5 6.26667 228.068 6.58133 227.706 7.008L226.89 6.304C227.327 5.792 227.887 5.39733 228.57 5.12C229.252 4.84267 230.015 4.704 230.858 4.704C231.615 4.704 232.271 4.82667 232.826 5.072C233.38 5.30667 233.807 5.65333 234.106 6.112C234.415 6.57067 234.57 7.10933 234.57 7.728C234.57 8.09067 234.516 8.448 234.41 8.8C234.314 9.152 234.132 9.52533 233.866 9.92C233.61 10.304 233.231 10.7413 232.73 11.232L228.458 15.424L228.138 14.976H235.082V16H227.226ZM240.507 16V15.184L245.163 10.624C245.589 10.208 245.909 9.84533 246.123 9.536C246.336 9.216 246.48 8.91733 246.555 8.64C246.629 8.36267 246.667 8.10133 246.667 7.856C246.667 7.20533 246.443 6.69333 245.995 6.32C245.557 5.94667 244.907 5.76 244.043 5.76C243.381 5.76 242.795 5.86133 242.283 6.064C241.781 6.26667 241.349 6.58133 240.987 7.008L240.171 6.304C240.608 5.792 241.168 5.39733 241.851 5.12C242.533 4.84267 243.296 4.704 244.139 4.704C244.896 4.704 245.552 4.82667 246.107 5.072C246.661 5.30667 247.088 5.65333 247.387 6.112C247.696 6.57067 247.851 7.10933 247.851 7.728C247.851 8.09067 247.797 8.448 247.691 8.8C247.595 9.152 247.413 9.52533 247.147 9.92C246.891 10.304 246.512 10.7413 246.011 11.232L241.739 15.424L241.419 14.976H248.363V16H240.507ZM254.241 16.096C253.377 16.096 252.609 15.872 251.937 15.424C251.265 14.9653 250.737 14.3147 250.353 13.472C249.969 12.6187 249.777 11.5947 249.777 10.4C249.777 9.20533 249.969 8.18667 250.353 7.344C250.737 6.49067 251.265 5.84 251.937 5.392C252.609 4.93333 253.377 4.704 254.241 4.704C255.105 4.704 255.873 4.93333 256.545 5.392C257.217 5.84 257.745 6.49067 258.129 7.344C258.524 8.18667 258.721 9.20533 258.721 10.4C258.721 11.5947 258.524 12.6187 258.129 13.472C257.745 14.3147 257.217 14.9653 256.545 15.424C255.873 15.872 255.105 16.096 254.241 16.096ZM254.241 15.04C254.903 15.04 255.479 14.864 255.969 14.512C256.46 14.1493 256.844 13.6267 257.121 12.944C257.399 12.2507 257.537 11.4027 257.537 10.4C257.537 9.39733 257.399 8.55467 257.121 7.872C256.844 7.17867 256.46 6.656 255.969 6.304C255.479 5.94133 254.903 5.76 254.241 5.76C253.601 5.76 253.031 5.94133 252.529 6.304C252.028 6.656 251.639 7.17867 251.361 7.872C251.084 8.55467 250.945 9.39733 250.945 10.4C250.945 11.4027 251.084 12.2507 251.361 12.944C251.639 13.6267 252.028 14.1493 252.529 14.512C253.031 14.864 253.601 15.04 254.241 15.04ZM260.163 16V15.184L264.819 10.624C265.246 10.208 265.566 9.84533 265.779 9.536C265.992 9.216 266.136 8.91733 266.211 8.64C266.286 8.36267 266.323 8.10133 266.323 7.856C266.323 7.20533 266.099 6.69333 265.651 6.32C265.214 5.94667 264.563 5.76 263.699 5.76C263.038 5.76 262.451 5.86133 261.939 6.064C261.438 6.26667 261.006 6.58133 260.643 7.008L259.827 6.304C260.264 5.792 260.824 5.39733 261.507 5.12C262.19 4.84267 262.952 4.704 263.795 4.704C264.552 4.704 265.208 4.82667 265.763 5.072C266.318 5.30667 266.744 5.65333 267.043 6.112C267.352 6.57067 267.507 7.10933 267.507 7.728C267.507 8.09067 267.454 8.448 267.347 8.8C267.251 9.152 267.07 9.52533 266.803 9.92C266.547 10.304 266.168 10.7413 265.667 11.232L261.395 15.424L261.075 14.976H268.019V16H260.163ZM272.809 16.096C271.998 16.096 271.23 15.968 270.505 15.712C269.79 15.4453 269.214 15.0933 268.777 14.656L269.337 13.744C269.699 14.1173 270.185 14.4267 270.793 14.672C271.411 14.9173 272.083 15.04 272.809 15.04C273.737 15.04 274.446 14.8373 274.937 14.432C275.438 14.0267 275.689 13.4827 275.689 12.8C275.689 12.1173 275.443 11.5733 274.953 11.168C274.473 10.7627 273.71 10.56 272.665 10.56H271.865V9.712L275.321 5.376L275.481 5.824H269.241V4.8H276.441V5.616L272.985 9.952L272.425 9.584H272.857C274.201 9.584 275.203 9.88267 275.865 10.48C276.537 11.0773 276.873 11.8453 276.873 12.784C276.873 13.4133 276.723 13.9787 276.425 14.48C276.126 14.9813 275.673 15.376 275.065 15.664C274.467 15.952 273.715 16.096 272.809 16.096Z" fill="#F7F7F7"/>
<circle cx="301" cy="22" r="8" fill="#222222" stroke="#F5BD00" stroke-width="4"/>
<path d="M218.233 340L222.601 330.2H224.841L229.223 340H226.843L223.259 331.348H224.155L220.557 340H218.233ZM220.417 337.9L221.019 336.178H226.059L226.675 337.9H220.417ZM230.352 340V332.3C230.352 331.451 230.604 330.774 231.108 330.27C231.612 329.757 232.331 329.5 233.264 329.5C233.581 329.5 233.885 329.533 234.174 329.598C234.473 329.663 234.725 329.766 234.93 329.906L234.356 331.488C234.235 331.404 234.099 331.339 233.95 331.292C233.801 331.245 233.642 331.222 233.474 331.222C233.157 331.222 232.909 331.315 232.732 331.502C232.564 331.679 232.48 331.95 232.48 332.314V333.014L232.536 333.952V340H230.352ZM229.19 334.316V332.636H234.412V334.316H229.19ZM235.766 340V332.3C235.766 331.451 236.018 330.774 236.522 330.27C237.026 329.757 237.745 329.5 238.678 329.5C238.996 329.5 239.299 329.533 239.588 329.598C239.887 329.663 240.139 329.766 240.344 329.906L239.77 331.488C239.649 331.404 239.514 331.339 239.364 331.292C239.215 331.245 239.056 331.222 238.888 331.222C238.571 331.222 238.324 331.315 238.146 331.502C237.978 331.679 237.894 331.95 237.894 332.314V333.014L237.95 333.952V340H235.766ZM234.604 334.316V332.636H239.826V334.316H234.604ZM241.058 340V332.468H243.242V340H241.058ZM242.15 331.418C241.749 331.418 241.422 331.301 241.17 331.068C240.918 330.835 240.792 330.545 240.792 330.2C240.792 329.855 240.918 329.565 241.17 329.332C241.422 329.099 241.749 328.982 242.15 328.982C242.552 328.982 242.878 329.094 243.13 329.318C243.382 329.533 243.508 329.813 243.508 330.158C243.508 330.522 243.382 330.825 243.13 331.068C242.888 331.301 242.561 331.418 242.15 331.418ZM245.262 340V329.612H247.446V340H245.262ZM249.473 340V332.468H251.657V340H249.473ZM250.565 331.418C250.164 331.418 249.837 331.301 249.585 331.068C249.333 330.835 249.207 330.545 249.207 330.2C249.207 329.855 249.333 329.565 249.585 329.332C249.837 329.099 250.164 328.982 250.565 328.982C250.966 328.982 251.293 329.094 251.545 329.318C251.797 329.533 251.923 329.813 251.923 330.158C251.923 330.522 251.797 330.825 251.545 331.068C251.302 331.301 250.976 331.418 250.565 331.418ZM258.304 340V338.53L258.164 338.208V335.576C258.164 335.109 258.019 334.745 257.73 334.484C257.45 334.223 257.016 334.092 256.428 334.092C256.026 334.092 255.63 334.157 255.238 334.288C254.855 334.409 254.528 334.577 254.258 334.792L253.474 333.266C253.884 332.977 254.379 332.753 254.958 332.594C255.536 332.435 256.124 332.356 256.722 332.356C257.87 332.356 258.761 332.627 259.396 333.168C260.03 333.709 260.348 334.554 260.348 335.702V340H258.304ZM256.008 340.112C255.42 340.112 254.916 340.014 254.496 339.818C254.076 339.613 253.754 339.337 253.53 338.992C253.306 338.647 253.194 338.259 253.194 337.83C253.194 337.382 253.301 336.99 253.516 336.654C253.74 336.318 254.09 336.057 254.566 335.87C255.042 335.674 255.662 335.576 256.428 335.576H258.43V336.85H256.666C256.152 336.85 255.798 336.934 255.602 337.102C255.415 337.27 255.322 337.48 255.322 337.732C255.322 338.012 255.429 338.236 255.644 338.404C255.868 338.563 256.171 338.642 256.554 338.642C256.918 338.642 257.244 338.558 257.534 338.39C257.823 338.213 258.033 337.956 258.164 337.62L258.5 338.628C258.341 339.113 258.052 339.482 257.632 339.734C257.212 339.986 256.67 340.112 256.008 340.112ZM265.404 340.112C264.518 340.112 263.827 339.888 263.332 339.44C262.838 338.983 262.59 338.306 262.59 337.41V330.802H264.774V337.382C264.774 337.699 264.858 337.947 265.026 338.124C265.194 338.292 265.423 338.376 265.712 338.376C266.058 338.376 266.352 338.283 266.594 338.096L267.182 339.636C266.958 339.795 266.688 339.916 266.37 340C266.062 340.075 265.74 340.112 265.404 340.112ZM261.428 334.316V332.636H266.65V334.316H261.428ZM271.914 340.112C271.055 340.112 270.299 339.944 269.646 339.608C269.002 339.272 268.503 338.815 268.148 338.236C267.793 337.648 267.616 336.981 267.616 336.234C267.616 335.478 267.789 334.811 268.134 334.232C268.489 333.644 268.969 333.187 269.576 332.86C270.183 332.524 270.869 332.356 271.634 332.356C272.371 332.356 273.034 332.515 273.622 332.832C274.219 333.14 274.691 333.588 275.036 334.176C275.381 334.755 275.554 335.45 275.554 336.262C275.554 336.346 275.549 336.444 275.54 336.556C275.531 336.659 275.521 336.757 275.512 336.85H269.394V335.576H274.364L273.524 335.954C273.524 335.562 273.445 335.221 273.286 334.932C273.127 334.643 272.908 334.419 272.628 334.26C272.348 334.092 272.021 334.008 271.648 334.008C271.275 334.008 270.943 334.092 270.654 334.26C270.374 334.419 270.155 334.647 269.996 334.946C269.837 335.235 269.758 335.581 269.758 335.982V336.318C269.758 336.729 269.847 337.093 270.024 337.41C270.211 337.718 270.467 337.956 270.794 338.124C271.13 338.283 271.522 338.362 271.97 338.362C272.371 338.362 272.721 338.301 273.02 338.18C273.328 338.059 273.608 337.877 273.86 337.634L275.022 338.894C274.677 339.286 274.243 339.589 273.72 339.804C273.197 340.009 272.595 340.112 271.914 340.112ZM218.091 358.112C217.456 358.112 216.901 357.972 216.425 357.692C215.949 357.412 215.576 356.987 215.305 356.418C215.044 355.839 214.913 355.111 214.913 354.234C214.913 353.347 215.039 352.619 215.291 352.05C215.543 351.481 215.907 351.056 216.383 350.776C216.859 350.496 217.428 350.356 218.091 350.356C218.8 350.356 219.435 350.519 219.995 350.846C220.564 351.163 221.012 351.611 221.339 352.19C221.675 352.769 221.843 353.45 221.843 354.234C221.843 355.027 221.675 355.713 221.339 356.292C221.012 356.871 220.564 357.319 219.995 357.636C219.435 357.953 218.8 358.112 218.091 358.112ZM213.639 360.716V350.468H215.725V352.008L215.683 354.248L215.823 356.474V360.716H213.639ZM217.713 356.32C218.077 356.32 218.399 356.236 218.679 356.068C218.968 355.9 219.197 355.662 219.365 355.354C219.542 355.037 219.631 354.663 219.631 354.234C219.631 353.795 219.542 353.422 219.365 353.114C219.197 352.806 218.968 352.568 218.679 352.4C218.399 352.232 218.077 352.148 217.713 352.148C217.349 352.148 217.022 352.232 216.733 352.4C216.444 352.568 216.215 352.806 216.047 353.114C215.879 353.422 215.795 353.795 215.795 354.234C215.795 354.663 215.879 355.037 216.047 355.354C216.215 355.662 216.444 355.9 216.733 356.068C217.022 356.236 217.349 356.32 217.713 356.32ZM223.305 358V350.468H225.391V352.596L225.097 351.98C225.321 351.448 225.68 351.047 226.175 350.776C226.67 350.496 227.272 350.356 227.981 350.356V352.372C227.888 352.363 227.804 352.358 227.729 352.358C227.654 352.349 227.575 352.344 227.491 352.344C226.894 352.344 226.408 352.517 226.035 352.862C225.671 353.198 225.489 353.725 225.489 354.444V358H223.305ZM232.809 358.112C232.006 358.112 231.292 357.944 230.667 357.608C230.051 357.272 229.561 356.815 229.197 356.236C228.842 355.648 228.665 354.981 228.665 354.234C228.665 353.478 228.842 352.811 229.197 352.232C229.561 351.644 230.051 351.187 230.667 350.86C231.292 350.524 232.006 350.356 232.809 350.356C233.602 350.356 234.311 350.524 234.937 350.86C235.562 351.187 236.052 351.639 236.407 352.218C236.761 352.797 236.939 353.469 236.939 354.234C236.939 354.981 236.761 355.648 236.407 356.236C236.052 356.815 235.562 357.272 234.937 357.608C234.311 357.944 233.602 358.112 232.809 358.112ZM232.809 356.32C233.173 356.32 233.499 356.236 233.789 356.068C234.078 355.9 234.307 355.662 234.475 355.354C234.643 355.037 234.727 354.663 234.727 354.234C234.727 353.795 234.643 353.422 234.475 353.114C234.307 352.806 234.078 352.568 233.789 352.4C233.499 352.232 233.173 352.148 232.809 352.148C232.445 352.148 232.118 352.232 231.829 352.4C231.539 352.568 231.306 352.806 231.129 353.114C230.961 353.422 230.877 353.795 230.877 354.234C230.877 354.663 230.961 355.037 231.129 355.354C231.306 355.662 231.539 355.9 231.829 356.068C232.118 356.236 232.445 356.32 232.809 356.32ZM241.941 360.828C241.231 360.828 240.545 360.739 239.883 360.562C239.229 360.394 238.683 360.137 238.245 359.792L239.113 358.224C239.43 358.485 239.831 358.691 240.317 358.84C240.811 358.999 241.297 359.078 241.773 359.078C242.547 359.078 243.107 358.905 243.453 358.56C243.807 358.215 243.985 357.701 243.985 357.02V355.886L244.125 353.996L244.097 352.092V350.468H246.169V356.74C246.169 358.14 245.805 359.171 245.077 359.834C244.349 360.497 243.303 360.828 241.941 360.828ZM241.605 357.636C240.905 357.636 240.27 357.487 239.701 357.188C239.141 356.88 238.688 356.455 238.343 355.914C238.007 355.363 237.839 354.724 237.839 353.996C237.839 353.259 238.007 352.619 238.343 352.078C238.688 351.527 239.141 351.103 239.701 350.804C240.27 350.505 240.905 350.356 241.605 350.356C242.239 350.356 242.799 350.487 243.285 350.748C243.77 351 244.148 351.397 244.419 351.938C244.689 352.47 244.825 353.156 244.825 353.996C244.825 354.827 244.689 355.513 244.419 356.054C244.148 356.586 243.77 356.983 243.285 357.244C242.799 357.505 242.239 357.636 241.605 357.636ZM242.039 355.844C242.421 355.844 242.762 355.769 243.061 355.62C243.359 355.461 243.593 355.242 243.761 354.962C243.929 354.682 244.013 354.36 244.013 353.996C244.013 353.623 243.929 353.301 243.761 353.03C243.593 352.75 243.359 352.535 243.061 352.386C242.762 352.227 242.421 352.148 242.039 352.148C241.656 352.148 241.315 352.227 241.017 352.386C240.718 352.535 240.48 352.75 240.303 353.03C240.135 353.301 240.051 353.623 240.051 353.996C240.051 354.36 240.135 354.682 240.303 354.962C240.48 355.242 240.718 355.461 241.017 355.62C241.315 355.769 241.656 355.844 242.039 355.844ZM248.201 358V350.468H250.287V352.596L249.993 351.98C250.217 351.448 250.577 351.047 251.071 350.776C251.566 350.496 252.168 350.356 252.877 350.356V352.372C252.784 352.363 252.7 352.358 252.625 352.358C252.551 352.349 252.471 352.344 252.387 352.344C251.79 352.344 251.305 352.517 250.931 352.862C250.567 353.198 250.385 353.725 250.385 354.444V358H248.201ZM258.304 358V356.53L258.164 356.208V353.576C258.164 353.109 258.019 352.745 257.73 352.484C257.45 352.223 257.016 352.092 256.428 352.092C256.026 352.092 255.63 352.157 255.238 352.288C254.855 352.409 254.528 352.577 254.258 352.792L253.474 351.266C253.884 350.977 254.379 350.753 254.958 350.594C255.536 350.435 256.124 350.356 256.722 350.356C257.87 350.356 258.761 350.627 259.396 351.168C260.03 351.709 260.348 352.554 260.348 353.702V358H258.304ZM256.008 358.112C255.42 358.112 254.916 358.014 254.496 357.818C254.076 357.613 253.754 357.337 253.53 356.992C253.306 356.647 253.194 356.259 253.194 355.83C253.194 355.382 253.301 354.99 253.516 354.654C253.74 354.318 254.09 354.057 254.566 353.87C255.042 353.674 255.662 353.576 256.428 353.576H258.43V354.85H256.666C256.152 354.85 255.798 354.934 255.602 355.102C255.415 355.27 255.322 355.48 255.322 355.732C255.322 356.012 255.429 356.236 255.644 356.404C255.868 356.563 256.171 356.642 256.554 356.642C256.918 356.642 257.244 356.558 257.534 356.39C257.823 356.213 258.033 355.956 258.164 355.62L258.5 356.628C258.341 357.113 258.052 357.482 257.632 357.734C257.212 357.986 256.67 358.112 256.008 358.112ZM271.97 350.356C272.568 350.356 273.095 350.477 273.552 350.72C274.019 350.953 274.383 351.317 274.644 351.812C274.915 352.297 275.05 352.923 275.05 353.688V358H272.866V354.024C272.866 353.417 272.74 352.969 272.488 352.68C272.236 352.391 271.882 352.246 271.424 352.246C271.107 352.246 270.822 352.321 270.57 352.47C270.318 352.61 270.122 352.825 269.982 353.114C269.842 353.403 269.772 353.772 269.772 354.22V358H267.588V354.024C267.588 353.417 267.462 352.969 267.21 352.68C266.968 352.391 266.618 352.246 266.16 352.246C265.843 352.246 265.558 352.321 265.306 352.47C265.054 352.61 264.858 352.825 264.718 353.114C264.578 353.403 264.508 353.772 264.508 354.22V358H262.324V350.468H264.41V352.526L264.018 351.924C264.28 351.411 264.648 351.023 265.124 350.762C265.61 350.491 266.16 350.356 266.776 350.356C267.467 350.356 268.069 350.533 268.582 350.888C269.105 351.233 269.45 351.765 269.618 352.484L268.848 352.274C269.1 351.686 269.502 351.219 270.052 350.874C270.612 350.529 271.252 350.356 271.97 350.356Z" fill="#F7F7F7"/>
<path d="M215.095 318.096C214.252 318.096 213.468 317.957 212.743 317.68C212.028 317.392 211.404 316.992 210.871 316.48C210.348 315.957 209.938 315.355 209.639 314.672C209.351 313.979 209.207 313.221 209.207 312.4C209.207 311.579 209.351 310.827 209.639 310.144C209.938 309.451 210.348 308.848 210.871 308.336C211.404 307.813 212.028 307.413 212.743 307.136C213.458 306.848 214.242 306.704 215.095 306.704C215.938 306.704 216.716 306.848 217.431 307.136C218.146 307.413 218.764 307.808 219.287 308.32C219.82 308.832 220.231 309.435 220.519 310.128C220.818 310.821 220.967 311.579 220.967 312.4C220.967 313.221 220.818 313.979 220.519 314.672C220.231 315.365 219.82 315.968 219.287 316.48C218.764 316.992 218.146 317.392 217.431 317.68C216.716 317.957 215.938 318.096 215.095 318.096ZM218.759 320.224C218.418 320.224 218.087 320.181 217.767 320.096C217.447 320.011 217.122 319.872 216.791 319.68C216.471 319.499 216.14 319.259 215.799 318.96C215.458 318.661 215.084 318.299 214.679 317.872L215.975 317.552C216.306 317.947 216.626 318.272 216.935 318.528C217.255 318.784 217.564 318.971 217.863 319.088C218.172 319.216 218.476 319.28 218.775 319.28C219.607 319.28 220.316 318.939 220.903 318.256L221.479 318.944C220.775 319.797 219.868 320.224 218.759 320.224ZM215.095 317.04C215.767 317.04 216.386 316.928 216.951 316.704C217.527 316.469 218.023 316.139 218.439 315.712C218.866 315.285 219.196 314.795 219.431 314.24C219.666 313.675 219.783 313.061 219.783 312.4C219.783 311.728 219.666 311.115 219.431 310.56C219.196 309.995 218.866 309.504 218.439 309.088C218.023 308.661 217.527 308.336 216.951 308.112C216.386 307.877 215.767 307.76 215.095 307.76C214.423 307.76 213.799 307.877 213.223 308.112C212.647 308.336 212.146 308.661 211.719 309.088C211.303 309.504 210.972 309.995 210.727 310.56C210.492 311.115 210.375 311.728 210.375 312.4C210.375 313.061 210.492 313.675 210.727 314.24C210.972 314.795 211.303 315.285 211.719 315.712C212.146 316.139 212.647 316.469 213.223 316.704C213.799 316.928 214.423 317.04 215.095 317.04ZM225.801 318.096C224.99 318.096 224.222 317.968 223.497 317.712C222.782 317.445 222.206 317.093 221.769 316.656L222.329 315.744C222.692 316.117 223.177 316.427 223.785 316.672C224.404 316.917 225.076 317.04 225.801 317.04C226.729 317.04 227.438 316.837 227.929 316.432C228.43 316.027 228.681 315.483 228.681 314.8C228.681 314.117 228.436 313.573 227.945 313.168C227.465 312.763 226.702 312.56 225.657 312.56H224.857V311.712L228.313 307.376L228.473 307.824H222.233V306.8H229.433V307.616L225.977 311.952L225.417 311.584H225.849C227.193 311.584 228.196 311.883 228.857 312.48C229.529 313.077 229.865 313.845 229.865 314.784C229.865 315.413 229.716 315.979 229.417 316.48C229.118 316.981 228.665 317.376 228.057 317.664C227.46 317.952 226.708 318.096 225.801 318.096ZM235.468 318V317.184L240.124 312.624C240.55 312.208 240.87 311.845 241.084 311.536C241.297 311.216 241.441 310.917 241.516 310.64C241.59 310.363 241.628 310.101 241.628 309.856C241.628 309.205 241.404 308.693 240.956 308.32C240.518 307.947 239.868 307.76 239.004 307.76C238.342 307.76 237.756 307.861 237.244 308.064C236.742 308.267 236.31 308.581 235.948 309.008L235.132 308.304C235.569 307.792 236.129 307.397 236.812 307.12C237.494 306.843 238.257 306.704 239.1 306.704C239.857 306.704 240.513 306.827 241.068 307.072C241.622 307.307 242.049 307.653 242.348 308.112C242.657 308.571 242.812 309.109 242.812 309.728C242.812 310.091 242.758 310.448 242.652 310.8C242.556 311.152 242.374 311.525 242.108 311.92C241.852 312.304 241.473 312.741 240.972 313.232L236.7 317.424L236.38 316.976H243.324V318H235.468ZM249.202 318.096C248.338 318.096 247.57 317.872 246.898 317.424C246.226 316.965 245.698 316.315 245.314 315.472C244.93 314.619 244.738 313.595 244.738 312.4C244.738 311.205 244.93 310.187 245.314 309.344C245.698 308.491 246.226 307.84 246.898 307.392C247.57 306.933 248.338 306.704 249.202 306.704C250.066 306.704 250.834 306.933 251.506 307.392C252.178 307.84 252.706 308.491 253.09 309.344C253.485 310.187 253.682 311.205 253.682 312.4C253.682 313.595 253.485 314.619 253.09 315.472C252.706 316.315 252.178 316.965 251.506 317.424C250.834 317.872 250.066 318.096 249.202 318.096ZM249.202 317.04C249.864 317.04 250.44 316.864 250.93 316.512C251.421 316.149 251.805 315.627 252.082 314.944C252.36 314.251 252.498 313.403 252.498 312.4C252.498 311.397 252.36 310.555 252.082 309.872C251.805 309.179 251.421 308.656 250.93 308.304C250.44 307.941 249.864 307.76 249.202 307.76C248.562 307.76 247.992 307.941 247.49 308.304C246.989 308.656 246.6 309.179 246.322 309.872C246.045 310.555 245.906 311.397 245.906 312.4C245.906 313.403 246.045 314.251 246.322 314.944C246.6 315.627 246.989 316.149 247.49 316.512C247.992 316.864 248.562 317.04 249.202 317.04ZM255.124 318V317.184L259.78 312.624C260.207 312.208 260.527 311.845 260.74 311.536C260.953 311.216 261.097 310.917 261.172 310.64C261.247 310.363 261.284 310.101 261.284 309.856C261.284 309.205 261.06 308.693 260.612 308.32C260.175 307.947 259.524 307.76 258.66 307.76C257.999 307.76 257.412 307.861 256.9 308.064C256.399 308.267 255.967 308.581 255.604 309.008L254.788 308.304C255.225 307.792 255.785 307.397 256.468 307.12C257.151 306.843 257.913 306.704 258.756 306.704C259.513 306.704 260.169 306.827 260.724 307.072C261.279 307.307 261.705 307.653 262.004 308.112C262.313 308.571 262.468 309.109 262.468 309.728C262.468 310.091 262.415 310.448 262.308 310.8C262.212 311.152 262.031 311.525 261.764 311.92C261.508 312.304 261.129 312.741 260.628 313.232L256.356 317.424L256.036 316.976H262.98V318H255.124ZM267.77 318.096C266.959 318.096 266.191 317.968 265.466 317.712C264.751 317.445 264.175 317.093 263.738 316.656L264.298 315.744C264.66 316.117 265.146 316.427 265.754 316.672C266.372 316.917 267.044 317.04 267.77 317.04C268.698 317.04 269.407 316.837 269.898 316.432C270.399 316.027 270.65 315.483 270.65 314.8C270.65 314.117 270.404 313.573 269.914 313.168C269.434 312.763 268.671 312.56 267.626 312.56H266.826V311.712L270.282 307.376L270.442 307.824H264.202V306.8H271.402V307.616L267.946 311.952L267.386 311.584H267.818C269.162 311.584 270.164 311.883 270.826 312.48C271.498 313.077 271.834 313.845 271.834 314.784C271.834 315.413 271.684 315.979 271.386 316.48C271.087 316.981 270.634 317.376 270.026 317.664C269.428 317.952 268.676 318.096 267.77 318.096Z" fill="#F7F7F7"/>
<circle cx="301" cy="323" r="8" fill="#222222" stroke="#F5BD00" stroke-width="4"/>
<path d="M33.3661 320V310.2H35.2421L39.4141 317.116H38.4201L42.5221 310.2H44.3841L44.4121 320H42.2841L42.2701 313.462H42.6621L39.3861 318.964H38.3641L35.0181 313.462H35.4941V320H33.3661ZM51.2032 320V318.53L51.0632 318.208V315.576C51.0632 315.109 50.9185 314.745 50.6292 314.484C50.3492 314.223 49.9152 314.092 49.3272 314.092C48.9259 314.092 48.5292 314.157 48.1372 314.288C47.7545 314.409 47.4279 314.577 47.1572 314.792L46.3732 313.266C46.7839 312.977 47.2785 312.753 47.8572 312.594C48.4359 312.435 49.0239 312.356 49.6212 312.356C50.7692 312.356 51.6605 312.627 52.2952 313.168C52.9299 313.709 53.2472 314.554 53.2472 315.702V320H51.2032ZM48.9072 320.112C48.3192 320.112 47.8152 320.014 47.3952 319.818C46.9752 319.613 46.6532 319.337 46.4292 318.992C46.2052 318.647 46.0932 318.259 46.0932 317.83C46.0932 317.382 46.2005 316.99 46.4152 316.654C46.6392 316.318 46.9892 316.057 47.4652 315.87C47.9412 315.674 48.5619 315.576 49.3272 315.576H51.3292V316.85H49.5652C49.0519 316.85 48.6972 316.934 48.5012 317.102C48.3145 317.27 48.2212 317.48 48.2212 317.732C48.2212 318.012 48.3285 318.236 48.5432 318.404C48.7672 318.563 49.0705 318.642 49.4532 318.642C49.8172 318.642 50.1439 318.558 50.4332 318.39C50.7225 318.213 50.9325 317.956 51.0632 317.62L51.3992 318.628C51.2405 319.113 50.9512 319.482 50.5312 319.734C50.1112 319.986 49.5699 320.112 48.9072 320.112ZM55.2238 320V312.468H57.3098V314.596L57.0158 313.98C57.2398 313.448 57.5992 313.047 58.0938 312.776C58.5885 312.496 59.1905 312.356 59.8998 312.356V314.372C59.8065 314.363 59.7225 314.358 59.6478 314.358C59.5732 314.349 59.4938 314.344 59.4098 314.344C58.8125 314.344 58.3272 314.517 57.9538 314.862C57.5898 315.198 57.4078 315.725 57.4078 316.444V320H55.2238ZM63.0181 318.46L63.0741 315.8L66.5881 312.468H69.1921L65.8181 315.898L64.6841 316.822L63.0181 318.46ZM61.2121 320V309.612H63.3961V320H61.2121ZM66.8261 320L64.2781 316.836L65.6501 315.142L69.4721 320H66.8261ZM73.8778 320.112C73.0192 320.112 72.2632 319.944 71.6098 319.608C70.9658 319.272 70.4665 318.815 70.1118 318.236C69.7572 317.648 69.5798 316.981 69.5798 316.234C69.5798 315.478 69.7525 314.811 70.0978 314.232C70.4525 313.644 70.9332 313.187 71.5398 312.86C72.1465 312.524 72.8325 312.356 73.5978 312.356C74.3352 312.356 74.9978 312.515 75.5858 312.832C76.1832 313.14 76.6545 313.588 76.9998 314.176C77.3452 314.755 77.5178 315.45 77.5178 316.262C77.5178 316.346 77.5132 316.444 77.5038 316.556C77.4945 316.659 77.4852 316.757 77.4758 316.85H71.3578V315.576H76.3278L75.4878 315.954C75.4878 315.562 75.4085 315.221 75.2498 314.932C75.0912 314.643 74.8718 314.419 74.5918 314.26C74.3118 314.092 73.9852 314.008 73.6118 314.008C73.2385 314.008 72.9072 314.092 72.6178 314.26C72.3378 314.419 72.1185 314.647 71.9598 314.946C71.8012 315.235 71.7218 315.581 71.7218 315.982V316.318C71.7218 316.729 71.8105 317.093 71.9878 317.41C72.1745 317.718 72.4312 317.956 72.7578 318.124C73.0938 318.283 73.4858 318.362 73.9338 318.362C74.3352 318.362 74.6852 318.301 74.9838 318.18C75.2918 318.059 75.5718 317.877 75.8238 317.634L76.9858 318.894C76.6405 319.286 76.2065 319.589 75.6838 319.804C75.1612 320.009 74.5592 320.112 73.8778 320.112ZM82.0519 320.112C81.1652 320.112 80.4745 319.888 79.9799 319.44C79.4852 318.983 79.2379 318.306 79.2379 317.41V310.802H81.4219V317.382C81.4219 317.699 81.5059 317.947 81.6739 318.124C81.8419 318.292 82.0705 318.376 82.3599 318.376C82.7052 318.376 82.9992 318.283 83.2419 318.096L83.8299 319.636C83.6059 319.795 83.3352 319.916 83.0179 320C82.7099 320.075 82.3879 320.112 82.0519 320.112ZM78.0759 314.316V312.636H83.2979V314.316H78.0759ZM85.0559 320V312.468H87.2399V320H85.0559ZM86.1479 311.418C85.7465 311.418 85.4199 311.301 85.1679 311.068C84.9159 310.835 84.7899 310.545 84.7899 310.2C84.7899 309.855 84.9159 309.565 85.1679 309.332C85.4199 309.099 85.7465 308.982 86.1479 308.982C86.5492 308.982 86.8759 309.094 87.1279 309.318C87.3799 309.533 87.5059 309.813 87.5059 310.158C87.5059 310.522 87.3799 310.825 87.1279 311.068C86.8852 311.301 86.5585 311.418 86.1479 311.418ZM93.8448 312.356C94.4421 312.356 94.9741 312.477 95.4408 312.72C95.9168 312.953 96.2901 313.317 96.5608 313.812C96.8315 314.297 96.9668 314.923 96.9668 315.688V320H94.7828V316.024C94.7828 315.417 94.6475 314.969 94.3768 314.68C94.1155 314.391 93.7421 314.246 93.2568 314.246C92.9115 314.246 92.5988 314.321 92.3188 314.47C92.0481 314.61 91.8335 314.829 91.6748 315.128C91.5255 315.427 91.4508 315.809 91.4508 316.276V320H89.2668V312.468H91.3528V314.554L90.9608 313.924C91.2315 313.42 91.6188 313.033 92.1228 312.762C92.6268 312.491 93.2008 312.356 93.8448 312.356ZM102.543 322.828C101.834 322.828 101.148 322.739 100.485 322.562C99.8318 322.394 99.2858 322.137 98.8472 321.792L99.7152 320.224C100.032 320.485 100.434 320.691 100.919 320.84C101.414 320.999 101.899 321.078 102.375 321.078C103.15 321.078 103.71 320.905 104.055 320.56C104.41 320.215 104.587 319.701 104.587 319.02V317.886L104.727 315.996L104.699 314.092V312.468H106.771V318.74C106.771 320.14 106.407 321.171 105.679 321.834C104.951 322.497 103.906 322.828 102.543 322.828ZM102.207 319.636C101.507 319.636 100.872 319.487 100.303 319.188C99.7432 318.88 99.2905 318.455 98.9452 317.914C98.6092 317.363 98.4412 316.724 98.4412 315.996C98.4412 315.259 98.6092 314.619 98.9452 314.078C99.2905 313.527 99.7432 313.103 100.303 312.804C100.872 312.505 101.507 312.356 102.207 312.356C102.842 312.356 103.402 312.487 103.887 312.748C104.372 313 104.75 313.397 105.021 313.938C105.292 314.47 105.427 315.156 105.427 315.996C105.427 316.827 105.292 317.513 105.021 318.054C104.75 318.586 104.372 318.983 103.887 319.244C103.402 319.505 102.842 319.636 102.207 319.636ZM102.641 317.844C103.024 317.844 103.364 317.769 103.663 317.62C103.962 317.461 104.195 317.242 104.363 316.962C104.531 316.682 104.615 316.36 104.615 315.996C104.615 315.623 104.531 315.301 104.363 315.03C104.195 314.75 103.962 314.535 103.663 314.386C103.364 314.227 103.024 314.148 102.641 314.148C102.258 314.148 101.918 314.227 101.619 314.386C101.32 314.535 101.082 314.75 100.905 315.03C100.737 315.301 100.653 315.623 100.653 315.996C100.653 316.36 100.737 316.682 100.905 316.962C101.082 317.242 101.32 317.461 101.619 317.62C101.918 317.769 102.258 317.844 102.641 317.844Z" fill="#F7F7F7"/>
<path d="M36.7356 344.096C35.893 344.096 35.109 343.957 34.3836 343.68C33.669 343.392 33.045 342.992 32.5116 342.48C31.989 341.957 31.5783 341.355 31.2796 340.672C30.9916 339.979 30.8476 339.221 30.8476 338.4C30.8476 337.579 30.9916 336.827 31.2796 336.144C31.5783 335.451 31.989 334.848 32.5116 334.336C33.045 333.813 33.669 333.413 34.3836 333.136C35.0983 332.848 35.8823 332.704 36.7356 332.704C37.5783 332.704 38.357 332.848 39.0716 333.136C39.7863 333.413 40.405 333.808 40.9276 334.32C41.461 334.832 41.8716 335.435 42.1596 336.128C42.4583 336.821 42.6076 337.579 42.6076 338.4C42.6076 339.221 42.4583 339.979 42.1596 340.672C41.8716 341.365 41.461 341.968 40.9276 342.48C40.405 342.992 39.7863 343.392 39.0716 343.68C38.357 343.957 37.5783 344.096 36.7356 344.096ZM40.3996 346.224C40.0583 346.224 39.7276 346.181 39.4076 346.096C39.0876 346.011 38.7623 345.872 38.4316 345.68C38.1116 345.499 37.781 345.259 37.4396 344.96C37.0983 344.661 36.725 344.299 36.3196 343.872L37.6156 343.552C37.9463 343.947 38.2663 344.272 38.5756 344.528C38.8956 344.784 39.205 344.971 39.5036 345.088C39.813 345.216 40.117 345.28 40.4156 345.28C41.2476 345.28 41.957 344.939 42.5436 344.256L43.1196 344.944C42.4156 345.797 41.509 346.224 40.3996 346.224ZM36.7356 343.04C37.4076 343.04 38.0263 342.928 38.5916 342.704C39.1676 342.469 39.6636 342.139 40.0796 341.712C40.5063 341.285 40.837 340.795 41.0716 340.24C41.3063 339.675 41.4236 339.061 41.4236 338.4C41.4236 337.728 41.3063 337.115 41.0716 336.56C40.837 335.995 40.5063 335.504 40.0796 335.088C39.6636 334.661 39.1676 334.336 38.5916 334.112C38.0263 333.877 37.4076 333.76 36.7356 333.76C36.0636 333.76 35.4396 333.877 34.8636 334.112C34.2876 334.336 33.7863 334.661 33.3596 335.088C32.9436 335.504 32.613 335.995 32.3676 336.56C32.133 337.115 32.0156 337.728 32.0156 338.4C32.0156 339.061 32.133 339.675 32.3676 340.24C32.613 340.795 32.9436 341.285 33.3596 341.712C33.7863 342.139 34.2876 342.469 34.8636 342.704C35.4396 342.928 36.0636 343.04 36.7356 343.04ZM44.0775 341.056V340.224L50.0135 332.8H51.2935L45.4055 340.224L44.7815 340.032H53.7895V341.056H44.0775ZM50.3975 344V341.056L50.4295 340.032V337.44H51.5495V344H50.3975ZM58.8271 344V343.184L63.4831 338.624C63.9098 338.208 64.2298 337.845 64.4431 337.536C64.6565 337.216 64.8005 336.917 64.8751 336.64C64.9498 336.363 64.9871 336.101 64.9871 335.856C64.9871 335.205 64.7631 334.693 64.3151 334.32C63.8778 333.947 63.2271 333.76 62.3631 333.76C61.7018 333.76 61.1151 333.861 60.6031 334.064C60.1018 334.267 59.6698 334.581 59.3071 335.008L58.4911 334.304C58.9285 333.792 59.4885 333.397 60.1711 333.12C60.8538 332.843 61.6165 332.704 62.4591 332.704C63.2165 332.704 63.8725 332.827 64.4271 333.072C64.9818 333.307 65.4085 333.653 65.7071 334.112C66.0165 334.571 66.1711 335.109 66.1711 335.728C66.1711 336.091 66.1178 336.448 66.0111 336.8C65.9151 337.152 65.7338 337.525 65.4671 337.92C65.2111 338.304 64.8325 338.741 64.3311 339.232L60.0591 343.424L59.7391 342.976H66.6831V344H58.8271ZM72.5616 344.096C71.6976 344.096 70.9296 343.872 70.2576 343.424C69.5856 342.965 69.0576 342.315 68.6736 341.472C68.2896 340.619 68.0976 339.595 68.0976 338.4C68.0976 337.205 68.2896 336.187 68.6736 335.344C69.0576 334.491 69.5856 333.84 70.2576 333.392C70.9296 332.933 71.6976 332.704 72.5616 332.704C73.4256 332.704 74.1936 332.933 74.8656 333.392C75.5376 333.84 76.0656 334.491 76.4496 335.344C76.8443 336.187 77.0416 337.205 77.0416 338.4C77.0416 339.595 76.8443 340.619 76.4496 341.472C76.0656 342.315 75.5376 342.965 74.8656 343.424C74.1936 343.872 73.4256 344.096 72.5616 344.096ZM72.5616 343.04C73.223 343.04 73.799 342.864 74.2896 342.512C74.7803 342.149 75.1643 341.627 75.4416 340.944C75.719 340.251 75.8576 339.403 75.8576 338.4C75.8576 337.397 75.719 336.555 75.4416 335.872C75.1643 335.179 74.7803 334.656 74.2896 334.304C73.799 333.941 73.223 333.76 72.5616 333.76C71.9216 333.76 71.351 333.941 70.8496 334.304C70.3483 334.656 69.959 335.179 69.6816 335.872C69.4043 336.555 69.2656 337.397 69.2656 338.4C69.2656 339.403 69.4043 340.251 69.6816 340.944C69.959 341.627 70.3483 342.149 70.8496 342.512C71.351 342.864 71.9216 343.04 72.5616 343.04ZM78.4834 344V343.184L83.1394 338.624C83.566 338.208 83.886 337.845 84.0994 337.536C84.3127 337.216 84.4567 336.917 84.5314 336.64C84.606 336.363 84.6434 336.101 84.6434 335.856C84.6434 335.205 84.4194 334.693 83.9714 334.32C83.534 333.947 82.8834 333.76 82.0194 333.76C81.358 333.76 80.7714 333.861 80.2594 334.064C79.758 334.267 79.326 334.581 78.9634 335.008L78.1474 334.304C78.5847 333.792 79.1447 333.397 79.8274 333.12C80.51 332.843 81.2727 332.704 82.1154 332.704C82.8727 332.704 83.5287 332.827 84.0834 333.072C84.638 333.307 85.0647 333.653 85.3634 334.112C85.6727 334.571 85.8274 335.109 85.8274 335.728C85.8274 336.091 85.774 336.448 85.6674 336.8C85.5714 337.152 85.39 337.525 85.1234 337.92C84.8674 338.304 84.4887 338.741 83.9874 339.232L79.7154 343.424L79.3954 342.976H86.3394V344H78.4834ZM91.1291 344.096C90.3185 344.096 89.5505 343.968 88.8251 343.712C88.1105 343.445 87.5345 343.093 87.0971 342.656L87.6571 341.744C88.0198 342.117 88.5051 342.427 89.1131 342.672C89.7318 342.917 90.4038 343.04 91.1291 343.04C92.0571 343.04 92.7665 342.837 93.2571 342.432C93.7585 342.027 94.0091 341.483 94.0091 340.8C94.0091 340.117 93.7638 339.573 93.2731 339.168C92.7931 338.763 92.0305 338.56 90.9851 338.56H90.1851V337.712L93.6411 333.376L93.8011 333.824H87.5611V332.8H94.7611V333.616L91.3051 337.952L90.7451 337.584H91.1771C92.5211 337.584 93.5238 337.883 94.1851 338.48C94.8571 339.077 95.1931 339.845 95.1931 340.784C95.1931 341.413 95.0438 341.979 94.7451 342.48C94.4465 342.981 93.9931 343.376 93.3851 343.664C92.7878 343.952 92.0358 344.096 91.1291 344.096Z" fill="#F7F7F7"/>
<circle cx="14" cy="321" r="8" fill="#222222" stroke="#F5BD00" stroke-width="4"/>
<path d="M64.6977 620.168C63.9417 620.168 63.237 620.047 62.5837 619.804C61.9397 619.552 61.3797 619.197 60.9037 618.74C60.4277 618.283 60.0544 617.746 59.7837 617.13C59.5224 616.514 59.3917 615.837 59.3917 615.1C59.3917 614.363 59.5224 613.686 59.7837 613.07C60.0544 612.454 60.4277 611.917 60.9037 611.46C61.389 611.003 61.9537 610.653 62.5977 610.41C63.2417 610.158 63.9464 610.032 64.7117 610.032C65.561 610.032 66.3264 610.181 67.0077 610.48C67.6984 610.769 68.277 611.199 68.7437 611.768L67.2877 613.112C66.9517 612.729 66.5784 612.445 66.1677 612.258C65.757 612.062 65.309 611.964 64.8237 611.964C64.3664 611.964 63.9464 612.039 63.5637 612.188C63.181 612.337 62.8497 612.552 62.5697 612.832C62.2897 613.112 62.0704 613.443 61.9117 613.826C61.7624 614.209 61.6877 614.633 61.6877 615.1C61.6877 615.567 61.7624 615.991 61.9117 616.374C62.0704 616.757 62.2897 617.088 62.5697 617.368C62.8497 617.648 63.181 617.863 63.5637 618.012C63.9464 618.161 64.3664 618.236 64.8237 618.236C65.309 618.236 65.757 618.143 66.1677 617.956C66.5784 617.76 66.9517 617.466 67.2877 617.074L68.7437 618.418C68.277 618.987 67.6984 619.421 67.0077 619.72C66.3264 620.019 65.5564 620.168 64.6977 620.168ZM73.4455 620.112C72.6428 620.112 71.9288 619.944 71.3035 619.608C70.6875 619.272 70.1975 618.815 69.8335 618.236C69.4788 617.648 69.3015 616.981 69.3015 616.234C69.3015 615.478 69.4788 614.811 69.8335 614.232C70.1975 613.644 70.6875 613.187 71.3035 612.86C71.9288 612.524 72.6428 612.356 73.4455 612.356C74.2388 612.356 74.9482 612.524 75.5735 612.86C76.1988 613.187 76.6888 613.639 77.0435 614.218C77.3982 614.797 77.5755 615.469 77.5755 616.234C77.5755 616.981 77.3982 617.648 77.0435 618.236C76.6888 618.815 76.1988 619.272 75.5735 619.608C74.9482 619.944 74.2388 620.112 73.4455 620.112ZM73.4455 618.32C73.8095 618.32 74.1362 618.236 74.4255 618.068C74.7148 617.9 74.9435 617.662 75.1115 617.354C75.2795 617.037 75.3635 616.663 75.3635 616.234C75.3635 615.795 75.2795 615.422 75.1115 615.114C74.9435 614.806 74.7148 614.568 74.4255 614.4C74.1362 614.232 73.8095 614.148 73.4455 614.148C73.0815 614.148 72.7548 614.232 72.4655 614.4C72.1762 614.568 71.9428 614.806 71.7655 615.114C71.5975 615.422 71.5135 615.795 71.5135 616.234C71.5135 616.663 71.5975 617.037 71.7655 617.354C71.9428 617.662 72.1762 617.9 72.4655 618.068C72.7548 618.236 73.0815 618.32 73.4455 618.32ZM83.6133 612.356C84.2107 612.356 84.7427 612.477 85.2093 612.72C85.6853 612.953 86.0587 613.317 86.3293 613.812C86.6 614.297 86.7353 614.923 86.7353 615.688V620H84.5513V616.024C84.5513 615.417 84.416 614.969 84.1453 614.68C83.884 614.391 83.5107 614.246 83.0253 614.246C82.68 614.246 82.3673 614.321 82.0873 614.47C81.8167 614.61 81.602 614.829 81.4433 615.128C81.294 615.427 81.2193 615.809 81.2193 616.276V620H79.0353V612.468H81.1213V614.554L80.7293 613.924C81 613.42 81.3873 613.033 81.8913 612.762C82.3953 612.491 82.9693 612.356 83.6133 612.356ZM91.795 620.112C90.9084 620.112 90.2177 619.888 89.723 619.44C89.2284 618.983 88.981 618.306 88.981 617.41V610.802H91.165V617.382C91.165 617.699 91.249 617.947 91.417 618.124C91.585 618.292 91.8137 618.376 92.103 618.376C92.4484 618.376 92.7424 618.283 92.985 618.096L93.573 619.636C93.349 619.795 93.0784 619.916 92.761 620C92.453 620.075 92.131 620.112 91.795 620.112ZM87.819 614.316V612.636H93.041V614.316H87.819ZM98.3046 620.112C97.4459 620.112 96.6899 619.944 96.0366 619.608C95.3926 619.272 94.8933 618.815 94.5386 618.236C94.1839 617.648 94.0066 616.981 94.0066 616.234C94.0066 615.478 94.1793 614.811 94.5246 614.232C94.8793 613.644 95.3599 613.187 95.9666 612.86C96.5733 612.524 97.2593 612.356 98.0246 612.356C98.7619 612.356 99.4246 612.515 100.013 612.832C100.61 613.14 101.081 613.588 101.427 614.176C101.772 614.755 101.945 615.45 101.945 616.262C101.945 616.346 101.94 616.444 101.931 616.556C101.921 616.659 101.912 616.757 101.903 616.85H95.7846V615.576H100.755L99.9146 615.954C99.9146 615.562 99.8353 615.221 99.6766 614.932C99.5179 614.643 99.2986 614.419 99.0186 614.26C98.7386 614.092 98.4119 614.008 98.0386 614.008C97.6653 614.008 97.3339 614.092 97.0446 614.26C96.7646 614.419 96.5453 614.647 96.3866 614.946C96.2279 615.235 96.1486 615.581 96.1486 615.982V616.318C96.1486 616.729 96.2373 617.093 96.4146 617.41C96.6013 617.718 96.8579 617.956 97.1846 618.124C97.5206 618.283 97.9126 618.362 98.3606 618.362C98.7619 618.362 99.1119 618.301 99.4106 618.18C99.7186 618.059 99.9986 617.877 100.251 617.634L101.413 618.894C101.067 619.286 100.633 619.589 100.111 619.804C99.5879 620.009 98.9859 620.112 98.3046 620.112ZM107.977 612.356C108.574 612.356 109.106 612.477 109.573 612.72C110.049 612.953 110.422 613.317 110.693 613.812C110.963 614.297 111.099 614.923 111.099 615.688V620H108.915V616.024C108.915 615.417 108.779 614.969 108.509 614.68C108.247 614.391 107.874 614.246 107.389 614.246C107.043 614.246 106.731 614.321 106.451 614.47C106.18 614.61 105.965 614.829 105.807 615.128C105.657 615.427 105.583 615.809 105.583 616.276V620H103.399V612.468H105.485V614.554L105.093 613.924C105.363 613.42 105.751 613.033 106.255 612.762C106.759 612.491 107.333 612.356 107.977 612.356ZM116.158 620.112C115.272 620.112 114.581 619.888 114.086 619.44C113.592 618.983 113.344 618.306 113.344 617.41V610.802H115.528V617.382C115.528 617.699 115.612 617.947 115.78 618.124C115.948 618.292 116.177 618.376 116.466 618.376C116.812 618.376 117.106 618.283 117.348 618.096L117.936 619.636C117.712 619.795 117.442 619.916 117.124 620C116.816 620.075 116.494 620.112 116.158 620.112ZM112.182 614.316V612.636H117.404V614.316H112.182Z" fill="#F7F7F7"/>
<path d="M45.1184 644.096C44.2758 644.096 43.4918 643.957 42.7664 643.68C42.0518 643.392 41.4278 642.992 40.8944 642.48C40.3718 641.957 39.9611 641.355 39.6624 640.672C39.3744 639.979 39.2304 639.221 39.2304 638.4C39.2304 637.579 39.3744 636.827 39.6624 636.144C39.9611 635.451 40.3718 634.848 40.8944 634.336C41.4278 633.813 42.0518 633.413 42.7664 633.136C43.4811 632.848 44.2651 632.704 45.1184 632.704C45.9611 632.704 46.7398 632.848 47.4544 633.136C48.1691 633.413 48.7878 633.808 49.3104 634.32C49.8438 634.832 50.2544 635.435 50.5424 636.128C50.8411 636.821 50.9904 637.579 50.9904 638.4C50.9904 639.221 50.8411 639.979 50.5424 640.672C50.2544 641.365 49.8438 641.968 49.3104 642.48C48.7878 642.992 48.1691 643.392 47.4544 643.68C46.7398 643.957 45.9611 644.096 45.1184 644.096ZM48.7824 646.224C48.4411 646.224 48.1104 646.181 47.7904 646.096C47.4704 646.011 47.1451 645.872 46.8144 645.68C46.4944 645.499 46.1638 645.259 45.8224 644.96C45.4811 644.661 45.1078 644.299 44.7024 643.872L45.9984 643.552C46.3291 643.947 46.6491 644.272 46.9584 644.528C47.2784 644.784 47.5878 644.971 47.8864 645.088C48.1958 645.216 48.4998 645.28 48.7984 645.28C49.6304 645.28 50.3398 644.939 50.9264 644.256L51.5024 644.944C50.7984 645.797 49.8918 646.224 48.7824 646.224ZM45.1184 643.04C45.7904 643.04 46.4091 642.928 46.9744 642.704C47.5504 642.469 48.0464 642.139 48.4624 641.712C48.8891 641.285 49.2198 640.795 49.4544 640.24C49.6891 639.675 49.8064 639.061 49.8064 638.4C49.8064 637.728 49.6891 637.115 49.4544 636.56C49.2198 635.995 48.8891 635.504 48.4624 635.088C48.0464 634.661 47.5504 634.336 46.9744 634.112C46.4091 633.877 45.7904 633.76 45.1184 633.76C44.4464 633.76 43.8224 633.877 43.2464 634.112C42.6704 634.336 42.1691 634.661 41.7424 635.088C41.3264 635.504 40.9958 635.995 40.7504 636.56C40.5158 637.115 40.3984 637.728 40.3984 638.4C40.3984 639.061 40.5158 639.675 40.7504 640.24C40.9958 640.795 41.3264 641.285 41.7424 641.712C42.1691 642.139 42.6704 642.469 43.2464 642.704C43.8224 642.928 44.4464 643.04 45.1184 643.04ZM54.4481 644V633.28L54.9601 633.824H51.8081V632.8H55.6001V644H54.4481ZM62.2568 644V643.184L66.9128 638.624C67.3395 638.208 67.6595 637.845 67.8728 637.536C68.0861 637.216 68.2301 636.917 68.3048 636.64C68.3795 636.363 68.4168 636.101 68.4168 635.856C68.4168 635.205 68.1928 634.693 67.7448 634.32C67.3075 633.947 66.6568 633.76 65.7928 633.76C65.1315 633.76 64.5448 633.861 64.0328 634.064C63.5315 634.267 63.0995 634.581 62.7368 635.008L61.9208 634.304C62.3581 633.792 62.9181 633.397 63.6008 633.12C64.2835 632.843 65.0461 632.704 65.8888 632.704C66.6461 632.704 67.3021 632.827 67.8568 633.072C68.4115 633.307 68.8381 633.653 69.1368 634.112C69.4461 634.571 69.6008 635.109 69.6008 635.728C69.6008 636.091 69.5475 636.448 69.4408 636.8C69.3448 637.152 69.1635 637.525 68.8968 637.92C68.6408 638.304 68.2621 638.741 67.7608 639.232L63.4888 643.424L63.1688 642.976H70.1128V644H62.2568ZM75.9913 644.096C75.1273 644.096 74.3593 643.872 73.6873 643.424C73.0153 642.965 72.4873 642.315 72.1033 641.472C71.7193 640.619 71.5273 639.595 71.5273 638.4C71.5273 637.205 71.7193 636.187 72.1033 635.344C72.4873 634.491 73.0153 633.84 73.6873 633.392C74.3593 632.933 75.1273 632.704 75.9913 632.704C76.8553 632.704 77.6233 632.933 78.2953 633.392C78.9673 633.84 79.4953 634.491 79.8793 635.344C80.274 636.187 80.4713 637.205 80.4713 638.4C80.4713 639.595 80.274 640.619 79.8793 641.472C79.4953 642.315 78.9673 642.965 78.2953 643.424C77.6233 643.872 76.8553 644.096 75.9913 644.096ZM75.9913 643.04C76.6526 643.04 77.2286 642.864 77.7193 642.512C78.21 642.149 78.594 641.627 78.8713 640.944C79.1486 640.251 79.2873 639.403 79.2873 638.4C79.2873 637.397 79.1486 636.555 78.8713 635.872C78.594 635.179 78.21 634.656 77.7193 634.304C77.2286 633.941 76.6526 633.76 75.9913 633.76C75.3513 633.76 74.7806 633.941 74.2793 634.304C73.778 634.656 73.3886 635.179 73.1113 635.872C72.834 636.555 72.6953 637.397 72.6953 638.4C72.6953 639.403 72.834 640.251 73.1113 640.944C73.3886 641.627 73.778 642.149 74.2793 642.512C74.7806 642.864 75.3513 643.04 75.9913 643.04ZM81.9131 644V643.184L86.5691 638.624C86.9957 638.208 87.3157 637.845 87.5291 637.536C87.7424 637.216 87.8864 636.917 87.9611 636.64C88.0357 636.363 88.0731 636.101 88.0731 635.856C88.0731 635.205 87.8491 634.693 87.4011 634.32C86.9637 633.947 86.3131 633.76 85.4491 633.76C84.7877 633.76 84.2011 633.861 83.6891 634.064C83.1877 634.267 82.7557 634.581 82.3931 635.008L81.5771 634.304C82.0144 633.792 82.5744 633.397 83.2571 633.12C83.9397 632.843 84.7024 632.704 85.5451 632.704C86.3024 632.704 86.9584 632.827 87.5131 633.072C88.0677 633.307 88.4944 633.653 88.7931 634.112C89.1024 634.571 89.2571 635.109 89.2571 635.728C89.2571 636.091 89.2037 636.448 89.0971 636.8C89.0011 637.152 88.8197 637.525 88.5531 637.92C88.2971 638.304 87.9184 638.741 87.4171 639.232L83.1451 643.424L82.8251 642.976H89.7691V644H81.9131ZM90.6634 641.056V640.224L96.5994 632.8H97.8794L91.9914 640.224L91.3674 640.032H100.375V641.056H90.6634ZM96.9834 644V641.056L97.0154 640.032V637.44H98.1354V644H96.9834Z" fill="#F7F7F7"/>
<circle cx="14" cy="627" r="8" fill="#222222" stroke="#FD7E14" stroke-width="4"/>
<path d="M192.342 620V610.2H196.794C197.858 610.2 198.796 610.405 199.608 610.816C200.42 611.217 201.054 611.782 201.512 612.51C201.969 613.238 202.198 614.101 202.198 615.1C202.198 616.089 201.969 616.953 201.512 617.69C201.054 618.418 200.42 618.987 199.608 619.398C198.796 619.799 197.858 620 196.794 620H192.342ZM194.61 618.138H196.682C197.335 618.138 197.9 618.017 198.376 617.774C198.861 617.522 199.234 617.167 199.496 616.71C199.766 616.253 199.902 615.716 199.902 615.1C199.902 614.475 199.766 613.938 199.496 613.49C199.234 613.033 198.861 612.683 198.376 612.44C197.9 612.188 197.335 612.062 196.682 612.062H194.61V618.138ZM207.492 620.112C206.633 620.112 205.877 619.944 205.224 619.608C204.58 619.272 204.081 618.815 203.726 618.236C203.371 617.648 203.194 616.981 203.194 616.234C203.194 615.478 203.367 614.811 203.712 614.232C204.067 613.644 204.547 613.187 205.154 612.86C205.761 612.524 206.447 612.356 207.212 612.356C207.949 612.356 208.612 612.515 209.2 612.832C209.797 613.14 210.269 613.588 210.614 614.176C210.959 614.755 211.132 615.45 211.132 616.262C211.132 616.346 211.127 616.444 211.118 616.556C211.109 616.659 211.099 616.757 211.09 616.85H204.972V615.576H209.942L209.102 615.954C209.102 615.562 209.023 615.221 208.864 614.932C208.705 614.643 208.486 614.419 208.206 614.26C207.926 614.092 207.599 614.008 207.226 614.008C206.853 614.008 206.521 614.092 206.232 614.26C205.952 614.419 205.733 614.647 205.574 614.946C205.415 615.235 205.336 615.581 205.336 615.982V616.318C205.336 616.729 205.425 617.093 205.602 617.41C205.789 617.718 206.045 617.956 206.372 618.124C206.708 618.283 207.1 618.362 207.548 618.362C207.949 618.362 208.299 618.301 208.598 618.18C208.906 618.059 209.186 617.877 209.438 617.634L210.6 618.894C210.255 619.286 209.821 619.589 209.298 619.804C208.775 620.009 208.173 620.112 207.492 620.112ZM214.493 620L211.329 612.468H213.583L216.215 618.95H215.095L217.825 612.468H219.925L216.747 620H214.493ZM224.35 620.112C223.491 620.112 222.735 619.944 222.082 619.608C221.438 619.272 220.938 618.815 220.584 618.236C220.229 617.648 220.052 616.981 220.052 616.234C220.052 615.478 220.224 614.811 220.57 614.232C220.924 613.644 221.405 613.187 222.012 612.86C222.618 612.524 223.304 612.356 224.07 612.356C224.807 612.356 225.47 612.515 226.058 612.832C226.655 613.14 227.126 613.588 227.472 614.176C227.817 614.755 227.99 615.45 227.99 616.262C227.99 616.346 227.985 616.444 227.976 616.556C227.966 616.659 227.957 616.757 227.948 616.85H221.83V615.576H226.8L225.96 615.954C225.96 615.562 225.88 615.221 225.722 614.932C225.563 614.643 225.344 614.419 225.064 614.26C224.784 614.092 224.457 614.008 224.084 614.008C223.71 614.008 223.379 614.092 223.09 614.26C222.81 614.419 222.59 614.647 222.432 614.946C222.273 615.235 222.194 615.581 222.194 615.982V616.318C222.194 616.729 222.282 617.093 222.46 617.41C222.646 617.718 222.903 617.956 223.23 618.124C223.566 618.283 223.958 618.362 224.406 618.362C224.807 618.362 225.157 618.301 225.456 618.18C225.764 618.059 226.044 617.877 226.296 617.634L227.458 618.894C227.112 619.286 226.678 619.589 226.156 619.804C225.633 620.009 225.031 620.112 224.35 620.112ZM229.444 620V609.612H231.628V620H229.444ZM237.238 620.112C236.436 620.112 235.722 619.944 235.096 619.608C234.48 619.272 233.99 618.815 233.626 618.236C233.272 617.648 233.094 616.981 233.094 616.234C233.094 615.478 233.272 614.811 233.626 614.232C233.99 613.644 234.48 613.187 235.096 612.86C235.722 612.524 236.436 612.356 237.238 612.356C238.032 612.356 238.741 612.524 239.366 612.86C239.992 613.187 240.482 613.639 240.836 614.218C241.191 614.797 241.368 615.469 241.368 616.234C241.368 616.981 241.191 617.648 240.836 618.236C240.482 618.815 239.992 619.272 239.366 619.608C238.741 619.944 238.032 620.112 237.238 620.112ZM237.238 618.32C237.602 618.32 237.929 618.236 238.218 618.068C238.508 617.9 238.736 617.662 238.904 617.354C239.072 617.037 239.156 616.663 239.156 616.234C239.156 615.795 239.072 615.422 238.904 615.114C238.736 614.806 238.508 614.568 238.218 614.4C237.929 614.232 237.602 614.148 237.238 614.148C236.874 614.148 236.548 614.232 236.258 614.4C235.969 614.568 235.736 614.806 235.558 615.114C235.39 615.422 235.306 615.795 235.306 616.234C235.306 616.663 235.39 617.037 235.558 617.354C235.736 617.662 235.969 617.9 236.258 618.068C236.548 618.236 236.874 618.32 237.238 618.32ZM247.28 620.112C246.646 620.112 246.09 619.972 245.614 619.692C245.138 619.412 244.765 618.987 244.494 618.418C244.233 617.839 244.102 617.111 244.102 616.234C244.102 615.347 244.228 614.619 244.48 614.05C244.732 613.481 245.096 613.056 245.572 612.776C246.048 612.496 246.618 612.356 247.28 612.356C247.99 612.356 248.624 612.519 249.184 612.846C249.754 613.163 250.202 613.611 250.528 614.19C250.864 614.769 251.032 615.45 251.032 616.234C251.032 617.027 250.864 617.713 250.528 618.292C250.202 618.871 249.754 619.319 249.184 619.636C248.624 619.953 247.99 620.112 247.28 620.112ZM242.828 622.716V612.468H244.914V614.008L244.872 616.248L245.012 618.474V622.716H242.828ZM246.902 618.32C247.266 618.32 247.588 618.236 247.868 618.068C248.158 617.9 248.386 617.662 248.554 617.354C248.732 617.037 248.82 616.663 248.82 616.234C248.82 615.795 248.732 615.422 248.554 615.114C248.386 614.806 248.158 614.568 247.868 614.4C247.588 614.232 247.266 614.148 246.902 614.148C246.538 614.148 246.212 614.232 245.922 614.4C245.633 614.568 245.404 614.806 245.236 615.114C245.068 615.422 244.984 615.795 244.984 616.234C244.984 616.663 245.068 617.037 245.236 617.354C245.404 617.662 245.633 617.9 245.922 618.068C246.212 618.236 246.538 618.32 246.902 618.32ZM262.14 612.356C262.738 612.356 263.265 612.477 263.722 612.72C264.189 612.953 264.553 613.317 264.814 613.812C265.085 614.297 265.22 614.923 265.22 615.688V620H263.036V616.024C263.036 615.417 262.91 614.969 262.658 614.68C262.406 614.391 262.052 614.246 261.594 614.246C261.277 614.246 260.992 614.321 260.74 614.47C260.488 614.61 260.292 614.825 260.152 615.114C260.012 615.403 259.942 615.772 259.942 616.22V620H257.758V616.024C257.758 615.417 257.632 614.969 257.38 614.68C257.138 614.391 256.788 614.246 256.33 614.246C256.013 614.246 255.728 614.321 255.476 614.47C255.224 614.61 255.028 614.825 254.888 615.114C254.748 615.403 254.678 615.772 254.678 616.22V620H252.494V612.468H254.58V614.526L254.188 613.924C254.45 613.411 254.818 613.023 255.294 612.762C255.78 612.491 256.33 612.356 256.946 612.356C257.637 612.356 258.239 612.533 258.752 612.888C259.275 613.233 259.62 613.765 259.788 614.484L259.018 614.274C259.27 613.686 259.672 613.219 260.222 612.874C260.782 612.529 261.422 612.356 262.14 612.356ZM270.971 620.112C270.112 620.112 269.356 619.944 268.703 619.608C268.059 619.272 267.559 618.815 267.205 618.236C266.85 617.648 266.673 616.981 266.673 616.234C266.673 615.478 266.845 614.811 267.191 614.232C267.545 613.644 268.026 613.187 268.633 612.86C269.239 612.524 269.925 612.356 270.691 612.356C271.428 612.356 272.091 612.515 272.679 612.832C273.276 613.14 273.747 613.588 274.093 614.176C274.438 614.755 274.611 615.45 274.611 616.262C274.611 616.346 274.606 616.444 274.597 616.556C274.587 616.659 274.578 616.757 274.569 616.85H268.451V615.576H273.421L272.581 615.954C272.581 615.562 272.501 615.221 272.343 614.932C272.184 614.643 271.965 614.419 271.685 614.26C271.405 614.092 271.078 614.008 270.705 614.008C270.331 614.008 270 614.092 269.711 614.26C269.431 614.419 269.211 614.647 269.053 614.946C268.894 615.235 268.815 615.581 268.815 615.982V616.318C268.815 616.729 268.903 617.093 269.081 617.41C269.267 617.718 269.524 617.956 269.851 618.124C270.187 618.283 270.579 618.362 271.027 618.362C271.428 618.362 271.778 618.301 272.077 618.18C272.385 618.059 272.665 617.877 272.917 617.634L274.079 618.894C273.733 619.286 273.299 619.589 272.777 619.804C272.254 620.009 271.652 620.112 270.971 620.112ZM280.643 612.356C281.24 612.356 281.772 612.477 282.239 612.72C282.715 612.953 283.088 613.317 283.359 613.812C283.629 614.297 283.765 614.923 283.765 615.688V620H281.581V616.024C281.581 615.417 281.445 614.969 281.175 614.68C280.913 614.391 280.54 614.246 280.055 614.246C279.709 614.246 279.397 614.321 279.117 614.47C278.846 614.61 278.631 614.829 278.473 615.128C278.323 615.427 278.249 615.809 278.249 616.276V620H276.065V612.468H278.151V614.554L277.759 613.924C278.029 613.42 278.417 613.033 278.921 612.762C279.425 612.491 279.999 612.356 280.643 612.356ZM288.824 620.112C287.938 620.112 287.247 619.888 286.752 619.44C286.258 618.983 286.01 618.306 286.01 617.41V610.802H288.194V617.382C288.194 617.699 288.278 617.947 288.446 618.124C288.614 618.292 288.843 618.376 289.132 618.376C289.478 618.376 289.772 618.283 290.014 618.096L290.602 619.636C290.378 619.795 290.108 619.916 289.79 620C289.482 620.075 289.16 620.112 288.824 620.112ZM284.848 614.316V612.636H290.07V614.316H284.848Z" fill="#F7F7F7"/>
<path d="M228.962 643.096C228.12 643.096 227.336 642.957 226.61 642.68C225.896 642.392 225.272 641.992 224.738 641.48C224.216 640.957 223.805 640.355 223.506 639.672C223.218 638.979 223.074 638.221 223.074 637.4C223.074 636.579 223.218 635.827 223.506 635.144C223.805 634.451 224.216 633.848 224.738 633.336C225.272 632.813 225.896 632.413 226.61 632.136C227.325 631.848 228.109 631.704 228.962 631.704C229.805 631.704 230.584 631.848 231.298 632.136C232.013 632.413 232.632 632.808 233.154 633.32C233.688 633.832 234.098 634.435 234.386 635.128C234.685 635.821 234.834 636.579 234.834 637.4C234.834 638.221 234.685 638.979 234.386 639.672C234.098 640.365 233.688 640.968 233.154 641.48C232.632 641.992 232.013 642.392 231.298 642.68C230.584 642.957 229.805 643.096 228.962 643.096ZM232.626 645.224C232.285 645.224 231.954 645.181 231.634 645.096C231.314 645.011 230.989 644.872 230.658 644.68C230.338 644.499 230.008 644.259 229.666 643.96C229.325 643.661 228.952 643.299 228.546 642.872L229.842 642.552C230.173 642.947 230.493 643.272 230.802 643.528C231.122 643.784 231.432 643.971 231.73 644.088C232.04 644.216 232.344 644.28 232.642 644.28C233.474 644.28 234.184 643.939 234.77 643.256L235.346 643.944C234.642 644.797 233.736 645.224 232.626 645.224ZM228.962 642.04C229.634 642.04 230.253 641.928 230.818 641.704C231.394 641.469 231.89 641.139 232.306 640.712C232.733 640.285 233.064 639.795 233.298 639.24C233.533 638.675 233.65 638.061 233.65 637.4C233.65 636.728 233.533 636.115 233.298 635.56C233.064 634.995 232.733 634.504 232.306 634.088C231.89 633.661 231.394 633.336 230.818 633.112C230.253 632.877 229.634 632.76 228.962 632.76C228.29 632.76 227.666 632.877 227.09 633.112C226.514 633.336 226.013 633.661 225.586 634.088C225.17 634.504 224.84 634.995 224.594 635.56C224.36 636.115 224.242 636.728 224.242 637.4C224.242 638.061 224.36 638.675 224.594 639.24C224.84 639.795 225.17 640.285 225.586 640.712C226.013 641.139 226.514 641.469 227.09 641.704C227.666 641.928 228.29 642.04 228.962 642.04ZM236.132 643V642.184L240.788 637.624C241.214 637.208 241.534 636.845 241.748 636.536C241.961 636.216 242.105 635.917 242.18 635.64C242.254 635.363 242.292 635.101 242.292 634.856C242.292 634.205 242.068 633.693 241.62 633.32C241.182 632.947 240.532 632.76 239.668 632.76C239.006 632.76 238.42 632.861 237.908 633.064C237.406 633.267 236.974 633.581 236.612 634.008L235.796 633.304C236.233 632.792 236.793 632.397 237.476 632.12C238.158 631.843 238.921 631.704 239.764 631.704C240.521 631.704 241.177 631.827 241.732 632.072C242.286 632.307 242.713 632.653 243.012 633.112C243.321 633.571 243.476 634.109 243.476 634.728C243.476 635.091 243.422 635.448 243.316 635.8C243.22 636.152 243.038 636.525 242.772 636.92C242.516 637.304 242.137 637.741 241.636 638.232L237.364 642.424L237.044 641.976H243.988V643H236.132ZM249.413 643V642.184L254.069 637.624C254.496 637.208 254.816 636.845 255.029 636.536C255.242 636.216 255.386 635.917 255.461 635.64C255.536 635.363 255.573 635.101 255.573 634.856C255.573 634.205 255.349 633.693 254.901 633.32C254.464 632.947 253.813 632.76 252.949 632.76C252.288 632.76 251.701 632.861 251.189 633.064C250.688 633.267 250.256 633.581 249.893 634.008L249.077 633.304C249.514 632.792 250.074 632.397 250.757 632.12C251.44 631.843 252.202 631.704 253.045 631.704C253.802 631.704 254.458 631.827 255.013 632.072C255.568 632.307 255.994 632.653 256.293 633.112C256.602 633.571 256.757 634.109 256.757 634.728C256.757 635.091 256.704 635.448 256.597 635.8C256.501 636.152 256.32 636.525 256.053 636.92C255.797 637.304 255.418 637.741 254.917 638.232L250.645 642.424L250.325 641.976H257.269V643H249.413ZM263.148 643.096C262.284 643.096 261.516 642.872 260.844 642.424C260.172 641.965 259.644 641.315 259.26 640.472C258.876 639.619 258.684 638.595 258.684 637.4C258.684 636.205 258.876 635.187 259.26 634.344C259.644 633.491 260.172 632.84 260.844 632.392C261.516 631.933 262.284 631.704 263.148 631.704C264.012 631.704 264.78 631.933 265.452 632.392C266.124 632.84 266.652 633.491 267.036 634.344C267.43 635.187 267.628 636.205 267.628 637.4C267.628 638.595 267.43 639.619 267.036 640.472C266.652 641.315 266.124 641.965 265.452 642.424C264.78 642.872 264.012 643.096 263.148 643.096ZM263.148 642.04C263.809 642.04 264.385 641.864 264.876 641.512C265.366 641.149 265.75 640.627 266.028 639.944C266.305 639.251 266.444 638.403 266.444 637.4C266.444 636.397 266.305 635.555 266.028 634.872C265.75 634.179 265.366 633.656 264.876 633.304C264.385 632.941 263.809 632.76 263.148 632.76C262.508 632.76 261.937 632.941 261.436 633.304C260.934 633.656 260.545 634.179 260.268 634.872C259.99 635.555 259.852 636.397 259.852 637.4C259.852 638.403 259.99 639.251 260.268 639.944C260.545 640.627 260.934 641.149 261.436 641.512C261.937 641.864 262.508 642.04 263.148 642.04ZM269.069 643V642.184L273.725 637.624C274.152 637.208 274.472 636.845 274.685 636.536C274.899 636.216 275.043 635.917 275.117 635.64C275.192 635.363 275.229 635.101 275.229 634.856C275.229 634.205 275.005 633.693 274.557 633.32C274.12 632.947 273.469 632.76 272.605 632.76C271.944 632.76 271.357 632.861 270.845 633.064C270.344 633.267 269.912 633.581 269.549 634.008L268.733 633.304C269.171 632.792 269.731 632.397 270.413 632.12C271.096 631.843 271.859 631.704 272.701 631.704C273.459 631.704 274.115 631.827 274.669 632.072C275.224 632.307 275.651 632.653 275.949 633.112C276.259 633.571 276.413 634.109 276.413 634.728C276.413 635.091 276.36 635.448 276.253 635.8C276.157 636.152 275.976 636.525 275.709 636.92C275.453 637.304 275.075 637.741 274.573 638.232L270.301 642.424L269.981 641.976H276.925V643H269.069ZM277.82 640.056V639.224L283.756 631.8H285.036L279.148 639.224L278.524 639.032H287.532V640.056H277.82ZM284.14 643V640.056L284.172 639.032V636.44H285.292V643H284.14Z" fill="#F7F7F7"/>
<circle cx="301" cy="627" r="8" fill="#222222" stroke="#FD7E14" stroke-width="4"/>
<path d="M40.0952 17.168C39.3392 17.168 38.6345 17.0467 37.9812 16.804C37.3372 16.552 36.7772 16.1973 36.3012 15.74C35.8252 15.2827 35.4518 14.746 35.1812 14.13C34.9198 13.514 34.7892 12.8373 34.7892 12.1C34.7892 11.3627 34.9198 10.686 35.1812 10.07C35.4518 9.454 35.8252 8.91733 36.3012 8.46C36.7865 8.00267 37.3512 7.65267 37.9952 7.41C38.6392 7.158 39.3438 7.032 40.1092 7.032C40.9585 7.032 41.7238 7.18133 42.4052 7.48C43.0958 7.76933 43.6745 8.19867 44.1412 8.768L42.6852 10.112C42.3492 9.72933 41.9758 9.44467 41.5652 9.258C41.1545 9.062 40.7065 8.964 40.2212 8.964C39.7638 8.964 39.3438 9.03867 38.9612 9.188C38.5785 9.33733 38.2472 9.552 37.9672 9.832C37.6872 10.112 37.4678 10.4433 37.3092 10.826C37.1598 11.2087 37.0852 11.6333 37.0852 12.1C37.0852 12.5667 37.1598 12.9913 37.3092 13.374C37.4678 13.7567 37.6872 14.088 37.9672 14.368C38.2472 14.648 38.5785 14.8627 38.9612 15.012C39.3438 15.1613 39.7638 15.236 40.2212 15.236C40.7065 15.236 41.1545 15.1427 41.5652 14.956C41.9758 14.76 42.3492 14.466 42.6852 14.074L44.1412 15.418C43.6745 15.9873 43.0958 16.4213 42.4052 16.72C41.7238 17.0187 40.9538 17.168 40.0952 17.168ZM48.843 17.112C48.0403 17.112 47.3263 16.944 46.701 16.608C46.085 16.272 45.595 15.8147 45.231 15.236C44.8763 14.648 44.699 13.9807 44.699 13.234C44.699 12.478 44.8763 11.8107 45.231 11.232C45.595 10.644 46.085 10.1867 46.701 9.86C47.3263 9.524 48.0403 9.356 48.843 9.356C49.6363 9.356 50.3456 9.524 50.971 9.86C51.5963 10.1867 52.0863 10.6393 52.441 11.218C52.7956 11.7967 52.973 12.4687 52.973 13.234C52.973 13.9807 52.7956 14.648 52.441 15.236C52.0863 15.8147 51.5963 16.272 50.971 16.608C50.3456 16.944 49.6363 17.112 48.843 17.112ZM48.843 15.32C49.207 15.32 49.5336 15.236 49.823 15.068C50.1123 14.9 50.341 14.662 50.509 14.354C50.677 14.0367 50.761 13.6633 50.761 13.234C50.761 12.7953 50.677 12.422 50.509 12.114C50.341 11.806 50.1123 11.568 49.823 11.4C49.5336 11.232 49.207 11.148 48.843 11.148C48.479 11.148 48.1523 11.232 47.863 11.4C47.5736 11.568 47.3403 11.806 47.163 12.114C46.995 12.422 46.911 12.7953 46.911 13.234C46.911 13.6633 46.995 14.0367 47.163 14.354C47.3403 14.662 47.5736 14.9 47.863 15.068C48.1523 15.236 48.479 15.32 48.843 15.32ZM59.0108 9.356C59.6081 9.356 60.1401 9.47733 60.6068 9.72C61.0828 9.95333 61.4561 10.3173 61.7268 10.812C61.9975 11.2973 62.1328 11.9227 62.1328 12.688V17H59.9488V13.024C59.9488 12.4173 59.8135 11.9693 59.5428 11.68C59.2815 11.3907 58.9081 11.246 58.4228 11.246C58.0775 11.246 57.7648 11.3207 57.4848 11.47C57.2141 11.61 56.9995 11.8293 56.8408 12.128C56.6915 12.4267 56.6168 12.8093 56.6168 13.276V17H54.4328V9.468H56.5188V11.554L56.1268 10.924C56.3975 10.42 56.7848 10.0327 57.2888 9.762C57.7928 9.49133 58.3668 9.356 59.0108 9.356ZM66.6465 17.112C66.0025 17.112 65.3818 17.0373 64.7845 16.888C64.1965 16.7293 63.7298 16.5333 63.3845 16.3L64.1125 14.732C64.4578 14.9467 64.8638 15.124 65.3305 15.264C65.8065 15.3947 66.2732 15.46 66.7305 15.46C67.2345 15.46 67.5892 15.3993 67.7945 15.278C68.0092 15.1567 68.1165 14.9887 68.1165 14.774C68.1165 14.5967 68.0325 14.466 67.8645 14.382C67.7058 14.2887 67.4912 14.2187 67.2205 14.172C66.9498 14.1253 66.6512 14.0787 66.3245 14.032C66.0072 13.9853 65.6852 13.9247 65.3585 13.85C65.0318 13.766 64.7332 13.6447 64.4625 13.486C64.1918 13.3273 63.9725 13.1127 63.8045 12.842C63.6458 12.5713 63.5665 12.2213 63.5665 11.792C63.5665 11.316 63.7018 10.896 63.9725 10.532C64.2525 10.168 64.6538 9.88333 65.1765 9.678C65.6992 9.46333 66.3245 9.356 67.0525 9.356C67.5658 9.356 68.0885 9.412 68.6205 9.524C69.1525 9.636 69.5958 9.79933 69.9505 10.014L69.2225 11.568C68.8585 11.3533 68.4898 11.2087 68.1165 11.134C67.7525 11.05 67.3978 11.008 67.0525 11.008C66.5672 11.008 66.2125 11.0733 65.9885 11.204C65.7645 11.3347 65.6525 11.5027 65.6525 11.708C65.6525 11.8947 65.7318 12.0347 65.8905 12.128C66.0585 12.2213 66.2778 12.296 66.5485 12.352C66.8192 12.408 67.1132 12.4593 67.4305 12.506C67.7572 12.5433 68.0838 12.604 68.4105 12.688C68.7372 12.772 69.0312 12.8933 69.2925 13.052C69.5632 13.2013 69.7825 13.4113 69.9505 13.682C70.1185 13.9433 70.2025 14.2887 70.2025 14.718C70.2025 15.1847 70.0625 15.6 69.7825 15.964C69.5025 16.3187 69.0965 16.5987 68.5645 16.804C68.0418 17.0093 67.4025 17.112 66.6465 17.112ZM74.728 17.112C74.1027 17.112 73.5427 16.9907 73.048 16.748C72.5627 16.5053 72.1847 16.1367 71.914 15.642C71.6433 15.138 71.508 14.4987 71.508 13.724V9.468H73.692V13.402C73.692 14.0273 73.8227 14.4893 74.084 14.788C74.3547 15.0773 74.7327 15.222 75.218 15.222C75.554 15.222 75.8527 15.152 76.114 15.012C76.3753 14.8627 76.5807 14.6387 76.73 14.34C76.8793 14.032 76.954 13.6493 76.954 13.192V9.468H79.138V17H77.066V14.928L77.444 15.53C77.192 16.0527 76.8187 16.4493 76.324 16.72C75.8387 16.9813 75.3067 17.112 74.728 17.112ZM81.1613 17V6.612H83.3453V17H81.1613ZM89.0128 17.112C88.1261 17.112 87.4355 16.888 86.9408 16.44C86.4461 15.9827 86.1988 15.306 86.1988 14.41V7.802H88.3828V14.382C88.3828 14.6993 88.4668 14.9467 88.6348 15.124C88.8028 15.292 89.0315 15.376 89.3208 15.376C89.6661 15.376 89.9601 15.2827 90.2028 15.096L90.7908 16.636C90.5668 16.7947 90.2961 16.916 89.9788 17C89.6708 17.0747 89.3488 17.112 89.0128 17.112ZM85.0368 11.316V9.636H90.2588V11.316H85.0368ZM92.0168 17V9.468H94.2008V17H92.0168ZM93.1088 8.418C92.7075 8.418 92.3808 8.30133 92.1288 8.068C91.8768 7.83467 91.7508 7.54533 91.7508 7.2C91.7508 6.85467 91.8768 6.56533 92.1288 6.332C92.3808 6.09867 92.7075 5.982 93.1088 5.982C93.5101 5.982 93.8368 6.094 94.0888 6.318C94.3408 6.53267 94.4668 6.81267 94.4668 7.158C94.4668 7.522 94.3408 7.82533 94.0888 8.068C93.8461 8.30133 93.5195 8.418 93.1088 8.418ZM100.806 9.356C101.403 9.356 101.935 9.47733 102.402 9.72C102.878 9.95333 103.251 10.3173 103.522 10.812C103.792 11.2973 103.928 11.9227 103.928 12.688V17H101.744V13.024C101.744 12.4173 101.608 11.9693 101.338 11.68C101.076 11.3907 100.703 11.246 100.218 11.246C99.8724 11.246 99.5597 11.3207 99.2797 11.47C99.0091 11.61 98.7944 11.8293 98.6357 12.128C98.4864 12.4267 98.4117 12.8093 98.4117 13.276V17H96.2277V9.468H98.3137V11.554L97.9217 10.924C98.1924 10.42 98.5797 10.0327 99.0837 9.762C99.5877 9.49133 100.162 9.356 100.806 9.356ZM109.504 19.828C108.795 19.828 108.109 19.7393 107.446 19.562C106.793 19.394 106.247 19.1373 105.808 18.792L106.676 17.224C106.993 17.4853 107.395 17.6907 107.88 17.84C108.375 17.9987 108.86 18.078 109.336 18.078C110.111 18.078 110.671 17.9053 111.016 17.56C111.371 17.2147 111.548 16.7013 111.548 16.02V14.886L111.688 12.996L111.66 11.092V9.468H113.732V15.74C113.732 17.14 113.368 18.1713 112.64 18.834C111.912 19.4967 110.867 19.828 109.504 19.828ZM109.168 16.636C108.468 16.636 107.833 16.4867 107.264 16.188C106.704 15.88 106.251 15.4553 105.906 14.914C105.57 14.3633 105.402 13.724 105.402 12.996C105.402 12.2587 105.57 11.6193 105.906 11.078C106.251 10.5273 106.704 10.1027 107.264 9.804C107.833 9.50533 108.468 9.356 109.168 9.356C109.803 9.356 110.363 9.48667 110.848 9.748C111.333 10 111.711 10.3967 111.982 10.938C112.253 11.47 112.388 12.156 112.388 12.996C112.388 13.8267 112.253 14.5127 111.982 15.054C111.711 15.586 111.333 15.9827 110.848 16.244C110.363 16.5053 109.803 16.636 109.168 16.636ZM109.602 14.844C109.985 14.844 110.325 14.7693 110.624 14.62C110.923 14.4613 111.156 14.242 111.324 13.962C111.492 13.682 111.576 13.36 111.576 12.996C111.576 12.6227 111.492 12.3007 111.324 12.03C111.156 11.75 110.923 11.5353 110.624 11.386C110.325 11.2273 109.985 11.148 109.602 11.148C109.219 11.148 108.879 11.2273 108.58 11.386C108.281 11.5353 108.043 11.75 107.866 12.03C107.698 12.3007 107.614 12.6227 107.614 12.996C107.614 13.36 107.698 13.682 107.866 13.962C108.043 14.242 108.281 14.4613 108.58 14.62C108.879 14.7693 109.219 14.844 109.602 14.844Z" fill="#F7F7F7"/>
<path d="M37.2122 41.096C36.3695 41.096 35.5855 40.9573 34.8602 40.68C34.1455 40.392 33.5215 39.992 32.9882 39.48C32.4655 38.9573 32.0549 38.3547 31.7562 37.672C31.4682 36.9787 31.3242 36.2213 31.3242 35.4C31.3242 34.5787 31.4682 33.8267 31.7562 33.144C32.0549 32.4507 32.4655 31.848 32.9882 31.336C33.5215 30.8133 34.1455 30.4133 34.8602 30.136C35.5749 29.848 36.3589 29.704 37.2122 29.704C38.0549 29.704 38.8335 29.848 39.5482 30.136C40.2629 30.4133 40.8815 30.808 41.4042 31.32C41.9375 31.832 42.3482 32.4347 42.6362 33.128C42.9349 33.8213 43.0842 34.5787 43.0842 35.4C43.0842 36.2213 42.9349 36.9787 42.6362 37.672C42.3482 38.3653 41.9375 38.968 41.4042 39.48C40.8815 39.992 40.2629 40.392 39.5482 40.68C38.8335 40.9573 38.0549 41.096 37.2122 41.096ZM40.8762 43.224C40.5349 43.224 40.2042 43.1813 39.8842 43.096C39.5642 43.0107 39.2389 42.872 38.9082 42.68C38.5882 42.4987 38.2575 42.2587 37.9162 41.96C37.5749 41.6613 37.2015 41.2987 36.7962 40.872L38.0922 40.552C38.4229 40.9467 38.7429 41.272 39.0522 41.528C39.3722 41.784 39.6815 41.9707 39.9802 42.088C40.2895 42.216 40.5935 42.28 40.8922 42.28C41.7242 42.28 42.4335 41.9387 43.0202 41.256L43.5962 41.944C42.8922 42.7973 41.9855 43.224 40.8762 43.224ZM37.2122 40.04C37.8842 40.04 38.5029 39.928 39.0682 39.704C39.6442 39.4693 40.1402 39.1387 40.5562 38.712C40.9829 38.2853 41.3135 37.7947 41.5482 37.24C41.7829 36.6747 41.9002 36.0613 41.9002 35.4C41.9002 34.728 41.7829 34.1147 41.5482 33.56C41.3135 32.9947 40.9829 32.504 40.5562 32.088C40.1402 31.6613 39.6442 31.336 39.0682 31.112C38.5029 30.8773 37.8842 30.76 37.2122 30.76C36.5402 30.76 35.9162 30.8773 35.3402 31.112C34.7642 31.336 34.2629 31.6613 33.8362 32.088C33.4202 32.504 33.0895 32.9947 32.8442 33.56C32.6095 34.1147 32.4922 34.728 32.4922 35.4C32.4922 36.0613 32.6095 36.6747 32.8442 37.24C33.0895 37.7947 33.4202 38.2853 33.8362 38.712C34.2629 39.1387 34.7642 39.4693 35.3402 39.704C35.9162 39.928 36.5402 40.04 37.2122 40.04ZM46.5418 41V30.28L47.0538 30.824H43.9018V29.8H47.6938V41H46.5418ZM54.3506 41V40.184L59.0066 35.624C59.4332 35.208 59.7532 34.8453 59.9666 34.536C60.1799 34.216 60.3239 33.9173 60.3986 33.64C60.4732 33.3627 60.5106 33.1013 60.5106 32.856C60.5106 32.2053 60.2866 31.6933 59.8386 31.32C59.4012 30.9467 58.7506 30.76 57.8866 30.76C57.2252 30.76 56.6386 30.8613 56.1266 31.064C55.6252 31.2667 55.1932 31.5813 54.8306 32.008L54.0146 31.304C54.4519 30.792 55.0119 30.3973 55.6946 30.12C56.3772 29.8427 57.1399 29.704 57.9826 29.704C58.7399 29.704 59.3959 29.8267 59.9506 30.072C60.5052 30.3067 60.9319 30.6533 61.2306 31.112C61.5399 31.5707 61.6946 32.1093 61.6946 32.728C61.6946 33.0907 61.6412 33.448 61.5346 33.8C61.4386 34.152 61.2572 34.5253 60.9906 34.92C60.7346 35.304 60.3559 35.7413 59.8546 36.232L55.5826 40.424L55.2626 39.976H62.2066V41H54.3506ZM68.0851 41.096C67.2211 41.096 66.4531 40.872 65.7811 40.424C65.1091 39.9653 64.5811 39.3147 64.1971 38.472C63.8131 37.6187 63.6211 36.5947 63.6211 35.4C63.6211 34.2053 63.8131 33.1867 64.1971 32.344C64.5811 31.4907 65.1091 30.84 65.7811 30.392C66.4531 29.9333 67.2211 29.704 68.0851 29.704C68.9491 29.704 69.7171 29.9333 70.3891 30.392C71.0611 30.84 71.5891 31.4907 71.9731 32.344C72.3677 33.1867 72.5651 34.2053 72.5651 35.4C72.5651 36.5947 72.3677 37.6187 71.9731 38.472C71.5891 39.3147 71.0611 39.9653 70.3891 40.424C69.7171 40.872 68.9491 41.096 68.0851 41.096ZM68.0851 40.04C68.7464 40.04 69.3224 39.864 69.8131 39.512C70.3037 39.1493 70.6877 38.6267 70.9651 37.944C71.2424 37.2507 71.3811 36.4027 71.3811 35.4C71.3811 34.3973 71.2424 33.5547 70.9651 32.872C70.6877 32.1787 70.3037 31.656 69.8131 31.304C69.3224 30.9413 68.7464 30.76 68.0851 30.76C67.4451 30.76 66.8744 30.9413 66.3731 31.304C65.8717 31.656 65.4824 32.1787 65.2051 32.872C64.9277 33.5547 64.7891 34.3973 64.7891 35.4C64.7891 36.4027 64.9277 37.2507 65.2051 37.944C65.4824 38.6267 65.8717 39.1493 66.3731 39.512C66.8744 39.864 67.4451 40.04 68.0851 40.04ZM74.0068 41V40.184L78.6628 35.624C79.0895 35.208 79.4095 34.8453 79.6228 34.536C79.8361 34.216 79.9801 33.9173 80.0548 33.64C80.1295 33.3627 80.1668 33.1013 80.1668 32.856C80.1668 32.2053 79.9428 31.6933 79.4948 31.32C79.0575 30.9467 78.4068 30.76 77.5428 30.76C76.8815 30.76 76.2948 30.8613 75.7828 31.064C75.2815 31.2667 74.8495 31.5813 74.4868 32.008L73.6708 31.304C74.1081 30.792 74.6681 30.3973 75.3508 30.12C76.0335 29.8427 76.7961 29.704 77.6388 29.704C78.3961 29.704 79.0521 29.8267 79.6068 30.072C80.1615 30.3067 80.5881 30.6533 80.8868 31.112C81.1961 31.5707 81.3508 32.1093 81.3508 32.728C81.3508 33.0907 81.2975 33.448 81.1908 33.8C81.0948 34.152 80.9135 34.5253 80.6468 34.92C80.3908 35.304 80.0121 35.7413 79.5108 36.232L75.2388 40.424L74.9188 39.976H81.8628V41H74.0068ZM86.6526 41.096C85.8419 41.096 85.0739 40.968 84.3486 40.712C83.6339 40.4453 83.0579 40.0933 82.6206 39.656L83.1806 38.744C83.5432 39.1173 84.0286 39.4267 84.6366 39.672C85.2552 39.9173 85.9272 40.04 86.6526 40.04C87.5806 40.04 88.2899 39.8373 88.7806 39.432C89.2819 39.0267 89.5326 38.4827 89.5326 37.8C89.5326 37.1173 89.2872 36.5733 88.7966 36.168C88.3166 35.7627 87.5539 35.56 86.5086 35.56H85.7086V34.712L89.1646 30.376L89.3246 30.824H83.0846V29.8H90.2846V30.616L86.8286 34.952L86.2686 34.584H86.7006C88.0446 34.584 89.0472 34.8827 89.7086 35.48C90.3806 36.0773 90.7166 36.8453 90.7166 37.784C90.7166 38.4133 90.5672 38.9787 90.2686 39.48C89.9699 39.9813 89.5166 40.376 88.9086 40.664C88.3112 40.952 87.5592 41.096 86.6526 41.096Z" fill="#F7F7F7"/>
<circle cx="14" cy="21" r="8" fill="#222222" stroke="#F5BD00" stroke-width="4"/>
<path d="M18.2156 17.2704C18.647 16.9099 19.3465 16.9099 19.778 17.2704C20.2041 17.6264 20.2094 18.201 19.7937 18.5624L13.913 24.7043C13.9045 24.7131 13.8954 24.7216 13.8858 24.7296C13.4544 25.0901 12.7549 25.0901 12.3235 24.7296L8.42514 21.4725C7.9937 21.112 7.9937 20.5275 8.42514 20.167C8.85659 19.8066 9.55609 19.8066 9.98753 20.167L13.0714 22.7437L18.1863 17.298C18.1954 17.2883 18.2052 17.2791 18.2156 17.2704Z" fill="#FD7E14"/>
<defs>
<linearGradient id="paint0_linear_2_37" x1="155.5" y1="21" x2="155.5" y2="627" gradientUnits="userSpaceOnUse">
<stop stop-color="#F5BD00"/>
<stop offset="1" stop-color="#FD7E14"/>
</linearGradient>
<linearGradient id="paint1_linear_2_37" x1="143" y1="118" x2="143" y2="207" gradientUnits="userSpaceOnUse">
<stop stop-color="#F5BD00"/>
<stop offset="1" stop-color="#FD7E14"/>
</linearGradient>
<linearGradient id="paint2_linear_2_37" x1="168" y1="431" x2="168" y2="520" gradientUnits="userSpaceOnUse">
<stop stop-color="#F5BD00"/>
<stop offset="1" stop-color="#FD7E14"/>
</linearGradient>
</defs>
</svg>
