<svg width="1213" height="662" viewBox="0 0 1213 662" fill="none" xmlns="http://www.w3.org/2000/svg">
<path d="M25.5 30.2495H1157.5C1174.07 30.2495 1187.5 43.681 1187.5 60.2495V303.25C1187.5 319.818 1174.07 333.25 1157.5 333.25H55.5C38.9315 333.25 25.5 346.681 25.5 363.25V606.25C25.5 622.818 38.9315 636.25 55.5 636.25H1187.5" stroke="url(#paint0_linear_1_4)" stroke-width="4"/>
<path d="M25.5 127.25H1067.25C1079.54 127.25 1089.5 137.211 1089.5 149.5V149.5C1089.5 161.788 1079.54 171.75 1067.25 171.75H47.75C35.4616 171.75 25.5 181.711 25.5 194V194C25.5 206.288 35.4617 216.25 47.75 216.25H1089.5" stroke="url(#paint1_linear_1_4)"/>
<path d="M123.5 440.25H1165.25C1177.54 440.25 1187.5 450.211 1187.5 462.5V462.5C1187.5 474.788 1177.54 484.75 1165.25 484.75H145.75C133.462 484.75 123.5 494.711 123.5 507V507C123.5 519.288 133.462 529.25 145.75 529.25H1187.5" stroke="url(#paint2_linear_1_4)"/>
<path d="M992.456 25.24C991.376 25.24 990.369 25.0667 989.436 24.72C988.516 24.36 987.716 23.8533 987.036 23.2C986.356 22.5467 985.822 21.78 985.436 20.9C985.062 20.02 984.876 19.0533 984.876 18C984.876 16.9467 985.062 15.98 985.436 15.1C985.822 14.22 986.356 13.4533 987.036 12.8C987.729 12.1467 988.536 11.6467 989.456 11.3C990.376 10.94 991.382 10.76 992.476 10.76C993.689 10.76 994.782 10.9733 995.756 11.4C996.742 11.8133 997.569 12.4267 998.236 13.24L996.156 15.16C995.676 14.6133 995.142 14.2067 994.556 13.94C993.969 13.66 993.329 13.52 992.636 13.52C991.982 13.52 991.382 13.6267 990.836 13.84C990.289 14.0533 989.816 14.36 989.416 14.76C989.016 15.16 988.702 15.6333 988.476 16.18C988.262 16.7267 988.156 17.3333 988.156 18C988.156 18.6667 988.262 19.2733 988.476 19.82C988.702 20.3667 989.016 20.84 989.416 21.24C989.816 21.64 990.289 21.9467 990.836 22.16C991.382 22.3733 991.982 22.48 992.636 22.48C993.329 22.48 993.969 22.3467 994.556 22.08C995.142 21.8 995.676 21.38 996.156 20.82L998.236 22.74C997.569 23.5533 996.742 24.1733 995.756 24.6C994.782 25.0267 993.682 25.24 992.456 25.24ZM1000.2 25V14.24H1003.18V17.28L1002.76 16.4C1003.08 15.64 1003.6 15.0667 1004.3 14.68C1005.01 14.28 1005.87 14.08 1006.88 14.08V16.96C1006.75 16.9467 1006.63 16.94 1006.52 16.94C1006.42 16.9267 1006.3 16.92 1006.18 16.92C1005.33 16.92 1004.64 17.1667 1004.1 17.66C1003.58 18.14 1003.32 18.8933 1003.32 19.92V25H1000.2ZM1010.47 29.04C1009.91 29.04 1009.36 28.9533 1008.81 28.78C1008.26 28.6067 1007.82 28.3667 1007.47 28.06L1008.61 25.84C1008.85 26.0533 1009.12 26.22 1009.43 26.34C1009.75 26.46 1010.06 26.52 1010.37 26.52C1010.81 26.52 1011.16 26.4133 1011.41 26.2C1011.68 26 1011.92 25.66 1012.13 25.18L1012.69 23.86L1012.93 23.52L1016.79 14.24H1019.79L1014.93 25.66C1014.58 26.5267 1014.18 27.2067 1013.73 27.7C1013.29 28.1933 1012.8 28.54 1012.25 28.74C1011.72 28.94 1011.12 29.04 1010.47 29.04ZM1012.31 25.42L1007.51 14.24H1010.73L1014.45 23.24L1012.31 25.42ZM1027.42 25.16C1026.52 25.16 1025.72 24.96 1025.04 24.56C1024.36 24.16 1023.83 23.5533 1023.44 22.74C1023.07 21.9133 1022.88 20.8733 1022.88 19.62C1022.88 18.3533 1023.06 17.3133 1023.42 16.5C1023.78 15.6867 1024.3 15.08 1024.98 14.68C1025.66 14.28 1026.48 14.08 1027.42 14.08C1028.44 14.08 1029.34 14.3133 1030.14 14.78C1030.96 15.2333 1031.6 15.8733 1032.06 16.7C1032.54 17.5267 1032.78 18.5 1032.78 19.62C1032.78 20.7533 1032.54 21.7333 1032.06 22.56C1031.6 23.3867 1030.96 24.0267 1030.14 24.48C1029.34 24.9333 1028.44 25.16 1027.42 25.16ZM1021.06 28.88V14.24H1024.04V16.44L1023.98 19.64L1024.18 22.82V28.88H1021.06ZM1026.88 22.6C1027.4 22.6 1027.86 22.48 1028.26 22.24C1028.68 22 1029 21.66 1029.24 21.22C1029.5 20.7667 1029.62 20.2333 1029.62 19.62C1029.62 18.9933 1029.5 18.46 1029.24 18.02C1029 17.58 1028.68 17.24 1028.26 17C1027.86 16.76 1027.4 16.64 1026.88 16.64C1026.36 16.64 1025.9 16.76 1025.48 17C1025.07 17.24 1024.74 17.58 1024.5 18.02C1024.26 18.46 1024.14 18.9933 1024.14 19.62C1024.14 20.2333 1024.26 20.7667 1024.5 21.22C1024.74 21.66 1025.07 22 1025.48 22.24C1025.9 22.48 1026.36 22.6 1026.88 22.6ZM1039.27 25.16C1038 25.16 1037.02 24.84 1036.31 24.2C1035.6 23.5467 1035.25 22.58 1035.25 21.3V11.86H1038.37V21.26C1038.37 21.7133 1038.49 22.0667 1038.73 22.32C1038.97 22.56 1039.3 22.68 1039.71 22.68C1040.2 22.68 1040.62 22.5467 1040.97 22.28L1041.81 24.48C1041.49 24.7067 1041.1 24.88 1040.65 25C1040.21 25.1067 1039.75 25.16 1039.27 25.16ZM1033.59 16.88V14.48H1041.05V16.88H1033.59ZM1048.35 25.16C1047.2 25.16 1046.18 24.92 1045.29 24.44C1044.41 23.96 1043.71 23.3067 1043.19 22.48C1042.68 21.64 1042.43 20.6867 1042.43 19.62C1042.43 18.54 1042.68 17.5867 1043.19 16.76C1043.71 15.92 1044.41 15.2667 1045.29 14.8C1046.18 14.32 1047.2 14.08 1048.35 14.08C1049.48 14.08 1050.5 14.32 1051.39 14.8C1052.28 15.2667 1052.98 15.9133 1053.49 16.74C1054 17.5667 1054.25 18.5267 1054.25 19.62C1054.25 20.6867 1054 21.64 1053.49 22.48C1052.98 23.3067 1052.28 23.96 1051.39 24.44C1050.5 24.92 1049.48 25.16 1048.35 25.16ZM1048.35 22.6C1048.87 22.6 1049.34 22.48 1049.75 22.24C1050.16 22 1050.49 21.66 1050.73 21.22C1050.97 20.7667 1051.09 20.2333 1051.09 19.62C1051.09 18.9933 1050.97 18.46 1050.73 18.02C1050.49 17.58 1050.16 17.24 1049.75 17C1049.34 16.76 1048.87 16.64 1048.35 16.64C1047.83 16.64 1047.36 16.76 1046.95 17C1046.54 17.24 1046.2 17.58 1045.95 18.02C1045.71 18.46 1045.59 18.9933 1045.59 19.62C1045.59 20.2333 1045.71 20.7667 1045.95 21.22C1046.2 21.66 1046.54 22 1046.95 22.24C1047.36 22.48 1047.83 22.6 1048.35 22.6ZM1067.34 25.16C1066.11 25.16 1065.03 24.92 1064.1 24.44C1063.18 23.96 1062.47 23.3067 1061.96 22.48C1061.45 21.64 1061.2 20.6867 1061.2 19.62C1061.2 18.54 1061.45 17.5867 1061.94 16.76C1062.45 15.92 1063.13 15.2667 1064 14.8C1064.87 14.32 1065.85 14.08 1066.94 14.08C1067.99 14.08 1068.94 14.3067 1069.78 14.76C1070.63 15.2 1071.31 15.84 1071.8 16.68C1072.29 17.5067 1072.54 18.5 1072.54 19.66C1072.54 19.78 1072.53 19.92 1072.52 20.08C1072.51 20.2267 1072.49 20.3667 1072.48 20.5H1063.74V18.68H1070.84L1069.64 19.22C1069.64 18.66 1069.53 18.1733 1069.3 17.76C1069.07 17.3467 1068.76 17.0267 1068.36 16.8C1067.96 16.56 1067.49 16.44 1066.96 16.44C1066.43 16.44 1065.95 16.56 1065.54 16.8C1065.14 17.0267 1064.83 17.3533 1064.6 17.78C1064.37 18.1933 1064.26 18.6867 1064.26 19.26V19.74C1064.26 20.3267 1064.39 20.8467 1064.64 21.3C1064.91 21.74 1065.27 22.08 1065.74 22.32C1066.22 22.5467 1066.78 22.66 1067.42 22.66C1067.99 22.66 1068.49 22.5733 1068.92 22.4C1069.36 22.2267 1069.76 21.9667 1070.12 21.62L1071.78 23.42C1071.29 23.98 1070.67 24.4133 1069.92 24.72C1069.17 25.0133 1068.31 25.16 1067.34 25.16ZM1072.96 25L1077.78 18.68L1077.72 20.4L1073.1 14.24H1076.6L1079.52 18.26L1078.2 18.3L1081.22 14.24H1084.54L1079.9 20.34V18.66L1084.7 25H1081.16L1078.1 20.72L1079.4 20.9L1076.36 25H1072.96ZM1091.09 25.16C1089.93 25.16 1088.89 24.9267 1087.99 24.46C1087.08 23.98 1086.37 23.32 1085.85 22.48C1085.34 21.64 1085.09 20.6867 1085.09 19.62C1085.09 18.54 1085.34 17.5867 1085.85 16.76C1086.37 15.92 1087.08 15.2667 1087.99 14.8C1088.89 14.32 1089.93 14.08 1091.09 14.08C1092.22 14.08 1093.21 14.32 1094.05 14.8C1094.89 15.2667 1095.51 15.94 1095.91 16.82L1093.49 18.12C1093.21 17.6133 1092.85 17.24 1092.43 17C1092.01 16.76 1091.56 16.64 1091.07 16.64C1090.53 16.64 1090.05 16.76 1089.63 17C1089.2 17.24 1088.86 17.58 1088.61 18.02C1088.37 18.46 1088.25 18.9933 1088.25 19.62C1088.25 20.2467 1088.37 20.78 1088.61 21.22C1088.86 21.66 1089.2 22 1089.63 22.24C1090.05 22.48 1090.53 22.6 1091.07 22.6C1091.56 22.6 1092.01 22.4867 1092.43 22.26C1092.85 22.02 1093.21 21.64 1093.49 21.12L1095.91 22.44C1095.51 23.3067 1094.89 23.98 1094.05 24.46C1093.21 24.9267 1092.22 25.16 1091.09 25.16ZM1104.19 14.08C1105.04 14.08 1105.8 14.2533 1106.47 14.6C1107.15 14.9333 1107.68 15.4533 1108.07 16.16C1108.45 16.8533 1108.65 17.7467 1108.65 18.84V25H1105.53V19.32C1105.53 18.4533 1105.33 17.8133 1104.95 17.4C1104.57 16.9867 1104.04 16.78 1103.35 16.78C1102.85 16.78 1102.41 16.8867 1102.01 17.1C1101.62 17.3 1101.31 17.6133 1101.09 18.04C1100.87 18.4667 1100.77 19.0133 1100.77 19.68V25H1097.65V10.16H1100.77V17.22L1100.07 16.32C1100.45 15.6 1101.01 15.0467 1101.73 14.66C1102.45 14.2733 1103.27 14.08 1104.19 14.08ZM1118.07 25V22.9L1117.87 22.44V18.68C1117.87 18.0133 1117.67 17.4933 1117.25 17.12C1116.85 16.7467 1116.23 16.56 1115.39 16.56C1114.82 16.56 1114.25 16.6533 1113.69 16.84C1113.15 17.0133 1112.68 17.2533 1112.29 17.56L1111.17 15.38C1111.76 14.9667 1112.47 14.6467 1113.29 14.42C1114.12 14.1933 1114.96 14.08 1115.81 14.08C1117.45 14.08 1118.73 14.4667 1119.63 15.24C1120.54 16.0133 1120.99 17.22 1120.99 18.86V25H1118.07ZM1114.79 25.16C1113.95 25.16 1113.23 25.02 1112.63 24.74C1112.03 24.4467 1111.57 24.0533 1111.25 23.56C1110.93 23.0667 1110.77 22.5133 1110.77 21.9C1110.77 21.26 1110.93 20.7 1111.23 20.22C1111.55 19.74 1112.05 19.3667 1112.73 19.1C1113.41 18.82 1114.3 18.68 1115.39 18.68H1118.25V20.5H1115.73C1115 20.5 1114.49 20.62 1114.21 20.86C1113.95 21.1 1113.81 21.4 1113.81 21.76C1113.81 22.16 1113.97 22.48 1114.27 22.72C1114.59 22.9467 1115.03 23.06 1115.57 23.06C1116.09 23.06 1116.56 22.94 1116.97 22.7C1117.39 22.4467 1117.69 22.08 1117.87 21.6L1118.35 23.04C1118.13 23.7333 1117.71 24.26 1117.11 24.62C1116.51 24.98 1115.74 25.16 1114.79 25.16ZM1130.36 14.08C1131.21 14.08 1131.97 14.2533 1132.64 14.6C1133.32 14.9333 1133.85 15.4533 1134.24 16.16C1134.62 16.8533 1134.82 17.7467 1134.82 18.84V25H1131.7V19.32C1131.7 18.4533 1131.5 17.8133 1131.12 17.4C1130.74 16.9867 1130.21 16.78 1129.52 16.78C1129.02 16.78 1128.58 16.8867 1128.18 17.1C1127.79 17.3 1127.48 17.6133 1127.26 18.04C1127.04 18.4667 1126.94 19.0133 1126.94 19.68V25H1123.82V14.24H1126.8V17.22L1126.24 16.32C1126.62 15.6 1127.18 15.0467 1127.9 14.66C1128.62 14.2733 1129.44 14.08 1130.36 14.08ZM1142.78 29.04C1141.77 29.04 1140.79 28.9133 1139.84 28.66C1138.91 28.42 1138.13 28.0533 1137.5 27.56L1138.74 25.32C1139.2 25.6933 1139.77 25.9867 1140.46 26.2C1141.17 26.4267 1141.86 26.54 1142.54 26.54C1143.65 26.54 1144.45 26.2933 1144.94 25.8C1145.45 25.3067 1145.7 24.5733 1145.7 23.6V21.98L1145.9 19.28L1145.86 16.56V14.24H1148.82V23.2C1148.82 25.2 1148.3 26.6733 1147.26 27.62C1146.22 28.5667 1144.73 29.04 1142.78 29.04ZM1142.3 24.48C1141.3 24.48 1140.4 24.2667 1139.58 23.84C1138.78 23.4 1138.14 22.7933 1137.64 22.02C1137.16 21.2333 1136.92 20.32 1136.92 19.28C1136.92 18.2267 1137.16 17.3133 1137.64 16.54C1138.14 15.7533 1138.78 15.1467 1139.58 14.72C1140.4 14.2933 1141.3 14.08 1142.3 14.08C1143.21 14.08 1144.01 14.2667 1144.7 14.64C1145.4 15 1145.94 15.5667 1146.32 16.34C1146.71 17.1 1146.9 18.08 1146.9 19.28C1146.9 20.4667 1146.71 21.4467 1146.32 22.22C1145.94 22.98 1145.4 23.5467 1144.7 23.92C1144.01 24.2933 1143.21 24.48 1142.3 24.48ZM1142.92 21.92C1143.47 21.92 1143.96 21.8133 1144.38 21.6C1144.81 21.3733 1145.14 21.06 1145.38 20.66C1145.62 20.26 1145.74 19.8 1145.74 19.28C1145.74 18.7467 1145.62 18.2867 1145.38 17.9C1145.14 17.5 1144.81 17.1933 1144.38 16.98C1143.96 16.7533 1143.47 16.64 1142.92 16.64C1142.38 16.64 1141.89 16.7533 1141.46 16.98C1141.04 17.1933 1140.7 17.5 1140.44 17.9C1140.2 18.2867 1140.08 18.7467 1140.08 19.28C1140.08 19.8 1140.2 20.26 1140.44 20.66C1140.7 21.06 1141.04 21.3733 1141.46 21.6C1141.89 21.8133 1142.38 21.92 1142.92 21.92ZM1157.07 25.16C1155.84 25.16 1154.76 24.92 1153.83 24.44C1152.91 23.96 1152.19 23.3067 1151.69 22.48C1151.18 21.64 1150.93 20.6867 1150.93 19.62C1150.93 18.54 1151.17 17.5867 1151.67 16.76C1152.17 15.92 1152.86 15.2667 1153.73 14.8C1154.59 14.32 1155.57 14.08 1156.67 14.08C1157.72 14.08 1158.67 14.3067 1159.51 14.76C1160.36 15.2 1161.03 15.84 1161.53 16.68C1162.02 17.5067 1162.27 18.5 1162.27 19.66C1162.27 19.78 1162.26 19.92 1162.25 20.08C1162.23 20.2267 1162.22 20.3667 1162.21 20.5H1153.47V18.68H1160.57L1159.37 19.22C1159.37 18.66 1159.25 18.1733 1159.03 17.76C1158.8 17.3467 1158.49 17.0267 1158.09 16.8C1157.69 16.56 1157.22 16.44 1156.69 16.44C1156.15 16.44 1155.68 16.56 1155.27 16.8C1154.87 17.0267 1154.55 17.3533 1154.33 17.78C1154.1 18.1933 1153.99 18.6867 1153.99 19.26V19.74C1153.99 20.3267 1154.11 20.8467 1154.37 21.3C1154.63 21.74 1155 22.08 1155.47 22.32C1155.95 22.5467 1156.51 22.66 1157.15 22.66C1157.72 22.66 1158.22 22.5733 1158.65 22.4C1159.09 22.2267 1159.49 21.9667 1159.85 21.62L1161.51 23.42C1161.01 23.98 1160.39 24.4133 1159.65 24.72C1158.9 25.0133 1158.04 25.16 1157.07 25.16Z" fill="#F7F7F7"/>
<path d="M1104.56 47.3455C1103.71 47.3455 1102.93 47.2068 1102.2 46.9295C1101.49 46.6415 1100.87 46.2415 1100.33 45.7295C1099.81 45.2068 1099.4 44.6042 1099.1 43.9215C1098.81 43.2282 1098.67 42.4708 1098.67 41.6495C1098.67 40.8282 1098.81 40.0762 1099.1 39.3935C1099.4 38.7002 1099.81 38.0975 1100.33 37.5855C1100.87 37.0628 1101.49 36.6628 1102.2 36.3855C1102.92 36.0975 1103.7 35.9535 1104.56 35.9535C1105.4 35.9535 1106.18 36.0975 1106.89 36.3855C1107.61 36.6628 1108.23 37.0575 1108.75 37.5695C1109.28 38.0815 1109.69 38.6842 1109.98 39.3775C1110.28 40.0708 1110.43 40.8282 1110.43 41.6495C1110.43 42.4708 1110.28 43.2282 1109.98 43.9215C1109.69 44.6148 1109.28 45.2175 1108.75 45.7295C1108.23 46.2415 1107.61 46.6415 1106.89 46.9295C1106.18 47.2068 1105.4 47.3455 1104.56 47.3455ZM1108.22 49.4735C1107.88 49.4735 1107.55 49.4308 1107.23 49.3455C1106.91 49.2602 1106.58 49.1215 1106.25 48.9295C1105.93 48.7482 1105.6 48.5082 1105.26 48.2095C1104.92 47.9108 1104.55 47.5482 1104.14 47.1215L1105.44 46.8015C1105.77 47.1962 1106.09 47.5215 1106.4 47.7775C1106.72 48.0335 1107.03 48.2202 1107.32 48.3375C1107.63 48.4655 1107.94 48.5295 1108.24 48.5295C1109.07 48.5295 1109.78 48.1882 1110.36 47.5055L1110.94 48.1935C1110.24 49.0468 1109.33 49.4735 1108.22 49.4735ZM1104.56 46.2895C1105.23 46.2895 1105.85 46.1775 1106.41 45.9535C1106.99 45.7188 1107.48 45.3882 1107.9 44.9615C1108.33 44.5348 1108.66 44.0442 1108.89 43.4895C1109.13 42.9242 1109.24 42.3108 1109.24 41.6495C1109.24 40.9775 1109.13 40.3642 1108.89 39.8095C1108.66 39.2442 1108.33 38.7535 1107.9 38.3375C1107.48 37.9108 1106.99 37.5855 1106.41 37.3615C1105.85 37.1268 1105.23 37.0095 1104.56 37.0095C1103.88 37.0095 1103.26 37.1268 1102.68 37.3615C1102.11 37.5855 1101.61 37.9108 1101.18 38.3375C1100.76 38.7535 1100.43 39.2442 1100.19 39.8095C1099.95 40.3642 1099.84 40.9775 1099.84 41.6495C1099.84 42.3108 1099.95 42.9242 1100.19 43.4895C1100.43 44.0442 1100.76 44.5348 1101.18 44.9615C1101.61 45.3882 1102.11 45.7188 1102.68 45.9535C1103.26 46.1775 1103.88 46.2895 1104.56 46.2895ZM1111.73 47.2495V46.4335L1116.38 41.8735C1116.81 41.4575 1117.13 41.0948 1117.34 40.7855C1117.55 40.4655 1117.7 40.1668 1117.77 39.8895C1117.85 39.6122 1117.89 39.3508 1117.89 39.1055C1117.89 38.4548 1117.66 37.9428 1117.21 37.5695C1116.78 37.1962 1116.13 37.0095 1115.26 37.0095C1114.6 37.0095 1114.01 37.1108 1113.5 37.3135C1113 37.5162 1112.57 37.8308 1112.21 38.2575L1111.39 37.5535C1111.83 37.0415 1112.39 36.6468 1113.07 36.3695C1113.75 36.0922 1114.51 35.9535 1115.36 35.9535C1116.11 35.9535 1116.77 36.0762 1117.33 36.3215C1117.88 36.5562 1118.31 36.9028 1118.61 37.3615C1118.91 37.8202 1119.07 38.3588 1119.07 38.9775C1119.07 39.3402 1119.02 39.6975 1118.91 40.0495C1118.81 40.4015 1118.63 40.7748 1118.37 41.1695C1118.11 41.5535 1117.73 41.9908 1117.23 42.4815L1112.96 46.6735L1112.64 46.2255H1119.58V47.2495H1111.73ZM1125.01 47.2495V46.4335L1129.66 41.8735C1130.09 41.4575 1130.41 41.0948 1130.62 40.7855C1130.84 40.4655 1130.98 40.1668 1131.05 39.8895C1131.13 39.6122 1131.17 39.3508 1131.17 39.1055C1131.17 38.4548 1130.94 37.9428 1130.49 37.5695C1130.06 37.1962 1129.41 37.0095 1128.54 37.0095C1127.88 37.0095 1127.29 37.1108 1126.78 37.3135C1126.28 37.5162 1125.85 37.8308 1125.49 38.2575L1124.67 37.5535C1125.11 37.0415 1125.67 36.6468 1126.35 36.3695C1127.03 36.0922 1127.8 35.9535 1128.64 35.9535C1129.4 35.9535 1130.05 36.0762 1130.61 36.3215C1131.16 36.5562 1131.59 36.9028 1131.89 37.3615C1132.2 37.8202 1132.35 38.3588 1132.35 38.9775C1132.35 39.3402 1132.3 39.6975 1132.19 40.0495C1132.09 40.4015 1131.91 40.7748 1131.65 41.1695C1131.39 41.5535 1131.01 41.9908 1130.51 42.4815L1126.24 46.6735L1125.92 46.2255H1132.86V47.2495H1125.01ZM1138.74 47.3455C1137.88 47.3455 1137.11 47.1215 1136.44 46.6735C1135.77 46.2148 1135.24 45.5642 1134.85 44.7215C1134.47 43.8682 1134.28 42.8442 1134.28 41.6495C1134.28 40.4548 1134.47 39.4362 1134.85 38.5935C1135.24 37.7402 1135.77 37.0895 1136.44 36.6415C1137.11 36.1828 1137.88 35.9535 1138.74 35.9535C1139.61 35.9535 1140.37 36.1828 1141.05 36.6415C1141.72 37.0895 1142.25 37.7402 1142.63 38.5935C1143.02 39.4362 1143.22 40.4548 1143.22 41.6495C1143.22 42.8442 1143.02 43.8682 1142.63 44.7215C1142.25 45.5642 1141.72 46.2148 1141.05 46.6735C1140.37 47.1215 1139.61 47.3455 1138.74 47.3455ZM1138.74 46.2895C1139.4 46.2895 1139.98 46.1135 1140.47 45.7615C1140.96 45.3988 1141.34 44.8762 1141.62 44.1935C1141.9 43.5002 1142.04 42.6522 1142.04 41.6495C1142.04 40.6468 1141.9 39.8042 1141.62 39.1215C1141.34 38.4282 1140.96 37.9055 1140.47 37.5535C1139.98 37.1908 1139.4 37.0095 1138.74 37.0095C1138.1 37.0095 1137.53 37.1908 1137.03 37.5535C1136.53 37.9055 1136.14 38.4282 1135.86 39.1215C1135.58 39.8042 1135.45 40.6468 1135.45 41.6495C1135.45 42.6522 1135.58 43.5002 1135.86 44.1935C1136.14 44.8762 1136.53 45.3988 1137.03 45.7615C1137.53 46.1135 1138.1 46.2895 1138.74 46.2895ZM1144.66 47.2495V46.4335L1149.32 41.8735C1149.75 41.4575 1150.07 41.0948 1150.28 40.7855C1150.49 40.4655 1150.64 40.1668 1150.71 39.8895C1150.79 39.6122 1150.82 39.3508 1150.82 39.1055C1150.82 38.4548 1150.6 37.9428 1150.15 37.5695C1149.71 37.1962 1149.06 37.0095 1148.2 37.0095C1147.54 37.0095 1146.95 37.1108 1146.44 37.3135C1145.94 37.5162 1145.51 37.8308 1145.14 38.2575L1144.33 37.5535C1144.76 37.0415 1145.32 36.6468 1146.01 36.3695C1146.69 36.0922 1147.45 35.9535 1148.3 35.9535C1149.05 35.9535 1149.71 36.0762 1150.26 36.3215C1150.82 36.5562 1151.24 36.9028 1151.54 37.3615C1151.85 37.8202 1152.01 38.3588 1152.01 38.9775C1152.01 39.3402 1151.95 39.6975 1151.85 40.0495C1151.75 40.4015 1151.57 40.7748 1151.3 41.1695C1151.05 41.5535 1150.67 41.9908 1150.17 42.4815L1145.9 46.6735L1145.58 46.2255H1152.52V47.2495H1144.66ZM1157.31 47.3455C1156.5 47.3455 1155.73 47.2175 1155 46.9615C1154.29 46.6948 1153.71 46.3428 1153.28 45.9055L1153.84 44.9935C1154.2 45.3668 1154.68 45.6762 1155.29 45.9215C1155.91 46.1668 1156.58 46.2895 1157.31 46.2895C1158.24 46.2895 1158.95 46.0868 1159.44 45.6815C1159.94 45.2762 1160.19 44.7322 1160.19 44.0495C1160.19 43.3668 1159.94 42.8228 1159.45 42.4175C1158.97 42.0122 1158.21 41.8095 1157.16 41.8095H1156.36V40.9615L1159.82 36.6255L1159.98 37.0735H1153.74V36.0495H1160.94V36.8655L1157.48 41.2015L1156.92 40.8335H1157.36C1158.7 40.8335 1159.7 41.1322 1160.36 41.7295C1161.04 42.3268 1161.37 43.0948 1161.37 44.0335C1161.37 44.6628 1161.22 45.2282 1160.92 45.7295C1160.63 46.2308 1160.17 46.6255 1159.56 46.9135C1158.97 47.2015 1158.22 47.3455 1157.31 47.3455Z" fill="#F7F7F7"/>
<circle cx="1187.5" cy="34.2495" r="23" fill="#222222" stroke="#F5BD00" stroke-width="4"/>
<path d="M979.052 328L985.292 314H988.492L994.752 328H991.352L986.232 315.64H987.512L982.372 328H979.052ZM982.172 325L983.032 322.54H990.232L991.112 325H982.172ZM996.365 328V317C996.365 315.787 996.725 314.82 997.445 314.1C998.165 313.367 999.192 313 1000.52 313C1000.98 313 1001.41 313.047 1001.82 313.14C1002.25 313.233 1002.61 313.38 1002.9 313.58L1002.08 315.84C1001.91 315.72 1001.72 315.627 1001.5 315.56C1001.29 315.493 1001.06 315.46 1000.82 315.46C1000.37 315.46 1000.02 315.593 999.765 315.86C999.525 316.113 999.405 316.5 999.405 317.02V318.02L999.485 319.36V328H996.365ZM994.705 319.88V317.48H1002.16V319.88H994.705ZM1004.1 328V317C1004.1 315.787 1004.46 314.82 1005.18 314.1C1005.9 313.367 1006.93 313 1008.26 313C1008.71 313 1009.15 313.047 1009.56 313.14C1009.99 313.233 1010.35 313.38 1010.64 313.58L1009.82 315.84C1009.65 315.72 1009.45 315.627 1009.24 315.56C1009.03 315.493 1008.8 315.46 1008.56 315.46C1008.11 315.46 1007.75 315.593 1007.5 315.86C1007.26 316.113 1007.14 316.5 1007.14 317.02V318.02L1007.22 319.36V328H1004.1ZM1002.44 319.88V317.48H1009.9V319.88H1002.44ZM1011.66 328V317.24H1014.78V328H1011.66ZM1013.22 315.74C1012.65 315.74 1012.18 315.573 1011.82 315.24C1011.46 314.907 1011.28 314.493 1011.28 314C1011.28 313.507 1011.46 313.093 1011.82 312.76C1012.18 312.427 1012.65 312.26 1013.22 312.26C1013.79 312.26 1014.26 312.42 1014.62 312.74C1014.98 313.047 1015.16 313.447 1015.16 313.94C1015.16 314.46 1014.98 314.893 1014.62 315.24C1014.27 315.573 1013.81 315.74 1013.22 315.74ZM1017.66 328V313.16H1020.78V328H1017.66ZM1023.68 328V317.24H1026.8V328H1023.68ZM1025.24 315.74C1024.67 315.74 1024.2 315.573 1023.84 315.24C1023.48 314.907 1023.3 314.493 1023.3 314C1023.3 313.507 1023.48 313.093 1023.84 312.76C1024.2 312.427 1024.67 312.26 1025.24 312.26C1025.81 312.26 1026.28 312.42 1026.64 312.74C1027 313.047 1027.18 313.447 1027.18 313.94C1027.18 314.46 1027 314.893 1026.64 315.24C1026.29 315.573 1025.83 315.74 1025.24 315.74ZM1036.3 328V325.9L1036.1 325.44V321.68C1036.1 321.013 1035.89 320.493 1035.48 320.12C1035.08 319.747 1034.46 319.56 1033.62 319.56C1033.04 319.56 1032.48 319.653 1031.92 319.84C1031.37 320.013 1030.9 320.253 1030.52 320.56L1029.4 318.38C1029.98 317.967 1030.69 317.647 1031.52 317.42C1032.34 317.193 1033.18 317.08 1034.04 317.08C1035.68 317.08 1036.95 317.467 1037.86 318.24C1038.76 319.013 1039.22 320.22 1039.22 321.86V328H1036.3ZM1033.02 328.16C1032.18 328.16 1031.46 328.02 1030.86 327.74C1030.26 327.447 1029.8 327.053 1029.48 326.56C1029.16 326.067 1029 325.513 1029 324.9C1029 324.26 1029.15 323.7 1029.46 323.22C1029.78 322.74 1030.28 322.367 1030.96 322.1C1031.64 321.82 1032.52 321.68 1033.62 321.68H1036.48V323.5H1033.96C1033.22 323.5 1032.72 323.62 1032.44 323.86C1032.17 324.1 1032.04 324.4 1032.04 324.76C1032.04 325.16 1032.19 325.48 1032.5 325.72C1032.82 325.947 1033.25 326.06 1033.8 326.06C1034.32 326.06 1034.78 325.94 1035.2 325.7C1035.61 325.447 1035.91 325.08 1036.1 324.6L1036.58 326.04C1036.35 326.733 1035.94 327.26 1035.34 327.62C1034.74 327.98 1033.96 328.16 1033.02 328.16ZM1046.44 328.16C1045.17 328.16 1044.19 327.84 1043.48 327.2C1042.77 326.547 1042.42 325.58 1042.42 324.3V314.86H1045.54V324.26C1045.54 324.713 1045.66 325.067 1045.9 325.32C1046.14 325.56 1046.47 325.68 1046.88 325.68C1047.37 325.68 1047.79 325.547 1048.14 325.28L1048.98 327.48C1048.66 327.707 1048.27 327.88 1047.82 328C1047.38 328.107 1046.92 328.16 1046.44 328.16ZM1040.76 319.88V317.48H1048.22V319.88H1040.76ZM1055.74 328.16C1054.51 328.16 1053.43 327.92 1052.5 327.44C1051.58 326.96 1050.87 326.307 1050.36 325.48C1049.85 324.64 1049.6 323.687 1049.6 322.62C1049.6 321.54 1049.85 320.587 1050.34 319.76C1050.85 318.92 1051.53 318.267 1052.4 317.8C1053.27 317.32 1054.25 317.08 1055.34 317.08C1056.39 317.08 1057.34 317.307 1058.18 317.76C1059.03 318.2 1059.71 318.84 1060.2 319.68C1060.69 320.507 1060.94 321.5 1060.94 322.66C1060.94 322.78 1060.93 322.92 1060.92 323.08C1060.91 323.227 1060.89 323.367 1060.88 323.5H1052.14V321.68H1059.24L1058.04 322.22C1058.04 321.66 1057.93 321.173 1057.7 320.76C1057.47 320.347 1057.16 320.027 1056.76 319.8C1056.36 319.56 1055.89 319.44 1055.36 319.44C1054.83 319.44 1054.35 319.56 1053.94 319.8C1053.54 320.027 1053.23 320.353 1053 320.78C1052.77 321.193 1052.66 321.687 1052.66 322.26V322.74C1052.66 323.327 1052.79 323.847 1053.04 324.3C1053.31 324.74 1053.67 325.08 1054.14 325.32C1054.62 325.547 1055.18 325.66 1055.82 325.66C1056.39 325.66 1056.89 325.573 1057.32 325.4C1057.76 325.227 1058.16 324.967 1058.52 324.62L1060.18 326.42C1059.69 326.98 1059.07 327.413 1058.32 327.72C1057.57 328.013 1056.71 328.16 1055.74 328.16ZM1075.04 328.16C1074.13 328.16 1073.34 327.96 1072.66 327.56C1071.98 327.16 1071.45 326.553 1071.06 325.74C1070.69 324.913 1070.5 323.873 1070.5 322.62C1070.5 321.353 1070.68 320.313 1071.04 319.5C1071.4 318.687 1071.92 318.08 1072.6 317.68C1073.28 317.28 1074.09 317.08 1075.04 317.08C1076.05 317.08 1076.96 317.313 1077.76 317.78C1078.57 318.233 1079.21 318.873 1079.68 319.7C1080.16 320.527 1080.4 321.5 1080.4 322.62C1080.4 323.753 1080.16 324.733 1079.68 325.56C1079.21 326.387 1078.57 327.027 1077.76 327.48C1076.96 327.933 1076.05 328.16 1075.04 328.16ZM1068.68 331.88V317.24H1071.66V319.44L1071.6 322.64L1071.8 325.82V331.88H1068.68ZM1074.5 325.6C1075.02 325.6 1075.48 325.48 1075.88 325.24C1076.29 325 1076.62 324.66 1076.86 324.22C1077.11 323.767 1077.24 323.233 1077.24 322.62C1077.24 321.993 1077.11 321.46 1076.86 321.02C1076.62 320.58 1076.29 320.24 1075.88 320C1075.48 319.76 1075.02 319.64 1074.5 319.64C1073.98 319.64 1073.51 319.76 1073.1 320C1072.69 320.24 1072.36 320.58 1072.12 321.02C1071.88 321.46 1071.76 321.993 1071.76 322.62C1071.76 323.233 1071.88 323.767 1072.12 324.22C1072.36 324.66 1072.69 325 1073.1 325.24C1073.51 325.48 1073.98 325.6 1074.5 325.6ZM1082.49 328V317.24H1085.47V320.28L1085.05 319.4C1085.37 318.64 1085.88 318.067 1086.59 317.68C1087.3 317.28 1088.16 317.08 1089.17 317.08V319.96C1089.04 319.947 1088.92 319.94 1088.81 319.94C1088.7 319.927 1088.59 319.92 1088.47 319.92C1087.62 319.92 1086.92 320.167 1086.39 320.66C1085.87 321.14 1085.61 321.893 1085.61 322.92V328H1082.49ZM1096.07 328.16C1094.92 328.16 1093.9 327.92 1093.01 327.44C1092.13 326.96 1091.43 326.307 1090.91 325.48C1090.4 324.64 1090.15 323.687 1090.15 322.62C1090.15 321.54 1090.4 320.587 1090.91 319.76C1091.43 318.92 1092.13 318.267 1093.01 317.8C1093.9 317.32 1094.92 317.08 1096.07 317.08C1097.2 317.08 1098.21 317.32 1099.11 317.8C1100 318.267 1100.7 318.913 1101.21 319.74C1101.71 320.567 1101.97 321.527 1101.97 322.62C1101.97 323.687 1101.71 324.64 1101.21 325.48C1100.7 326.307 1100 326.96 1099.11 327.44C1098.21 327.92 1097.2 328.16 1096.07 328.16ZM1096.07 325.6C1096.59 325.6 1097.05 325.48 1097.47 325.24C1097.88 325 1098.21 324.66 1098.45 324.22C1098.69 323.767 1098.81 323.233 1098.81 322.62C1098.81 321.993 1098.69 321.46 1098.45 321.02C1098.21 320.58 1097.88 320.24 1097.47 320C1097.05 319.76 1096.59 319.64 1096.07 319.64C1095.55 319.64 1095.08 319.76 1094.67 320C1094.25 320.24 1093.92 320.58 1093.67 321.02C1093.43 321.46 1093.31 321.993 1093.31 322.62C1093.31 323.233 1093.43 323.767 1093.67 324.22C1093.92 324.66 1094.25 325 1094.67 325.24C1095.08 325.48 1095.55 325.6 1096.07 325.6ZM1109.11 332.04C1108.1 332.04 1107.12 331.913 1106.17 331.66C1105.24 331.42 1104.46 331.053 1103.83 330.56L1105.07 328.32C1105.52 328.693 1106.1 328.987 1106.79 329.2C1107.5 329.427 1108.19 329.54 1108.87 329.54C1109.98 329.54 1110.78 329.293 1111.27 328.8C1111.78 328.307 1112.03 327.573 1112.03 326.6V324.98L1112.23 322.28L1112.19 319.56V317.24H1115.15V326.2C1115.15 328.2 1114.63 329.673 1113.59 330.62C1112.55 331.567 1111.06 332.04 1109.11 332.04ZM1108.63 327.48C1107.63 327.48 1106.72 327.267 1105.91 326.84C1105.11 326.4 1104.46 325.793 1103.97 325.02C1103.49 324.233 1103.25 323.32 1103.25 322.28C1103.25 321.227 1103.49 320.313 1103.97 319.54C1104.46 318.753 1105.11 318.147 1105.91 317.72C1106.72 317.293 1107.63 317.08 1108.63 317.08C1109.54 317.08 1110.34 317.267 1111.03 317.64C1111.72 318 1112.26 318.567 1112.65 319.34C1113.04 320.1 1113.23 321.08 1113.23 322.28C1113.23 323.467 1113.04 324.447 1112.65 325.22C1112.26 325.98 1111.72 326.547 1111.03 326.92C1110.34 327.293 1109.54 327.48 1108.63 327.48ZM1109.25 324.92C1109.8 324.92 1110.28 324.813 1110.71 324.6C1111.14 324.373 1111.47 324.06 1111.71 323.66C1111.95 323.26 1112.07 322.8 1112.07 322.28C1112.07 321.747 1111.95 321.287 1111.71 320.9C1111.47 320.5 1111.14 320.193 1110.71 319.98C1110.28 319.753 1109.8 319.64 1109.25 319.64C1108.7 319.64 1108.22 319.753 1107.79 319.98C1107.36 320.193 1107.02 320.5 1106.77 320.9C1106.53 321.287 1106.41 321.747 1106.41 322.28C1106.41 322.8 1106.53 323.26 1106.77 323.66C1107.02 324.06 1107.36 324.373 1107.79 324.6C1108.22 324.813 1108.7 324.92 1109.25 324.92ZM1118.06 328V317.24H1121.04V320.28L1120.62 319.4C1120.94 318.64 1121.45 318.067 1122.16 317.68C1122.86 317.28 1123.72 317.08 1124.74 317.08V319.96C1124.6 319.947 1124.48 319.94 1124.38 319.94C1124.27 319.927 1124.16 319.92 1124.04 319.92C1123.18 319.92 1122.49 320.167 1121.96 320.66C1121.44 321.14 1121.18 321.893 1121.18 322.92V328H1118.06ZM1132.49 328V325.9L1132.29 325.44V321.68C1132.29 321.013 1132.08 320.493 1131.67 320.12C1131.27 319.747 1130.65 319.56 1129.81 319.56C1129.23 319.56 1128.67 319.653 1128.11 319.84C1127.56 320.013 1127.09 320.253 1126.71 320.56L1125.59 318.38C1126.17 317.967 1126.88 317.647 1127.71 317.42C1128.53 317.193 1129.37 317.08 1130.23 317.08C1131.87 317.08 1133.14 317.467 1134.05 318.24C1134.95 319.013 1135.41 320.22 1135.41 321.86V328H1132.49ZM1129.21 328.16C1128.37 328.16 1127.65 328.02 1127.05 327.74C1126.45 327.447 1125.99 327.053 1125.67 326.56C1125.35 326.067 1125.19 325.513 1125.19 324.9C1125.19 324.26 1125.34 323.7 1125.65 323.22C1125.97 322.74 1126.47 322.367 1127.15 322.1C1127.83 321.82 1128.71 321.68 1129.81 321.68H1132.67V323.5H1130.15C1129.41 323.5 1128.91 323.62 1128.63 323.86C1128.36 324.1 1128.23 324.4 1128.23 324.76C1128.23 325.16 1128.38 325.48 1128.69 325.72C1129.01 325.947 1129.44 326.06 1129.99 326.06C1130.51 326.06 1130.97 325.94 1131.39 325.7C1131.8 325.447 1132.1 325.08 1132.29 324.6L1132.77 326.04C1132.54 326.733 1132.13 327.26 1131.53 327.62C1130.93 327.98 1130.15 328.16 1129.21 328.16ZM1152.01 317.08C1152.86 317.08 1153.62 317.253 1154.27 317.6C1154.94 317.933 1155.46 318.453 1155.83 319.16C1156.22 319.853 1156.41 320.747 1156.41 321.84V328H1153.29V322.32C1153.29 321.453 1153.11 320.813 1152.75 320.4C1152.39 319.987 1151.88 319.78 1151.23 319.78C1150.78 319.78 1150.37 319.887 1150.01 320.1C1149.65 320.3 1149.37 320.607 1149.17 321.02C1148.97 321.433 1148.87 321.96 1148.87 322.6V328H1145.75V322.32C1145.75 321.453 1145.57 320.813 1145.21 320.4C1144.86 319.987 1144.36 319.78 1143.71 319.78C1143.26 319.78 1142.85 319.887 1142.49 320.1C1142.13 320.3 1141.85 320.607 1141.65 321.02C1141.45 321.433 1141.35 321.96 1141.35 322.6V328H1138.23V317.24H1141.21V320.18L1140.65 319.32C1141.02 318.587 1141.55 318.033 1142.23 317.66C1142.92 317.273 1143.71 317.08 1144.59 317.08C1145.58 317.08 1146.44 317.333 1147.17 317.84C1147.92 318.333 1148.41 319.093 1148.65 320.12L1147.55 319.82C1147.91 318.98 1148.48 318.313 1149.27 317.82C1150.07 317.327 1150.98 317.08 1152.01 317.08Z" fill="#F7F7F7"/>
<path d="M1095.6 353.346C1094.75 353.346 1093.97 353.207 1093.24 352.93C1092.53 352.642 1091.9 352.242 1091.37 351.73C1090.85 351.207 1090.44 350.604 1090.14 349.922C1089.85 349.228 1089.71 348.471 1089.71 347.65C1089.71 346.828 1089.85 346.076 1090.14 345.394C1090.44 344.7 1090.85 344.098 1091.37 343.586C1091.9 343.063 1092.53 342.663 1093.24 342.386C1093.96 342.098 1094.74 341.954 1095.6 341.954C1096.44 341.954 1097.22 342.098 1097.93 342.386C1098.65 342.663 1099.26 343.058 1099.79 343.57C1100.32 344.082 1100.73 344.684 1101.02 345.378C1101.32 346.071 1101.47 346.828 1101.47 347.65C1101.47 348.471 1101.32 349.228 1101.02 349.922C1100.73 350.615 1100.32 351.218 1099.79 351.73C1099.26 352.242 1098.65 352.642 1097.93 352.93C1097.22 353.207 1096.44 353.346 1095.6 353.346ZM1099.26 355.474C1098.92 355.474 1098.59 355.431 1098.27 355.346C1097.95 355.26 1097.62 355.122 1097.29 354.93C1096.97 354.748 1096.64 354.508 1096.3 354.21C1095.96 353.911 1095.58 353.548 1095.18 353.122L1096.48 352.802C1096.81 353.196 1097.13 353.522 1097.44 353.778C1097.76 354.034 1098.06 354.22 1098.36 354.338C1098.67 354.466 1098.98 354.53 1099.28 354.53C1100.11 354.53 1100.82 354.188 1101.4 353.506L1101.98 354.194C1101.28 355.047 1100.37 355.474 1099.26 355.474ZM1095.6 352.29C1096.27 352.29 1096.89 352.178 1097.45 351.954C1098.03 351.719 1098.52 351.388 1098.94 350.962C1099.37 350.535 1099.7 350.044 1099.93 349.49C1100.17 348.924 1100.28 348.311 1100.28 347.65C1100.28 346.978 1100.17 346.364 1099.93 345.81C1099.7 345.244 1099.37 344.754 1098.94 344.338C1098.52 343.911 1098.03 343.586 1097.45 343.362C1096.89 343.127 1096.27 343.01 1095.6 343.01C1094.92 343.01 1094.3 343.127 1093.72 343.362C1093.15 343.586 1092.65 343.911 1092.22 344.338C1091.8 344.754 1091.47 345.244 1091.23 345.81C1090.99 346.364 1090.88 346.978 1090.88 347.65C1090.88 348.311 1090.99 348.924 1091.23 349.49C1091.47 350.044 1091.8 350.535 1092.22 350.962C1092.65 351.388 1093.15 351.719 1093.72 351.954C1094.3 352.178 1094.92 352.29 1095.6 352.29ZM1106.3 353.346C1105.49 353.346 1104.72 353.218 1104 352.962C1103.28 352.695 1102.71 352.343 1102.27 351.906L1102.83 350.994C1103.19 351.367 1103.68 351.676 1104.29 351.922C1104.9 352.167 1105.58 352.29 1106.3 352.29C1107.23 352.29 1107.94 352.087 1108.43 351.682C1108.93 351.276 1109.18 350.732 1109.18 350.05C1109.18 349.367 1108.94 348.823 1108.45 348.418C1107.97 348.012 1107.2 347.81 1106.16 347.81H1105.36V346.962L1108.81 342.626L1108.97 343.074H1102.73V342.05H1109.93V342.866L1106.48 347.202L1105.92 346.834H1106.35C1107.69 346.834 1108.7 347.132 1109.36 347.73C1110.03 348.327 1110.37 349.095 1110.37 350.034C1110.37 350.663 1110.22 351.228 1109.92 351.73C1109.62 352.231 1109.17 352.626 1108.56 352.914C1107.96 353.202 1107.21 353.346 1106.3 353.346ZM1115.97 353.25V352.434L1120.62 347.874C1121.05 347.458 1121.37 347.095 1121.58 346.786C1121.8 346.466 1121.94 346.167 1122.02 345.89C1122.09 345.612 1122.13 345.351 1122.13 345.106C1122.13 344.455 1121.9 343.943 1121.46 343.57C1121.02 343.196 1120.37 343.01 1119.5 343.01C1118.84 343.01 1118.26 343.111 1117.74 343.314C1117.24 343.516 1116.81 343.831 1116.45 344.258L1115.63 343.554C1116.07 343.042 1116.63 342.647 1117.31 342.37C1117.99 342.092 1118.76 341.954 1119.6 341.954C1120.36 341.954 1121.01 342.076 1121.57 342.322C1122.12 342.556 1122.55 342.903 1122.85 343.362C1123.16 343.82 1123.31 344.359 1123.31 344.978C1123.31 345.34 1123.26 345.698 1123.15 346.05C1123.06 346.402 1122.87 346.775 1122.61 347.17C1122.35 347.554 1121.97 347.991 1121.47 348.482L1117.2 352.674L1116.88 352.226H1123.82V353.25H1115.97ZM1129.7 353.346C1128.84 353.346 1128.07 353.122 1127.4 352.674C1126.73 352.215 1126.2 351.564 1125.81 350.722C1125.43 349.868 1125.24 348.844 1125.24 347.65C1125.24 346.455 1125.43 345.436 1125.81 344.594C1126.2 343.74 1126.73 343.09 1127.4 342.642C1128.07 342.183 1128.84 341.954 1129.7 341.954C1130.57 341.954 1131.33 342.183 1132.01 342.642C1132.68 343.09 1133.21 343.74 1133.59 344.594C1133.98 345.436 1134.18 346.455 1134.18 347.65C1134.18 348.844 1133.98 349.868 1133.59 350.722C1133.21 351.564 1132.68 352.215 1132.01 352.674C1131.33 353.122 1130.57 353.346 1129.7 353.346ZM1129.7 352.29C1130.36 352.29 1130.94 352.114 1131.43 351.762C1131.92 351.399 1132.3 350.876 1132.58 350.194C1132.86 349.5 1133 348.652 1133 347.65C1133 346.647 1132.86 345.804 1132.58 345.122C1132.3 344.428 1131.92 343.906 1131.43 343.554C1130.94 343.191 1130.36 343.01 1129.7 343.01C1129.06 343.01 1128.49 343.191 1127.99 343.554C1127.49 343.906 1127.1 344.428 1126.82 345.122C1126.54 345.804 1126.41 346.647 1126.41 347.65C1126.41 348.652 1126.54 349.5 1126.82 350.194C1127.1 350.876 1127.49 351.399 1127.99 351.762C1128.49 352.114 1129.06 352.29 1129.7 352.29ZM1135.62 353.25V352.434L1140.28 347.874C1140.71 347.458 1141.03 347.095 1141.24 346.786C1141.45 346.466 1141.6 346.167 1141.67 345.89C1141.75 345.612 1141.78 345.351 1141.78 345.106C1141.78 344.455 1141.56 343.943 1141.11 343.57C1140.67 343.196 1140.02 343.01 1139.16 343.01C1138.5 343.01 1137.91 343.111 1137.4 343.314C1136.9 343.516 1136.47 343.831 1136.1 344.258L1135.29 343.554C1135.73 343.042 1136.29 342.647 1136.97 342.37C1137.65 342.092 1138.41 341.954 1139.26 341.954C1140.01 341.954 1140.67 342.076 1141.22 342.322C1141.78 342.556 1142.21 342.903 1142.5 343.362C1142.81 343.82 1142.97 344.359 1142.97 344.978C1142.97 345.34 1142.91 345.698 1142.81 346.05C1142.71 346.402 1142.53 346.775 1142.26 347.17C1142.01 347.554 1141.63 347.991 1141.13 348.482L1136.86 352.674L1136.54 352.226H1143.48V353.25H1135.62ZM1148.27 353.346C1147.46 353.346 1146.69 353.218 1145.97 352.962C1145.25 352.695 1144.68 352.343 1144.24 351.906L1144.8 350.994C1145.16 351.367 1145.65 351.676 1146.25 351.922C1146.87 352.167 1147.54 352.29 1148.27 352.29C1149.2 352.29 1149.91 352.087 1150.4 351.682C1150.9 351.276 1151.15 350.732 1151.15 350.05C1151.15 349.367 1150.9 348.823 1150.41 348.418C1149.93 348.012 1149.17 347.81 1148.13 347.81H1147.33V346.962L1150.78 342.626L1150.94 343.074H1144.7V342.05H1151.9V342.866L1148.45 347.202L1147.89 346.834H1148.32C1149.66 346.834 1150.66 347.132 1151.33 347.73C1152 348.327 1152.33 349.095 1152.33 350.034C1152.33 350.663 1152.18 351.228 1151.89 351.73C1151.59 352.231 1151.13 352.626 1150.53 352.914C1149.93 353.202 1149.18 353.346 1148.27 353.346Z" fill="#F7F7F7"/>
<circle cx="1187.5" cy="333.25" r="23" fill="#222222" stroke="#F5BD00" stroke-width="4"/>
<path d="M51.6659 327V313H54.3459L60.3059 322.88H58.8859L64.7459 313H67.4059L67.4459 327H64.4059L64.3859 317.66H64.9459L60.2659 325.52H58.8059L54.0259 317.66H54.7059V327H51.6659ZM77.1474 327V324.9L76.9474 324.44V320.68C76.9474 320.013 76.7408 319.493 76.3274 319.12C75.9274 318.747 75.3074 318.56 74.4674 318.56C73.8941 318.56 73.3274 318.653 72.7674 318.84C72.2208 319.013 71.7541 319.253 71.3674 319.56L70.2474 317.38C70.8341 316.967 71.5408 316.647 72.3674 316.42C73.1941 316.193 74.0341 316.08 74.8874 316.08C76.5274 316.08 77.8008 316.467 78.7074 317.24C79.6141 318.013 80.0674 319.22 80.0674 320.86V327H77.1474ZM73.8674 327.16C73.0274 327.16 72.3074 327.02 71.7074 326.74C71.1074 326.447 70.6474 326.053 70.3274 325.56C70.0074 325.067 69.8474 324.513 69.8474 323.9C69.8474 323.26 70.0008 322.7 70.3074 322.22C70.6274 321.74 71.1274 321.367 71.8074 321.1C72.4874 320.82 73.3741 320.68 74.4674 320.68H77.3274V322.5H74.8074C74.0741 322.5 73.5674 322.62 73.2874 322.86C73.0208 323.1 72.8874 323.4 72.8874 323.76C72.8874 324.16 73.0408 324.48 73.3474 324.72C73.6674 324.947 74.1008 325.06 74.6474 325.06C75.1674 325.06 75.6341 324.94 76.0474 324.7C76.4608 324.447 76.7608 324.08 76.9474 323.6L77.4274 325.04C77.2008 325.733 76.7874 326.26 76.1874 326.62C75.5874 326.98 74.8141 327.16 73.8674 327.16ZM82.8912 327V316.24H85.8712V319.28L85.4512 318.4C85.7712 317.64 86.2845 317.067 86.9912 316.68C87.6978 316.28 88.5578 316.08 89.5712 316.08V318.96C89.4378 318.947 89.3178 318.94 89.2112 318.94C89.1045 318.927 88.9912 318.92 88.8712 318.92C88.0178 318.92 87.3245 319.167 86.7912 319.66C86.2712 320.14 86.0112 320.893 86.0112 321.92V327H82.8912ZM94.0259 324.8L94.1059 321L99.1259 316.24H102.846L98.0259 321.14L96.4059 322.46L94.0259 324.8ZM91.4459 327V312.16H94.5659V327H91.4459ZM99.4659 327L95.8259 322.48L97.7859 320.06L103.246 327H99.4659ZM109.54 327.16C108.313 327.16 107.233 326.92 106.3 326.44C105.38 325.96 104.666 325.307 104.16 324.48C103.653 323.64 103.4 322.687 103.4 321.62C103.4 320.54 103.646 319.587 104.14 318.76C104.646 317.92 105.333 317.267 106.2 316.8C107.066 316.32 108.046 316.08 109.14 316.08C110.193 316.08 111.14 316.307 111.98 316.76C112.833 317.2 113.506 317.84 114 318.68C114.493 319.507 114.74 320.5 114.74 321.66C114.74 321.78 114.733 321.92 114.72 322.08C114.706 322.227 114.693 322.367 114.68 322.5H105.94V320.68H113.04L111.84 321.22C111.84 320.66 111.726 320.173 111.5 319.76C111.273 319.347 110.96 319.027 110.56 318.8C110.16 318.56 109.693 318.44 109.16 318.44C108.626 318.44 108.153 318.56 107.74 318.8C107.34 319.027 107.026 319.353 106.8 319.78C106.573 320.193 106.46 320.687 106.46 321.26V321.74C106.46 322.327 106.586 322.847 106.84 323.3C107.106 323.74 107.473 324.08 107.94 324.32C108.42 324.547 108.98 324.66 109.62 324.66C110.193 324.66 110.693 324.573 111.12 324.4C111.56 324.227 111.96 323.967 112.32 323.62L113.98 325.42C113.486 325.98 112.866 326.413 112.12 326.72C111.373 327.013 110.513 327.16 109.54 327.16ZM121.217 327.16C119.95 327.16 118.964 326.84 118.257 326.2C117.55 325.547 117.197 324.58 117.197 323.3V313.86H120.317V323.26C120.317 323.713 120.437 324.067 120.677 324.32C120.917 324.56 121.244 324.68 121.657 324.68C122.15 324.68 122.57 324.547 122.917 324.28L123.757 326.48C123.437 326.707 123.05 326.88 122.597 327C122.157 327.107 121.697 327.16 121.217 327.16ZM115.537 318.88V316.48H122.997V318.88H115.537ZM125.508 327V316.24H128.628V327H125.508ZM127.068 314.74C126.495 314.74 126.028 314.573 125.668 314.24C125.308 313.907 125.128 313.493 125.128 313C125.128 312.507 125.308 312.093 125.668 311.76C126.028 311.427 126.495 311.26 127.068 311.26C127.642 311.26 128.108 311.42 128.468 311.74C128.828 312.047 129.008 312.447 129.008 312.94C129.008 313.46 128.828 313.893 128.468 314.24C128.122 314.573 127.655 314.74 127.068 314.74ZM138.064 316.08C138.917 316.08 139.677 316.253 140.344 316.6C141.024 316.933 141.557 317.453 141.944 318.16C142.331 318.853 142.524 319.747 142.524 320.84V327H139.404V321.32C139.404 320.453 139.211 319.813 138.824 319.4C138.451 318.987 137.917 318.78 137.224 318.78C136.731 318.78 136.284 318.887 135.884 319.1C135.497 319.3 135.191 319.613 134.964 320.04C134.751 320.467 134.644 321.013 134.644 321.68V327H131.524V316.24H134.504V319.22L133.944 318.32C134.331 317.6 134.884 317.047 135.604 316.66C136.324 316.273 137.144 316.08 138.064 316.08ZM150.49 331.04C149.477 331.04 148.497 330.913 147.55 330.66C146.617 330.42 145.837 330.053 145.21 329.56L146.45 327.32C146.904 327.693 147.477 327.987 148.17 328.2C148.877 328.427 149.57 328.54 150.25 328.54C151.357 328.54 152.157 328.293 152.65 327.8C153.157 327.307 153.41 326.573 153.41 325.6V323.98L153.61 321.28L153.57 318.56V316.24H156.53V325.2C156.53 327.2 156.01 328.673 154.97 329.62C153.93 330.567 152.437 331.04 150.49 331.04ZM150.01 326.48C149.01 326.48 148.104 326.267 147.29 325.84C146.49 325.4 145.844 324.793 145.35 324.02C144.87 323.233 144.63 322.32 144.63 321.28C144.63 320.227 144.87 319.313 145.35 318.54C145.844 317.753 146.49 317.147 147.29 316.72C148.104 316.293 149.01 316.08 150.01 316.08C150.917 316.08 151.717 316.267 152.41 316.64C153.104 317 153.644 317.567 154.03 318.34C154.417 319.1 154.61 320.08 154.61 321.28C154.61 322.467 154.417 323.447 154.03 324.22C153.644 324.98 153.104 325.547 152.41 325.92C151.717 326.293 150.917 326.48 150.01 326.48ZM150.63 323.92C151.177 323.92 151.664 323.813 152.09 323.6C152.517 323.373 152.85 323.06 153.09 322.66C153.33 322.26 153.45 321.8 153.45 321.28C153.45 320.747 153.33 320.287 153.09 319.9C152.85 319.5 152.517 319.193 152.09 318.98C151.664 318.753 151.177 318.64 150.63 318.64C150.084 318.64 149.597 318.753 149.17 318.98C148.744 319.193 148.404 319.5 148.15 319.9C147.91 320.287 147.79 320.747 147.79 321.28C147.79 321.8 147.91 322.26 148.15 322.66C148.404 323.06 148.744 323.373 149.17 323.6C149.597 323.813 150.084 323.92 150.63 323.92Z" fill="#F7F7F7"/>
<path d="M62.2356 349.346C61.393 349.346 60.609 349.207 59.8836 348.93C59.169 348.642 58.545 348.242 58.0116 347.73C57.489 347.207 57.0783 346.604 56.7796 345.922C56.4916 345.228 56.3476 344.471 56.3476 343.65C56.3476 342.828 56.4916 342.076 56.7796 341.394C57.0783 340.7 57.489 340.098 58.0116 339.586C58.545 339.063 59.169 338.663 59.8836 338.386C60.5983 338.098 61.3823 337.954 62.2356 337.954C63.0783 337.954 63.857 338.098 64.5716 338.386C65.2863 338.663 65.905 339.058 66.4276 339.57C66.961 340.082 67.3716 340.684 67.6596 341.378C67.9583 342.071 68.1076 342.828 68.1076 343.65C68.1076 344.471 67.9583 345.228 67.6596 345.922C67.3716 346.615 66.961 347.218 66.4276 347.73C65.905 348.242 65.2863 348.642 64.5716 348.93C63.857 349.207 63.0783 349.346 62.2356 349.346ZM65.8996 351.474C65.5583 351.474 65.2276 351.431 64.9076 351.346C64.5876 351.26 64.2623 351.122 63.9316 350.93C63.6116 350.748 63.281 350.508 62.9396 350.21C62.5983 349.911 62.225 349.548 61.8196 349.122L63.1156 348.802C63.4463 349.196 63.7663 349.522 64.0756 349.778C64.3956 350.034 64.705 350.22 65.0036 350.338C65.313 350.466 65.617 350.53 65.9156 350.53C66.7476 350.53 67.457 350.188 68.0436 349.506L68.6196 350.194C67.9156 351.047 67.009 351.474 65.8996 351.474ZM62.2356 348.29C62.9076 348.29 63.5263 348.178 64.0916 347.954C64.6676 347.719 65.1636 347.388 65.5796 346.962C66.0063 346.535 66.337 346.044 66.5716 345.49C66.8063 344.924 66.9236 344.311 66.9236 343.65C66.9236 342.978 66.8063 342.364 66.5716 341.81C66.337 341.244 66.0063 340.754 65.5796 340.338C65.1636 339.911 64.6676 339.586 64.0916 339.362C63.5263 339.127 62.9076 339.01 62.2356 339.01C61.5636 339.01 60.9396 339.127 60.3636 339.362C59.7876 339.586 59.2863 339.911 58.8596 340.338C58.4436 340.754 58.113 341.244 57.8676 341.81C57.633 342.364 57.5156 342.978 57.5156 343.65C57.5156 344.311 57.633 344.924 57.8676 345.49C58.113 346.044 58.4436 346.535 58.8596 346.962C59.2863 347.388 59.7876 347.719 60.3636 347.954C60.9396 348.178 61.5636 348.29 62.2356 348.29ZM69.5775 346.306V345.474L75.5135 338.05H76.7935L70.9055 345.474L70.2815 345.282H79.2895V346.306H69.5775ZM75.8975 349.25V346.306L75.9295 345.282V342.69H77.0495V349.25H75.8975ZM84.3271 349.25V348.434L88.9831 343.874C89.4098 343.458 89.7298 343.095 89.9431 342.786C90.1565 342.466 90.3005 342.167 90.3751 341.89C90.4498 341.612 90.4871 341.351 90.4871 341.106C90.4871 340.455 90.2631 339.943 89.8151 339.57C89.3778 339.196 88.7271 339.01 87.8631 339.01C87.2018 339.01 86.6151 339.111 86.1031 339.314C85.6018 339.516 85.1698 339.831 84.8071 340.258L83.9911 339.554C84.4285 339.042 84.9885 338.647 85.6711 338.37C86.3538 338.092 87.1165 337.954 87.9591 337.954C88.7165 337.954 89.3725 338.076 89.9271 338.322C90.4818 338.556 90.9085 338.903 91.2071 339.362C91.5165 339.82 91.6711 340.359 91.6711 340.978C91.6711 341.34 91.6178 341.698 91.5111 342.05C91.4151 342.402 91.2338 342.775 90.9671 343.17C90.7111 343.554 90.3325 343.991 89.8311 344.482L85.5591 348.674L85.2391 348.226H92.1831V349.25H84.3271ZM98.0616 349.346C97.1976 349.346 96.4296 349.122 95.7576 348.674C95.0856 348.215 94.5576 347.564 94.1736 346.722C93.7896 345.868 93.5976 344.844 93.5976 343.65C93.5976 342.455 93.7896 341.436 94.1736 340.594C94.5576 339.74 95.0856 339.09 95.7576 338.642C96.4296 338.183 97.1976 337.954 98.0616 337.954C98.9256 337.954 99.6936 338.183 100.366 338.642C101.038 339.09 101.566 339.74 101.95 340.594C102.344 341.436 102.542 342.455 102.542 343.65C102.542 344.844 102.344 345.868 101.95 346.722C101.566 347.564 101.038 348.215 100.366 348.674C99.6936 349.122 98.9256 349.346 98.0616 349.346ZM98.0616 348.29C98.723 348.29 99.299 348.114 99.7896 347.762C100.28 347.399 100.664 346.876 100.942 346.194C101.219 345.5 101.358 344.652 101.358 343.65C101.358 342.647 101.219 341.804 100.942 341.122C100.664 340.428 100.28 339.906 99.7896 339.554C99.299 339.191 98.723 339.01 98.0616 339.01C97.4216 339.01 96.851 339.191 96.3496 339.554C95.8483 339.906 95.459 340.428 95.1816 341.122C94.9043 341.804 94.7656 342.647 94.7656 343.65C94.7656 344.652 94.9043 345.5 95.1816 346.194C95.459 346.876 95.8483 347.399 96.3496 347.762C96.851 348.114 97.4216 348.29 98.0616 348.29ZM103.983 349.25V348.434L108.639 343.874C109.066 343.458 109.386 343.095 109.599 342.786C109.813 342.466 109.957 342.167 110.031 341.89C110.106 341.612 110.143 341.351 110.143 341.106C110.143 340.455 109.919 339.943 109.471 339.57C109.034 339.196 108.383 339.01 107.519 339.01C106.858 339.01 106.271 339.111 105.759 339.314C105.258 339.516 104.826 339.831 104.463 340.258L103.647 339.554C104.085 339.042 104.645 338.647 105.327 338.37C106.01 338.092 106.773 337.954 107.615 337.954C108.373 337.954 109.029 338.076 109.583 338.322C110.138 338.556 110.565 338.903 110.863 339.362C111.173 339.82 111.327 340.359 111.327 340.978C111.327 341.34 111.274 341.698 111.167 342.05C111.071 342.402 110.89 342.775 110.623 343.17C110.367 343.554 109.989 343.991 109.487 344.482L105.215 348.674L104.895 348.226H111.839V349.25H103.983ZM116.629 349.346C115.818 349.346 115.05 349.218 114.325 348.962C113.61 348.695 113.034 348.343 112.597 347.906L113.157 346.994C113.52 347.367 114.005 347.676 114.613 347.922C115.232 348.167 115.904 348.29 116.629 348.29C117.557 348.29 118.266 348.087 118.757 347.682C119.258 347.276 119.509 346.732 119.509 346.05C119.509 345.367 119.264 344.823 118.773 344.418C118.293 344.012 117.53 343.81 116.485 343.81H115.685V342.962L119.141 338.626L119.301 339.074H113.061V338.05H120.261V338.866L116.805 343.202L116.245 342.834H116.677C118.021 342.834 119.024 343.132 119.685 343.73C120.357 344.327 120.693 345.095 120.693 346.034C120.693 346.663 120.544 347.228 120.245 347.73C119.946 348.231 119.493 348.626 118.885 348.914C118.288 349.202 117.536 349.346 116.629 349.346Z" fill="#F7F7F7"/>
<circle cx="25.5" cy="333.25" r="23" fill="#222222" stroke="#F5BD00" stroke-width="4"/>
<path d="M58.4967 630.24C57.4167 630.24 56.4101 630.067 55.4767 629.72C54.5567 629.36 53.7567 628.853 53.0767 628.2C52.3967 627.547 51.8634 626.78 51.4767 625.9C51.1034 625.02 50.9167 624.053 50.9167 623C50.9167 621.947 51.1034 620.98 51.4767 620.1C51.8634 619.22 52.3967 618.453 53.0767 617.8C53.7701 617.147 54.5767 616.647 55.4967 616.3C56.4167 615.94 57.4234 615.76 58.5167 615.76C59.7301 615.76 60.8234 615.973 61.7967 616.4C62.7834 616.813 63.6101 617.427 64.2767 618.24L62.1967 620.16C61.7167 619.613 61.1834 619.207 60.5967 618.94C60.0101 618.66 59.3701 618.52 58.6767 618.52C58.0234 618.52 57.4234 618.627 56.8767 618.84C56.3301 619.053 55.8567 619.36 55.4567 619.76C55.0567 620.16 54.7434 620.633 54.5167 621.18C54.3034 621.727 54.1967 622.333 54.1967 623C54.1967 623.667 54.3034 624.273 54.5167 624.82C54.7434 625.367 55.0567 625.84 55.4567 626.24C55.8567 626.64 56.3301 626.947 56.8767 627.16C57.4234 627.373 58.0234 627.48 58.6767 627.48C59.3701 627.48 60.0101 627.347 60.5967 627.08C61.1834 626.8 61.7167 626.38 62.1967 625.82L64.2767 627.74C63.6101 628.553 62.7834 629.173 61.7967 629.6C60.8234 630.027 59.7234 630.24 58.4967 630.24ZM70.9936 630.16C69.8469 630.16 68.8269 629.92 67.9336 629.44C67.0536 628.96 66.3536 628.307 65.8336 627.48C65.3269 626.64 65.0736 625.687 65.0736 624.62C65.0736 623.54 65.3269 622.587 65.8336 621.76C66.3536 620.92 67.0536 620.267 67.9336 619.8C68.8269 619.32 69.8469 619.08 70.9936 619.08C72.1269 619.08 73.1403 619.32 74.0336 619.8C74.9269 620.267 75.6269 620.913 76.1336 621.74C76.6403 622.567 76.8936 623.527 76.8936 624.62C76.8936 625.687 76.6403 626.64 76.1336 627.48C75.6269 628.307 74.9269 628.96 74.0336 629.44C73.1403 629.92 72.1269 630.16 70.9936 630.16ZM70.9936 627.6C71.5136 627.6 71.9803 627.48 72.3936 627.24C72.8069 627 73.1336 626.66 73.3736 626.22C73.6136 625.767 73.7336 625.233 73.7336 624.62C73.7336 623.993 73.6136 623.46 73.3736 623.02C73.1336 622.58 72.8069 622.24 72.3936 622C71.9803 621.76 71.5136 621.64 70.9936 621.64C70.4736 621.64 70.0069 621.76 69.5936 622C69.1803 622.24 68.8469 622.58 68.5936 623.02C68.3536 623.46 68.2336 623.993 68.2336 624.62C68.2336 625.233 68.3536 625.767 68.5936 626.22C68.8469 626.66 69.1803 627 69.5936 627.24C70.0069 627.48 70.4736 627.6 70.9936 627.6ZM85.5191 619.08C86.3724 619.08 87.1324 619.253 87.7991 619.6C88.4791 619.933 89.0124 620.453 89.3991 621.16C89.7857 621.853 89.9791 622.747 89.9791 623.84V630H86.8591V624.32C86.8591 623.453 86.6657 622.813 86.2791 622.4C85.9057 621.987 85.3724 621.78 84.6791 621.78C84.1857 621.78 83.7391 621.887 83.3391 622.1C82.9524 622.3 82.6457 622.613 82.4191 623.04C82.2057 623.467 82.0991 624.013 82.0991 624.68V630H78.9791V619.24H81.9591V622.22L81.3991 621.32C81.7857 620.6 82.3391 620.047 83.0591 619.66C83.7791 619.273 84.5991 619.08 85.5191 619.08ZM97.2072 630.16C95.9405 630.16 94.9539 629.84 94.2472 629.2C93.5405 628.547 93.1872 627.58 93.1872 626.3V616.86H96.3072V626.26C96.3072 626.713 96.4272 627.067 96.6672 627.32C96.9072 627.56 97.2339 627.68 97.6472 627.68C98.1405 627.68 98.5605 627.547 98.9072 627.28L99.7472 629.48C99.4272 629.707 99.0405 629.88 98.5872 630C98.1472 630.107 97.6872 630.16 97.2072 630.16ZM91.5272 621.88V619.48H98.9872V621.88H91.5272ZM106.507 630.16C105.28 630.16 104.2 629.92 103.267 629.44C102.347 628.96 101.633 628.307 101.127 627.48C100.62 626.64 100.367 625.687 100.367 624.62C100.367 623.54 100.613 622.587 101.107 621.76C101.613 620.92 102.3 620.267 103.167 619.8C104.033 619.32 105.013 619.08 106.107 619.08C107.16 619.08 108.107 619.307 108.947 619.76C109.8 620.2 110.473 620.84 110.967 621.68C111.46 622.507 111.707 623.5 111.707 624.66C111.707 624.78 111.7 624.92 111.687 625.08C111.673 625.227 111.66 625.367 111.647 625.5H102.907V623.68H110.007L108.807 624.22C108.807 623.66 108.693 623.173 108.467 622.76C108.24 622.347 107.927 622.027 107.527 621.8C107.127 621.56 106.66 621.44 106.127 621.44C105.593 621.44 105.12 621.56 104.707 621.8C104.307 622.027 103.993 622.353 103.767 622.78C103.54 623.193 103.427 623.687 103.427 624.26V624.74C103.427 625.327 103.553 625.847 103.807 626.3C104.073 626.74 104.44 627.08 104.907 627.32C105.387 627.547 105.947 627.66 106.587 627.66C107.16 627.66 107.66 627.573 108.087 627.4C108.527 627.227 108.927 626.967 109.287 626.62L110.947 628.42C110.453 628.98 109.833 629.413 109.087 629.72C108.34 630.013 107.48 630.16 106.507 630.16ZM120.324 619.08C121.177 619.08 121.937 619.253 122.604 619.6C123.284 619.933 123.817 620.453 124.204 621.16C124.59 621.853 124.784 622.747 124.784 623.84V630H121.664V624.32C121.664 623.453 121.47 622.813 121.084 622.4C120.71 621.987 120.177 621.78 119.484 621.78C118.99 621.78 118.544 621.887 118.144 622.1C117.757 622.3 117.45 622.613 117.224 623.04C117.01 623.467 116.904 624.013 116.904 624.68V630H113.784V619.24H116.764V622.22L116.204 621.32C116.59 620.6 117.144 620.047 117.864 619.66C118.584 619.273 119.404 619.08 120.324 619.08ZM132.012 630.16C130.745 630.16 129.759 629.84 129.052 629.2C128.345 628.547 127.992 627.58 127.992 626.3V616.86H131.112V626.26C131.112 626.713 131.232 627.067 131.472 627.32C131.712 627.56 132.039 627.68 132.452 627.68C132.945 627.68 133.365 627.547 133.712 627.28L134.552 629.48C134.232 629.707 133.845 629.88 133.392 630C132.952 630.107 132.492 630.16 132.012 630.16ZM126.332 621.88V619.48H133.792V621.88H126.332Z" fill="#F7F7F7"/>
<path d="M62.6184 653.346C61.7758 653.346 60.9918 653.207 60.2664 652.93C59.5518 652.642 58.9278 652.242 58.3944 651.73C57.8718 651.207 57.4611 650.604 57.1624 649.922C56.8744 649.228 56.7304 648.471 56.7304 647.65C56.7304 646.828 56.8744 646.076 57.1624 645.394C57.4611 644.7 57.8718 644.098 58.3944 643.586C58.9278 643.063 59.5518 642.663 60.2664 642.386C60.9811 642.098 61.7651 641.954 62.6184 641.954C63.4611 641.954 64.2398 642.098 64.9544 642.386C65.6691 642.663 66.2878 643.058 66.8104 643.57C67.3438 644.082 67.7544 644.684 68.0424 645.378C68.3411 646.071 68.4904 646.828 68.4904 647.65C68.4904 648.471 68.3411 649.228 68.0424 649.922C67.7544 650.615 67.3438 651.218 66.8104 651.73C66.2878 652.242 65.6691 652.642 64.9544 652.93C64.2398 653.207 63.4611 653.346 62.6184 653.346ZM66.2824 655.474C65.9411 655.474 65.6104 655.431 65.2904 655.346C64.9704 655.26 64.6451 655.122 64.3144 654.93C63.9944 654.748 63.6638 654.508 63.3224 654.21C62.9811 653.911 62.6078 653.548 62.2024 653.122L63.4984 652.802C63.8291 653.196 64.1491 653.522 64.4584 653.778C64.7784 654.034 65.0878 654.22 65.3864 654.338C65.6958 654.466 65.9998 654.53 66.2984 654.53C67.1304 654.53 67.8398 654.188 68.4264 653.506L69.0024 654.194C68.2984 655.047 67.3918 655.474 66.2824 655.474ZM62.6184 652.29C63.2904 652.29 63.9091 652.178 64.4744 651.954C65.0504 651.719 65.5464 651.388 65.9624 650.962C66.3891 650.535 66.7198 650.044 66.9544 649.49C67.1891 648.924 67.3064 648.311 67.3064 647.65C67.3064 646.978 67.1891 646.364 66.9544 645.81C66.7198 645.244 66.3891 644.754 65.9624 644.338C65.5464 643.911 65.0504 643.586 64.4744 643.362C63.9091 643.127 63.2904 643.01 62.6184 643.01C61.9464 643.01 61.3224 643.127 60.7464 643.362C60.1704 643.586 59.6691 643.911 59.2424 644.338C58.8264 644.754 58.4958 645.244 58.2504 645.81C58.0158 646.364 57.8984 646.978 57.8984 647.65C57.8984 648.311 58.0158 648.924 58.2504 649.49C58.4958 650.044 58.8264 650.535 59.2424 650.962C59.6691 651.388 60.1704 651.719 60.7464 651.954C61.3224 652.178 61.9464 652.29 62.6184 652.29ZM71.9481 653.25V642.53L72.4601 643.074H69.3081V642.05H73.1001V653.25H71.9481ZM79.7568 653.25V652.434L84.4128 647.874C84.8395 647.458 85.1595 647.095 85.3728 646.786C85.5861 646.466 85.7301 646.167 85.8048 645.89C85.8795 645.612 85.9168 645.351 85.9168 645.106C85.9168 644.455 85.6928 643.943 85.2448 643.57C84.8075 643.196 84.1568 643.01 83.2928 643.01C82.6315 643.01 82.0448 643.111 81.5328 643.314C81.0315 643.516 80.5995 643.831 80.2368 644.258L79.4208 643.554C79.8581 643.042 80.4181 642.647 81.1008 642.37C81.7835 642.092 82.5461 641.954 83.3888 641.954C84.1461 641.954 84.8021 642.076 85.3568 642.322C85.9115 642.556 86.3381 642.903 86.6368 643.362C86.9461 643.82 87.1008 644.359 87.1008 644.978C87.1008 645.34 87.0475 645.698 86.9408 646.05C86.8448 646.402 86.6635 646.775 86.3968 647.17C86.1408 647.554 85.7621 647.991 85.2608 648.482L80.9888 652.674L80.6688 652.226H87.6128V653.25H79.7568ZM93.4913 653.346C92.6273 653.346 91.8593 653.122 91.1873 652.674C90.5153 652.215 89.9873 651.564 89.6033 650.722C89.2193 649.868 89.0273 648.844 89.0273 647.65C89.0273 646.455 89.2193 645.436 89.6033 644.594C89.9873 643.74 90.5153 643.09 91.1873 642.642C91.8593 642.183 92.6273 641.954 93.4913 641.954C94.3553 641.954 95.1233 642.183 95.7953 642.642C96.4673 643.09 96.9953 643.74 97.3793 644.594C97.774 645.436 97.9713 646.455 97.9713 647.65C97.9713 648.844 97.774 649.868 97.3793 650.722C96.9953 651.564 96.4673 652.215 95.7953 652.674C95.1233 653.122 94.3553 653.346 93.4913 653.346ZM93.4913 652.29C94.1526 652.29 94.7286 652.114 95.2193 651.762C95.71 651.399 96.094 650.876 96.3713 650.194C96.6486 649.5 96.7873 648.652 96.7873 647.65C96.7873 646.647 96.6486 645.804 96.3713 645.122C96.094 644.428 95.71 643.906 95.2193 643.554C94.7286 643.191 94.1526 643.01 93.4913 643.01C92.8513 643.01 92.2806 643.191 91.7793 643.554C91.278 643.906 90.8886 644.428 90.6113 645.122C90.334 645.804 90.1953 646.647 90.1953 647.65C90.1953 648.652 90.334 649.5 90.6113 650.194C90.8886 650.876 91.278 651.399 91.7793 651.762C92.2806 652.114 92.8513 652.29 93.4913 652.29ZM99.4131 653.25V652.434L104.069 647.874C104.496 647.458 104.816 647.095 105.029 646.786C105.242 646.466 105.386 646.167 105.461 645.89C105.536 645.612 105.573 645.351 105.573 645.106C105.573 644.455 105.349 643.943 104.901 643.57C104.464 643.196 103.813 643.01 102.949 643.01C102.288 643.01 101.701 643.111 101.189 643.314C100.688 643.516 100.256 643.831 99.8931 644.258L99.0771 643.554C99.5144 643.042 100.074 642.647 100.757 642.37C101.44 642.092 102.202 641.954 103.045 641.954C103.802 641.954 104.458 642.076 105.013 642.322C105.568 642.556 105.994 642.903 106.293 643.362C106.602 643.82 106.757 644.359 106.757 644.978C106.757 645.34 106.704 645.698 106.597 646.05C106.501 646.402 106.32 646.775 106.053 647.17C105.797 647.554 105.418 647.991 104.917 648.482L100.645 652.674L100.325 652.226H107.269V653.25H99.4131ZM108.163 650.306V649.474L114.099 642.05H115.379L109.491 649.474L108.867 649.282H117.875V650.306H108.163ZM114.483 653.25V650.306L114.515 649.282V646.69H115.635V653.25H114.483Z" fill="#F7F7F7"/>
<circle cx="25.5" cy="636.25" r="23" fill="#222222" stroke="#FD7E14" stroke-width="4"/>
<path d="M1021.99 630V616H1028.35C1029.87 616 1031.21 616.293 1032.37 616.88C1033.53 617.453 1034.43 618.26 1035.09 619.3C1035.74 620.34 1036.07 621.573 1036.07 623C1036.07 624.413 1035.74 625.647 1035.09 626.7C1034.43 627.74 1033.53 628.553 1032.37 629.14C1031.21 629.713 1029.87 630 1028.35 630H1021.99ZM1025.23 627.34H1028.19C1029.12 627.34 1029.93 627.167 1030.61 626.82C1031.3 626.46 1031.83 625.953 1032.21 625.3C1032.59 624.647 1032.79 623.88 1032.79 623C1032.79 622.107 1032.59 621.34 1032.21 620.7C1031.83 620.047 1031.3 619.547 1030.61 619.2C1029.93 618.84 1029.12 618.66 1028.19 618.66H1025.23V627.34ZM1043.63 630.16C1042.4 630.16 1041.32 629.92 1040.39 629.44C1039.47 628.96 1038.76 628.307 1038.25 627.48C1037.74 626.64 1037.49 625.687 1037.49 624.62C1037.49 623.54 1037.74 622.587 1038.23 621.76C1038.74 620.92 1039.42 620.267 1040.29 619.8C1041.16 619.32 1042.14 619.08 1043.23 619.08C1044.28 619.08 1045.23 619.307 1046.07 619.76C1046.92 620.2 1047.6 620.84 1048.09 621.68C1048.58 622.507 1048.83 623.5 1048.83 624.66C1048.83 624.78 1048.82 624.92 1048.81 625.08C1048.8 625.227 1048.78 625.367 1048.77 625.5H1040.03V623.68H1047.13L1045.93 624.22C1045.93 623.66 1045.82 623.173 1045.59 622.76C1045.36 622.347 1045.05 622.027 1044.65 621.8C1044.25 621.56 1043.78 621.44 1043.25 621.44C1042.72 621.44 1042.24 621.56 1041.83 621.8C1041.43 622.027 1041.12 622.353 1040.89 622.78C1040.66 623.193 1040.55 623.687 1040.55 624.26V624.74C1040.55 625.327 1040.68 625.847 1040.93 626.3C1041.2 626.74 1041.56 627.08 1042.03 627.32C1042.51 627.547 1043.07 627.66 1043.71 627.66C1044.28 627.66 1044.78 627.573 1045.21 627.4C1045.65 627.227 1046.05 626.967 1046.41 626.62L1048.07 628.42C1047.58 628.98 1046.96 629.413 1046.21 629.72C1045.46 630.013 1044.6 630.16 1043.63 630.16ZM1053.63 630L1049.11 619.24H1052.33L1056.09 628.5H1054.49L1058.39 619.24H1061.39L1056.85 630H1053.63ZM1067.71 630.16C1066.49 630.16 1065.41 629.92 1064.47 629.44C1063.55 628.96 1062.84 628.307 1062.33 627.48C1061.83 626.64 1061.57 625.687 1061.57 624.62C1061.57 623.54 1061.82 622.587 1062.31 621.76C1062.82 620.92 1063.51 620.267 1064.37 619.8C1065.24 619.32 1066.22 619.08 1067.31 619.08C1068.37 619.08 1069.31 619.307 1070.15 619.76C1071.01 620.2 1071.68 620.84 1072.17 621.68C1072.67 622.507 1072.91 623.5 1072.91 624.66C1072.91 624.78 1072.91 624.92 1072.89 625.08C1072.88 625.227 1072.87 625.367 1072.85 625.5H1064.11V623.68H1071.21L1070.01 624.22C1070.01 623.66 1069.9 623.173 1069.67 622.76C1069.45 622.347 1069.13 622.027 1068.73 621.8C1068.33 621.56 1067.87 621.44 1067.33 621.44C1066.8 621.44 1066.33 621.56 1065.91 621.8C1065.51 622.027 1065.2 622.353 1064.97 622.78C1064.75 623.193 1064.63 623.687 1064.63 624.26V624.74C1064.63 625.327 1064.76 625.847 1065.01 626.3C1065.28 626.74 1065.65 627.08 1066.11 627.32C1066.59 627.547 1067.15 627.66 1067.79 627.66C1068.37 627.66 1068.87 627.573 1069.29 627.4C1069.73 627.227 1070.13 626.967 1070.49 626.62L1072.15 628.42C1071.66 628.98 1071.04 629.413 1070.29 629.72C1069.55 630.013 1068.69 630.16 1067.71 630.16ZM1074.99 630V615.16H1078.11V630H1074.99ZM1086.13 630.16C1084.98 630.16 1083.96 629.92 1083.07 629.44C1082.19 628.96 1081.49 628.307 1080.97 627.48C1080.46 626.64 1080.21 625.687 1080.21 624.62C1080.21 623.54 1080.46 622.587 1080.97 621.76C1081.49 620.92 1082.19 620.267 1083.07 619.8C1083.96 619.32 1084.98 619.08 1086.13 619.08C1087.26 619.08 1088.27 619.32 1089.17 619.8C1090.06 620.267 1090.76 620.913 1091.27 621.74C1091.77 622.567 1092.03 623.527 1092.03 624.62C1092.03 625.687 1091.77 626.64 1091.27 627.48C1090.76 628.307 1090.06 628.96 1089.17 629.44C1088.27 629.92 1087.26 630.16 1086.13 630.16ZM1086.13 627.6C1086.65 627.6 1087.11 627.48 1087.53 627.24C1087.94 627 1088.27 626.66 1088.51 626.22C1088.75 625.767 1088.87 625.233 1088.87 624.62C1088.87 623.993 1088.75 623.46 1088.51 623.02C1088.27 622.58 1087.94 622.24 1087.53 622C1087.11 621.76 1086.65 621.64 1086.13 621.64C1085.61 621.64 1085.14 621.76 1084.73 622C1084.31 622.24 1083.98 622.58 1083.73 623.02C1083.49 623.46 1083.37 623.993 1083.37 624.62C1083.37 625.233 1083.49 625.767 1083.73 626.22C1083.98 626.66 1084.31 627 1084.73 627.24C1085.14 627.48 1085.61 627.6 1086.13 627.6ZM1100.47 630.16C1099.57 630.16 1098.77 629.96 1098.09 629.56C1097.41 629.16 1096.88 628.553 1096.49 627.74C1096.12 626.913 1095.93 625.873 1095.93 624.62C1095.93 623.353 1096.11 622.313 1096.47 621.5C1096.83 620.687 1097.35 620.08 1098.03 619.68C1098.71 619.28 1099.53 619.08 1100.47 619.08C1101.49 619.08 1102.39 619.313 1103.19 619.78C1104.01 620.233 1104.65 620.873 1105.11 621.7C1105.59 622.527 1105.83 623.5 1105.83 624.62C1105.83 625.753 1105.59 626.733 1105.11 627.56C1104.65 628.387 1104.01 629.027 1103.19 629.48C1102.39 629.933 1101.49 630.16 1100.47 630.16ZM1094.11 633.88V619.24H1097.09V621.44L1097.03 624.64L1097.23 627.82V633.88H1094.11ZM1099.93 627.6C1100.45 627.6 1100.91 627.48 1101.31 627.24C1101.73 627 1102.05 626.66 1102.29 626.22C1102.55 625.767 1102.67 625.233 1102.67 624.62C1102.67 623.993 1102.55 623.46 1102.29 623.02C1102.05 622.58 1101.73 622.24 1101.31 622C1100.91 621.76 1100.45 621.64 1099.93 621.64C1099.41 621.64 1098.95 621.76 1098.53 622C1098.12 622.24 1097.79 622.58 1097.55 623.02C1097.31 623.46 1097.19 623.993 1097.19 624.62C1097.19 625.233 1097.31 625.767 1097.55 626.22C1097.79 626.66 1098.12 627 1098.53 627.24C1098.95 627.48 1099.41 627.6 1099.93 627.6ZM1121.7 619.08C1122.55 619.08 1123.31 619.253 1123.96 619.6C1124.63 619.933 1125.15 620.453 1125.52 621.16C1125.91 621.853 1126.1 622.747 1126.1 623.84V630H1122.98V624.32C1122.98 623.453 1122.8 622.813 1122.44 622.4C1122.08 621.987 1121.57 621.78 1120.92 621.78C1120.47 621.78 1120.06 621.887 1119.7 622.1C1119.34 622.3 1119.06 622.607 1118.86 623.02C1118.66 623.433 1118.56 623.96 1118.56 624.6V630H1115.44V624.32C1115.44 623.453 1115.26 622.813 1114.9 622.4C1114.55 621.987 1114.05 621.78 1113.4 621.78C1112.95 621.78 1112.54 621.887 1112.18 622.1C1111.82 622.3 1111.54 622.607 1111.34 623.02C1111.14 623.433 1111.04 623.96 1111.04 624.6V630H1107.92V619.24H1110.9V622.18L1110.34 621.32C1110.71 620.587 1111.24 620.033 1111.92 619.66C1112.61 619.273 1113.4 619.08 1114.28 619.08C1115.27 619.08 1116.13 619.333 1116.86 619.84C1117.61 620.333 1118.1 621.093 1118.34 622.12L1117.24 621.82C1117.6 620.98 1118.17 620.313 1118.96 619.82C1119.76 619.327 1120.67 619.08 1121.7 619.08ZM1134.32 630.16C1133.09 630.16 1132.01 629.92 1131.08 629.44C1130.16 628.96 1129.44 628.307 1128.94 627.48C1128.43 626.64 1128.18 625.687 1128.18 624.62C1128.18 623.54 1128.42 622.587 1128.92 621.76C1129.42 620.92 1130.11 620.267 1130.98 619.8C1131.84 619.32 1132.82 619.08 1133.92 619.08C1134.97 619.08 1135.92 619.307 1136.76 619.76C1137.61 620.2 1138.28 620.84 1138.78 621.68C1139.27 622.507 1139.52 623.5 1139.52 624.66C1139.52 624.78 1139.51 624.92 1139.5 625.08C1139.48 625.227 1139.47 625.367 1139.46 625.5H1130.72V623.68H1137.82L1136.62 624.22C1136.62 623.66 1136.5 623.173 1136.28 622.76C1136.05 622.347 1135.74 622.027 1135.34 621.8C1134.94 621.56 1134.47 621.44 1133.94 621.44C1133.4 621.44 1132.93 621.56 1132.52 621.8C1132.12 622.027 1131.8 622.353 1131.58 622.78C1131.35 623.193 1131.24 623.687 1131.24 624.26V624.74C1131.24 625.327 1131.36 625.847 1131.62 626.3C1131.88 626.74 1132.25 627.08 1132.72 627.32C1133.2 627.547 1133.76 627.66 1134.4 627.66C1134.97 627.66 1135.47 627.573 1135.9 627.4C1136.34 627.227 1136.74 626.967 1137.1 626.62L1138.76 628.42C1138.26 628.98 1137.64 629.413 1136.9 629.72C1136.15 630.013 1135.29 630.16 1134.32 630.16ZM1148.13 619.08C1148.99 619.08 1149.75 619.253 1150.41 619.6C1151.09 619.933 1151.63 620.453 1152.01 621.16C1152.4 621.853 1152.59 622.747 1152.59 623.84V630H1149.47V624.32C1149.47 623.453 1149.28 622.813 1148.89 622.4C1148.52 621.987 1147.99 621.78 1147.29 621.78C1146.8 621.78 1146.35 621.887 1145.95 622.1C1145.57 622.3 1145.26 622.613 1145.03 623.04C1144.82 623.467 1144.71 624.013 1144.71 624.68V630H1141.59V619.24H1144.57V622.22L1144.01 621.32C1144.4 620.6 1144.95 620.047 1145.67 619.66C1146.39 619.273 1147.21 619.08 1148.13 619.08ZM1159.82 630.16C1158.55 630.16 1157.57 629.84 1156.86 629.2C1156.15 628.547 1155.8 627.58 1155.8 626.3V616.86H1158.92V626.26C1158.92 626.713 1159.04 627.067 1159.28 627.32C1159.52 627.56 1159.85 627.68 1160.26 627.68C1160.75 627.68 1161.17 627.547 1161.52 627.28L1162.36 629.48C1162.04 629.707 1161.65 629.88 1161.2 630C1160.76 630.107 1160.3 630.16 1159.82 630.16ZM1154.14 621.88V619.48H1161.6V621.88H1154.14Z" fill="#F7F7F7"/>
<path d="M1094.46 652.346C1093.62 652.346 1092.84 652.207 1092.11 651.93C1091.4 651.642 1090.77 651.242 1090.24 650.73C1089.72 650.207 1089.3 649.604 1089.01 648.922C1088.72 648.228 1088.57 647.471 1088.57 646.65C1088.57 645.828 1088.72 645.076 1089.01 644.394C1089.3 643.7 1089.72 643.098 1090.24 642.586C1090.77 642.063 1091.4 641.663 1092.11 641.386C1092.82 641.098 1093.61 640.954 1094.46 640.954C1095.3 640.954 1096.08 641.098 1096.8 641.386C1097.51 641.663 1098.13 642.058 1098.65 642.57C1099.19 643.082 1099.6 643.684 1099.89 644.378C1100.18 645.071 1100.33 645.828 1100.33 646.65C1100.33 647.471 1100.18 648.228 1099.89 648.922C1099.6 649.615 1099.19 650.218 1098.65 650.73C1098.13 651.242 1097.51 651.642 1096.8 651.93C1096.08 652.207 1095.3 652.346 1094.46 652.346ZM1098.13 654.474C1097.78 654.474 1097.45 654.431 1097.13 654.346C1096.81 654.26 1096.49 654.122 1096.16 653.93C1095.84 653.748 1095.51 653.508 1095.17 653.21C1094.82 652.911 1094.45 652.548 1094.05 652.122L1095.34 651.802C1095.67 652.196 1095.99 652.522 1096.3 652.778C1096.62 653.034 1096.93 653.22 1097.23 653.338C1097.54 653.466 1097.84 653.53 1098.14 653.53C1098.97 653.53 1099.68 653.188 1100.27 652.506L1100.85 653.194C1100.14 654.047 1099.24 654.474 1098.13 654.474ZM1094.46 651.29C1095.13 651.29 1095.75 651.178 1096.32 650.954C1096.89 650.719 1097.39 650.388 1097.81 649.962C1098.23 649.535 1098.56 649.044 1098.8 648.49C1099.03 647.924 1099.15 647.311 1099.15 646.65C1099.15 645.978 1099.03 645.364 1098.8 644.81C1098.56 644.244 1098.23 643.754 1097.81 643.338C1097.39 642.911 1096.89 642.586 1096.32 642.362C1095.75 642.127 1095.13 642.01 1094.46 642.01C1093.79 642.01 1093.17 642.127 1092.59 642.362C1092.01 642.586 1091.51 642.911 1091.09 643.338C1090.67 643.754 1090.34 644.244 1090.09 644.81C1089.86 645.364 1089.74 645.978 1089.74 646.65C1089.74 647.311 1089.86 647.924 1090.09 648.49C1090.34 649.044 1090.67 649.535 1091.09 649.962C1091.51 650.388 1092.01 650.719 1092.59 650.954C1093.17 651.178 1093.79 651.29 1094.46 651.29ZM1101.63 652.25V651.434L1106.29 646.874C1106.71 646.458 1107.03 646.095 1107.25 645.786C1107.46 645.466 1107.61 645.167 1107.68 644.89C1107.75 644.612 1107.79 644.351 1107.79 644.106C1107.79 643.455 1107.57 642.943 1107.12 642.57C1106.68 642.196 1106.03 642.01 1105.17 642.01C1104.51 642.01 1103.92 642.111 1103.41 642.314C1102.91 642.516 1102.47 642.831 1102.11 643.258L1101.3 642.554C1101.73 642.042 1102.29 641.647 1102.98 641.37C1103.66 641.092 1104.42 640.954 1105.26 640.954C1106.02 640.954 1106.68 641.076 1107.23 641.322C1107.79 641.556 1108.21 641.903 1108.51 642.362C1108.82 642.82 1108.98 643.359 1108.98 643.978C1108.98 644.34 1108.92 644.698 1108.82 645.05C1108.72 645.402 1108.54 645.775 1108.27 646.17C1108.02 646.554 1107.64 646.991 1107.14 647.482L1102.86 651.674L1102.54 651.226H1109.49V652.25H1101.63ZM1114.91 652.25V651.434L1119.57 646.874C1120 646.458 1120.32 646.095 1120.53 645.786C1120.74 645.466 1120.89 645.167 1120.96 644.89C1121.04 644.612 1121.07 644.351 1121.07 644.106C1121.07 643.455 1120.85 642.943 1120.4 642.57C1119.96 642.196 1119.31 642.01 1118.45 642.01C1117.79 642.01 1117.2 642.111 1116.69 642.314C1116.19 642.516 1115.76 642.831 1115.39 643.258L1114.58 642.554C1115.01 642.042 1115.57 641.647 1116.26 641.37C1116.94 641.092 1117.7 640.954 1118.55 640.954C1119.3 640.954 1119.96 641.076 1120.51 641.322C1121.07 641.556 1121.49 641.903 1121.79 642.362C1122.1 642.82 1122.26 643.359 1122.26 643.978C1122.26 644.34 1122.2 644.698 1122.1 645.05C1122 645.402 1121.82 645.775 1121.55 646.17C1121.3 646.554 1120.92 646.991 1120.42 647.482L1116.15 651.674L1115.83 651.226H1122.77V652.25H1114.91ZM1128.65 652.346C1127.78 652.346 1127.02 652.122 1126.34 651.674C1125.67 651.215 1125.14 650.564 1124.76 649.722C1124.38 648.868 1124.18 647.844 1124.18 646.65C1124.18 645.455 1124.38 644.436 1124.76 643.594C1125.14 642.74 1125.67 642.09 1126.34 641.642C1127.02 641.183 1127.78 640.954 1128.65 640.954C1129.51 640.954 1130.28 641.183 1130.95 641.642C1131.62 642.09 1132.15 642.74 1132.54 643.594C1132.93 644.436 1133.13 645.455 1133.13 646.65C1133.13 647.844 1132.93 648.868 1132.54 649.722C1132.15 650.564 1131.62 651.215 1130.95 651.674C1130.28 652.122 1129.51 652.346 1128.65 652.346ZM1128.65 651.29C1129.31 651.29 1129.88 651.114 1130.38 650.762C1130.87 650.399 1131.25 649.876 1131.53 649.194C1131.8 648.5 1131.94 647.652 1131.94 646.65C1131.94 645.647 1131.8 644.804 1131.53 644.122C1131.25 643.428 1130.87 642.906 1130.38 642.554C1129.88 642.191 1129.31 642.01 1128.65 642.01C1128.01 642.01 1127.44 642.191 1126.94 642.554C1126.43 642.906 1126.04 643.428 1125.77 644.122C1125.49 644.804 1125.35 645.647 1125.35 646.65C1125.35 647.652 1125.49 648.5 1125.77 649.194C1126.04 649.876 1126.43 650.399 1126.94 650.762C1127.44 651.114 1128.01 651.29 1128.65 651.29ZM1134.57 652.25V651.434L1139.23 646.874C1139.65 646.458 1139.97 646.095 1140.19 645.786C1140.4 645.466 1140.54 645.167 1140.62 644.89C1140.69 644.612 1140.73 644.351 1140.73 644.106C1140.73 643.455 1140.51 642.943 1140.06 642.57C1139.62 642.196 1138.97 642.01 1138.11 642.01C1137.44 642.01 1136.86 642.111 1136.35 642.314C1135.84 642.516 1135.41 642.831 1135.05 643.258L1134.23 642.554C1134.67 642.042 1135.23 641.647 1135.91 641.37C1136.6 641.092 1137.36 640.954 1138.2 640.954C1138.96 640.954 1139.61 641.076 1140.17 641.322C1140.72 641.556 1141.15 641.903 1141.45 642.362C1141.76 642.82 1141.91 643.359 1141.91 643.978C1141.91 644.34 1141.86 644.698 1141.75 645.05C1141.66 645.402 1141.48 645.775 1141.21 646.17C1140.95 646.554 1140.57 646.991 1140.07 647.482L1135.8 651.674L1135.48 651.226H1142.43V652.25H1134.57ZM1143.32 649.306V648.474L1149.26 641.05H1150.54L1144.65 648.474L1144.02 648.282H1153.03V649.306H1143.32ZM1149.64 652.25V649.306L1149.67 648.282V645.69H1150.79V652.25H1149.64Z" fill="#F7F7F7"/>
<circle cx="1187.5" cy="636.25" r="23" fill="#222222" stroke="#FD7E14" stroke-width="4"/>
<path d="M58.8502 25.24C57.7702 25.24 56.7636 25.0667 55.8302 24.72C54.9102 24.36 54.1102 23.8533 53.4302 23.2C52.7502 22.5467 52.2169 21.78 51.8302 20.9C51.4569 20.02 51.2702 19.0533 51.2702 18C51.2702 16.9467 51.4569 15.98 51.8302 15.1C52.2169 14.22 52.7502 13.4533 53.4302 12.8C54.1236 12.1467 54.9302 11.6467 55.8502 11.3C56.7702 10.94 57.7769 10.76 58.8702 10.76C60.0836 10.76 61.1769 10.9733 62.1502 11.4C63.1369 11.8133 63.9636 12.4267 64.6302 13.24L62.5502 15.16C62.0702 14.6133 61.5369 14.2067 60.9502 13.94C60.3636 13.66 59.7236 13.52 59.0302 13.52C58.3769 13.52 57.7769 13.6267 57.2302 13.84C56.6836 14.0533 56.2102 14.36 55.8102 14.76C55.4102 15.16 55.0969 15.6333 54.8702 16.18C54.6569 16.7267 54.5502 17.3333 54.5502 18C54.5502 18.6667 54.6569 19.2733 54.8702 19.82C55.0969 20.3667 55.4102 20.84 55.8102 21.24C56.2102 21.64 56.6836 21.9467 57.2302 22.16C57.7769 22.3733 58.3769 22.48 59.0302 22.48C59.7236 22.48 60.3636 22.3467 60.9502 22.08C61.5369 21.8 62.0702 21.38 62.5502 20.82L64.6302 22.74C63.9636 23.5533 63.1369 24.1733 62.1502 24.6C61.1769 25.0267 60.0769 25.24 58.8502 25.24ZM71.3471 25.16C70.2004 25.16 69.1804 24.92 68.2871 24.44C67.4071 23.96 66.7071 23.3067 66.1871 22.48C65.6804 21.64 65.4271 20.6867 65.4271 19.62C65.4271 18.54 65.6804 17.5867 66.1871 16.76C66.7071 15.92 67.4071 15.2667 68.2871 14.8C69.1804 14.32 70.2004 14.08 71.3471 14.08C72.4804 14.08 73.4938 14.32 74.3871 14.8C75.2804 15.2667 75.9804 15.9133 76.4871 16.74C76.9938 17.5667 77.2471 18.5267 77.2471 19.62C77.2471 20.6867 76.9938 21.64 76.4871 22.48C75.9804 23.3067 75.2804 23.96 74.3871 24.44C73.4938 24.92 72.4804 25.16 71.3471 25.16ZM71.3471 22.6C71.8671 22.6 72.3338 22.48 72.7471 22.24C73.1604 22 73.4871 21.66 73.7271 21.22C73.9671 20.7667 74.0871 20.2333 74.0871 19.62C74.0871 18.9933 73.9671 18.46 73.7271 18.02C73.4871 17.58 73.1604 17.24 72.7471 17C72.3338 16.76 71.8671 16.64 71.3471 16.64C70.8271 16.64 70.3604 16.76 69.9471 17C69.5338 17.24 69.2004 17.58 68.9471 18.02C68.7071 18.46 68.5871 18.9933 68.5871 19.62C68.5871 20.2333 68.7071 20.7667 68.9471 21.22C69.2004 21.66 69.5338 22 69.9471 22.24C70.3604 22.48 70.8271 22.6 71.3471 22.6ZM85.8726 14.08C86.7259 14.08 87.4859 14.2533 88.1526 14.6C88.8326 14.9333 89.3659 15.4533 89.7526 16.16C90.1392 16.8533 90.3326 17.7467 90.3326 18.84V25H87.2126V19.32C87.2126 18.4533 87.0192 17.8133 86.6326 17.4C86.2592 16.9867 85.7259 16.78 85.0326 16.78C84.5392 16.78 84.0926 16.8867 83.6926 17.1C83.3059 17.3 82.9992 17.6133 82.7726 18.04C82.5592 18.4667 82.4526 19.0133 82.4526 19.68V25H79.3326V14.24H82.3126V17.22L81.7526 16.32C82.1392 15.6 82.6926 15.0467 83.4126 14.66C84.1326 14.2733 84.9526 14.08 85.8726 14.08ZM96.7807 25.16C95.8607 25.16 94.974 25.0533 94.1207 24.84C93.2807 24.6133 92.614 24.3333 92.1207 24L93.1607 21.76C93.654 22.0667 94.234 22.32 94.9007 22.52C95.5807 22.7067 96.2474 22.8 96.9007 22.8C97.6207 22.8 98.1274 22.7133 98.4207 22.54C98.7274 22.3667 98.8807 22.1267 98.8807 21.82C98.8807 21.5667 98.7607 21.38 98.5207 21.26C98.294 21.1267 97.9874 21.0267 97.6007 20.96C97.214 20.8933 96.7874 20.8267 96.3207 20.76C95.8674 20.6933 95.4074 20.6067 94.9407 20.5C94.474 20.38 94.0474 20.2067 93.6607 19.98C93.274 19.7533 92.9607 19.4467 92.7207 19.06C92.494 18.6733 92.3807 18.1733 92.3807 17.56C92.3807 16.88 92.574 16.28 92.9607 15.76C93.3607 15.24 93.934 14.8333 94.6807 14.54C95.4274 14.2333 96.3207 14.08 97.3607 14.08C98.094 14.08 98.8407 14.16 99.6007 14.32C100.361 14.48 100.994 14.7133 101.501 15.02L100.461 17.24C99.9407 16.9333 99.414 16.7267 98.8807 16.62C98.3607 16.5 97.854 16.44 97.3607 16.44C96.6674 16.44 96.1607 16.5333 95.8407 16.72C95.5207 16.9067 95.3607 17.1467 95.3607 17.44C95.3607 17.7067 95.474 17.9067 95.7007 18.04C95.9407 18.1733 96.254 18.28 96.6407 18.36C97.0274 18.44 97.4474 18.5133 97.9007 18.58C98.3674 18.6333 98.834 18.72 99.3007 18.84C99.7674 18.96 100.187 19.1333 100.561 19.36C100.947 19.5733 101.261 19.8733 101.501 20.26C101.741 20.6333 101.861 21.1267 101.861 21.74C101.861 22.4067 101.661 23 101.261 23.52C100.861 24.0267 100.281 24.4267 99.5207 24.72C98.774 25.0133 97.8607 25.16 96.7807 25.16ZM108.326 25.16C107.432 25.16 106.632 24.9867 105.926 24.64C105.232 24.2933 104.692 23.7667 104.306 23.06C103.919 22.34 103.726 21.4267 103.726 20.32V14.24H106.846V19.86C106.846 20.7533 107.032 21.4133 107.406 21.84C107.792 22.2533 108.332 22.46 109.026 22.46C109.506 22.46 109.932 22.36 110.306 22.16C110.679 21.9467 110.972 21.6267 111.186 21.2C111.399 20.76 111.506 20.2133 111.506 19.56V14.24H114.626V25H111.666V22.04L112.206 22.9C111.846 23.6467 111.312 24.2133 110.606 24.6C109.912 24.9733 109.152 25.16 108.326 25.16ZM117.516 25V10.16H120.636V25H117.516ZM128.733 25.16C127.466 25.16 126.479 24.84 125.773 24.2C125.066 23.5467 124.713 22.58 124.713 21.3V11.86H127.833V21.26C127.833 21.7133 127.953 22.0667 128.193 22.32C128.433 22.56 128.759 22.68 129.173 22.68C129.666 22.68 130.086 22.5467 130.433 22.28L131.273 24.48C130.953 24.7067 130.566 24.88 130.113 25C129.673 25.1067 129.213 25.16 128.733 25.16ZM123.053 16.88V14.48H130.513V16.88H123.053ZM133.024 25V14.24H136.144V25H133.024ZM134.584 12.74C134.011 12.74 133.544 12.5733 133.184 12.24C132.824 11.9067 132.644 11.4933 132.644 11C132.644 10.5067 132.824 10.0933 133.184 9.76C133.544 9.42667 134.011 9.26 134.584 9.26C135.157 9.26 135.624 9.42 135.984 9.74C136.344 10.0467 136.524 10.4467 136.524 10.94C136.524 11.46 136.344 11.8933 135.984 12.24C135.637 12.5733 135.171 12.74 134.584 12.74ZM145.58 14.08C146.433 14.08 147.193 14.2533 147.86 14.6C148.54 14.9333 149.073 15.4533 149.46 16.16C149.846 16.8533 150.04 17.7467 150.04 18.84V25H146.92V19.32C146.92 18.4533 146.726 17.8133 146.34 17.4C145.966 16.9867 145.433 16.78 144.74 16.78C144.246 16.78 143.8 16.8867 143.4 17.1C143.013 17.3 142.706 17.6133 142.48 18.04C142.266 18.4667 142.16 19.0133 142.16 19.68V25H139.04V14.24H142.02V17.22L141.46 16.32C141.846 15.6 142.4 15.0467 143.12 14.66C143.84 14.2733 144.66 14.08 145.58 14.08ZM158.006 29.04C156.993 29.04 156.013 28.9133 155.066 28.66C154.133 28.42 153.353 28.0533 152.726 27.56L153.966 25.32C154.419 25.6933 154.993 25.9867 155.686 26.2C156.393 26.4267 157.086 26.54 157.766 26.54C158.873 26.54 159.673 26.2933 160.166 25.8C160.673 25.3067 160.926 24.5733 160.926 23.6V21.98L161.126 19.28L161.086 16.56V14.24H164.046V23.2C164.046 25.2 163.526 26.6733 162.486 27.62C161.446 28.5667 159.953 29.04 158.006 29.04ZM157.526 24.48C156.526 24.48 155.619 24.2667 154.806 23.84C154.006 23.4 153.359 22.7933 152.866 22.02C152.386 21.2333 152.146 20.32 152.146 19.28C152.146 18.2267 152.386 17.3133 152.866 16.54C153.359 15.7533 154.006 15.1467 154.806 14.72C155.619 14.2933 156.526 14.08 157.526 14.08C158.433 14.08 159.233 14.2667 159.926 14.64C160.619 15 161.159 15.5667 161.546 16.34C161.933 17.1 162.126 18.08 162.126 19.28C162.126 20.4667 161.933 21.4467 161.546 22.22C161.159 22.98 160.619 23.5467 159.926 23.92C159.233 24.2933 158.433 24.48 157.526 24.48ZM158.146 21.92C158.693 21.92 159.179 21.8133 159.606 21.6C160.033 21.3733 160.366 21.06 160.606 20.66C160.846 20.26 160.966 19.8 160.966 19.28C160.966 18.7467 160.846 18.2867 160.606 17.9C160.366 17.5 160.033 17.1933 159.606 16.98C159.179 16.7533 158.693 16.64 158.146 16.64C157.599 16.64 157.113 16.7533 156.686 16.98C156.259 17.1933 155.919 17.5 155.666 17.9C155.426 18.2867 155.306 18.7467 155.306 19.28C155.306 19.8 155.426 20.26 155.666 20.66C155.919 21.06 156.259 21.3733 156.686 21.6C157.113 21.8133 157.599 21.92 158.146 21.92Z" fill="#F7F7F7"/>
<path d="M64.9622 50.3455C64.1195 50.3455 63.3355 50.2068 62.6102 49.9295C61.8955 49.6415 61.2715 49.2415 60.7382 48.7295C60.2155 48.2068 59.8049 47.6042 59.5062 46.9215C59.2182 46.2282 59.0742 45.4708 59.0742 44.6495C59.0742 43.8282 59.2182 43.0762 59.5062 42.3935C59.8049 41.7002 60.2155 41.0975 60.7382 40.5855C61.2715 40.0628 61.8955 39.6628 62.6102 39.3855C63.3249 39.0975 64.1089 38.9535 64.9622 38.9535C65.8049 38.9535 66.5835 39.0975 67.2982 39.3855C68.0129 39.6628 68.6315 40.0575 69.1542 40.5695C69.6875 41.0815 70.0982 41.6842 70.3862 42.3775C70.6849 43.0708 70.8342 43.8282 70.8342 44.6495C70.8342 45.4708 70.6849 46.2282 70.3862 46.9215C70.0982 47.6148 69.6875 48.2175 69.1542 48.7295C68.6315 49.2415 68.0129 49.6415 67.2982 49.9295C66.5835 50.2068 65.8049 50.3455 64.9622 50.3455ZM68.6262 52.4735C68.2849 52.4735 67.9542 52.4308 67.6342 52.3455C67.3142 52.2602 66.9889 52.1215 66.6582 51.9295C66.3382 51.7482 66.0075 51.5082 65.6662 51.2095C65.3249 50.9108 64.9515 50.5482 64.5462 50.1215L65.8422 49.8015C66.1729 50.1962 66.4929 50.5215 66.8022 50.7775C67.1222 51.0335 67.4315 51.2202 67.7302 51.3375C68.0395 51.4655 68.3435 51.5295 68.6422 51.5295C69.4742 51.5295 70.1835 51.1882 70.7702 50.5055L71.3462 51.1935C70.6422 52.0468 69.7355 52.4735 68.6262 52.4735ZM64.9622 49.2895C65.6342 49.2895 66.2529 49.1775 66.8182 48.9535C67.3942 48.7188 67.8902 48.3882 68.3062 47.9615C68.7329 47.5348 69.0635 47.0442 69.2982 46.4895C69.5329 45.9242 69.6502 45.3108 69.6502 44.6495C69.6502 43.9775 69.5329 43.3642 69.2982 42.8095C69.0635 42.2442 68.7329 41.7535 68.3062 41.3375C67.8902 40.9108 67.3942 40.5855 66.8182 40.3615C66.2529 40.1268 65.6342 40.0095 64.9622 40.0095C64.2902 40.0095 63.6662 40.1268 63.0902 40.3615C62.5142 40.5855 62.0129 40.9108 61.5862 41.3375C61.1702 41.7535 60.8395 42.2442 60.5942 42.8095C60.3595 43.3642 60.2422 43.9775 60.2422 44.6495C60.2422 45.3108 60.3595 45.9242 60.5942 46.4895C60.8395 47.0442 61.1702 47.5348 61.5862 47.9615C62.0129 48.3882 62.5142 48.7188 63.0902 48.9535C63.6662 49.1775 64.2902 49.2895 64.9622 49.2895ZM74.2918 50.2495V39.5295L74.8038 40.0735H71.6518V39.0495H75.4438V50.2495H74.2918ZM82.1006 50.2495V49.4335L86.7566 44.8735C87.1832 44.4575 87.5032 44.0948 87.7166 43.7855C87.9299 43.4655 88.0739 43.1668 88.1486 42.8895C88.2232 42.6122 88.2606 42.3508 88.2606 42.1055C88.2606 41.4548 88.0366 40.9428 87.5886 40.5695C87.1512 40.1962 86.5006 40.0095 85.6366 40.0095C84.9752 40.0095 84.3886 40.1108 83.8766 40.3135C83.3752 40.5162 82.9432 40.8308 82.5806 41.2575L81.7646 40.5535C82.2019 40.0415 82.7619 39.6468 83.4446 39.3695C84.1272 39.0922 84.8899 38.9535 85.7326 38.9535C86.4899 38.9535 87.1459 39.0762 87.7006 39.3215C88.2552 39.5562 88.6819 39.9028 88.9806 40.3615C89.2899 40.8202 89.4446 41.3588 89.4446 41.9775C89.4446 42.3402 89.3912 42.6975 89.2846 43.0495C89.1886 43.4015 89.0072 43.7748 88.7406 44.1695C88.4846 44.5535 88.1059 44.9908 87.6046 45.4815L83.3326 49.6735L83.0126 49.2255H89.9566V50.2495H82.1006ZM95.8351 50.3455C94.9711 50.3455 94.2031 50.1215 93.5311 49.6735C92.8591 49.2148 92.3311 48.5642 91.9471 47.7215C91.5631 46.8682 91.3711 45.8442 91.3711 44.6495C91.3711 43.4548 91.5631 42.4362 91.9471 41.5935C92.3311 40.7402 92.8591 40.0895 93.5311 39.6415C94.2031 39.1828 94.9711 38.9535 95.8351 38.9535C96.6991 38.9535 97.4671 39.1828 98.1391 39.6415C98.8111 40.0895 99.3391 40.7402 99.7231 41.5935C100.118 42.4362 100.315 43.4548 100.315 44.6495C100.315 45.8442 100.118 46.8682 99.7231 47.7215C99.3391 48.5642 98.8111 49.2148 98.1391 49.6735C97.4671 50.1215 96.6991 50.3455 95.8351 50.3455ZM95.8351 49.2895C96.4964 49.2895 97.0724 49.1135 97.5631 48.7615C98.0537 48.3988 98.4377 47.8762 98.7151 47.1935C98.9924 46.5002 99.1311 45.6522 99.1311 44.6495C99.1311 43.6468 98.9924 42.8042 98.7151 42.1215C98.4377 41.4282 98.0537 40.9055 97.5631 40.5535C97.0724 40.1908 96.4964 40.0095 95.8351 40.0095C95.1951 40.0095 94.6244 40.1908 94.1231 40.5535C93.6217 40.9055 93.2324 41.4282 92.9551 42.1215C92.6777 42.8042 92.5391 43.6468 92.5391 44.6495C92.5391 45.6522 92.6777 46.5002 92.9551 47.1935C93.2324 47.8762 93.6217 48.3988 94.1231 48.7615C94.6244 49.1135 95.1951 49.2895 95.8351 49.2895ZM101.757 50.2495V49.4335L106.413 44.8735C106.839 44.4575 107.159 44.0948 107.373 43.7855C107.586 43.4655 107.73 43.1668 107.805 42.8895C107.879 42.6122 107.917 42.3508 107.917 42.1055C107.917 41.4548 107.693 40.9428 107.245 40.5695C106.807 40.1962 106.157 40.0095 105.293 40.0095C104.631 40.0095 104.045 40.1108 103.533 40.3135C103.031 40.5162 102.599 40.8308 102.237 41.2575L101.421 40.5535C101.858 40.0415 102.418 39.6468 103.101 39.3695C103.783 39.0922 104.546 38.9535 105.389 38.9535C106.146 38.9535 106.802 39.0762 107.357 39.3215C107.911 39.5562 108.338 39.9028 108.637 40.3615C108.946 40.8202 109.101 41.3588 109.101 41.9775C109.101 42.3402 109.047 42.6975 108.941 43.0495C108.845 43.4015 108.663 43.7748 108.397 44.1695C108.141 44.5535 107.762 44.9908 107.261 45.4815L102.989 49.6735L102.669 49.2255H109.613V50.2495H101.757ZM114.403 50.3455C113.592 50.3455 112.824 50.2175 112.099 49.9615C111.384 49.6948 110.808 49.3428 110.371 48.9055L110.931 47.9935C111.293 48.3668 111.779 48.6762 112.387 48.9215C113.005 49.1668 113.677 49.2895 114.403 49.2895C115.331 49.2895 116.04 49.0868 116.531 48.6815C117.032 48.2762 117.283 47.7322 117.283 47.0495C117.283 46.3668 117.037 45.8228 116.547 45.4175C116.067 45.0122 115.304 44.8095 114.259 44.8095H113.459V43.9615L116.915 39.6255L117.075 40.0735H110.835V39.0495H118.035V39.8655L114.579 44.2015L114.019 43.8335H114.451C115.795 43.8335 116.797 44.1322 117.459 44.7295C118.131 45.3268 118.467 46.0948 118.467 47.0335C118.467 47.6628 118.317 48.2282 118.019 48.7295C117.72 49.2308 117.267 49.6255 116.659 49.9135C116.061 50.2015 115.309 50.3455 114.403 50.3455Z" fill="#F7F7F7"/>
<circle cx="25.5" cy="25.2495" r="23" fill="#222222" stroke="#F5BD00" stroke-width="4"/>
<path d="M36.0351 15.9254C37.1137 15.0242 38.8624 15.0242 39.941 15.9254C41.0064 16.8156 41.0195 18.252 39.9802 19.1556L25.2786 34.5102C25.2574 34.5324 25.2347 34.5535 25.2107 34.5736C24.1321 35.4748 22.3833 35.4748 21.3047 34.5736L11.559 26.4307C10.4803 25.5295 10.4803 24.0683 11.559 23.1671C12.6376 22.2659 14.3863 22.2659 15.4649 23.1671L23.1745 29.6087L35.9618 15.9944C35.9846 15.9702 36.009 15.9472 36.0351 15.9254Z" fill="#FD7E14"/>
<defs>
<linearGradient id="paint0_linear_1_4" x1="606.5" y1="30.2495" x2="606.5" y2="636.25" gradientUnits="userSpaceOnUse">
<stop stop-color="#F5BD00"/>
<stop offset="1" stop-color="#FD7E14"/>
</linearGradient>
<linearGradient id="paint1_linear_1_4" x1="557.5" y1="127.25" x2="557.5" y2="216.25" gradientUnits="userSpaceOnUse">
<stop stop-color="#F5BD00"/>
<stop offset="1" stop-color="#FD7E14"/>
</linearGradient>
<linearGradient id="paint2_linear_1_4" x1="655.5" y1="440.25" x2="655.5" y2="529.25" gradientUnits="userSpaceOnUse">
<stop stop-color="#F5BD00"/>
<stop offset="1" stop-color="#FD7E14"/>
</linearGradient>
</defs>
</svg>
