<svg width="1213" height="662" viewBox="0 0 1213 662" fill="none" xmlns="http://www.w3.org/2000/svg">
<path d="M25.5 30.2495H1157.5C1174.07 30.2495 1187.5 43.681 1187.5 60.2495V303.25C1187.5 319.818 1174.07 333.25 1157.5 333.25H55.5C38.9315 333.25 25.5 346.681 25.5 363.25V606.25C25.5 622.818 38.9315 636.25 55.5 636.25H1187.5" stroke="url(#paint0_linear_102_74)" stroke-width="4"/>
<path d="M25.5 127.25H1067.25C1079.54 127.25 1089.5 137.211 1089.5 149.5V149.5C1089.5 161.788 1079.54 171.75 1067.25 171.75H47.75C35.4616 171.75 25.5 181.711 25.5 194V194C25.5 206.288 35.4617 216.25 47.75 216.25H1089.5" stroke="url(#paint1_linear_102_74)"/>
<path d="M123.5 440.25H1165.25C1177.54 440.25 1187.5 450.211 1187.5 462.5V462.5C1187.5 474.788 1177.54 484.75 1165.25 484.75H145.75C133.462 484.75 123.5 494.711 123.5 507V507C123.5 519.288 133.462 529.25 145.75 529.25H1187.5" stroke="url(#paint2_linear_102_74)"/>
<path d="M1022.31 25.2495L1017.95 18.5095L1020.57 16.9295L1025.99 25.2495H1022.31ZM1013.21 25.2495V11.2495H1016.43V25.2495H1013.21ZM1015.49 19.6095V16.9095H1020.37V19.6095H1015.49ZM1020.87 18.6095L1017.89 18.2495L1022.43 11.2495H1025.85L1020.87 18.6095ZM1033.86 25.4095C1032.96 25.4095 1032.16 25.2095 1031.48 24.8095C1030.8 24.4095 1030.27 23.8028 1029.88 22.9895C1029.51 22.1628 1029.32 21.1228 1029.32 19.8695C1029.32 18.6028 1029.5 17.5628 1029.86 16.7495C1030.22 15.9362 1030.74 15.3295 1031.42 14.9295C1032.1 14.5295 1032.92 14.3295 1033.86 14.3295C1034.88 14.3295 1035.78 14.5628 1036.58 15.0295C1037.4 15.4828 1038.04 16.1228 1038.5 16.9495C1038.98 17.7762 1039.22 18.7495 1039.22 19.8695C1039.22 21.0028 1038.98 21.9828 1038.5 22.8095C1038.04 23.6362 1037.4 24.2762 1036.58 24.7295C1035.78 25.1828 1034.88 25.4095 1033.86 25.4095ZM1027.5 29.1295V14.4895H1030.48V16.6895L1030.42 19.8895L1030.62 23.0695V29.1295H1027.5ZM1033.32 22.8495C1033.84 22.8495 1034.3 22.7295 1034.7 22.4895C1035.12 22.2495 1035.44 21.9095 1035.68 21.4695C1035.94 21.0162 1036.06 20.4828 1036.06 19.8695C1036.06 19.2428 1035.94 18.7095 1035.68 18.2695C1035.44 17.8295 1035.12 17.4895 1034.7 17.2495C1034.3 17.0095 1033.84 16.8895 1033.32 16.8895C1032.8 16.8895 1032.34 17.0095 1031.92 17.2495C1031.51 17.4895 1031.18 17.8295 1030.94 18.2695C1030.7 18.7095 1030.58 19.2428 1030.58 19.8695C1030.58 20.4828 1030.7 21.0162 1030.94 21.4695C1031.18 21.9095 1031.51 22.2495 1031.92 22.4895C1032.34 22.7295 1032.8 22.8495 1033.32 22.8495ZM1041.41 25.2495V14.4895H1044.51V20.8895L1049.75 14.4895H1052.61V25.2495H1049.51V18.8495L1044.29 25.2495H1041.41ZM1055.61 25.2495V14.4895H1066.31V25.2495H1063.19V16.3495L1063.89 17.0495H1058.01L1058.71 16.3495V25.2495H1055.61ZM1071.6 25.2495V16.3295L1072.3 17.0495H1067.96V14.4895H1078.34V17.0495H1074L1074.7 16.3295V25.2495H1071.6ZM1084.59 25.4095C1083.45 25.4095 1082.43 25.1695 1081.53 24.6895C1080.65 24.2095 1079.95 23.5562 1079.43 22.7295C1078.93 21.8895 1078.67 20.9362 1078.67 19.8695C1078.67 18.7895 1078.93 17.8362 1079.43 17.0095C1079.95 16.1695 1080.65 15.5162 1081.53 15.0495C1082.43 14.5695 1083.45 14.3295 1084.59 14.3295C1085.73 14.3295 1086.74 14.5695 1087.63 15.0495C1088.53 15.5162 1089.23 16.1628 1089.73 16.9895C1090.24 17.8162 1090.49 18.7762 1090.49 19.8695C1090.49 20.9362 1090.24 21.8895 1089.73 22.7295C1089.23 23.5562 1088.53 24.2095 1087.63 24.6895C1086.74 25.1695 1085.73 25.4095 1084.59 25.4095ZM1084.59 22.8495C1085.11 22.8495 1085.58 22.7295 1085.99 22.4895C1086.41 22.2495 1086.73 21.9095 1086.97 21.4695C1087.21 21.0162 1087.33 20.4828 1087.33 19.8695C1087.33 19.2428 1087.21 18.7095 1086.97 18.2695C1086.73 17.8295 1086.41 17.4895 1085.99 17.2495C1085.58 17.0095 1085.11 16.8895 1084.59 16.8895C1084.07 16.8895 1083.61 17.0095 1083.19 17.2495C1082.78 17.4895 1082.45 17.8295 1082.19 18.2695C1081.95 18.7095 1081.83 19.2428 1081.83 19.8695C1081.83 20.4828 1081.95 21.0162 1082.19 21.4695C1082.45 21.9095 1082.78 22.2495 1083.19 22.4895C1083.61 22.7295 1084.07 22.8495 1084.59 22.8495ZM1097.98 25.4895C1097.1 25.4895 1096.3 25.3628 1095.58 25.1095C1094.86 24.8428 1094.23 24.4362 1093.7 23.8895C1093.18 23.3295 1092.77 22.6162 1092.48 21.7495C1092.2 20.8828 1092.06 19.8495 1092.06 18.6495C1092.06 17.7962 1092.13 17.0162 1092.28 16.3095C1092.43 15.6028 1092.65 14.9628 1092.94 14.3895C1093.23 13.8028 1093.61 13.2895 1094.06 12.8495C1094.53 12.3962 1095.07 12.0228 1095.68 11.7295C1096.31 11.4228 1097.01 11.1895 1097.8 11.0295L1102.92 10.0095L1103.34 12.6895L1098.82 13.5895C1098.55 13.6428 1098.25 13.7162 1097.9 13.8095C1097.57 13.8895 1097.23 14.0162 1096.88 14.1895C1096.55 14.3628 1096.23 14.6095 1095.94 14.9295C1095.66 15.2362 1095.43 15.6428 1095.26 16.1495C1095.09 16.6428 1095 17.2562 1095 17.9895C1095 18.2162 1095.01 18.3895 1095.02 18.5095C1095.05 18.6295 1095.07 18.7562 1095.08 18.8895C1095.11 19.0228 1095.12 19.2295 1095.12 19.5095L1094.12 18.5295C1094.41 17.9028 1094.79 17.3695 1095.24 16.9295C1095.71 16.4895 1096.24 16.1562 1096.84 15.9295C1097.45 15.6895 1098.13 15.5695 1098.88 15.5695C1099.89 15.5695 1100.78 15.7762 1101.54 16.1895C1102.31 16.5895 1102.91 17.1562 1103.34 17.8895C1103.77 18.6228 1103.98 19.4562 1103.98 20.3895C1103.98 21.4028 1103.73 22.2962 1103.22 23.0695C1102.71 23.8295 1102.01 24.4228 1101.1 24.8495C1100.21 25.2762 1099.17 25.4895 1097.98 25.4895ZM1098.14 23.0695C1098.66 23.0695 1099.12 22.9562 1099.52 22.7295C1099.92 22.4895 1100.23 22.1762 1100.44 21.7895C1100.67 21.3895 1100.78 20.9428 1100.78 20.4495C1100.78 19.9695 1100.67 19.5428 1100.44 19.1695C1100.23 18.7962 1099.92 18.5028 1099.52 18.2895C1099.12 18.0762 1098.65 17.9695 1098.12 17.9695C1097.6 17.9695 1097.13 18.0762 1096.72 18.2895C1096.31 18.4895 1095.99 18.7695 1095.76 19.1295C1095.53 19.4895 1095.42 19.9095 1095.42 20.3895C1095.42 20.8828 1095.53 21.3362 1095.76 21.7495C1096 22.1495 1096.32 22.4695 1096.72 22.7095C1097.13 22.9495 1097.61 23.0695 1098.14 23.0695ZM1106.1 25.2495V14.4895H1109.2V20.8895L1114.44 14.4895H1117.3V25.2495H1114.2V18.8495L1108.98 25.2495H1106.1ZM1126.64 25.4095C1125.73 25.4095 1124.94 25.2095 1124.26 24.8095C1123.58 24.4095 1123.04 23.8028 1122.66 22.9895C1122.28 22.1628 1122.1 21.1228 1122.1 19.8695C1122.1 18.6028 1122.28 17.5628 1122.64 16.7495C1123 15.9362 1123.52 15.3295 1124.2 14.9295C1124.88 14.5295 1125.69 14.3295 1126.64 14.3295C1127.65 14.3295 1128.56 14.5628 1129.36 15.0295C1130.17 15.4828 1130.81 16.1228 1131.28 16.9495C1131.76 17.7762 1132 18.7495 1132 19.8695C1132 21.0028 1131.76 21.9828 1131.28 22.8095C1130.81 23.6362 1130.17 24.2762 1129.36 24.7295C1128.56 25.1828 1127.65 25.4095 1126.64 25.4095ZM1120.28 29.1295V14.4895H1123.26V16.6895L1123.2 19.8895L1123.4 23.0695V29.1295H1120.28ZM1126.1 22.8495C1126.62 22.8495 1127.08 22.7295 1127.48 22.4895C1127.89 22.2495 1128.22 21.9095 1128.46 21.4695C1128.71 21.0162 1128.84 20.4828 1128.84 19.8695C1128.84 19.2428 1128.71 18.7095 1128.46 18.2695C1128.22 17.8295 1127.89 17.4895 1127.48 17.2495C1127.08 17.0095 1126.62 16.8895 1126.1 16.8895C1125.58 16.8895 1125.11 17.0095 1124.7 17.2495C1124.28 17.4895 1123.96 17.8295 1123.72 18.2695C1123.48 18.7095 1123.36 19.2428 1123.36 19.8695C1123.36 20.4828 1123.48 21.0162 1123.72 21.4695C1123.96 21.9095 1124.28 22.2495 1124.7 22.4895C1125.11 22.7295 1125.58 22.8495 1126.1 22.8495ZM1146.79 25.2495L1143.93 20.1495L1146.45 18.6495L1150.49 25.2495H1146.79ZM1142.09 21.1695V18.6695H1145.83V21.1695H1142.09ZM1146.77 20.2295L1143.83 19.9095L1146.93 14.4895H1150.23L1146.77 20.2295ZM1136.15 25.2495H1132.47L1136.49 18.6495L1139.01 20.1495L1136.15 25.2495ZM1143.01 25.2495H1139.93V14.4895H1143.01V25.2495ZM1140.85 21.1695H1137.13V18.6695H1140.85V21.1695ZM1136.17 20.2295L1132.71 14.4895H1136.01L1139.09 19.9095L1136.17 20.2295ZM1158.36 25.2495V23.1495L1158.16 22.6895V18.9295C1158.16 18.2628 1157.95 17.7428 1157.54 17.3695C1157.14 16.9962 1156.52 16.8095 1155.68 16.8095C1155.1 16.8095 1154.54 16.9028 1153.98 17.0895C1153.43 17.2628 1152.96 17.5028 1152.58 17.8095L1151.46 15.6295C1152.04 15.2162 1152.75 14.8962 1153.58 14.6695C1154.4 14.4428 1155.24 14.3295 1156.1 14.3295C1157.74 14.3295 1159.01 14.7162 1159.92 15.4895C1160.82 16.2628 1161.28 17.4695 1161.28 19.1095V25.2495H1158.36ZM1155.08 25.4095C1154.24 25.4095 1153.52 25.2695 1152.92 24.9895C1152.32 24.6962 1151.86 24.3028 1151.54 23.8095C1151.22 23.3162 1151.06 22.7628 1151.06 22.1495C1151.06 21.5095 1151.21 20.9495 1151.52 20.4695C1151.84 19.9895 1152.34 19.6162 1153.02 19.3495C1153.7 19.0695 1154.58 18.9295 1155.68 18.9295H1158.54V20.7495H1156.02C1155.28 20.7495 1154.78 20.8695 1154.5 21.1095C1154.23 21.3495 1154.1 21.6495 1154.1 22.0095C1154.1 22.4095 1154.25 22.7295 1154.56 22.9695C1154.88 23.1962 1155.31 23.3095 1155.86 23.3095C1156.38 23.3095 1156.84 23.1895 1157.26 22.9495C1157.67 22.6962 1157.97 22.3295 1158.16 21.8495L1158.64 23.2895C1158.41 23.9828 1158 24.5095 1157.4 24.8695C1156.8 25.2295 1156.02 25.4095 1155.08 25.4095Z" fill="#222222"/>
<path d="M1104.56 47.3455C1103.71 47.3455 1102.93 47.2068 1102.2 46.9295C1101.49 46.6415 1100.87 46.2415 1100.33 45.7295C1099.81 45.2068 1099.4 44.6042 1099.1 43.9215C1098.81 43.2282 1098.67 42.4708 1098.67 41.6495C1098.67 40.8282 1098.81 40.0762 1099.1 39.3935C1099.4 38.7002 1099.81 38.0975 1100.33 37.5855C1100.87 37.0628 1101.49 36.6628 1102.2 36.3855C1102.92 36.0975 1103.7 35.9535 1104.56 35.9535C1105.4 35.9535 1106.18 36.0975 1106.89 36.3855C1107.61 36.6628 1108.23 37.0575 1108.75 37.5695C1109.28 38.0815 1109.69 38.6842 1109.98 39.3775C1110.28 40.0708 1110.43 40.8282 1110.43 41.6495C1110.43 42.4708 1110.28 43.2282 1109.98 43.9215C1109.69 44.6148 1109.28 45.2175 1108.75 45.7295C1108.23 46.2415 1107.61 46.6415 1106.89 46.9295C1106.18 47.2068 1105.4 47.3455 1104.56 47.3455ZM1108.22 49.4735C1107.88 49.4735 1107.55 49.4308 1107.23 49.3455C1106.91 49.2602 1106.58 49.1215 1106.25 48.9295C1105.93 48.7482 1105.6 48.5082 1105.26 48.2095C1104.92 47.9108 1104.55 47.5482 1104.14 47.1215L1105.44 46.8015C1105.77 47.1962 1106.09 47.5215 1106.4 47.7775C1106.72 48.0335 1107.03 48.2202 1107.32 48.3375C1107.63 48.4655 1107.94 48.5295 1108.24 48.5295C1109.07 48.5295 1109.78 48.1882 1110.36 47.5055L1110.94 48.1935C1110.24 49.0468 1109.33 49.4735 1108.22 49.4735ZM1104.56 46.2895C1105.23 46.2895 1105.85 46.1775 1106.41 45.9535C1106.99 45.7188 1107.48 45.3882 1107.9 44.9615C1108.33 44.5348 1108.66 44.0442 1108.89 43.4895C1109.13 42.9242 1109.24 42.3108 1109.24 41.6495C1109.24 40.9775 1109.13 40.3642 1108.89 39.8095C1108.66 39.2442 1108.33 38.7535 1107.9 38.3375C1107.48 37.9108 1106.99 37.5855 1106.41 37.3615C1105.85 37.1268 1105.23 37.0095 1104.56 37.0095C1103.88 37.0095 1103.26 37.1268 1102.68 37.3615C1102.11 37.5855 1101.61 37.9108 1101.18 38.3375C1100.76 38.7535 1100.43 39.2442 1100.19 39.8095C1099.95 40.3642 1099.84 40.9775 1099.84 41.6495C1099.84 42.3108 1099.95 42.9242 1100.19 43.4895C1100.43 44.0442 1100.76 44.5348 1101.18 44.9615C1101.61 45.3882 1102.11 45.7188 1102.68 45.9535C1103.26 46.1775 1103.88 46.2895 1104.56 46.2895ZM1111.73 47.2495V46.4335L1116.38 41.8735C1116.81 41.4575 1117.13 41.0948 1117.34 40.7855C1117.55 40.4655 1117.7 40.1668 1117.77 39.8895C1117.85 39.6122 1117.89 39.3508 1117.89 39.1055C1117.89 38.4548 1117.66 37.9428 1117.21 37.5695C1116.78 37.1962 1116.13 37.0095 1115.26 37.0095C1114.6 37.0095 1114.01 37.1108 1113.5 37.3135C1113 37.5162 1112.57 37.8308 1112.21 38.2575L1111.39 37.5535C1111.83 37.0415 1112.39 36.6468 1113.07 36.3695C1113.75 36.0922 1114.51 35.9535 1115.36 35.9535C1116.11 35.9535 1116.77 36.0762 1117.33 36.3215C1117.88 36.5562 1118.31 36.9028 1118.61 37.3615C1118.91 37.8202 1119.07 38.3588 1119.07 38.9775C1119.07 39.3402 1119.02 39.6975 1118.91 40.0495C1118.81 40.4015 1118.63 40.7748 1118.37 41.1695C1118.11 41.5535 1117.73 41.9908 1117.23 42.4815L1112.96 46.6735L1112.64 46.2255H1119.58V47.2495H1111.73ZM1125.01 47.2495V46.4335L1129.66 41.8735C1130.09 41.4575 1130.41 41.0948 1130.62 40.7855C1130.84 40.4655 1130.98 40.1668 1131.05 39.8895C1131.13 39.6122 1131.17 39.3508 1131.17 39.1055C1131.17 38.4548 1130.94 37.9428 1130.49 37.5695C1130.06 37.1962 1129.41 37.0095 1128.54 37.0095C1127.88 37.0095 1127.29 37.1108 1126.78 37.3135C1126.28 37.5162 1125.85 37.8308 1125.49 38.2575L1124.67 37.5535C1125.11 37.0415 1125.67 36.6468 1126.35 36.3695C1127.03 36.0922 1127.8 35.9535 1128.64 35.9535C1129.4 35.9535 1130.05 36.0762 1130.61 36.3215C1131.16 36.5562 1131.59 36.9028 1131.89 37.3615C1132.2 37.8202 1132.35 38.3588 1132.35 38.9775C1132.35 39.3402 1132.3 39.6975 1132.19 40.0495C1132.09 40.4015 1131.91 40.7748 1131.65 41.1695C1131.39 41.5535 1131.01 41.9908 1130.51 42.4815L1126.24 46.6735L1125.92 46.2255H1132.86V47.2495H1125.01ZM1138.74 47.3455C1137.88 47.3455 1137.11 47.1215 1136.44 46.6735C1135.77 46.2148 1135.24 45.5642 1134.85 44.7215C1134.47 43.8682 1134.28 42.8442 1134.28 41.6495C1134.28 40.4548 1134.47 39.4362 1134.85 38.5935C1135.24 37.7402 1135.77 37.0895 1136.44 36.6415C1137.11 36.1828 1137.88 35.9535 1138.74 35.9535C1139.61 35.9535 1140.37 36.1828 1141.05 36.6415C1141.72 37.0895 1142.25 37.7402 1142.63 38.5935C1143.02 39.4362 1143.22 40.4548 1143.22 41.6495C1143.22 42.8442 1143.02 43.8682 1142.63 44.7215C1142.25 45.5642 1141.72 46.2148 1141.05 46.6735C1140.37 47.1215 1139.61 47.3455 1138.74 47.3455ZM1138.74 46.2895C1139.4 46.2895 1139.98 46.1135 1140.47 45.7615C1140.96 45.3988 1141.34 44.8762 1141.62 44.1935C1141.9 43.5002 1142.04 42.6522 1142.04 41.6495C1142.04 40.6468 1141.9 39.8042 1141.62 39.1215C1141.34 38.4282 1140.96 37.9055 1140.47 37.5535C1139.98 37.1908 1139.4 37.0095 1138.74 37.0095C1138.1 37.0095 1137.53 37.1908 1137.03 37.5535C1136.53 37.9055 1136.14 38.4282 1135.86 39.1215C1135.58 39.8042 1135.45 40.6468 1135.45 41.6495C1135.45 42.6522 1135.58 43.5002 1135.86 44.1935C1136.14 44.8762 1136.53 45.3988 1137.03 45.7615C1137.53 46.1135 1138.1 46.2895 1138.74 46.2895ZM1144.66 47.2495V46.4335L1149.32 41.8735C1149.75 41.4575 1150.07 41.0948 1150.28 40.7855C1150.49 40.4655 1150.64 40.1668 1150.71 39.8895C1150.79 39.6122 1150.82 39.3508 1150.82 39.1055C1150.82 38.4548 1150.6 37.9428 1150.15 37.5695C1149.71 37.1962 1149.06 37.0095 1148.2 37.0095C1147.54 37.0095 1146.95 37.1108 1146.44 37.3135C1145.94 37.5162 1145.51 37.8308 1145.14 38.2575L1144.33 37.5535C1144.76 37.0415 1145.32 36.6468 1146.01 36.3695C1146.69 36.0922 1147.45 35.9535 1148.3 35.9535C1149.05 35.9535 1149.71 36.0762 1150.26 36.3215C1150.82 36.5562 1151.24 36.9028 1151.54 37.3615C1151.85 37.8202 1152.01 38.3588 1152.01 38.9775C1152.01 39.3402 1151.95 39.6975 1151.85 40.0495C1151.75 40.4015 1151.57 40.7748 1151.3 41.1695C1151.05 41.5535 1150.67 41.9908 1150.17 42.4815L1145.9 46.6735L1145.58 46.2255H1152.52V47.2495H1144.66ZM1157.31 47.3455C1156.5 47.3455 1155.73 47.2175 1155 46.9615C1154.29 46.6948 1153.71 46.3428 1153.28 45.9055L1153.84 44.9935C1154.2 45.3668 1154.68 45.6762 1155.29 45.9215C1155.91 46.1668 1156.58 46.2895 1157.31 46.2895C1158.24 46.2895 1158.95 46.0868 1159.44 45.6815C1159.94 45.2762 1160.19 44.7322 1160.19 44.0495C1160.19 43.3668 1159.94 42.8228 1159.45 42.4175C1158.97 42.0122 1158.21 41.8095 1157.16 41.8095H1156.36V40.9615L1159.82 36.6255L1159.98 37.0735H1153.74V36.0495H1160.94V36.8655L1157.48 41.2015L1156.92 40.8335H1157.36C1158.7 40.8335 1159.7 41.1322 1160.36 41.7295C1161.04 42.3268 1161.37 43.0948 1161.37 44.0335C1161.37 44.6628 1161.22 45.2282 1160.92 45.7295C1160.63 46.2308 1160.17 46.6255 1159.56 46.9135C1158.97 47.2015 1158.22 47.3455 1157.31 47.3455Z" fill="#222222"/>
<circle cx="1187.5" cy="34.2495" r="23" fill="white" stroke="#F5BD00" stroke-width="4"/>
<path d="M885.592 327.25V313.25H898.352V327.25H895.132V315.15L895.872 315.89H888.072L888.812 315.15V327.25H885.592ZM908.022 327.25V325.15L907.822 324.69V320.93C907.822 320.263 907.615 319.743 907.202 319.37C906.802 318.996 906.182 318.81 905.342 318.81C904.769 318.81 904.202 318.903 903.642 319.09C903.095 319.263 902.629 319.503 902.242 319.81L901.122 317.63C901.709 317.216 902.415 316.896 903.242 316.67C904.069 316.443 904.909 316.33 905.762 316.33C907.402 316.33 908.675 316.716 909.582 317.49C910.489 318.263 910.942 319.47 910.942 321.11V327.25H908.022ZM904.742 327.41C903.902 327.41 903.182 327.27 902.582 326.99C901.982 326.696 901.522 326.303 901.202 325.81C900.882 325.316 900.722 324.763 900.722 324.15C900.722 323.51 900.875 322.95 901.182 322.47C901.502 321.99 902.002 321.616 902.682 321.35C903.362 321.07 904.249 320.93 905.342 320.93H908.202V322.75H905.682C904.949 322.75 904.442 322.87 904.162 323.11C903.895 323.35 903.762 323.65 903.762 324.01C903.762 324.41 903.915 324.73 904.222 324.97C904.542 325.196 904.975 325.31 905.522 325.31C906.042 325.31 906.509 325.19 906.922 324.95C907.335 324.696 907.635 324.33 907.822 323.85L908.302 325.29C908.075 325.983 907.662 326.51 907.062 326.87C906.462 327.23 905.689 327.41 904.742 327.41ZM919.992 327.41C919.086 327.41 918.292 327.21 917.612 326.81C916.932 326.41 916.399 325.803 916.012 324.99C915.639 324.163 915.452 323.123 915.452 321.87C915.452 320.603 915.632 319.563 915.992 318.75C916.352 317.936 916.872 317.33 917.552 316.93C918.232 316.53 919.046 316.33 919.992 316.33C921.006 316.33 921.912 316.563 922.712 317.03C923.526 317.483 924.166 318.123 924.632 318.95C925.112 319.776 925.352 320.75 925.352 321.87C925.352 323.003 925.112 323.983 924.632 324.81C924.166 325.636 923.526 326.276 922.712 326.73C921.912 327.183 921.006 327.41 919.992 327.41ZM913.632 331.13V316.49H916.612V318.69L916.552 321.89L916.752 325.07V331.13H913.632ZM919.452 324.85C919.972 324.85 920.432 324.73 920.832 324.49C921.246 324.25 921.572 323.91 921.812 323.47C922.066 323.016 922.192 322.483 922.192 321.87C922.192 321.243 922.066 320.71 921.812 320.27C921.572 319.83 921.246 319.49 920.832 319.25C920.432 319.01 919.972 318.89 919.452 318.89C918.932 318.89 918.466 319.01 918.052 319.25C917.639 319.49 917.312 319.83 917.072 320.27C916.832 320.71 916.712 321.243 916.712 321.87C916.712 322.483 916.832 323.016 917.072 323.47C917.312 323.91 917.639 324.25 918.052 324.49C918.466 324.73 918.932 324.85 919.452 324.85ZM929.448 327.25V318.33L930.148 319.05H925.808V316.49H936.188V319.05H931.848L932.548 318.33V327.25H929.448ZM937.852 327.25V316.49H940.952V320.69H945.632V316.49H948.752V327.25H945.632V323.23H940.952V327.25H937.852ZM956.998 327.41C955.772 327.41 954.692 327.17 953.758 326.69C952.838 326.21 952.125 325.556 951.618 324.73C951.112 323.89 950.858 322.936 950.858 321.87C950.858 320.79 951.105 319.836 951.598 319.01C952.105 318.17 952.792 317.516 953.658 317.05C954.525 316.57 955.505 316.33 956.598 316.33C957.652 316.33 958.598 316.556 959.438 317.01C960.292 317.45 960.965 318.09 961.458 318.93C961.952 319.756 962.198 320.75 962.198 321.91C962.198 322.03 962.192 322.17 962.178 322.33C962.165 322.476 962.152 322.616 962.138 322.75H953.398V320.93H960.498L959.298 321.47C959.298 320.91 959.185 320.423 958.958 320.01C958.732 319.596 958.418 319.276 958.018 319.05C957.618 318.81 957.152 318.69 956.618 318.69C956.085 318.69 955.612 318.81 955.198 319.05C954.798 319.276 954.485 319.603 954.258 320.03C954.032 320.443 953.918 320.936 953.918 321.51V321.99C953.918 322.576 954.045 323.096 954.298 323.55C954.565 323.99 954.932 324.33 955.398 324.57C955.878 324.796 956.438 324.91 957.078 324.91C957.652 324.91 958.152 324.823 958.578 324.65C959.018 324.476 959.418 324.216 959.778 323.87L961.438 325.67C960.945 326.23 960.325 326.663 959.578 326.97C958.832 327.263 957.972 327.41 956.998 327.41ZM970.93 327.41C970.023 327.41 969.23 327.21 968.55 326.81C967.87 326.41 967.337 325.803 966.95 324.99C966.577 324.163 966.39 323.123 966.39 321.87C966.39 320.603 966.57 319.563 966.93 318.75C967.29 317.936 967.81 317.33 968.49 316.93C969.17 316.53 969.983 316.33 970.93 316.33C971.943 316.33 972.85 316.563 973.65 317.03C974.463 317.483 975.103 318.123 975.57 318.95C976.05 319.776 976.29 320.75 976.29 321.87C976.29 323.003 976.05 323.983 975.57 324.81C975.103 325.636 974.463 326.276 973.65 326.73C972.85 327.183 971.943 327.41 970.93 327.41ZM964.57 331.13V316.49H967.55V318.69L967.49 321.89L967.69 325.07V331.13H964.57ZM970.39 324.85C970.91 324.85 971.37 324.73 971.77 324.49C972.183 324.25 972.51 323.91 972.75 323.47C973.003 323.016 973.13 322.483 973.13 321.87C973.13 321.243 973.003 320.71 972.75 320.27C972.51 319.83 972.183 319.49 971.77 319.25C971.37 319.01 970.91 318.89 970.39 318.89C969.87 318.89 969.403 319.01 968.99 319.25C968.577 319.49 968.25 319.83 968.01 320.27C967.77 320.71 967.65 321.243 967.65 321.87C967.65 322.483 967.77 323.016 968.01 323.47C968.25 323.91 968.577 324.25 968.99 324.49C969.403 324.73 969.87 324.85 970.39 324.85ZM983.597 327.41C982.437 327.41 981.403 327.176 980.497 326.71C979.59 326.23 978.877 325.57 978.357 324.73C977.85 323.89 977.597 322.936 977.597 321.87C977.597 320.79 977.85 319.836 978.357 319.01C978.877 318.17 979.59 317.516 980.497 317.05C981.403 316.57 982.437 316.33 983.597 316.33C984.73 316.33 985.717 316.57 986.557 317.05C987.397 317.516 988.017 318.19 988.417 319.07L985.997 320.37C985.717 319.863 985.363 319.49 984.937 319.25C984.523 319.01 984.07 318.89 983.577 318.89C983.043 318.89 982.563 319.01 982.137 319.25C981.71 319.49 981.37 319.83 981.117 320.27C980.877 320.71 980.757 321.243 980.757 321.87C980.757 322.496 980.877 323.03 981.117 323.47C981.37 323.91 981.71 324.25 982.137 324.49C982.563 324.73 983.043 324.85 983.577 324.85C984.07 324.85 984.523 324.736 984.937 324.51C985.363 324.27 985.717 323.89 985.997 323.37L988.417 324.69C988.017 325.556 987.397 326.23 986.557 326.71C985.717 327.176 984.73 327.41 983.597 327.41ZM997.933 327.25L994.333 322.15L996.873 320.65L1001.61 327.25H997.933ZM990.313 327.25V316.49H993.433V327.25H990.313ZM992.513 323.17V320.67H996.273V323.17H992.513ZM997.173 322.23L994.253 321.91L998.033 316.49H1001.35L997.173 322.23ZM1009.39 327.25V325.15L1009.19 324.69V320.93C1009.19 320.263 1008.98 319.743 1008.57 319.37C1008.17 318.996 1007.55 318.81 1006.71 318.81C1006.14 318.81 1005.57 318.903 1005.01 319.09C1004.46 319.263 1004 319.503 1003.61 319.81L1002.49 317.63C1003.08 317.216 1003.78 316.896 1004.61 316.67C1005.44 316.443 1006.28 316.33 1007.13 316.33C1008.77 316.33 1010.04 316.716 1010.95 317.49C1011.86 318.263 1012.31 319.47 1012.31 321.11V327.25H1009.39ZM1006.11 327.41C1005.27 327.41 1004.55 327.27 1003.95 326.99C1003.35 326.696 1002.89 326.303 1002.57 325.81C1002.25 325.316 1002.09 324.763 1002.09 324.15C1002.09 323.51 1002.24 322.95 1002.55 322.47C1002.87 321.99 1003.37 321.616 1004.05 321.35C1004.73 321.07 1005.62 320.93 1006.71 320.93H1009.57V322.75H1007.05C1006.32 322.75 1005.81 322.87 1005.53 323.11C1005.26 323.35 1005.13 323.65 1005.13 324.01C1005.13 324.41 1005.28 324.73 1005.59 324.97C1005.91 325.196 1006.34 325.31 1006.89 325.31C1007.41 325.31 1007.88 325.19 1008.29 324.95C1008.7 324.696 1009 324.33 1009.19 323.85L1009.67 325.29C1009.44 325.983 1009.03 326.51 1008.43 326.87C1007.83 327.23 1007.06 327.41 1006.11 327.41ZM1021.8 327.25V323.67L1022.24 324.17H1019.26C1017.71 324.17 1016.5 323.85 1015.62 323.21C1014.74 322.57 1014.3 321.65 1014.3 320.45C1014.3 319.17 1014.76 318.19 1015.68 317.51C1016.61 316.83 1017.87 316.49 1019.44 316.49H1024.58V327.25H1021.8ZM1014.14 327.25L1017 323.15H1020.18L1017.46 327.25H1014.14ZM1021.8 322.71V318.23L1022.24 319.03H1019.5C1018.86 319.03 1018.36 319.15 1018 319.39C1017.65 319.63 1017.48 320.016 1017.48 320.55C1017.48 321.576 1018.14 322.09 1019.46 322.09H1022.24L1021.8 322.71ZM1033.24 327.25V316.49H1043.94V327.25H1040.82V318.35L1041.52 319.05H1035.64L1036.34 318.35V327.25H1033.24ZM1053.27 327.41C1052.37 327.41 1051.57 327.21 1050.89 326.81C1050.21 326.41 1049.68 325.803 1049.29 324.99C1048.92 324.163 1048.73 323.123 1048.73 321.87C1048.73 320.603 1048.91 319.563 1049.27 318.75C1049.63 317.936 1050.15 317.33 1050.83 316.93C1051.51 316.53 1052.33 316.33 1053.27 316.33C1054.29 316.33 1055.19 316.563 1055.99 317.03C1056.81 317.483 1057.45 318.123 1057.91 318.95C1058.39 319.776 1058.63 320.75 1058.63 321.87C1058.63 323.003 1058.39 323.983 1057.91 324.81C1057.45 325.636 1056.81 326.276 1055.99 326.73C1055.19 327.183 1054.29 327.41 1053.27 327.41ZM1046.91 331.13V316.49H1049.89V318.69L1049.83 321.89L1050.03 325.07V331.13H1046.91ZM1052.73 324.85C1053.25 324.85 1053.71 324.73 1054.11 324.49C1054.53 324.25 1054.85 323.91 1055.09 323.47C1055.35 323.016 1055.47 322.483 1055.47 321.87C1055.47 321.243 1055.35 320.71 1055.09 320.27C1054.85 319.83 1054.53 319.49 1054.11 319.25C1053.71 319.01 1053.25 318.89 1052.73 318.89C1052.21 318.89 1051.75 319.01 1051.33 319.25C1050.92 319.49 1050.59 319.83 1050.35 320.27C1050.11 320.71 1049.99 321.243 1049.99 321.87C1049.99 322.483 1050.11 323.016 1050.35 323.47C1050.59 323.91 1050.92 324.25 1051.33 324.49C1051.75 324.73 1052.21 324.85 1052.73 324.85ZM1065.86 327.41C1064.71 327.41 1063.69 327.17 1062.8 326.69C1061.92 326.21 1061.22 325.556 1060.7 324.73C1060.19 323.89 1059.94 322.936 1059.94 321.87C1059.94 320.79 1060.19 319.836 1060.7 319.01C1061.22 318.17 1061.92 317.516 1062.8 317.05C1063.69 316.57 1064.71 316.33 1065.86 316.33C1066.99 316.33 1068.01 316.57 1068.9 317.05C1069.79 317.516 1070.49 318.163 1071 318.99C1071.51 319.816 1071.76 320.776 1071.76 321.87C1071.76 322.936 1071.51 323.89 1071 324.73C1070.49 325.556 1069.79 326.21 1068.9 326.69C1068.01 327.17 1066.99 327.41 1065.86 327.41ZM1065.86 324.85C1066.38 324.85 1066.85 324.73 1067.26 324.49C1067.67 324.25 1068 323.91 1068.24 323.47C1068.48 323.016 1068.6 322.483 1068.6 321.87C1068.6 321.243 1068.48 320.71 1068.24 320.27C1068 319.83 1067.67 319.49 1067.26 319.25C1066.85 319.01 1066.38 318.89 1065.86 318.89C1065.34 318.89 1064.87 319.01 1064.46 319.25C1064.05 319.49 1063.71 319.83 1063.46 320.27C1063.22 320.71 1063.1 321.243 1063.1 321.87C1063.1 322.483 1063.22 323.016 1063.46 323.47C1063.71 323.91 1064.05 324.25 1064.46 324.49C1064.87 324.73 1065.34 324.85 1065.86 324.85ZM1073.91 327.25V316.49H1082.53V319.05H1076.31L1077.01 318.37V327.25H1073.91ZM1090.52 327.41C1089.61 327.41 1088.82 327.21 1088.14 326.81C1087.46 326.41 1086.93 325.803 1086.54 324.99C1086.17 324.163 1085.98 323.123 1085.98 321.87C1085.98 320.603 1086.16 319.563 1086.52 318.75C1086.88 317.936 1087.4 317.33 1088.08 316.93C1088.76 316.53 1089.57 316.33 1090.52 316.33C1091.53 316.33 1092.44 316.563 1093.24 317.03C1094.05 317.483 1094.69 318.123 1095.16 318.95C1095.64 319.776 1095.88 320.75 1095.88 321.87C1095.88 323.003 1095.64 323.983 1095.16 324.81C1094.69 325.636 1094.05 326.276 1093.24 326.73C1092.44 327.183 1091.53 327.41 1090.52 327.41ZM1084.16 331.13V316.49H1087.14V318.69L1087.08 321.89L1087.28 325.07V331.13H1084.16ZM1089.98 324.85C1090.5 324.85 1090.96 324.73 1091.36 324.49C1091.77 324.25 1092.1 323.91 1092.34 323.47C1092.59 323.016 1092.72 322.483 1092.72 321.87C1092.72 321.243 1092.59 320.71 1092.34 320.27C1092.1 319.83 1091.77 319.49 1091.36 319.25C1090.96 319.01 1090.5 318.89 1089.98 318.89C1089.46 318.89 1088.99 319.01 1088.58 319.25C1088.17 319.49 1087.84 319.83 1087.6 320.27C1087.36 320.71 1087.24 321.243 1087.24 321.87C1087.24 322.483 1087.36 323.016 1087.6 323.47C1087.84 323.91 1088.17 324.25 1088.58 324.49C1088.99 324.73 1089.46 324.85 1089.98 324.85ZM1104.33 327.25V325.15L1104.13 324.69V320.93C1104.13 320.263 1103.92 319.743 1103.51 319.37C1103.11 318.996 1102.49 318.81 1101.65 318.81C1101.08 318.81 1100.51 318.903 1099.95 319.09C1099.4 319.263 1098.94 319.503 1098.55 319.81L1097.43 317.63C1098.02 317.216 1098.72 316.896 1099.55 316.67C1100.38 316.443 1101.22 316.33 1102.07 316.33C1103.71 316.33 1104.98 316.716 1105.89 317.49C1106.8 318.263 1107.25 319.47 1107.25 321.11V327.25H1104.33ZM1101.05 327.41C1100.21 327.41 1099.49 327.27 1098.89 326.99C1098.29 326.696 1097.83 326.303 1097.51 325.81C1097.19 325.316 1097.03 324.763 1097.03 324.15C1097.03 323.51 1097.18 322.95 1097.49 322.47C1097.81 321.99 1098.31 321.616 1098.99 321.35C1099.67 321.07 1100.56 320.93 1101.65 320.93H1104.51V322.75H1101.99C1101.26 322.75 1100.75 322.87 1100.47 323.11C1100.2 323.35 1100.07 323.65 1100.07 324.01C1100.07 324.41 1100.22 324.73 1100.53 324.97C1100.85 325.196 1101.28 325.31 1101.83 325.31C1102.35 325.31 1102.82 325.19 1103.23 324.95C1103.64 324.696 1103.94 324.33 1104.13 323.85L1104.61 325.29C1104.38 325.983 1103.97 326.51 1103.37 326.87C1102.77 327.23 1102 327.41 1101.05 327.41ZM1109.96 327.25V316.49H1113.22L1117.28 323.85H1115.98L1120.32 316.49H1123.24L1123.28 327.25H1120.46V319.69L1120.94 320.01L1117.24 326.21H1115.92L1112.2 319.79L1112.78 319.65V327.25H1109.96ZM1126.27 327.25V316.49H1129.53L1133.59 323.85H1132.29L1136.63 316.49H1139.55L1139.59 327.25H1136.77V319.69L1137.25 320.01L1133.55 326.21H1132.23L1128.51 319.79L1129.09 319.65V327.25H1126.27ZM1149.02 327.25V325.15L1148.82 324.69V320.93C1148.82 320.263 1148.61 319.743 1148.2 319.37C1147.8 318.996 1147.18 318.81 1146.34 318.81C1145.76 318.81 1145.2 318.903 1144.64 319.09C1144.09 319.263 1143.62 319.503 1143.24 319.81L1142.12 317.63C1142.7 317.216 1143.41 316.896 1144.24 316.67C1145.06 316.443 1145.9 316.33 1146.76 316.33C1148.4 316.33 1149.67 316.716 1150.58 317.49C1151.48 318.263 1151.94 319.47 1151.94 321.11V327.25H1149.02ZM1145.74 327.41C1144.9 327.41 1144.18 327.27 1143.58 326.99C1142.98 326.696 1142.52 326.303 1142.2 325.81C1141.88 325.316 1141.72 324.763 1141.72 324.15C1141.72 323.51 1141.87 322.95 1142.18 322.47C1142.5 321.99 1143 321.616 1143.68 321.35C1144.36 321.07 1145.24 320.93 1146.34 320.93H1149.2V322.75H1146.68C1145.94 322.75 1145.44 322.87 1145.16 323.11C1144.89 323.35 1144.76 323.65 1144.76 324.01C1144.76 324.41 1144.91 324.73 1145.22 324.97C1145.54 325.196 1145.97 325.31 1146.52 325.31C1147.04 325.31 1147.5 325.19 1147.92 324.95C1148.33 324.696 1148.63 324.33 1148.82 323.85L1149.3 325.29C1149.07 325.983 1148.66 326.51 1148.06 326.87C1147.46 327.23 1146.68 327.41 1145.74 327.41Z" fill="#222222"/>
<path d="M1095.6 353.346C1094.75 353.346 1093.97 353.207 1093.24 352.93C1092.53 352.642 1091.9 352.242 1091.37 351.73C1090.85 351.207 1090.44 350.604 1090.14 349.922C1089.85 349.228 1089.71 348.471 1089.71 347.65C1089.71 346.828 1089.85 346.076 1090.14 345.394C1090.44 344.7 1090.85 344.098 1091.37 343.586C1091.9 343.063 1092.53 342.663 1093.24 342.386C1093.96 342.098 1094.74 341.954 1095.6 341.954C1096.44 341.954 1097.22 342.098 1097.93 342.386C1098.65 342.663 1099.26 343.058 1099.79 343.57C1100.32 344.082 1100.73 344.684 1101.02 345.378C1101.32 346.071 1101.47 346.828 1101.47 347.65C1101.47 348.471 1101.32 349.228 1101.02 349.922C1100.73 350.615 1100.32 351.218 1099.79 351.73C1099.26 352.242 1098.65 352.642 1097.93 352.93C1097.22 353.207 1096.44 353.346 1095.6 353.346ZM1099.26 355.474C1098.92 355.474 1098.59 355.431 1098.27 355.346C1097.95 355.26 1097.62 355.122 1097.29 354.93C1096.97 354.748 1096.64 354.508 1096.3 354.21C1095.96 353.911 1095.58 353.548 1095.18 353.122L1096.48 352.802C1096.81 353.196 1097.13 353.522 1097.44 353.778C1097.76 354.034 1098.06 354.22 1098.36 354.338C1098.67 354.466 1098.98 354.53 1099.28 354.53C1100.11 354.53 1100.82 354.188 1101.4 353.506L1101.98 354.194C1101.28 355.047 1100.37 355.474 1099.26 355.474ZM1095.6 352.29C1096.27 352.29 1096.89 352.178 1097.45 351.954C1098.03 351.719 1098.52 351.388 1098.94 350.962C1099.37 350.535 1099.7 350.044 1099.93 349.49C1100.17 348.924 1100.28 348.311 1100.28 347.65C1100.28 346.978 1100.17 346.364 1099.93 345.81C1099.7 345.244 1099.37 344.754 1098.94 344.338C1098.52 343.911 1098.03 343.586 1097.45 343.362C1096.89 343.127 1096.27 343.01 1095.6 343.01C1094.92 343.01 1094.3 343.127 1093.72 343.362C1093.15 343.586 1092.65 343.911 1092.22 344.338C1091.8 344.754 1091.47 345.244 1091.23 345.81C1090.99 346.364 1090.88 346.978 1090.88 347.65C1090.88 348.311 1090.99 348.924 1091.23 349.49C1091.47 350.044 1091.8 350.535 1092.22 350.962C1092.65 351.388 1093.15 351.719 1093.72 351.954C1094.3 352.178 1094.92 352.29 1095.6 352.29ZM1106.3 353.346C1105.49 353.346 1104.72 353.218 1104 352.962C1103.28 352.695 1102.71 352.343 1102.27 351.906L1102.83 350.994C1103.19 351.367 1103.68 351.676 1104.29 351.922C1104.9 352.167 1105.58 352.29 1106.3 352.29C1107.23 352.29 1107.94 352.087 1108.43 351.682C1108.93 351.276 1109.18 350.732 1109.18 350.05C1109.18 349.367 1108.94 348.823 1108.45 348.418C1107.97 348.012 1107.2 347.81 1106.16 347.81H1105.36V346.962L1108.81 342.626L1108.97 343.074H1102.73V342.05H1109.93V342.866L1106.48 347.202L1105.92 346.834H1106.35C1107.69 346.834 1108.7 347.132 1109.36 347.73C1110.03 348.327 1110.37 349.095 1110.37 350.034C1110.37 350.663 1110.22 351.228 1109.92 351.73C1109.62 352.231 1109.17 352.626 1108.56 352.914C1107.96 353.202 1107.21 353.346 1106.3 353.346ZM1115.97 353.25V352.434L1120.62 347.874C1121.05 347.458 1121.37 347.095 1121.58 346.786C1121.8 346.466 1121.94 346.167 1122.02 345.89C1122.09 345.612 1122.13 345.351 1122.13 345.106C1122.13 344.455 1121.9 343.943 1121.46 343.57C1121.02 343.196 1120.37 343.01 1119.5 343.01C1118.84 343.01 1118.26 343.111 1117.74 343.314C1117.24 343.516 1116.81 343.831 1116.45 344.258L1115.63 343.554C1116.07 343.042 1116.63 342.647 1117.31 342.37C1117.99 342.092 1118.76 341.954 1119.6 341.954C1120.36 341.954 1121.01 342.076 1121.57 342.322C1122.12 342.556 1122.55 342.903 1122.85 343.362C1123.16 343.82 1123.31 344.359 1123.31 344.978C1123.31 345.34 1123.26 345.698 1123.15 346.05C1123.06 346.402 1122.87 346.775 1122.61 347.17C1122.35 347.554 1121.97 347.991 1121.47 348.482L1117.2 352.674L1116.88 352.226H1123.82V353.25H1115.97ZM1129.7 353.346C1128.84 353.346 1128.07 353.122 1127.4 352.674C1126.73 352.215 1126.2 351.564 1125.81 350.722C1125.43 349.868 1125.24 348.844 1125.24 347.65C1125.24 346.455 1125.43 345.436 1125.81 344.594C1126.2 343.74 1126.73 343.09 1127.4 342.642C1128.07 342.183 1128.84 341.954 1129.7 341.954C1130.57 341.954 1131.33 342.183 1132.01 342.642C1132.68 343.09 1133.21 343.74 1133.59 344.594C1133.98 345.436 1134.18 346.455 1134.18 347.65C1134.18 348.844 1133.98 349.868 1133.59 350.722C1133.21 351.564 1132.68 352.215 1132.01 352.674C1131.33 353.122 1130.57 353.346 1129.7 353.346ZM1129.7 352.29C1130.36 352.29 1130.94 352.114 1131.43 351.762C1131.92 351.399 1132.3 350.876 1132.58 350.194C1132.86 349.5 1133 348.652 1133 347.65C1133 346.647 1132.86 345.804 1132.58 345.122C1132.3 344.428 1131.92 343.906 1131.43 343.554C1130.94 343.191 1130.36 343.01 1129.7 343.01C1129.06 343.01 1128.49 343.191 1127.99 343.554C1127.49 343.906 1127.1 344.428 1126.82 345.122C1126.54 345.804 1126.41 346.647 1126.41 347.65C1126.41 348.652 1126.54 349.5 1126.82 350.194C1127.1 350.876 1127.49 351.399 1127.99 351.762C1128.49 352.114 1129.06 352.29 1129.7 352.29ZM1135.62 353.25V352.434L1140.28 347.874C1140.71 347.458 1141.03 347.095 1141.24 346.786C1141.45 346.466 1141.6 346.167 1141.67 345.89C1141.75 345.612 1141.78 345.351 1141.78 345.106C1141.78 344.455 1141.56 343.943 1141.11 343.57C1140.67 343.196 1140.02 343.01 1139.16 343.01C1138.5 343.01 1137.91 343.111 1137.4 343.314C1136.9 343.516 1136.47 343.831 1136.1 344.258L1135.29 343.554C1135.73 343.042 1136.29 342.647 1136.97 342.37C1137.65 342.092 1138.41 341.954 1139.26 341.954C1140.01 341.954 1140.67 342.076 1141.22 342.322C1141.78 342.556 1142.21 342.903 1142.5 343.362C1142.81 343.82 1142.97 344.359 1142.97 344.978C1142.97 345.34 1142.91 345.698 1142.81 346.05C1142.71 346.402 1142.53 346.775 1142.26 347.17C1142.01 347.554 1141.63 347.991 1141.13 348.482L1136.86 352.674L1136.54 352.226H1143.48V353.25H1135.62ZM1148.27 353.346C1147.46 353.346 1146.69 353.218 1145.97 352.962C1145.25 352.695 1144.68 352.343 1144.24 351.906L1144.8 350.994C1145.16 351.367 1145.65 351.676 1146.25 351.922C1146.87 352.167 1147.54 352.29 1148.27 352.29C1149.2 352.29 1149.91 352.087 1150.4 351.682C1150.9 351.276 1151.15 350.732 1151.15 350.05C1151.15 349.367 1150.9 348.823 1150.41 348.418C1149.93 348.012 1149.17 347.81 1148.13 347.81H1147.33V346.962L1150.78 342.626L1150.94 343.074H1144.7V342.05H1151.9V342.866L1148.45 347.202L1147.89 346.834H1148.32C1149.66 346.834 1150.66 347.132 1151.33 347.73C1152 348.327 1152.33 349.095 1152.33 350.034C1152.33 350.663 1152.18 351.228 1151.89 351.73C1151.59 352.231 1151.13 352.626 1150.53 352.914C1149.93 353.202 1149.18 353.346 1148.27 353.346Z" fill="#222222"/>
<circle cx="1187.5" cy="333.25" r="23" fill="white" stroke="#F5BD00" stroke-width="4"/>
<path d="M57.6111 327.25V313.25H60.2911L66.2511 323.13H64.8311L70.6911 313.25H73.3711L73.3911 327.25H70.3511L70.3311 317.91H70.9111L66.2111 325.77H64.7711L59.9711 317.91H60.6511V327.25H57.6111ZM83.0689 327.25V325.15L82.8689 324.69V320.93C82.8689 320.263 82.6622 319.743 82.2489 319.37C81.8489 318.996 81.2289 318.81 80.3889 318.81C79.8156 318.81 79.2489 318.903 78.6889 319.09C78.1422 319.263 77.6756 319.503 77.2889 319.81L76.1689 317.63C76.7556 317.216 77.4622 316.896 78.2889 316.67C79.1156 316.443 79.9556 316.33 80.8089 316.33C82.4489 316.33 83.7222 316.716 84.6289 317.49C85.5356 318.263 85.9889 319.47 85.9889 321.11V327.25H83.0689ZM79.7889 327.41C78.9489 327.41 78.2289 327.27 77.6289 326.99C77.0289 326.696 76.5689 326.303 76.2489 325.81C75.9289 325.316 75.7689 324.763 75.7689 324.15C75.7689 323.51 75.9222 322.95 76.2289 322.47C76.5489 321.99 77.0489 321.616 77.7289 321.35C78.4089 321.07 79.2956 320.93 80.3889 320.93H83.2489V322.75H80.7289C79.9956 322.75 79.4889 322.87 79.2089 323.11C78.9422 323.35 78.8089 323.65 78.8089 324.01C78.8089 324.41 78.9622 324.73 79.2689 324.97C79.5889 325.196 80.0222 325.31 80.5689 325.31C81.0889 325.31 81.5556 325.19 81.9689 324.95C82.3822 324.696 82.6822 324.33 82.8689 323.85L83.3489 325.29C83.1222 325.983 82.7089 326.51 82.1089 326.87C81.5089 327.23 80.7356 327.41 79.7889 327.41ZM95.0392 327.41C94.1326 327.41 93.3392 327.21 92.6592 326.81C91.9792 326.41 91.4459 325.803 91.0592 324.99C90.6859 324.163 90.4992 323.123 90.4992 321.87C90.4992 320.603 90.6792 319.563 91.0392 318.75C91.3992 317.936 91.9192 317.33 92.5992 316.93C93.2792 316.53 94.0926 316.33 95.0392 316.33C96.0526 316.33 96.9592 316.563 97.7592 317.03C98.5726 317.483 99.2126 318.123 99.6792 318.95C100.159 319.776 100.399 320.75 100.399 321.87C100.399 323.003 100.159 323.983 99.6792 324.81C99.2126 325.636 98.5726 326.276 97.7592 326.73C96.9592 327.183 96.0526 327.41 95.0392 327.41ZM88.6792 331.13V316.49H91.6592V318.69L91.5992 321.89L91.7992 325.07V331.13H88.6792ZM94.4992 324.85C95.0192 324.85 95.4792 324.73 95.8792 324.49C96.2926 324.25 96.6192 323.91 96.8592 323.47C97.1126 323.016 97.2392 322.483 97.2392 321.87C97.2392 321.243 97.1126 320.71 96.8592 320.27C96.6192 319.83 96.2926 319.49 95.8792 319.25C95.4792 319.01 95.0192 318.89 94.4992 318.89C93.9792 318.89 93.5126 319.01 93.0992 319.25C92.6859 319.49 92.3592 319.83 92.1192 320.27C91.8792 320.71 91.7592 321.243 91.7592 321.87C91.7592 322.483 91.8792 323.016 92.1192 323.47C92.3592 323.91 92.6859 324.25 93.0992 324.49C93.5126 324.73 93.9792 324.85 94.4992 324.85ZM110.206 327.25L106.606 322.15L109.146 320.65L113.886 327.25H110.206ZM102.586 327.25V316.49H105.706V327.25H102.586ZM104.786 323.17V320.67H108.546V323.17H104.786ZM109.446 322.23L106.526 321.91L110.306 316.49H113.626L109.446 322.23ZM120.346 327.41C119.119 327.41 118.039 327.17 117.106 326.69C116.186 326.21 115.473 325.556 114.966 324.73C114.459 323.89 114.206 322.936 114.206 321.87C114.206 320.79 114.453 319.836 114.946 319.01C115.453 318.17 116.139 317.516 117.006 317.05C117.873 316.57 118.853 316.33 119.946 316.33C120.999 316.33 121.946 316.556 122.786 317.01C123.639 317.45 124.313 318.09 124.806 318.93C125.299 319.756 125.546 320.75 125.546 321.91C125.546 322.03 125.539 322.17 125.526 322.33C125.513 322.476 125.499 322.616 125.486 322.75H116.746V320.93H123.846L122.646 321.47C122.646 320.91 122.533 320.423 122.306 320.01C122.079 319.596 121.766 319.276 121.366 319.05C120.966 318.81 120.499 318.69 119.966 318.69C119.433 318.69 118.959 318.81 118.546 319.05C118.146 319.276 117.833 319.603 117.606 320.03C117.379 320.443 117.266 320.936 117.266 321.51V321.99C117.266 322.576 117.393 323.096 117.646 323.55C117.913 323.99 118.279 324.33 118.746 324.57C119.226 324.796 119.786 324.91 120.426 324.91C120.999 324.91 121.499 324.823 121.926 324.65C122.366 324.476 122.766 324.216 123.126 323.87L124.786 325.67C124.293 326.23 123.673 326.663 122.926 326.97C122.179 327.263 121.319 327.41 120.346 327.41ZM129.866 327.25V318.33L130.566 319.05H126.226V316.49H136.606V319.05H132.266L132.966 318.33V327.25H129.866ZM138.27 327.25V316.49H141.37V322.89L146.61 316.49H149.47V327.25H146.37V320.85L141.15 327.25H138.27ZM152.469 327.25V316.49H155.569V320.69H160.249V316.49H163.369V327.25H160.249V323.23H155.569V327.25H152.469ZM166.355 327.25V316.49H174.975V319.05H168.755L169.455 318.37V327.25H166.355Z" fill="#222222"/>
<path d="M62.2356 349.346C61.393 349.346 60.609 349.207 59.8836 348.93C59.169 348.642 58.545 348.242 58.0116 347.73C57.489 347.207 57.0783 346.604 56.7796 345.922C56.4916 345.228 56.3476 344.471 56.3476 343.65C56.3476 342.828 56.4916 342.076 56.7796 341.394C57.0783 340.7 57.489 340.098 58.0116 339.586C58.545 339.063 59.169 338.663 59.8836 338.386C60.5983 338.098 61.3823 337.954 62.2356 337.954C63.0783 337.954 63.857 338.098 64.5716 338.386C65.2863 338.663 65.905 339.058 66.4276 339.57C66.961 340.082 67.3716 340.684 67.6596 341.378C67.9583 342.071 68.1076 342.828 68.1076 343.65C68.1076 344.471 67.9583 345.228 67.6596 345.922C67.3716 346.615 66.961 347.218 66.4276 347.73C65.905 348.242 65.2863 348.642 64.5716 348.93C63.857 349.207 63.0783 349.346 62.2356 349.346ZM65.8996 351.474C65.5583 351.474 65.2276 351.431 64.9076 351.346C64.5876 351.26 64.2623 351.122 63.9316 350.93C63.6116 350.748 63.281 350.508 62.9396 350.21C62.5983 349.911 62.225 349.548 61.8196 349.122L63.1156 348.802C63.4463 349.196 63.7663 349.522 64.0756 349.778C64.3956 350.034 64.705 350.22 65.0036 350.338C65.313 350.466 65.617 350.53 65.9156 350.53C66.7476 350.53 67.457 350.188 68.0436 349.506L68.6196 350.194C67.9156 351.047 67.009 351.474 65.8996 351.474ZM62.2356 348.29C62.9076 348.29 63.5263 348.178 64.0916 347.954C64.6676 347.719 65.1636 347.388 65.5796 346.962C66.0063 346.535 66.337 346.044 66.5716 345.49C66.8063 344.924 66.9236 344.311 66.9236 343.65C66.9236 342.978 66.8063 342.364 66.5716 341.81C66.337 341.244 66.0063 340.754 65.5796 340.338C65.1636 339.911 64.6676 339.586 64.0916 339.362C63.5263 339.127 62.9076 339.01 62.2356 339.01C61.5636 339.01 60.9396 339.127 60.3636 339.362C59.7876 339.586 59.2863 339.911 58.8596 340.338C58.4436 340.754 58.113 341.244 57.8676 341.81C57.633 342.364 57.5156 342.978 57.5156 343.65C57.5156 344.311 57.633 344.924 57.8676 345.49C58.113 346.044 58.4436 346.535 58.8596 346.962C59.2863 347.388 59.7876 347.719 60.3636 347.954C60.9396 348.178 61.5636 348.29 62.2356 348.29ZM69.5775 346.306V345.474L75.5135 338.05H76.7935L70.9055 345.474L70.2815 345.282H79.2895V346.306H69.5775ZM75.8975 349.25V346.306L75.9295 345.282V342.69H77.0495V349.25H75.8975ZM84.3271 349.25V348.434L88.9831 343.874C89.4098 343.458 89.7298 343.095 89.9431 342.786C90.1565 342.466 90.3005 342.167 90.3751 341.89C90.4498 341.612 90.4871 341.351 90.4871 341.106C90.4871 340.455 90.2631 339.943 89.8151 339.57C89.3778 339.196 88.7271 339.01 87.8631 339.01C87.2018 339.01 86.6151 339.111 86.1031 339.314C85.6018 339.516 85.1698 339.831 84.8071 340.258L83.9911 339.554C84.4285 339.042 84.9885 338.647 85.6711 338.37C86.3538 338.092 87.1165 337.954 87.9591 337.954C88.7165 337.954 89.3725 338.076 89.9271 338.322C90.4818 338.556 90.9085 338.903 91.2071 339.362C91.5165 339.82 91.6711 340.359 91.6711 340.978C91.6711 341.34 91.6178 341.698 91.5111 342.05C91.4151 342.402 91.2338 342.775 90.9671 343.17C90.7111 343.554 90.3325 343.991 89.8311 344.482L85.5591 348.674L85.2391 348.226H92.1831V349.25H84.3271ZM98.0616 349.346C97.1976 349.346 96.4296 349.122 95.7576 348.674C95.0856 348.215 94.5576 347.564 94.1736 346.722C93.7896 345.868 93.5976 344.844 93.5976 343.65C93.5976 342.455 93.7896 341.436 94.1736 340.594C94.5576 339.74 95.0856 339.09 95.7576 338.642C96.4296 338.183 97.1976 337.954 98.0616 337.954C98.9256 337.954 99.6936 338.183 100.366 338.642C101.038 339.09 101.566 339.74 101.95 340.594C102.344 341.436 102.542 342.455 102.542 343.65C102.542 344.844 102.344 345.868 101.95 346.722C101.566 347.564 101.038 348.215 100.366 348.674C99.6936 349.122 98.9256 349.346 98.0616 349.346ZM98.0616 348.29C98.723 348.29 99.299 348.114 99.7896 347.762C100.28 347.399 100.664 346.876 100.942 346.194C101.219 345.5 101.358 344.652 101.358 343.65C101.358 342.647 101.219 341.804 100.942 341.122C100.664 340.428 100.28 339.906 99.7896 339.554C99.299 339.191 98.723 339.01 98.0616 339.01C97.4216 339.01 96.851 339.191 96.3496 339.554C95.8483 339.906 95.459 340.428 95.1816 341.122C94.9043 341.804 94.7656 342.647 94.7656 343.65C94.7656 344.652 94.9043 345.5 95.1816 346.194C95.459 346.876 95.8483 347.399 96.3496 347.762C96.851 348.114 97.4216 348.29 98.0616 348.29ZM103.983 349.25V348.434L108.639 343.874C109.066 343.458 109.386 343.095 109.599 342.786C109.813 342.466 109.957 342.167 110.031 341.89C110.106 341.612 110.143 341.351 110.143 341.106C110.143 340.455 109.919 339.943 109.471 339.57C109.034 339.196 108.383 339.01 107.519 339.01C106.858 339.01 106.271 339.111 105.759 339.314C105.258 339.516 104.826 339.831 104.463 340.258L103.647 339.554C104.085 339.042 104.645 338.647 105.327 338.37C106.01 338.092 106.773 337.954 107.615 337.954C108.373 337.954 109.029 338.076 109.583 338.322C110.138 338.556 110.565 338.903 110.863 339.362C111.173 339.82 111.327 340.359 111.327 340.978C111.327 341.34 111.274 341.698 111.167 342.05C111.071 342.402 110.89 342.775 110.623 343.17C110.367 343.554 109.989 343.991 109.487 344.482L105.215 348.674L104.895 348.226H111.839V349.25H103.983ZM116.629 349.346C115.818 349.346 115.05 349.218 114.325 348.962C113.61 348.695 113.034 348.343 112.597 347.906L113.157 346.994C113.52 347.367 114.005 347.676 114.613 347.922C115.232 348.167 115.904 348.29 116.629 348.29C117.557 348.29 118.266 348.087 118.757 347.682C119.258 347.276 119.509 346.732 119.509 346.05C119.509 345.367 119.264 344.823 118.773 344.418C118.293 344.012 117.53 343.81 116.485 343.81H115.685V342.962L119.141 338.626L119.301 339.074H113.061V338.05H120.261V338.866L116.805 343.202L116.245 342.834H116.677C118.021 342.834 119.024 343.132 119.685 343.73C120.357 344.327 120.693 345.095 120.693 346.034C120.693 346.663 120.544 347.228 120.245 347.73C119.946 348.231 119.493 348.626 118.885 348.914C118.288 349.202 117.536 349.346 116.629 349.346Z" fill="#222222"/>
<circle cx="25.5" cy="333.25" r="23" fill="white" stroke="#F5BD00" stroke-width="4"/>
<path d="M64.0729 631.49C62.9929 631.49 61.9862 631.316 61.0529 630.97C60.1329 630.61 59.3329 630.103 58.6529 629.45C57.9729 628.796 57.4396 628.03 57.0529 627.15C56.6796 626.27 56.4929 625.303 56.4929 624.25C56.4929 623.196 56.6796 622.23 57.0529 621.35C57.4396 620.47 57.9729 619.703 58.6529 619.05C59.3462 618.396 60.1529 617.896 61.0729 617.55C61.9929 617.19 62.9996 617.01 64.0929 617.01C65.3062 617.01 66.3996 617.223 67.3729 617.65C68.3596 618.063 69.1862 618.676 69.8529 619.49L67.7729 621.41C67.2929 620.863 66.7596 620.456 66.1729 620.19C65.5862 619.91 64.9462 619.77 64.2529 619.77C63.5996 619.77 62.9996 619.876 62.4529 620.09C61.9062 620.303 61.4329 620.61 61.0329 621.01C60.6329 621.41 60.3196 621.883 60.0929 622.43C59.8796 622.976 59.7729 623.583 59.7729 624.25C59.7729 624.916 59.8796 625.523 60.0929 626.07C60.3196 626.616 60.6329 627.09 61.0329 627.49C61.4329 627.89 61.9062 628.196 62.4529 628.41C62.9996 628.623 63.5996 628.73 64.2529 628.73C64.9462 628.73 65.5862 628.596 66.1729 628.33C66.7596 628.05 67.2929 627.63 67.7729 627.07L69.8529 628.99C69.1862 629.803 68.3596 630.423 67.3729 630.85C66.3996 631.276 65.2996 631.49 64.0729 631.49ZM76.3935 631.41C75.2468 631.41 74.2268 631.17 73.3335 630.69C72.4535 630.21 71.7535 629.556 71.2335 628.73C70.7268 627.89 70.4735 626.936 70.4735 625.87C70.4735 624.79 70.7268 623.836 71.2335 623.01C71.7535 622.17 72.4535 621.516 73.3335 621.05C74.2268 620.57 75.2468 620.33 76.3935 620.33C77.5268 620.33 78.5402 620.57 79.4335 621.05C80.3268 621.516 81.0268 622.163 81.5335 622.99C82.0402 623.816 82.2935 624.776 82.2935 625.87C82.2935 626.936 82.0402 627.89 81.5335 628.73C81.0268 629.556 80.3268 630.21 79.4335 630.69C78.5402 631.17 77.5268 631.41 76.3935 631.41ZM76.3935 628.85C76.9135 628.85 77.3802 628.73 77.7935 628.49C78.2068 628.25 78.5335 627.91 78.7735 627.47C79.0135 627.016 79.1335 626.483 79.1335 625.87C79.1335 625.243 79.0135 624.71 78.7735 624.27C78.5335 623.83 78.2068 623.49 77.7935 623.25C77.3802 623.01 76.9135 622.89 76.3935 622.89C75.8735 622.89 75.4068 623.01 74.9935 623.25C74.5802 623.49 74.2468 623.83 73.9935 624.27C73.7535 624.71 73.6335 625.243 73.6335 625.87C73.6335 626.483 73.7535 627.016 73.9935 627.47C74.2468 627.91 74.5802 628.25 74.9935 628.49C75.4068 628.73 75.8735 628.85 76.3935 628.85ZM91.6832 629.85V623.05H88.1632L88.1032 624.43C88.0765 625.003 88.0432 625.55 88.0032 626.07C87.9632 626.59 87.8832 627.063 87.7632 627.49C87.6565 627.903 87.4965 628.256 87.2832 628.55C87.0699 628.83 86.7832 629.023 86.4232 629.13L83.3432 628.69C83.7299 628.69 84.0432 628.576 84.2832 628.35C84.5232 628.11 84.7099 627.783 84.8432 627.37C84.9765 626.943 85.0765 626.463 85.1432 625.93C85.2099 625.383 85.2565 624.81 85.2832 624.21L85.4232 620.49H94.8032V629.85H91.6832ZM82.9832 633.57V628.69H96.3432V633.57H93.4432V631.25H85.8832V633.57H82.9832ZM103.567 631.41C102.34 631.41 101.26 631.17 100.327 630.69C99.4066 630.21 98.6933 629.556 98.1866 628.73C97.68 627.89 97.4266 626.936 97.4266 625.87C97.4266 624.79 97.6733 623.836 98.1666 623.01C98.6733 622.17 99.36 621.516 100.227 621.05C101.093 620.57 102.073 620.33 103.167 620.33C104.22 620.33 105.167 620.556 106.007 621.01C106.86 621.45 107.533 622.09 108.027 622.93C108.52 623.756 108.767 624.75 108.767 625.91C108.767 626.03 108.76 626.17 108.747 626.33C108.733 626.476 108.72 626.616 108.707 626.75H99.9666V624.93H107.067L105.867 625.47C105.867 624.91 105.753 624.423 105.527 624.01C105.3 623.596 104.987 623.276 104.587 623.05C104.187 622.81 103.72 622.69 103.187 622.69C102.653 622.69 102.18 622.81 101.767 623.05C101.367 623.276 101.053 623.603 100.827 624.03C100.6 624.443 100.487 624.936 100.487 625.51V625.99C100.487 626.576 100.613 627.096 100.867 627.55C101.133 627.99 101.5 628.33 101.967 628.57C102.447 628.796 103.007 628.91 103.647 628.91C104.22 628.91 104.72 628.823 105.147 628.65C105.587 628.476 105.987 628.216 106.347 627.87L108.007 629.67C107.513 630.23 106.893 630.663 106.147 630.97C105.4 631.263 104.54 631.41 103.567 631.41ZM117.498 631.41C116.592 631.41 115.798 631.21 115.118 630.81C114.438 630.41 113.905 629.803 113.518 628.99C113.145 628.163 112.958 627.123 112.958 625.87C112.958 624.603 113.138 623.563 113.498 622.75C113.858 621.936 114.378 621.33 115.058 620.93C115.738 620.53 116.552 620.33 117.498 620.33C118.512 620.33 119.418 620.563 120.218 621.03C121.032 621.483 121.672 622.123 122.138 622.95C122.618 623.776 122.858 624.75 122.858 625.87C122.858 627.003 122.618 627.983 122.138 628.81C121.672 629.636 121.032 630.276 120.218 630.73C119.418 631.183 118.512 631.41 117.498 631.41ZM111.138 635.13V620.49H114.118V622.69L114.058 625.89L114.258 629.07V635.13H111.138ZM116.958 628.85C117.478 628.85 117.938 628.73 118.338 628.49C118.752 628.25 119.078 627.91 119.318 627.47C119.572 627.016 119.698 626.483 119.698 625.87C119.698 625.243 119.572 624.71 119.318 624.27C119.078 623.83 118.752 623.49 118.338 623.25C117.938 623.01 117.478 622.89 116.958 622.89C116.438 622.89 115.972 623.01 115.558 623.25C115.145 623.49 114.818 623.83 114.578 624.27C114.338 624.71 114.218 625.243 114.218 625.87C114.218 626.483 114.338 627.016 114.578 627.47C114.818 627.91 115.145 628.25 115.558 628.49C115.972 628.73 116.438 628.85 116.958 628.85ZM137.653 631.25L134.793 626.15L137.313 624.65L141.353 631.25H137.653ZM132.953 627.17V624.67H136.693V627.17H132.953ZM137.633 626.23L134.693 625.91L137.793 620.49H141.093L137.633 626.23ZM127.013 631.25H123.333L127.353 624.65L129.873 626.15L127.013 631.25ZM133.873 631.25H130.793V620.49H133.873V631.25ZM131.713 627.17H127.993V624.67H131.713V627.17ZM127.033 626.23L123.573 620.49H126.873L129.953 625.91L127.033 626.23ZM149.219 631.25V629.15L149.019 628.69V624.93C149.019 624.263 148.813 623.743 148.399 623.37C147.999 622.996 147.379 622.81 146.539 622.81C145.966 622.81 145.399 622.903 144.839 623.09C144.293 623.263 143.826 623.503 143.439 623.81L142.319 621.63C142.906 621.216 143.613 620.896 144.439 620.67C145.266 620.443 146.106 620.33 146.959 620.33C148.599 620.33 149.873 620.716 150.779 621.49C151.686 622.263 152.139 623.47 152.139 625.11V631.25H149.219ZM145.939 631.41C145.099 631.41 144.379 631.27 143.779 630.99C143.179 630.696 142.719 630.303 142.399 629.81C142.079 629.316 141.919 628.763 141.919 628.15C141.919 627.51 142.073 626.95 142.379 626.47C142.699 625.99 143.199 625.616 143.879 625.35C144.559 625.07 145.446 624.93 146.539 624.93H149.399V626.75H146.879C146.146 626.75 145.639 626.87 145.359 627.11C145.093 627.35 144.959 627.65 144.959 628.01C144.959 628.41 145.113 628.73 145.419 628.97C145.739 629.196 146.173 629.31 146.719 629.31C147.239 629.31 147.706 629.19 148.119 628.95C148.533 628.696 148.833 628.33 149.019 627.85L149.499 629.29C149.273 629.983 148.859 630.51 148.259 630.87C147.659 631.23 146.886 631.41 145.939 631.41ZM154.85 631.25V620.49H157.95V624.69H162.63V620.49H165.75V631.25H162.63V627.23H157.95V631.25H154.85ZM168.736 631.25V620.49H171.836V626.89L177.076 620.49H179.936V631.25H176.836V624.85L171.616 631.25H168.736ZM188.196 631.41C186.969 631.41 185.889 631.17 184.956 630.69C184.036 630.21 183.322 629.556 182.816 628.73C182.309 627.89 182.056 626.936 182.056 625.87C182.056 624.79 182.302 623.836 182.796 623.01C183.302 622.17 183.989 621.516 184.856 621.05C185.722 620.57 186.702 620.33 187.796 620.33C188.849 620.33 189.796 620.556 190.636 621.01C191.489 621.45 192.162 622.09 192.656 622.93C193.149 623.756 193.396 624.75 193.396 625.91C193.396 626.03 193.389 626.17 193.376 626.33C193.362 626.476 193.349 626.616 193.336 626.75H184.596V624.93H191.696L190.496 625.47C190.496 624.91 190.382 624.423 190.156 624.01C189.929 623.596 189.616 623.276 189.216 623.05C188.816 622.81 188.349 622.69 187.816 622.69C187.282 622.69 186.809 622.81 186.396 623.05C185.996 623.276 185.682 623.603 185.456 624.03C185.229 624.443 185.116 624.936 185.116 625.51V625.99C185.116 626.576 185.242 627.096 185.496 627.55C185.762 627.99 186.129 628.33 186.596 628.57C187.076 628.796 187.636 628.91 188.276 628.91C188.849 628.91 189.349 628.823 189.776 628.65C190.216 628.476 190.616 628.216 190.976 627.87L192.636 629.67C192.142 630.23 191.522 630.663 190.776 630.97C190.029 631.263 189.169 631.41 188.196 631.41Z" fill="#222222"/>
<path d="M62.6184 653.346C61.7758 653.346 60.9918 653.207 60.2664 652.93C59.5518 652.642 58.9278 652.242 58.3944 651.73C57.8718 651.207 57.4611 650.604 57.1624 649.922C56.8744 649.228 56.7304 648.471 56.7304 647.65C56.7304 646.828 56.8744 646.076 57.1624 645.394C57.4611 644.7 57.8718 644.098 58.3944 643.586C58.9278 643.063 59.5518 642.663 60.2664 642.386C60.9811 642.098 61.7651 641.954 62.6184 641.954C63.4611 641.954 64.2398 642.098 64.9544 642.386C65.6691 642.663 66.2878 643.058 66.8104 643.57C67.3438 644.082 67.7544 644.684 68.0424 645.378C68.3411 646.071 68.4904 646.828 68.4904 647.65C68.4904 648.471 68.3411 649.228 68.0424 649.922C67.7544 650.615 67.3438 651.218 66.8104 651.73C66.2878 652.242 65.6691 652.642 64.9544 652.93C64.2398 653.207 63.4611 653.346 62.6184 653.346ZM66.2824 655.474C65.9411 655.474 65.6104 655.431 65.2904 655.346C64.9704 655.26 64.6451 655.122 64.3144 654.93C63.9944 654.748 63.6638 654.508 63.3224 654.21C62.9811 653.911 62.6078 653.548 62.2024 653.122L63.4984 652.802C63.8291 653.196 64.1491 653.522 64.4584 653.778C64.7784 654.034 65.0878 654.22 65.3864 654.338C65.6958 654.466 65.9998 654.53 66.2984 654.53C67.1304 654.53 67.8398 654.188 68.4264 653.506L69.0024 654.194C68.2984 655.047 67.3918 655.474 66.2824 655.474ZM62.6184 652.29C63.2904 652.29 63.9091 652.178 64.4744 651.954C65.0504 651.719 65.5464 651.388 65.9624 650.962C66.3891 650.535 66.7198 650.044 66.9544 649.49C67.1891 648.924 67.3064 648.311 67.3064 647.65C67.3064 646.978 67.1891 646.364 66.9544 645.81C66.7198 645.244 66.3891 644.754 65.9624 644.338C65.5464 643.911 65.0504 643.586 64.4744 643.362C63.9091 643.127 63.2904 643.01 62.6184 643.01C61.9464 643.01 61.3224 643.127 60.7464 643.362C60.1704 643.586 59.6691 643.911 59.2424 644.338C58.8264 644.754 58.4958 645.244 58.2504 645.81C58.0158 646.364 57.8984 646.978 57.8984 647.65C57.8984 648.311 58.0158 648.924 58.2504 649.49C58.4958 650.044 58.8264 650.535 59.2424 650.962C59.6691 651.388 60.1704 651.719 60.7464 651.954C61.3224 652.178 61.9464 652.29 62.6184 652.29ZM71.9481 653.25V642.53L72.4601 643.074H69.3081V642.05H73.1001V653.25H71.9481ZM79.7568 653.25V652.434L84.4128 647.874C84.8395 647.458 85.1595 647.095 85.3728 646.786C85.5861 646.466 85.7301 646.167 85.8048 645.89C85.8795 645.612 85.9168 645.351 85.9168 645.106C85.9168 644.455 85.6928 643.943 85.2448 643.57C84.8075 643.196 84.1568 643.01 83.2928 643.01C82.6315 643.01 82.0448 643.111 81.5328 643.314C81.0315 643.516 80.5995 643.831 80.2368 644.258L79.4208 643.554C79.8581 643.042 80.4181 642.647 81.1008 642.37C81.7835 642.092 82.5461 641.954 83.3888 641.954C84.1461 641.954 84.8021 642.076 85.3568 642.322C85.9115 642.556 86.3381 642.903 86.6368 643.362C86.9461 643.82 87.1008 644.359 87.1008 644.978C87.1008 645.34 87.0475 645.698 86.9408 646.05C86.8448 646.402 86.6635 646.775 86.3968 647.17C86.1408 647.554 85.7621 647.991 85.2608 648.482L80.9888 652.674L80.6688 652.226H87.6128V653.25H79.7568ZM93.4913 653.346C92.6273 653.346 91.8593 653.122 91.1873 652.674C90.5153 652.215 89.9873 651.564 89.6033 650.722C89.2193 649.868 89.0273 648.844 89.0273 647.65C89.0273 646.455 89.2193 645.436 89.6033 644.594C89.9873 643.74 90.5153 643.09 91.1873 642.642C91.8593 642.183 92.6273 641.954 93.4913 641.954C94.3553 641.954 95.1233 642.183 95.7953 642.642C96.4673 643.09 96.9953 643.74 97.3793 644.594C97.774 645.436 97.9713 646.455 97.9713 647.65C97.9713 648.844 97.774 649.868 97.3793 650.722C96.9953 651.564 96.4673 652.215 95.7953 652.674C95.1233 653.122 94.3553 653.346 93.4913 653.346ZM93.4913 652.29C94.1526 652.29 94.7286 652.114 95.2193 651.762C95.71 651.399 96.094 650.876 96.3713 650.194C96.6486 649.5 96.7873 648.652 96.7873 647.65C96.7873 646.647 96.6486 645.804 96.3713 645.122C96.094 644.428 95.71 643.906 95.2193 643.554C94.7286 643.191 94.1526 643.01 93.4913 643.01C92.8513 643.01 92.2806 643.191 91.7793 643.554C91.278 643.906 90.8886 644.428 90.6113 645.122C90.334 645.804 90.1953 646.647 90.1953 647.65C90.1953 648.652 90.334 649.5 90.6113 650.194C90.8886 650.876 91.278 651.399 91.7793 651.762C92.2806 652.114 92.8513 652.29 93.4913 652.29ZM99.4131 653.25V652.434L104.069 647.874C104.496 647.458 104.816 647.095 105.029 646.786C105.242 646.466 105.386 646.167 105.461 645.89C105.536 645.612 105.573 645.351 105.573 645.106C105.573 644.455 105.349 643.943 104.901 643.57C104.464 643.196 103.813 643.01 102.949 643.01C102.288 643.01 101.701 643.111 101.189 643.314C100.688 643.516 100.256 643.831 99.8931 644.258L99.0771 643.554C99.5144 643.042 100.074 642.647 100.757 642.37C101.44 642.092 102.202 641.954 103.045 641.954C103.802 641.954 104.458 642.076 105.013 642.322C105.568 642.556 105.994 642.903 106.293 643.362C106.602 643.82 106.757 644.359 106.757 644.978C106.757 645.34 106.704 645.698 106.597 646.05C106.501 646.402 106.32 646.775 106.053 647.17C105.797 647.554 105.418 647.991 104.917 648.482L100.645 652.674L100.325 652.226H107.269V653.25H99.4131ZM108.163 650.306V649.474L114.099 642.05H115.379L109.491 649.474L108.867 649.282H117.875V650.306H108.163ZM114.483 653.25V650.306L114.515 649.282V646.69H115.635V653.25H114.483Z" fill="#222222"/>
<circle cx="25.5" cy="636.25" r="23" fill="white" stroke="#FD7E14" stroke-width="4"/>
<path d="M1053.35 630.25V616.25H1059.41C1060.66 616.25 1061.74 616.456 1062.65 616.87C1063.56 617.27 1064.26 617.85 1064.75 618.61C1065.24 619.37 1065.49 620.276 1065.49 621.33C1065.49 622.37 1065.24 623.27 1064.75 624.03C1064.26 624.79 1063.56 625.376 1062.65 625.79C1061.74 626.19 1060.66 626.39 1059.41 626.39H1055.15L1056.59 624.93V630.25H1053.35ZM1056.59 625.29L1055.15 623.75H1059.23C1060.23 623.75 1060.98 623.536 1061.47 623.11C1061.96 622.683 1062.21 622.09 1062.21 621.33C1062.21 620.556 1061.96 619.956 1061.47 619.53C1060.98 619.103 1060.23 618.89 1059.23 618.89H1055.15L1056.59 617.35V625.29ZM1073.73 630.25V628.15L1073.53 627.69V623.93C1073.53 623.263 1073.32 622.743 1072.91 622.37C1072.51 621.996 1071.89 621.81 1071.05 621.81C1070.48 621.81 1069.91 621.903 1069.35 622.09C1068.8 622.263 1068.34 622.503 1067.95 622.81L1066.83 620.63C1067.42 620.216 1068.12 619.896 1068.95 619.67C1069.78 619.443 1070.62 619.33 1071.47 619.33C1073.11 619.33 1074.38 619.716 1075.29 620.49C1076.2 621.263 1076.65 622.47 1076.65 624.11V630.25H1073.73ZM1070.45 630.41C1069.61 630.41 1068.89 630.27 1068.29 629.99C1067.69 629.696 1067.23 629.303 1066.91 628.81C1066.59 628.316 1066.43 627.763 1066.43 627.15C1066.43 626.51 1066.58 625.95 1066.89 625.47C1067.21 624.99 1067.71 624.616 1068.39 624.35C1069.07 624.07 1069.96 623.93 1071.05 623.93H1073.91V625.75H1071.39C1070.66 625.75 1070.15 625.87 1069.87 626.11C1069.6 626.35 1069.47 626.65 1069.47 627.01C1069.47 627.41 1069.62 627.73 1069.93 627.97C1070.25 628.196 1070.68 628.31 1071.23 628.31C1071.75 628.31 1072.22 628.19 1072.63 627.95C1073.04 627.696 1073.34 627.33 1073.53 626.85L1074.01 628.29C1073.78 628.983 1073.37 629.51 1072.77 629.87C1072.17 630.23 1071.4 630.41 1070.45 630.41ZM1082.9 630.45C1082.08 630.45 1081.25 630.363 1080.42 630.19C1079.61 630.016 1078.86 629.756 1078.16 629.41L1079 627.23C1079.55 627.496 1080.14 627.703 1080.78 627.85C1081.44 627.983 1082.1 628.05 1082.76 628.05C1083.24 628.05 1083.66 628.003 1084 627.91C1084.36 627.803 1084.64 627.656 1084.82 627.47C1085.01 627.283 1085.1 627.056 1085.1 626.79C1085.1 626.443 1084.96 626.183 1084.66 626.01C1084.37 625.823 1083.94 625.73 1083.38 625.73H1081.18V623.79H1083.12C1083.48 623.79 1083.79 623.75 1084.04 623.67C1084.3 623.59 1084.48 623.476 1084.6 623.33C1084.74 623.17 1084.8 622.983 1084.8 622.77C1084.8 622.543 1084.72 622.35 1084.56 622.19C1084.4 622.03 1084.17 621.91 1083.86 621.83C1083.56 621.736 1083.17 621.69 1082.7 621.69C1082.17 621.69 1081.62 621.756 1081.04 621.89C1080.47 622.01 1079.88 622.19 1079.28 622.43L1078.52 620.27C1079.23 619.976 1079.93 619.743 1080.62 619.57C1081.32 619.396 1082 619.303 1082.68 619.29C1083.68 619.263 1084.58 619.37 1085.38 619.61C1086.18 619.85 1086.81 620.196 1087.26 620.65C1087.73 621.103 1087.96 621.656 1087.96 622.31C1087.96 622.83 1087.8 623.296 1087.48 623.71C1087.18 624.123 1086.75 624.45 1086.2 624.69C1085.66 624.916 1085.04 625.03 1084.36 625.03L1084.44 624.41C1085.63 624.41 1086.56 624.65 1087.24 625.13C1087.92 625.596 1088.26 626.236 1088.26 627.05C1088.26 627.743 1088.02 628.35 1087.54 628.87C1087.08 629.376 1086.44 629.77 1085.62 630.05C1084.82 630.316 1083.92 630.45 1082.9 630.45ZM1090.49 630.25V619.49H1095.99C1097.34 619.49 1098.39 619.736 1099.15 620.23C1099.91 620.71 1100.29 621.39 1100.29 622.27C1100.29 623.15 1099.93 623.843 1099.21 624.35C1098.51 624.843 1097.57 625.09 1096.39 625.09L1096.71 624.37C1098.02 624.37 1098.99 624.61 1099.63 625.09C1100.29 625.57 1100.61 626.27 1100.61 627.19C1100.61 628.136 1100.25 628.883 1099.53 629.43C1098.81 629.976 1097.71 630.25 1096.23 630.25H1090.49ZM1093.35 628.13H1095.97C1096.55 628.13 1096.97 628.036 1097.25 627.85C1097.55 627.65 1097.69 627.35 1097.69 626.95C1097.69 626.536 1097.56 626.236 1097.29 626.05C1097.03 625.85 1096.61 625.75 1096.03 625.75H1093.35V628.13ZM1093.35 623.91H1095.71C1096.26 623.91 1096.67 623.81 1096.93 623.61C1097.21 623.41 1097.35 623.123 1097.35 622.75C1097.35 622.363 1097.21 622.076 1096.93 621.89C1096.67 621.703 1096.26 621.61 1095.71 621.61H1093.35V623.91ZM1102.94 630.25V619.49H1106.04V625.89L1111.28 619.49H1114.14V630.25H1111.04V623.85L1105.82 630.25H1102.94ZM1119.43 630.25V621.33L1120.13 622.05H1115.79V619.49H1126.17V622.05H1121.83L1122.53 621.33V630.25H1119.43ZM1127.84 630.25V619.49H1130.94V625.89L1136.18 619.49H1139.04V630.25H1135.94V623.85L1130.72 630.25H1127.84ZM1147.3 630.41C1146.07 630.41 1144.99 630.17 1144.06 629.69C1143.14 629.21 1142.42 628.556 1141.92 627.73C1141.41 626.89 1141.16 625.936 1141.16 624.87C1141.16 623.79 1141.4 622.836 1141.9 622.01C1142.4 621.17 1143.09 620.516 1143.96 620.05C1144.82 619.57 1145.8 619.33 1146.9 619.33C1147.95 619.33 1148.9 619.556 1149.74 620.01C1150.59 620.45 1151.26 621.09 1151.76 621.93C1152.25 622.756 1152.5 623.75 1152.5 624.91C1152.5 625.03 1152.49 625.17 1152.48 625.33C1152.46 625.476 1152.45 625.616 1152.44 625.75H1143.7V623.93H1150.8L1149.6 624.47C1149.6 623.91 1149.48 623.423 1149.26 623.01C1149.03 622.596 1148.72 622.276 1148.32 622.05C1147.92 621.81 1147.45 621.69 1146.92 621.69C1146.38 621.69 1145.91 621.81 1145.5 622.05C1145.1 622.276 1144.78 622.603 1144.56 623.03C1144.33 623.443 1144.22 623.936 1144.22 624.51V624.99C1144.22 625.576 1144.34 626.096 1144.6 626.55C1144.86 626.99 1145.23 627.33 1145.7 627.57C1146.18 627.796 1146.74 627.91 1147.38 627.91C1147.95 627.91 1148.45 627.823 1148.88 627.65C1149.32 627.476 1149.72 627.216 1150.08 626.87L1151.74 628.67C1151.24 629.23 1150.62 629.663 1149.88 629.97C1149.13 630.263 1148.27 630.41 1147.3 630.41Z" fill="#222222"/>
<path d="M1094.46 652.346C1093.62 652.346 1092.84 652.207 1092.11 651.93C1091.4 651.642 1090.77 651.242 1090.24 650.73C1089.72 650.207 1089.3 649.604 1089.01 648.922C1088.72 648.228 1088.57 647.471 1088.57 646.65C1088.57 645.828 1088.72 645.076 1089.01 644.394C1089.3 643.7 1089.72 643.098 1090.24 642.586C1090.77 642.063 1091.4 641.663 1092.11 641.386C1092.82 641.098 1093.61 640.954 1094.46 640.954C1095.3 640.954 1096.08 641.098 1096.8 641.386C1097.51 641.663 1098.13 642.058 1098.65 642.57C1099.19 643.082 1099.6 643.684 1099.89 644.378C1100.18 645.071 1100.33 645.828 1100.33 646.65C1100.33 647.471 1100.18 648.228 1099.89 648.922C1099.6 649.615 1099.19 650.218 1098.65 650.73C1098.13 651.242 1097.51 651.642 1096.8 651.93C1096.08 652.207 1095.3 652.346 1094.46 652.346ZM1098.13 654.474C1097.78 654.474 1097.45 654.431 1097.13 654.346C1096.81 654.26 1096.49 654.122 1096.16 653.93C1095.84 653.748 1095.51 653.508 1095.17 653.21C1094.82 652.911 1094.45 652.548 1094.05 652.122L1095.34 651.802C1095.67 652.196 1095.99 652.522 1096.3 652.778C1096.62 653.034 1096.93 653.22 1097.23 653.338C1097.54 653.466 1097.84 653.53 1098.14 653.53C1098.97 653.53 1099.68 653.188 1100.27 652.506L1100.85 653.194C1100.14 654.047 1099.24 654.474 1098.13 654.474ZM1094.46 651.29C1095.13 651.29 1095.75 651.178 1096.32 650.954C1096.89 650.719 1097.39 650.388 1097.81 649.962C1098.23 649.535 1098.56 649.044 1098.8 648.49C1099.03 647.924 1099.15 647.311 1099.15 646.65C1099.15 645.978 1099.03 645.364 1098.8 644.81C1098.56 644.244 1098.23 643.754 1097.81 643.338C1097.39 642.911 1096.89 642.586 1096.32 642.362C1095.75 642.127 1095.13 642.01 1094.46 642.01C1093.79 642.01 1093.17 642.127 1092.59 642.362C1092.01 642.586 1091.51 642.911 1091.09 643.338C1090.67 643.754 1090.34 644.244 1090.09 644.81C1089.86 645.364 1089.74 645.978 1089.74 646.65C1089.74 647.311 1089.86 647.924 1090.09 648.49C1090.34 649.044 1090.67 649.535 1091.09 649.962C1091.51 650.388 1092.01 650.719 1092.59 650.954C1093.17 651.178 1093.79 651.29 1094.46 651.29ZM1101.63 652.25V651.434L1106.29 646.874C1106.71 646.458 1107.03 646.095 1107.25 645.786C1107.46 645.466 1107.61 645.167 1107.68 644.89C1107.75 644.612 1107.79 644.351 1107.79 644.106C1107.79 643.455 1107.57 642.943 1107.12 642.57C1106.68 642.196 1106.03 642.01 1105.17 642.01C1104.51 642.01 1103.92 642.111 1103.41 642.314C1102.91 642.516 1102.47 642.831 1102.11 643.258L1101.3 642.554C1101.73 642.042 1102.29 641.647 1102.98 641.37C1103.66 641.092 1104.42 640.954 1105.26 640.954C1106.02 640.954 1106.68 641.076 1107.23 641.322C1107.79 641.556 1108.21 641.903 1108.51 642.362C1108.82 642.82 1108.98 643.359 1108.98 643.978C1108.98 644.34 1108.92 644.698 1108.82 645.05C1108.72 645.402 1108.54 645.775 1108.27 646.17C1108.02 646.554 1107.64 646.991 1107.14 647.482L1102.86 651.674L1102.54 651.226H1109.49V652.25H1101.63ZM1114.91 652.25V651.434L1119.57 646.874C1120 646.458 1120.32 646.095 1120.53 645.786C1120.74 645.466 1120.89 645.167 1120.96 644.89C1121.04 644.612 1121.07 644.351 1121.07 644.106C1121.07 643.455 1120.85 642.943 1120.4 642.57C1119.96 642.196 1119.31 642.01 1118.45 642.01C1117.79 642.01 1117.2 642.111 1116.69 642.314C1116.19 642.516 1115.76 642.831 1115.39 643.258L1114.58 642.554C1115.01 642.042 1115.57 641.647 1116.26 641.37C1116.94 641.092 1117.7 640.954 1118.55 640.954C1119.3 640.954 1119.96 641.076 1120.51 641.322C1121.07 641.556 1121.49 641.903 1121.79 642.362C1122.1 642.82 1122.26 643.359 1122.26 643.978C1122.26 644.34 1122.2 644.698 1122.1 645.05C1122 645.402 1121.82 645.775 1121.55 646.17C1121.3 646.554 1120.92 646.991 1120.42 647.482L1116.15 651.674L1115.83 651.226H1122.77V652.25H1114.91ZM1128.65 652.346C1127.78 652.346 1127.02 652.122 1126.34 651.674C1125.67 651.215 1125.14 650.564 1124.76 649.722C1124.38 648.868 1124.18 647.844 1124.18 646.65C1124.18 645.455 1124.38 644.436 1124.76 643.594C1125.14 642.74 1125.67 642.09 1126.34 641.642C1127.02 641.183 1127.78 640.954 1128.65 640.954C1129.51 640.954 1130.28 641.183 1130.95 641.642C1131.62 642.09 1132.15 642.74 1132.54 643.594C1132.93 644.436 1133.13 645.455 1133.13 646.65C1133.13 647.844 1132.93 648.868 1132.54 649.722C1132.15 650.564 1131.62 651.215 1130.95 651.674C1130.28 652.122 1129.51 652.346 1128.65 652.346ZM1128.65 651.29C1129.31 651.29 1129.88 651.114 1130.38 650.762C1130.87 650.399 1131.25 649.876 1131.53 649.194C1131.8 648.5 1131.94 647.652 1131.94 646.65C1131.94 645.647 1131.8 644.804 1131.53 644.122C1131.25 643.428 1130.87 642.906 1130.38 642.554C1129.88 642.191 1129.31 642.01 1128.65 642.01C1128.01 642.01 1127.44 642.191 1126.94 642.554C1126.43 642.906 1126.04 643.428 1125.77 644.122C1125.49 644.804 1125.35 645.647 1125.35 646.65C1125.35 647.652 1125.49 648.5 1125.77 649.194C1126.04 649.876 1126.43 650.399 1126.94 650.762C1127.44 651.114 1128.01 651.29 1128.65 651.29ZM1134.57 652.25V651.434L1139.23 646.874C1139.65 646.458 1139.97 646.095 1140.19 645.786C1140.4 645.466 1140.54 645.167 1140.62 644.89C1140.69 644.612 1140.73 644.351 1140.73 644.106C1140.73 643.455 1140.51 642.943 1140.06 642.57C1139.62 642.196 1138.97 642.01 1138.11 642.01C1137.44 642.01 1136.86 642.111 1136.35 642.314C1135.84 642.516 1135.41 642.831 1135.05 643.258L1134.23 642.554C1134.67 642.042 1135.23 641.647 1135.91 641.37C1136.6 641.092 1137.36 640.954 1138.2 640.954C1138.96 640.954 1139.61 641.076 1140.17 641.322C1140.72 641.556 1141.15 641.903 1141.45 642.362C1141.76 642.82 1141.91 643.359 1141.91 643.978C1141.91 644.34 1141.86 644.698 1141.75 645.05C1141.66 645.402 1141.48 645.775 1141.21 646.17C1140.95 646.554 1140.57 646.991 1140.07 647.482L1135.8 651.674L1135.48 651.226H1142.43V652.25H1134.57ZM1143.32 649.306V648.474L1149.26 641.05H1150.54L1144.65 648.474L1144.02 648.282H1153.03V649.306H1143.32ZM1149.64 652.25V649.306L1149.67 648.282V645.69H1150.79V652.25H1149.64Z" fill="#222222"/>
<circle cx="1187.5" cy="636.25" r="23" fill="white" stroke="#FD7E14" stroke-width="4"/>
<path d="M68.8684 25.2495L64.5084 18.5095L67.1284 16.9295L72.5484 25.2495H68.8684ZM59.7684 25.2495V11.2495H62.9884V25.2495H59.7684ZM62.0484 19.6095V16.9095H66.9284V19.6095H62.0484ZM67.4284 18.6095L64.4484 18.2495L68.9884 11.2495H72.4084L67.4284 18.6095ZM78.7099 25.4095C77.5633 25.4095 76.5433 25.1695 75.6499 24.6895C74.7699 24.2095 74.0699 23.5562 73.5499 22.7295C73.0433 21.8895 72.7899 20.9362 72.7899 19.8695C72.7899 18.7895 73.0433 17.8362 73.5499 17.0095C74.0699 16.1695 74.7699 15.5162 75.6499 15.0495C76.5433 14.5695 77.5633 14.3295 78.7099 14.3295C79.8433 14.3295 80.8566 14.5695 81.7499 15.0495C82.6433 15.5162 83.3433 16.1628 83.8499 16.9895C84.3566 17.8162 84.6099 18.7762 84.6099 19.8695C84.6099 20.9362 84.3566 21.8895 83.8499 22.7295C83.3433 23.5562 82.6433 24.2095 81.7499 24.6895C80.8566 25.1695 79.8433 25.4095 78.7099 25.4095ZM78.7099 22.8495C79.2299 22.8495 79.6966 22.7295 80.1099 22.4895C80.5233 22.2495 80.8499 21.9095 81.0899 21.4695C81.3299 21.0162 81.4499 20.4828 81.4499 19.8695C81.4499 19.2428 81.3299 18.7095 81.0899 18.2695C80.8499 17.8295 80.5233 17.4895 80.1099 17.2495C79.6966 17.0095 79.2299 16.8895 78.7099 16.8895C78.1899 16.8895 77.7233 17.0095 77.3099 17.2495C76.8966 17.4895 76.5633 17.8295 76.3099 18.2695C76.0699 18.7095 75.9499 19.2428 75.9499 19.8695C75.9499 20.4828 76.0699 21.0162 76.3099 21.4695C76.5633 21.9095 76.8966 22.2495 77.3099 22.4895C77.7233 22.7295 78.1899 22.8495 78.7099 22.8495ZM86.7559 25.2495V14.4895H89.8559V18.6895H94.5359V14.4895H97.6559V25.2495H94.5359V21.2295H89.8559V25.2495H86.7559ZM105.763 25.4095C104.603 25.4095 103.569 25.1762 102.663 24.7095C101.756 24.2295 101.043 23.5695 100.523 22.7295C100.016 21.8895 99.7626 20.9362 99.7626 19.8695C99.7626 18.7895 100.016 17.8362 100.523 17.0095C101.043 16.1695 101.756 15.5162 102.663 15.0495C103.569 14.5695 104.603 14.3295 105.763 14.3295C106.896 14.3295 107.883 14.5695 108.723 15.0495C109.563 15.5162 110.183 16.1895 110.583 17.0695L108.163 18.3695C107.883 17.8628 107.529 17.4895 107.103 17.2495C106.689 17.0095 106.236 16.8895 105.743 16.8895C105.209 16.8895 104.729 17.0095 104.303 17.2495C103.876 17.4895 103.536 17.8295 103.283 18.2695C103.043 18.7095 102.923 19.2428 102.923 19.8695C102.923 20.4962 103.043 21.0295 103.283 21.4695C103.536 21.9095 103.876 22.2495 104.303 22.4895C104.729 22.7295 105.209 22.8495 105.743 22.8495C106.236 22.8495 106.689 22.7362 107.103 22.5095C107.529 22.2695 107.883 21.8895 108.163 21.3695L110.583 22.6895C110.183 23.5562 109.563 24.2295 108.723 24.7095C107.883 25.1762 106.896 25.4095 105.763 25.4095ZM118.919 25.2495V23.1495L118.719 22.6895V18.9295C118.719 18.2628 118.512 17.7428 118.099 17.3695C117.699 16.9962 117.079 16.8095 116.239 16.8095C115.665 16.8095 115.099 16.9028 114.539 17.0895C113.992 17.2628 113.525 17.5028 113.139 17.8095L112.019 15.6295C112.605 15.2162 113.312 14.8962 114.139 14.6695C114.965 14.4428 115.805 14.3295 116.659 14.3295C118.299 14.3295 119.572 14.7162 120.479 15.4895C121.385 16.2628 121.839 17.4695 121.839 19.1095V25.2495H118.919ZM115.639 25.4095C114.799 25.4095 114.079 25.2695 113.479 24.9895C112.879 24.6962 112.419 24.3028 112.099 23.8095C111.779 23.3162 111.619 22.7628 111.619 22.1495C111.619 21.5095 111.772 20.9495 112.079 20.4695C112.399 19.9895 112.899 19.6162 113.579 19.3495C114.259 19.0695 115.145 18.9295 116.239 18.9295H119.099V20.7495H116.579C115.845 20.7495 115.339 20.8695 115.059 21.1095C114.792 21.3495 114.659 21.6495 114.659 22.0095C114.659 22.4095 114.812 22.7295 115.119 22.9695C115.439 23.1962 115.872 23.3095 116.419 23.3095C116.939 23.3095 117.405 23.1895 117.819 22.9495C118.232 22.6962 118.532 22.3295 118.719 21.8495L119.199 23.2895C118.972 23.9828 118.559 24.5095 117.959 24.8695C117.359 25.2295 116.585 25.4095 115.639 25.4095ZM123.189 25.2295L123.349 22.6695C123.429 22.6828 123.509 22.6962 123.589 22.7095C123.669 22.7095 123.742 22.7095 123.809 22.7095C124.182 22.7095 124.475 22.6028 124.689 22.3895C124.902 22.1762 125.062 21.8895 125.169 21.5295C125.275 21.1562 125.349 20.7362 125.389 20.2695C125.442 19.8028 125.482 19.3162 125.509 18.8095L125.669 14.4895H134.869V25.2495H131.749V16.2895L132.449 17.0495H127.729L128.389 16.2495L128.249 18.9495C128.209 19.9095 128.129 20.7895 128.009 21.5895C127.902 22.3895 127.722 23.0828 127.469 23.6695C127.215 24.2428 126.875 24.6895 126.449 25.0095C126.022 25.3162 125.475 25.4695 124.809 25.4695C124.569 25.4695 124.315 25.4495 124.049 25.4095C123.782 25.3695 123.495 25.3095 123.189 25.2295ZM140.169 25.2495V16.3295L140.869 17.0495H136.529V14.4895H146.909V17.0495H142.569L143.269 16.3295V25.2495H140.169ZM148.572 25.2495V14.4895H151.672V20.8895L156.912 14.4895H159.772V25.2495H156.672V18.8495L151.452 25.2495H148.572ZM162.771 25.2495V14.4895H165.871V18.6895H170.551V14.4895H173.671V25.2495H170.551V21.2295H165.871V25.2495H162.771ZM176.658 25.2495V14.4895H185.278V17.0495H179.058L179.758 16.3695V25.2495H176.658Z" fill="#222222"/>
<path d="M64.9622 50.3455C64.1195 50.3455 63.3355 50.2068 62.6102 49.9295C61.8955 49.6415 61.2715 49.2415 60.7382 48.7295C60.2155 48.2068 59.8049 47.6042 59.5062 46.9215C59.2182 46.2282 59.0742 45.4708 59.0742 44.6495C59.0742 43.8282 59.2182 43.0762 59.5062 42.3935C59.8049 41.7002 60.2155 41.0975 60.7382 40.5855C61.2715 40.0628 61.8955 39.6628 62.6102 39.3855C63.3249 39.0975 64.1089 38.9535 64.9622 38.9535C65.8049 38.9535 66.5835 39.0975 67.2982 39.3855C68.0129 39.6628 68.6315 40.0575 69.1542 40.5695C69.6875 41.0815 70.0982 41.6842 70.3862 42.3775C70.6849 43.0708 70.8342 43.8282 70.8342 44.6495C70.8342 45.4708 70.6849 46.2282 70.3862 46.9215C70.0982 47.6148 69.6875 48.2175 69.1542 48.7295C68.6315 49.2415 68.0129 49.6415 67.2982 49.9295C66.5835 50.2068 65.8049 50.3455 64.9622 50.3455ZM68.6262 52.4735C68.2849 52.4735 67.9542 52.4308 67.6342 52.3455C67.3142 52.2602 66.9889 52.1215 66.6582 51.9295C66.3382 51.7482 66.0075 51.5082 65.6662 51.2095C65.3249 50.9108 64.9515 50.5482 64.5462 50.1215L65.8422 49.8015C66.1729 50.1962 66.4929 50.5215 66.8022 50.7775C67.1222 51.0335 67.4315 51.2202 67.7302 51.3375C68.0395 51.4655 68.3435 51.5295 68.6422 51.5295C69.4742 51.5295 70.1835 51.1882 70.7702 50.5055L71.3462 51.1935C70.6422 52.0468 69.7355 52.4735 68.6262 52.4735ZM64.9622 49.2895C65.6342 49.2895 66.2529 49.1775 66.8182 48.9535C67.3942 48.7188 67.8902 48.3882 68.3062 47.9615C68.7329 47.5348 69.0635 47.0442 69.2982 46.4895C69.5329 45.9242 69.6502 45.3108 69.6502 44.6495C69.6502 43.9775 69.5329 43.3642 69.2982 42.8095C69.0635 42.2442 68.7329 41.7535 68.3062 41.3375C67.8902 40.9108 67.3942 40.5855 66.8182 40.3615C66.2529 40.1268 65.6342 40.0095 64.9622 40.0095C64.2902 40.0095 63.6662 40.1268 63.0902 40.3615C62.5142 40.5855 62.0129 40.9108 61.5862 41.3375C61.1702 41.7535 60.8395 42.2442 60.5942 42.8095C60.3595 43.3642 60.2422 43.9775 60.2422 44.6495C60.2422 45.3108 60.3595 45.9242 60.5942 46.4895C60.8395 47.0442 61.1702 47.5348 61.5862 47.9615C62.0129 48.3882 62.5142 48.7188 63.0902 48.9535C63.6662 49.1775 64.2902 49.2895 64.9622 49.2895ZM74.2918 50.2495V39.5295L74.8038 40.0735H71.6518V39.0495H75.4438V50.2495H74.2918ZM82.1006 50.2495V49.4335L86.7566 44.8735C87.1832 44.4575 87.5032 44.0948 87.7166 43.7855C87.9299 43.4655 88.0739 43.1668 88.1486 42.8895C88.2232 42.6122 88.2606 42.3508 88.2606 42.1055C88.2606 41.4548 88.0366 40.9428 87.5886 40.5695C87.1512 40.1962 86.5006 40.0095 85.6366 40.0095C84.9752 40.0095 84.3886 40.1108 83.8766 40.3135C83.3752 40.5162 82.9432 40.8308 82.5806 41.2575L81.7646 40.5535C82.2019 40.0415 82.7619 39.6468 83.4446 39.3695C84.1272 39.0922 84.8899 38.9535 85.7326 38.9535C86.4899 38.9535 87.1459 39.0762 87.7006 39.3215C88.2552 39.5562 88.6819 39.9028 88.9806 40.3615C89.2899 40.8202 89.4446 41.3588 89.4446 41.9775C89.4446 42.3402 89.3912 42.6975 89.2846 43.0495C89.1886 43.4015 89.0072 43.7748 88.7406 44.1695C88.4846 44.5535 88.1059 44.9908 87.6046 45.4815L83.3326 49.6735L83.0126 49.2255H89.9566V50.2495H82.1006ZM95.8351 50.3455C94.9711 50.3455 94.2031 50.1215 93.5311 49.6735C92.8591 49.2148 92.3311 48.5642 91.9471 47.7215C91.5631 46.8682 91.3711 45.8442 91.3711 44.6495C91.3711 43.4548 91.5631 42.4362 91.9471 41.5935C92.3311 40.7402 92.8591 40.0895 93.5311 39.6415C94.2031 39.1828 94.9711 38.9535 95.8351 38.9535C96.6991 38.9535 97.4671 39.1828 98.1391 39.6415C98.8111 40.0895 99.3391 40.7402 99.7231 41.5935C100.118 42.4362 100.315 43.4548 100.315 44.6495C100.315 45.8442 100.118 46.8682 99.7231 47.7215C99.3391 48.5642 98.8111 49.2148 98.1391 49.6735C97.4671 50.1215 96.6991 50.3455 95.8351 50.3455ZM95.8351 49.2895C96.4964 49.2895 97.0724 49.1135 97.5631 48.7615C98.0537 48.3988 98.4377 47.8762 98.7151 47.1935C98.9924 46.5002 99.1311 45.6522 99.1311 44.6495C99.1311 43.6468 98.9924 42.8042 98.7151 42.1215C98.4377 41.4282 98.0537 40.9055 97.5631 40.5535C97.0724 40.1908 96.4964 40.0095 95.8351 40.0095C95.1951 40.0095 94.6244 40.1908 94.1231 40.5535C93.6217 40.9055 93.2324 41.4282 92.9551 42.1215C92.6777 42.8042 92.5391 43.6468 92.5391 44.6495C92.5391 45.6522 92.6777 46.5002 92.9551 47.1935C93.2324 47.8762 93.6217 48.3988 94.1231 48.7615C94.6244 49.1135 95.1951 49.2895 95.8351 49.2895ZM101.757 50.2495V49.4335L106.413 44.8735C106.839 44.4575 107.159 44.0948 107.373 43.7855C107.586 43.4655 107.73 43.1668 107.805 42.8895C107.879 42.6122 107.917 42.3508 107.917 42.1055C107.917 41.4548 107.693 40.9428 107.245 40.5695C106.807 40.1962 106.157 40.0095 105.293 40.0095C104.631 40.0095 104.045 40.1108 103.533 40.3135C103.031 40.5162 102.599 40.8308 102.237 41.2575L101.421 40.5535C101.858 40.0415 102.418 39.6468 103.101 39.3695C103.783 39.0922 104.546 38.9535 105.389 38.9535C106.146 38.9535 106.802 39.0762 107.357 39.3215C107.911 39.5562 108.338 39.9028 108.637 40.3615C108.946 40.8202 109.101 41.3588 109.101 41.9775C109.101 42.3402 109.047 42.6975 108.941 43.0495C108.845 43.4015 108.663 43.7748 108.397 44.1695C108.141 44.5535 107.762 44.9908 107.261 45.4815L102.989 49.6735L102.669 49.2255H109.613V50.2495H101.757ZM114.403 50.3455C113.592 50.3455 112.824 50.2175 112.099 49.9615C111.384 49.6948 110.808 49.3428 110.371 48.9055L110.931 47.9935C111.293 48.3668 111.779 48.6762 112.387 48.9215C113.005 49.1668 113.677 49.2895 114.403 49.2895C115.331 49.2895 116.04 49.0868 116.531 48.6815C117.032 48.2762 117.283 47.7322 117.283 47.0495C117.283 46.3668 117.037 45.8228 116.547 45.4175C116.067 45.0122 115.304 44.8095 114.259 44.8095H113.459V43.9615L116.915 39.6255L117.075 40.0735H110.835V39.0495H118.035V39.8655L114.579 44.2015L114.019 43.8335H114.451C115.795 43.8335 116.797 44.1322 117.459 44.7295C118.131 45.3268 118.467 46.0948 118.467 47.0335C118.467 47.6628 118.317 48.2282 118.019 48.7295C117.72 49.2308 117.267 49.6255 116.659 49.9135C116.061 50.2015 115.309 50.3455 114.403 50.3455Z" fill="#222222"/>
<circle cx="25.5" cy="25.2495" r="23" fill="white" stroke="#F5BD00" stroke-width="4"/>
<path d="M36.0351 15.9254C37.1137 15.0242 38.8624 15.0242 39.941 15.9254C41.0064 16.8156 41.0195 18.252 39.9802 19.1556L25.2786 34.5102C25.2574 34.5324 25.2347 34.5535 25.2107 34.5736C24.1321 35.4748 22.3833 35.4748 21.3047 34.5736L11.559 26.4307C10.4803 25.5295 10.4803 24.0683 11.559 23.1671C12.6376 22.2659 14.3863 22.2659 15.4649 23.1671L23.1745 29.6087L35.9618 15.9944C35.9846 15.9702 36.009 15.9472 36.0351 15.9254Z" fill="#FD7E14"/>
<defs>
<linearGradient id="paint0_linear_102_74" x1="606.5" y1="30.2495" x2="606.5" y2="636.25" gradientUnits="userSpaceOnUse">
<stop stop-color="#F5BD00"/>
<stop offset="1" stop-color="#FD7E14"/>
</linearGradient>
<linearGradient id="paint1_linear_102_74" x1="557.5" y1="127.25" x2="557.5" y2="216.25" gradientUnits="userSpaceOnUse">
<stop stop-color="#F5BD00"/>
<stop offset="1" stop-color="#FD7E14"/>
</linearGradient>
<linearGradient id="paint2_linear_102_74" x1="655.5" y1="440.25" x2="655.5" y2="529.25" gradientUnits="userSpaceOnUse">
<stop stop-color="#F5BD00"/>
<stop offset="1" stop-color="#FD7E14"/>
</linearGradient>
</defs>
</svg>
