<svg width="311" height="649" viewBox="0 0 311 649" fill="none" xmlns="http://www.w3.org/2000/svg">
<path d="M10 21H271C287.569 21 301 34.4315 301 51V294C301 310.569 287.569 324 271 324H40C23.4315 324 10 337.431 10 354V597C10 613.569 23.4315 627 40 627H301" stroke="url(#paint0_linear_945_731)" stroke-width="4"/>
<path d="M10 118H253.75C266.038 118 276 127.962 276 140.25V140.25C276 152.538 266.038 162.5 253.75 162.5H32.25C19.9617 162.5 10 172.462 10 184.75V184.75C10 197.038 19.9617 207 32.25 207H276" stroke="url(#paint1_linear_945_731)"/>
<path d="M35 431H278.75C291.038 431 301 440.962 301 453.25V453.25C301 465.538 291.038 475.5 278.75 475.5H57.25C44.9617 475.5 35 485.462 35 497.75V497.75C35 510.038 44.9617 520 57.25 520H301" stroke="url(#paint2_linear_945_731)"/>
<path d="M180.218 37L177.166 32.282L179 31.176L182.794 37H180.218ZM173.848 37V27.2H176.102V37H173.848ZM175.444 33.052V31.162H178.86V33.052H175.444ZM179.21 32.352L177.124 32.1L180.302 27.2H182.696L179.21 32.352ZM188.304 37.112C187.67 37.112 187.114 36.972 186.638 36.692C186.162 36.412 185.789 35.9873 185.518 35.418C185.257 34.8393 185.126 34.1113 185.126 33.234C185.126 32.3473 185.252 31.6193 185.504 31.05C185.756 30.4807 186.12 30.056 186.596 29.776C187.072 29.496 187.642 29.356 188.304 29.356C189.014 29.356 189.648 29.5193 190.208 29.846C190.778 30.1633 191.226 30.6113 191.552 31.19C191.888 31.7687 192.056 32.45 192.056 33.234C192.056 34.0273 191.888 34.7133 191.552 35.292C191.226 35.8707 190.778 36.3187 190.208 36.636C189.648 36.9533 189.014 37.112 188.304 37.112ZM183.852 39.716V29.468H185.938V31.008L185.896 33.248L186.036 35.474V39.716H183.852ZM187.926 35.32C188.29 35.32 188.612 35.236 188.892 35.068C189.182 34.9 189.41 34.662 189.578 34.354C189.756 34.0367 189.844 33.6633 189.844 33.234C189.844 32.7953 189.756 32.422 189.578 32.114C189.41 31.806 189.182 31.568 188.892 31.4C188.612 31.232 188.29 31.148 187.926 31.148C187.562 31.148 187.236 31.232 186.946 31.4C186.657 31.568 186.428 31.806 186.26 32.114C186.092 32.422 186.008 32.7953 186.008 33.234C186.008 33.6633 186.092 34.0367 186.26 34.354C186.428 34.662 186.657 34.9 186.946 35.068C187.236 35.236 187.562 35.32 187.926 35.32ZM193.587 37V29.468H195.757V33.948L199.425 29.468H201.427V37H199.257V32.52L195.603 37H193.587ZM203.527 37V29.468H211.017V37H208.833V30.77L209.323 31.26H205.207L205.697 30.77V37H203.527ZM214.721 37V30.756L215.211 31.26H212.173V29.468H219.439V31.26H216.401L216.891 30.756V37H214.721ZM223.816 37.112C223.014 37.112 222.3 36.944 221.674 36.608C221.058 36.272 220.568 35.8147 220.204 35.236C219.85 34.648 219.672 33.9807 219.672 33.234C219.672 32.478 219.85 31.8107 220.204 31.232C220.568 30.644 221.058 30.1867 221.674 29.86C222.3 29.524 223.014 29.356 223.816 29.356C224.61 29.356 225.319 29.524 225.944 29.86C226.57 30.1867 227.06 30.6393 227.414 31.218C227.769 31.7967 227.946 32.4687 227.946 33.234C227.946 33.9807 227.769 34.648 227.414 35.236C227.06 35.8147 226.57 36.272 225.944 36.608C225.319 36.944 224.61 37.112 223.816 37.112ZM223.816 35.32C224.18 35.32 224.507 35.236 224.796 35.068C225.086 34.9 225.314 34.662 225.482 34.354C225.65 34.0367 225.734 33.6633 225.734 33.234C225.734 32.7953 225.65 32.422 225.482 32.114C225.314 31.806 225.086 31.568 224.796 31.4C224.507 31.232 224.18 31.148 223.816 31.148C223.452 31.148 223.126 31.232 222.836 31.4C222.547 31.568 222.314 31.806 222.136 32.114C221.968 32.422 221.884 32.7953 221.884 33.234C221.884 33.6633 221.968 34.0367 222.136 34.354C222.314 34.662 222.547 34.9 222.836 35.068C223.126 35.236 223.452 35.32 223.816 35.32ZM233.186 37.168C232.57 37.168 232.01 37.0793 231.506 36.902C231.002 36.7153 230.564 36.4307 230.19 36.048C229.826 35.656 229.542 35.1567 229.336 34.55C229.14 33.9433 229.042 33.22 229.042 32.38C229.042 31.7827 229.094 31.2367 229.196 30.742C229.299 30.2473 229.453 29.7993 229.658 29.398C229.864 28.9873 230.125 28.628 230.442 28.32C230.769 28.0027 231.147 27.7413 231.576 27.536C232.015 27.3213 232.51 27.158 233.06 27.046L236.644 26.332L236.938 28.208L233.774 28.838C233.588 28.8753 233.373 28.9267 233.13 28.992C232.897 29.048 232.659 29.1367 232.416 29.258C232.183 29.3793 231.964 29.552 231.758 29.776C231.562 29.9907 231.404 30.2753 231.282 30.63C231.161 30.9753 231.1 31.4047 231.1 31.918C231.1 32.0767 231.105 32.198 231.114 32.282C231.133 32.366 231.147 32.4547 231.156 32.548C231.175 32.6413 231.184 32.786 231.184 32.982L230.484 32.296C230.69 31.8573 230.951 31.484 231.268 31.176C231.595 30.868 231.968 30.6347 232.388 30.476C232.818 30.308 233.294 30.224 233.816 30.224C234.526 30.224 235.146 30.3687 235.678 30.658C236.22 30.938 236.64 31.3347 236.938 31.848C237.237 32.3613 237.386 32.9447 237.386 33.598C237.386 34.3073 237.209 34.9327 236.854 35.474C236.5 36.006 236.005 36.4213 235.37 36.72C234.745 37.0187 234.017 37.168 233.186 37.168ZM233.298 35.474C233.662 35.474 233.984 35.3947 234.264 35.236C234.544 35.068 234.759 34.8487 234.908 34.578C235.067 34.298 235.146 33.9853 235.146 33.64C235.146 33.304 235.067 33.0053 234.908 32.744C234.759 32.4827 234.544 32.2773 234.264 32.128C233.984 31.9787 233.658 31.904 233.284 31.904C232.92 31.904 232.594 31.9787 232.304 32.128C232.015 32.268 231.791 32.464 231.632 32.716C231.474 32.968 231.394 33.262 231.394 33.598C231.394 33.9433 231.474 34.2607 231.632 34.55C231.8 34.83 232.024 35.054 232.304 35.222C232.594 35.39 232.925 35.474 233.298 35.474ZM238.868 37V29.468H241.038V33.948L244.706 29.468H246.708V37H244.538V32.52L240.884 37H238.868ZM253.246 37.112C252.611 37.112 252.056 36.972 251.58 36.692C251.104 36.412 250.73 35.9873 250.46 35.418C250.198 34.8393 250.068 34.1113 250.068 33.234C250.068 32.3473 250.194 31.6193 250.446 31.05C250.698 30.4807 251.062 30.056 251.538 29.776C252.014 29.496 252.583 29.356 253.246 29.356C253.955 29.356 254.59 29.5193 255.15 29.846C255.719 30.1633 256.167 30.6113 256.494 31.19C256.83 31.7687 256.998 32.45 256.998 33.234C256.998 34.0273 256.83 34.7133 256.494 35.292C256.167 35.8707 255.719 36.3187 255.15 36.636C254.59 36.9533 253.955 37.112 253.246 37.112ZM248.794 39.716V29.468H250.88V31.008L250.838 33.248L250.978 35.474V39.716H248.794ZM252.868 35.32C253.232 35.32 253.554 35.236 253.834 35.068C254.123 34.9 254.352 34.662 254.52 34.354C254.697 34.0367 254.786 33.6633 254.786 33.234C254.786 32.7953 254.697 32.422 254.52 32.114C254.352 31.806 254.123 31.568 253.834 31.4C253.554 31.232 253.232 31.148 252.868 31.148C252.504 31.148 252.177 31.232 251.888 31.4C251.598 31.568 251.37 31.806 251.202 32.114C251.034 32.422 250.95 32.7953 250.95 33.234C250.95 33.6633 251.034 34.0367 251.202 34.354C251.37 34.662 251.598 34.9 251.888 35.068C252.177 35.236 252.504 35.32 252.868 35.32ZM267.354 37L265.352 33.43L267.116 32.38L269.944 37H267.354ZM264.064 34.144V32.394H266.682V34.144H264.064ZM267.34 33.486L265.282 33.262L267.452 29.468H269.762L267.34 33.486ZM259.906 37H257.33L260.144 32.38L261.908 33.43L259.906 37ZM264.708 37H262.552V29.468H264.708V37ZM263.196 34.144H260.592V32.394H263.196V34.144ZM259.92 33.486L257.498 29.468H259.808L261.964 33.262L259.92 33.486ZM275.451 37V35.53L275.311 35.208V32.576C275.311 32.1093 275.166 31.7453 274.877 31.484C274.597 31.2227 274.163 31.092 273.575 31.092C273.173 31.092 272.777 31.1573 272.385 31.288C272.002 31.4093 271.675 31.5773 271.405 31.792L270.621 30.266C271.031 29.9767 271.526 29.7527 272.105 29.594C272.683 29.4353 273.271 29.356 273.869 29.356C275.017 29.356 275.908 29.6267 276.543 30.168C277.177 30.7093 277.495 31.554 277.495 32.702V37H275.451ZM273.155 37.112C272.567 37.112 272.063 37.014 271.643 36.818C271.223 36.6127 270.901 36.3373 270.677 35.992C270.453 35.6467 270.341 35.2593 270.341 34.83C270.341 34.382 270.448 33.99 270.663 33.654C270.887 33.318 271.237 33.0567 271.713 32.87C272.189 32.674 272.809 32.576 273.575 32.576H275.577V33.85H273.813C273.299 33.85 272.945 33.934 272.749 34.102C272.562 34.27 272.469 34.48 272.469 34.732C272.469 35.012 272.576 35.236 272.791 35.404C273.015 35.5627 273.318 35.642 273.701 35.642C274.065 35.642 274.391 35.558 274.681 35.39C274.97 35.2127 275.18 34.956 275.311 34.62L275.647 35.628C275.488 36.1133 275.199 36.482 274.779 36.734C274.359 36.986 273.817 37.112 273.155 37.112Z" fill="#222222"/>
<path d="M220.056 16.096C219.213 16.096 218.429 15.9573 217.704 15.68C216.989 15.392 216.365 14.992 215.832 14.48C215.309 13.9573 214.899 13.3547 214.6 12.672C214.312 11.9787 214.168 11.2213 214.168 10.4C214.168 9.57867 214.312 8.82667 214.6 8.144C214.899 7.45067 215.309 6.848 215.832 6.336C216.365 5.81333 216.989 5.41333 217.704 5.136C218.419 4.848 219.203 4.704 220.056 4.704C220.899 4.704 221.677 4.848 222.392 5.136C223.107 5.41333 223.725 5.808 224.248 6.32C224.781 6.832 225.192 7.43467 225.48 8.128C225.779 8.82133 225.928 9.57867 225.928 10.4C225.928 11.2213 225.779 11.9787 225.48 12.672C225.192 13.3653 224.781 13.968 224.248 14.48C223.725 14.992 223.107 15.392 222.392 15.68C221.677 15.9573 220.899 16.096 220.056 16.096ZM223.72 18.224C223.379 18.224 223.048 18.1813 222.728 18.096C222.408 18.0107 222.083 17.872 221.752 17.68C221.432 17.4987 221.101 17.2587 220.76 16.96C220.419 16.6613 220.045 16.2987 219.64 15.872L220.936 15.552C221.267 15.9467 221.587 16.272 221.896 16.528C222.216 16.784 222.525 16.9707 222.824 17.088C223.133 17.216 223.437 17.28 223.736 17.28C224.568 17.28 225.277 16.9387 225.864 16.256L226.44 16.944C225.736 17.7973 224.829 18.224 223.72 18.224ZM220.056 15.04C220.728 15.04 221.347 14.928 221.912 14.704C222.488 14.4693 222.984 14.1387 223.4 13.712C223.827 13.2853 224.157 12.7947 224.392 12.24C224.627 11.6747 224.744 11.0613 224.744 10.4C224.744 9.728 224.627 9.11467 224.392 8.56C224.157 7.99467 223.827 7.504 223.4 7.088C222.984 6.66133 222.488 6.336 221.912 6.112C221.347 5.87733 220.728 5.76 220.056 5.76C219.384 5.76 218.76 5.87733 218.184 6.112C217.608 6.336 217.107 6.66133 216.68 7.088C216.264 7.504 215.933 7.99467 215.688 8.56C215.453 9.11467 215.336 9.728 215.336 10.4C215.336 11.0613 215.453 11.6747 215.688 12.24C215.933 12.7947 216.264 13.2853 216.68 13.712C217.107 14.1387 217.608 14.4693 218.184 14.704C218.76 14.928 219.384 15.04 220.056 15.04ZM227.226 16V15.184L231.882 10.624C232.308 10.208 232.628 9.84533 232.842 9.536C233.055 9.216 233.199 8.91733 233.274 8.64C233.348 8.36267 233.386 8.10133 233.386 7.856C233.386 7.20533 233.162 6.69333 232.714 6.32C232.276 5.94667 231.626 5.76 230.762 5.76C230.1 5.76 229.514 5.86133 229.002 6.064C228.5 6.26667 228.068 6.58133 227.706 7.008L226.89 6.304C227.327 5.792 227.887 5.39733 228.57 5.12C229.252 4.84267 230.015 4.704 230.858 4.704C231.615 4.704 232.271 4.82667 232.826 5.072C233.38 5.30667 233.807 5.65333 234.106 6.112C234.415 6.57067 234.57 7.10933 234.57 7.728C234.57 8.09067 234.516 8.448 234.41 8.8C234.314 9.152 234.132 9.52533 233.866 9.92C233.61 10.304 233.231 10.7413 232.73 11.232L228.458 15.424L228.138 14.976H235.082V16H227.226ZM240.507 16V15.184L245.163 10.624C245.589 10.208 245.909 9.84533 246.123 9.536C246.336 9.216 246.48 8.91733 246.555 8.64C246.629 8.36267 246.667 8.10133 246.667 7.856C246.667 7.20533 246.443 6.69333 245.995 6.32C245.557 5.94667 244.907 5.76 244.043 5.76C243.381 5.76 242.795 5.86133 242.283 6.064C241.781 6.26667 241.349 6.58133 240.987 7.008L240.171 6.304C240.608 5.792 241.168 5.39733 241.851 5.12C242.533 4.84267 243.296 4.704 244.139 4.704C244.896 4.704 245.552 4.82667 246.107 5.072C246.661 5.30667 247.088 5.65333 247.387 6.112C247.696 6.57067 247.851 7.10933 247.851 7.728C247.851 8.09067 247.797 8.448 247.691 8.8C247.595 9.152 247.413 9.52533 247.147 9.92C246.891 10.304 246.512 10.7413 246.011 11.232L241.739 15.424L241.419 14.976H248.363V16H240.507ZM254.241 16.096C253.377 16.096 252.609 15.872 251.937 15.424C251.265 14.9653 250.737 14.3147 250.353 13.472C249.969 12.6187 249.777 11.5947 249.777 10.4C249.777 9.20533 249.969 8.18667 250.353 7.344C250.737 6.49067 251.265 5.84 251.937 5.392C252.609 4.93333 253.377 4.704 254.241 4.704C255.105 4.704 255.873 4.93333 256.545 5.392C257.217 5.84 257.745 6.49067 258.129 7.344C258.524 8.18667 258.721 9.20533 258.721 10.4C258.721 11.5947 258.524 12.6187 258.129 13.472C257.745 14.3147 257.217 14.9653 256.545 15.424C255.873 15.872 255.105 16.096 254.241 16.096ZM254.241 15.04C254.903 15.04 255.479 14.864 255.969 14.512C256.46 14.1493 256.844 13.6267 257.121 12.944C257.399 12.2507 257.537 11.4027 257.537 10.4C257.537 9.39733 257.399 8.55467 257.121 7.872C256.844 7.17867 256.46 6.656 255.969 6.304C255.479 5.94133 254.903 5.76 254.241 5.76C253.601 5.76 253.031 5.94133 252.529 6.304C252.028 6.656 251.639 7.17867 251.361 7.872C251.084 8.55467 250.945 9.39733 250.945 10.4C250.945 11.4027 251.084 12.2507 251.361 12.944C251.639 13.6267 252.028 14.1493 252.529 14.512C253.031 14.864 253.601 15.04 254.241 15.04ZM260.163 16V15.184L264.819 10.624C265.246 10.208 265.566 9.84533 265.779 9.536C265.992 9.216 266.136 8.91733 266.211 8.64C266.286 8.36267 266.323 8.10133 266.323 7.856C266.323 7.20533 266.099 6.69333 265.651 6.32C265.214 5.94667 264.563 5.76 263.699 5.76C263.038 5.76 262.451 5.86133 261.939 6.064C261.438 6.26667 261.006 6.58133 260.643 7.008L259.827 6.304C260.264 5.792 260.824 5.39733 261.507 5.12C262.19 4.84267 262.952 4.704 263.795 4.704C264.552 4.704 265.208 4.82667 265.763 5.072C266.318 5.30667 266.744 5.65333 267.043 6.112C267.352 6.57067 267.507 7.10933 267.507 7.728C267.507 8.09067 267.454 8.448 267.347 8.8C267.251 9.152 267.07 9.52533 266.803 9.92C266.547 10.304 266.168 10.7413 265.667 11.232L261.395 15.424L261.075 14.976H268.019V16H260.163ZM272.809 16.096C271.998 16.096 271.23 15.968 270.505 15.712C269.79 15.4453 269.214 15.0933 268.777 14.656L269.337 13.744C269.699 14.1173 270.185 14.4267 270.793 14.672C271.411 14.9173 272.083 15.04 272.809 15.04C273.737 15.04 274.446 14.8373 274.937 14.432C275.438 14.0267 275.689 13.4827 275.689 12.8C275.689 12.1173 275.443 11.5733 274.953 11.168C274.473 10.7627 273.71 10.56 272.665 10.56H271.865V9.712L275.321 5.376L275.481 5.824H269.241V4.8H276.441V5.616L272.985 9.952L272.425 9.584H272.857C274.201 9.584 275.203 9.88267 275.865 10.48C276.537 11.0773 276.873 11.8453 276.873 12.784C276.873 13.4133 276.723 13.9787 276.425 14.48C276.126 14.9813 275.673 15.376 275.065 15.664C274.467 15.952 273.715 16.096 272.809 16.096Z" fill="#222222"/>
<circle cx="301" cy="22" r="8" fill="white" stroke="#F5BD00" stroke-width="4"/>
<path d="M177.659 340V330.2H186.591V340H184.337V331.53L184.855 332.048H179.395L179.913 331.53V340H177.659ZM193.361 340V338.53L193.221 338.208V335.576C193.221 335.109 193.076 334.745 192.787 334.484C192.507 334.223 192.073 334.092 191.485 334.092C191.083 334.092 190.687 334.157 190.295 334.288C189.912 334.409 189.585 334.577 189.315 334.792L188.531 333.266C188.941 332.977 189.436 332.753 190.015 332.594C190.593 332.435 191.181 332.356 191.779 332.356C192.927 332.356 193.818 332.627 194.453 333.168C195.087 333.709 195.405 334.554 195.405 335.702V340H193.361ZM191.065 340.112C190.477 340.112 189.973 340.014 189.553 339.818C189.133 339.613 188.811 339.337 188.587 338.992C188.363 338.647 188.251 338.259 188.251 337.83C188.251 337.382 188.358 336.99 188.573 336.654C188.797 336.318 189.147 336.057 189.623 335.87C190.099 335.674 190.719 335.576 191.485 335.576H193.487V336.85H191.723C191.209 336.85 190.855 336.934 190.659 337.102C190.472 337.27 190.379 337.48 190.379 337.732C190.379 338.012 190.486 338.236 190.701 338.404C190.925 338.563 191.228 338.642 191.611 338.642C191.975 338.642 192.301 338.558 192.591 338.39C192.88 338.213 193.09 337.956 193.221 337.62L193.557 338.628C193.398 339.113 193.109 339.482 192.689 339.734C192.269 339.986 191.727 340.112 191.065 340.112ZM201.74 340.112C201.105 340.112 200.55 339.972 200.074 339.692C199.598 339.412 199.225 338.987 198.954 338.418C198.693 337.839 198.562 337.111 198.562 336.234C198.562 335.347 198.688 334.619 198.94 334.05C199.192 333.481 199.556 333.056 200.032 332.776C200.508 332.496 201.077 332.356 201.74 332.356C202.449 332.356 203.084 332.519 203.644 332.846C204.213 333.163 204.661 333.611 204.988 334.19C205.324 334.769 205.492 335.45 205.492 336.234C205.492 337.027 205.324 337.713 204.988 338.292C204.661 338.871 204.213 339.319 203.644 339.636C203.084 339.953 202.449 340.112 201.74 340.112ZM197.288 342.716V332.468H199.374V334.008L199.332 336.248L199.472 338.474V342.716H197.288ZM201.362 338.32C201.726 338.32 202.048 338.236 202.328 338.068C202.617 337.9 202.846 337.662 203.014 337.354C203.191 337.037 203.28 336.663 203.28 336.234C203.28 335.795 203.191 335.422 203.014 335.114C202.846 334.806 202.617 334.568 202.328 334.4C202.048 334.232 201.726 334.148 201.362 334.148C200.998 334.148 200.671 334.232 200.382 334.4C200.093 334.568 199.864 334.806 199.696 335.114C199.528 335.422 199.444 335.795 199.444 336.234C199.444 336.663 199.528 337.037 199.696 337.354C199.864 337.662 200.093 337.9 200.382 338.068C200.671 338.236 200.998 338.32 201.362 338.32ZM208.359 340V333.756L208.849 334.26H205.811V332.468H213.077V334.26H210.039L210.529 333.756V340H208.359ZM214.241 340V332.468H216.411V335.408H219.687V332.468H221.871V340H219.687V337.186H216.411V340H214.241ZM227.644 340.112C226.785 340.112 226.029 339.944 225.376 339.608C224.732 339.272 224.233 338.815 223.878 338.236C223.523 337.648 223.346 336.981 223.346 336.234C223.346 335.478 223.519 334.811 223.864 334.232C224.219 333.644 224.699 333.187 225.306 332.86C225.913 332.524 226.599 332.356 227.364 332.356C228.101 332.356 228.764 332.515 229.352 332.832C229.949 333.14 230.421 333.588 230.766 334.176C231.111 334.755 231.284 335.45 231.284 336.262C231.284 336.346 231.279 336.444 231.27 336.556C231.261 336.659 231.251 336.757 231.242 336.85H225.124V335.576H230.094L229.254 335.954C229.254 335.562 229.175 335.221 229.016 334.932C228.857 334.643 228.638 334.419 228.358 334.26C228.078 334.092 227.751 334.008 227.378 334.008C227.005 334.008 226.673 334.092 226.384 334.26C226.104 334.419 225.885 334.647 225.726 334.946C225.567 335.235 225.488 335.581 225.488 335.982V336.318C225.488 336.729 225.577 337.093 225.754 337.41C225.941 337.718 226.197 337.956 226.524 338.124C226.86 338.283 227.252 338.362 227.7 338.362C228.101 338.362 228.451 338.301 228.75 338.18C229.058 338.059 229.338 337.877 229.59 337.634L230.752 338.894C230.407 339.286 229.973 339.589 229.45 339.804C228.927 340.009 228.325 340.112 227.644 340.112ZM237.396 340.112C236.762 340.112 236.206 339.972 235.73 339.692C235.254 339.412 234.881 338.987 234.61 338.418C234.349 337.839 234.218 337.111 234.218 336.234C234.218 335.347 234.344 334.619 234.596 334.05C234.848 333.481 235.212 333.056 235.688 332.776C236.164 332.496 236.734 332.356 237.396 332.356C238.106 332.356 238.74 332.519 239.3 332.846C239.87 333.163 240.318 333.611 240.644 334.19C240.98 334.769 241.148 335.45 241.148 336.234C241.148 337.027 240.98 337.713 240.644 338.292C240.318 338.871 239.87 339.319 239.3 339.636C238.74 339.953 238.106 340.112 237.396 340.112ZM232.944 342.716V332.468H235.03V334.008L234.988 336.248L235.128 338.474V342.716H232.944ZM237.018 338.32C237.382 338.32 237.704 338.236 237.984 338.068C238.274 337.9 238.502 337.662 238.67 337.354C238.848 337.037 238.936 336.663 238.936 336.234C238.936 335.795 238.848 335.422 238.67 335.114C238.502 334.806 238.274 334.568 237.984 334.4C237.704 334.232 237.382 334.148 237.018 334.148C236.654 334.148 236.328 334.232 236.038 334.4C235.749 334.568 235.52 334.806 235.352 335.114C235.184 335.422 235.1 335.795 235.1 336.234C235.1 336.663 235.184 337.037 235.352 337.354C235.52 337.662 235.749 337.9 236.038 338.068C236.328 338.236 236.654 338.32 237.018 338.32ZM246.263 340.112C245.451 340.112 244.728 339.949 244.093 339.622C243.458 339.286 242.959 338.824 242.595 338.236C242.24 337.648 242.063 336.981 242.063 336.234C242.063 335.478 242.24 334.811 242.595 334.232C242.959 333.644 243.458 333.187 244.093 332.86C244.728 332.524 245.451 332.356 246.263 332.356C247.056 332.356 247.747 332.524 248.335 332.86C248.923 333.187 249.357 333.658 249.637 334.274L247.943 335.184C247.747 334.829 247.5 334.568 247.201 334.4C246.912 334.232 246.594 334.148 246.249 334.148C245.876 334.148 245.54 334.232 245.241 334.4C244.942 334.568 244.704 334.806 244.527 335.114C244.359 335.422 244.275 335.795 244.275 336.234C244.275 336.673 244.359 337.046 244.527 337.354C244.704 337.662 244.942 337.9 245.241 338.068C245.54 338.236 245.876 338.32 246.249 338.32C246.594 338.32 246.912 338.241 247.201 338.082C247.5 337.914 247.747 337.648 247.943 337.284L249.637 338.208C249.357 338.815 248.923 339.286 248.335 339.622C247.747 339.949 247.056 340.112 246.263 340.112ZM256.298 340L253.778 336.43L255.556 335.38L258.874 340H256.298ZM250.964 340V332.468H253.148V340H250.964ZM252.504 337.144V335.394H255.136V337.144H252.504ZM255.766 336.486L253.722 336.262L256.368 332.468H258.692L255.766 336.486ZM264.318 340V338.53L264.178 338.208V335.576C264.178 335.109 264.033 334.745 263.744 334.484C263.464 334.223 263.03 334.092 262.442 334.092C262.04 334.092 261.644 334.157 261.252 334.288C260.869 334.409 260.542 334.577 260.272 334.792L259.488 333.266C259.898 332.977 260.393 332.753 260.972 332.594C261.55 332.435 262.138 332.356 262.736 332.356C263.884 332.356 264.775 332.627 265.41 333.168C266.044 333.709 266.362 334.554 266.362 335.702V340H264.318ZM262.022 340.112C261.434 340.112 260.93 340.014 260.51 339.818C260.09 339.613 259.768 339.337 259.544 338.992C259.32 338.647 259.208 338.259 259.208 337.83C259.208 337.382 259.315 336.99 259.53 336.654C259.754 336.318 260.104 336.057 260.58 335.87C261.056 335.674 261.676 335.576 262.442 335.576H264.444V336.85H262.68C262.166 336.85 261.812 336.934 261.616 337.102C261.429 337.27 261.336 337.48 261.336 337.732C261.336 338.012 261.443 338.236 261.658 338.404C261.882 338.563 262.185 338.642 262.568 338.642C262.932 338.642 263.258 338.558 263.548 338.39C263.837 338.213 264.047 337.956 264.178 337.62L264.514 338.628C264.355 339.113 264.066 339.482 263.646 339.734C263.226 339.986 262.684 340.112 262.022 340.112ZM273.005 340V337.494L273.313 337.844H271.227C270.144 337.844 269.295 337.62 268.679 337.172C268.063 336.724 267.755 336.08 267.755 335.24C267.755 334.344 268.077 333.658 268.721 333.182C269.374 332.706 270.252 332.468 271.353 332.468H274.951V340H273.005ZM267.643 340L269.645 337.13H271.871L269.967 340H267.643ZM273.005 336.822V333.686L273.313 334.246H271.395C270.947 334.246 270.597 334.33 270.345 334.498C270.102 334.666 269.981 334.937 269.981 335.31C269.981 336.029 270.443 336.388 271.367 336.388H273.313L273.005 336.822ZM192.066 358V350.468H199.556V358H197.372V351.77L197.862 352.26H193.746L194.236 351.77V358H192.066ZM206.088 358.112C205.453 358.112 204.898 357.972 204.422 357.692C203.946 357.412 203.572 356.987 203.302 356.418C203.04 355.839 202.91 355.111 202.91 354.234C202.91 353.347 203.036 352.619 203.288 352.05C203.54 351.481 203.904 351.056 204.38 350.776C204.856 350.496 205.425 350.356 206.088 350.356C206.797 350.356 207.432 350.519 207.992 350.846C208.561 351.163 209.009 351.611 209.336 352.19C209.672 352.769 209.84 353.45 209.84 354.234C209.84 355.027 209.672 355.713 209.336 356.292C209.009 356.871 208.561 357.319 207.992 357.636C207.432 357.953 206.797 358.112 206.088 358.112ZM201.636 360.716V350.468H203.722V352.008L203.68 354.248L203.82 356.474V360.716H201.636ZM205.71 356.32C206.074 356.32 206.396 356.236 206.676 356.068C206.965 355.9 207.194 355.662 207.362 355.354C207.539 355.037 207.628 354.663 207.628 354.234C207.628 353.795 207.539 353.422 207.362 353.114C207.194 352.806 206.965 352.568 206.676 352.4C206.396 352.232 206.074 352.148 205.71 352.148C205.346 352.148 205.019 352.232 204.73 352.4C204.44 352.568 204.212 352.806 204.044 353.114C203.876 353.422 203.792 353.795 203.792 354.234C203.792 354.663 203.876 355.037 204.044 355.354C204.212 355.662 204.44 355.9 204.73 356.068C205.019 356.236 205.346 356.32 205.71 356.32ZM214.898 358.112C214.096 358.112 213.382 357.944 212.756 357.608C212.14 357.272 211.65 356.815 211.286 356.236C210.932 355.648 210.754 354.981 210.754 354.234C210.754 353.478 210.932 352.811 211.286 352.232C211.65 351.644 212.14 351.187 212.756 350.86C213.382 350.524 214.096 350.356 214.898 350.356C215.692 350.356 216.401 350.524 217.026 350.86C217.652 351.187 218.142 351.639 218.496 352.218C218.851 352.797 219.028 353.469 219.028 354.234C219.028 354.981 218.851 355.648 218.496 356.236C218.142 356.815 217.652 357.272 217.026 357.608C216.401 357.944 215.692 358.112 214.898 358.112ZM214.898 356.32C215.262 356.32 215.589 356.236 215.878 356.068C216.168 355.9 216.396 355.662 216.564 355.354C216.732 355.037 216.816 354.663 216.816 354.234C216.816 353.795 216.732 353.422 216.564 353.114C216.396 352.806 216.168 352.568 215.878 352.4C215.589 352.232 215.262 352.148 214.898 352.148C214.534 352.148 214.208 352.232 213.918 352.4C213.629 352.568 213.396 352.806 213.218 353.114C213.05 353.422 212.966 353.795 212.966 354.234C212.966 354.663 213.05 355.037 213.218 355.354C213.396 355.662 213.629 355.9 213.918 356.068C214.208 356.236 214.534 356.32 214.898 356.32ZM220.53 358V350.468H226.564V352.26H222.21L222.7 351.784V358H220.53ZM232.16 358.112C231.525 358.112 230.97 357.972 230.494 357.692C230.018 357.412 229.645 356.987 229.374 356.418C229.113 355.839 228.982 355.111 228.982 354.234C228.982 353.347 229.108 352.619 229.36 352.05C229.612 351.481 229.976 351.056 230.452 350.776C230.928 350.496 231.497 350.356 232.16 350.356C232.869 350.356 233.504 350.519 234.064 350.846C234.633 351.163 235.081 351.611 235.408 352.19C235.744 352.769 235.912 353.45 235.912 354.234C235.912 355.027 235.744 355.713 235.408 356.292C235.081 356.871 234.633 357.319 234.064 357.636C233.504 357.953 232.869 358.112 232.16 358.112ZM227.708 360.716V350.468H229.794V352.008L229.752 354.248L229.892 356.474V360.716H227.708ZM231.782 356.32C232.146 356.32 232.468 356.236 232.748 356.068C233.037 355.9 233.266 355.662 233.434 355.354C233.611 355.037 233.7 354.663 233.7 354.234C233.7 353.795 233.611 353.422 233.434 353.114C233.266 352.806 233.037 352.568 232.748 352.4C232.468 352.232 232.146 352.148 231.782 352.148C231.418 352.148 231.091 352.232 230.802 352.4C230.513 352.568 230.284 352.806 230.116 353.114C229.948 353.422 229.864 353.795 229.864 354.234C229.864 354.663 229.948 355.037 230.116 355.354C230.284 355.662 230.513 355.9 230.802 356.068C231.091 356.236 231.418 356.32 231.782 356.32ZM241.828 358V356.53L241.688 356.208V353.576C241.688 353.109 241.543 352.745 241.254 352.484C240.974 352.223 240.54 352.092 239.952 352.092C239.55 352.092 239.154 352.157 238.762 352.288C238.379 352.409 238.052 352.577 237.782 352.792L236.998 351.266C237.408 350.977 237.903 350.753 238.482 350.594C239.06 350.435 239.648 350.356 240.246 350.356C241.394 350.356 242.285 350.627 242.92 351.168C243.554 351.709 243.872 352.554 243.872 353.702V358H241.828ZM239.532 358.112C238.944 358.112 238.44 358.014 238.02 357.818C237.6 357.613 237.278 357.337 237.054 356.992C236.83 356.647 236.718 356.259 236.718 355.83C236.718 355.382 236.825 354.99 237.04 354.654C237.264 354.318 237.614 354.057 238.09 353.87C238.566 353.674 239.186 353.576 239.952 353.576H241.954V354.85H240.19C239.676 354.85 239.322 354.934 239.126 355.102C238.939 355.27 238.846 355.48 238.846 355.732C238.846 356.012 238.953 356.236 239.168 356.404C239.392 356.563 239.695 356.642 240.078 356.642C240.442 356.642 240.768 356.558 241.058 356.39C241.347 356.213 241.557 355.956 241.688 355.62L242.024 356.628C241.865 357.113 241.576 357.482 241.156 357.734C240.736 357.986 240.194 358.112 239.532 358.112ZM245.769 358V350.468H248.051L250.893 355.62H249.983L253.021 350.468H255.065L255.093 358H253.119V352.708L253.455 352.932L250.865 357.272H249.941L247.337 352.778L247.743 352.68V358H245.769ZM257.185 358V350.468H259.467L262.309 355.62H261.399L264.437 350.468H266.481L266.509 358H264.535V352.708L264.871 352.932L262.281 357.272H261.357L258.753 352.778L259.159 352.68V358H257.185ZM273.109 358V356.53L272.969 356.208V353.576C272.969 353.109 272.824 352.745 272.535 352.484C272.255 352.223 271.821 352.092 271.233 352.092C270.831 352.092 270.435 352.157 270.043 352.288C269.66 352.409 269.333 352.577 269.063 352.792L268.279 351.266C268.689 350.977 269.184 350.753 269.763 350.594C270.341 350.435 270.929 350.356 271.527 350.356C272.675 350.356 273.566 350.627 274.201 351.168C274.835 351.709 275.153 352.554 275.153 353.702V358H273.109ZM270.813 358.112C270.225 358.112 269.721 358.014 269.301 357.818C268.881 357.613 268.559 357.337 268.335 356.992C268.111 356.647 267.999 356.259 267.999 355.83C267.999 355.382 268.106 354.99 268.321 354.654C268.545 354.318 268.895 354.057 269.371 353.87C269.847 353.674 270.467 353.576 271.233 353.576H273.235V354.85H271.471C270.957 354.85 270.603 354.934 270.407 355.102C270.22 355.27 270.127 355.48 270.127 355.732C270.127 356.012 270.234 356.236 270.449 356.404C270.673 356.563 270.976 356.642 271.359 356.642C271.723 356.642 272.049 356.558 272.339 356.39C272.628 356.213 272.838 355.956 272.969 355.62L273.305 356.628C273.146 357.113 272.857 357.482 272.437 357.734C272.017 357.986 271.475 358.112 270.813 358.112Z" fill="#222222"/>
<path d="M215.095 318.096C214.252 318.096 213.468 317.957 212.743 317.68C212.028 317.392 211.404 316.992 210.871 316.48C210.348 315.957 209.938 315.355 209.639 314.672C209.351 313.979 209.207 313.221 209.207 312.4C209.207 311.579 209.351 310.827 209.639 310.144C209.938 309.451 210.348 308.848 210.871 308.336C211.404 307.813 212.028 307.413 212.743 307.136C213.458 306.848 214.242 306.704 215.095 306.704C215.938 306.704 216.716 306.848 217.431 307.136C218.146 307.413 218.764 307.808 219.287 308.32C219.82 308.832 220.231 309.435 220.519 310.128C220.818 310.821 220.967 311.579 220.967 312.4C220.967 313.221 220.818 313.979 220.519 314.672C220.231 315.365 219.82 315.968 219.287 316.48C218.764 316.992 218.146 317.392 217.431 317.68C216.716 317.957 215.938 318.096 215.095 318.096ZM218.759 320.224C218.418 320.224 218.087 320.181 217.767 320.096C217.447 320.011 217.122 319.872 216.791 319.68C216.471 319.499 216.14 319.259 215.799 318.96C215.458 318.661 215.084 318.299 214.679 317.872L215.975 317.552C216.306 317.947 216.626 318.272 216.935 318.528C217.255 318.784 217.564 318.971 217.863 319.088C218.172 319.216 218.476 319.28 218.775 319.28C219.607 319.28 220.316 318.939 220.903 318.256L221.479 318.944C220.775 319.797 219.868 320.224 218.759 320.224ZM215.095 317.04C215.767 317.04 216.386 316.928 216.951 316.704C217.527 316.469 218.023 316.139 218.439 315.712C218.866 315.285 219.196 314.795 219.431 314.24C219.666 313.675 219.783 313.061 219.783 312.4C219.783 311.728 219.666 311.115 219.431 310.56C219.196 309.995 218.866 309.504 218.439 309.088C218.023 308.661 217.527 308.336 216.951 308.112C216.386 307.877 215.767 307.76 215.095 307.76C214.423 307.76 213.799 307.877 213.223 308.112C212.647 308.336 212.146 308.661 211.719 309.088C211.303 309.504 210.972 309.995 210.727 310.56C210.492 311.115 210.375 311.728 210.375 312.4C210.375 313.061 210.492 313.675 210.727 314.24C210.972 314.795 211.303 315.285 211.719 315.712C212.146 316.139 212.647 316.469 213.223 316.704C213.799 316.928 214.423 317.04 215.095 317.04ZM225.801 318.096C224.99 318.096 224.222 317.968 223.497 317.712C222.782 317.445 222.206 317.093 221.769 316.656L222.329 315.744C222.692 316.117 223.177 316.427 223.785 316.672C224.404 316.917 225.076 317.04 225.801 317.04C226.729 317.04 227.438 316.837 227.929 316.432C228.43 316.027 228.681 315.483 228.681 314.8C228.681 314.117 228.436 313.573 227.945 313.168C227.465 312.763 226.702 312.56 225.657 312.56H224.857V311.712L228.313 307.376L228.473 307.824H222.233V306.8H229.433V307.616L225.977 311.952L225.417 311.584H225.849C227.193 311.584 228.196 311.883 228.857 312.48C229.529 313.077 229.865 313.845 229.865 314.784C229.865 315.413 229.716 315.979 229.417 316.48C229.118 316.981 228.665 317.376 228.057 317.664C227.46 317.952 226.708 318.096 225.801 318.096ZM235.468 318V317.184L240.124 312.624C240.55 312.208 240.87 311.845 241.084 311.536C241.297 311.216 241.441 310.917 241.516 310.64C241.59 310.363 241.628 310.101 241.628 309.856C241.628 309.205 241.404 308.693 240.956 308.32C240.518 307.947 239.868 307.76 239.004 307.76C238.342 307.76 237.756 307.861 237.244 308.064C236.742 308.267 236.31 308.581 235.948 309.008L235.132 308.304C235.569 307.792 236.129 307.397 236.812 307.12C237.494 306.843 238.257 306.704 239.1 306.704C239.857 306.704 240.513 306.827 241.068 307.072C241.622 307.307 242.049 307.653 242.348 308.112C242.657 308.571 242.812 309.109 242.812 309.728C242.812 310.091 242.758 310.448 242.652 310.8C242.556 311.152 242.374 311.525 242.108 311.92C241.852 312.304 241.473 312.741 240.972 313.232L236.7 317.424L236.38 316.976H243.324V318H235.468ZM249.202 318.096C248.338 318.096 247.57 317.872 246.898 317.424C246.226 316.965 245.698 316.315 245.314 315.472C244.93 314.619 244.738 313.595 244.738 312.4C244.738 311.205 244.93 310.187 245.314 309.344C245.698 308.491 246.226 307.84 246.898 307.392C247.57 306.933 248.338 306.704 249.202 306.704C250.066 306.704 250.834 306.933 251.506 307.392C252.178 307.84 252.706 308.491 253.09 309.344C253.485 310.187 253.682 311.205 253.682 312.4C253.682 313.595 253.485 314.619 253.09 315.472C252.706 316.315 252.178 316.965 251.506 317.424C250.834 317.872 250.066 318.096 249.202 318.096ZM249.202 317.04C249.864 317.04 250.44 316.864 250.93 316.512C251.421 316.149 251.805 315.627 252.082 314.944C252.36 314.251 252.498 313.403 252.498 312.4C252.498 311.397 252.36 310.555 252.082 309.872C251.805 309.179 251.421 308.656 250.93 308.304C250.44 307.941 249.864 307.76 249.202 307.76C248.562 307.76 247.992 307.941 247.49 308.304C246.989 308.656 246.6 309.179 246.322 309.872C246.045 310.555 245.906 311.397 245.906 312.4C245.906 313.403 246.045 314.251 246.322 314.944C246.6 315.627 246.989 316.149 247.49 316.512C247.992 316.864 248.562 317.04 249.202 317.04ZM255.124 318V317.184L259.78 312.624C260.207 312.208 260.527 311.845 260.74 311.536C260.953 311.216 261.097 310.917 261.172 310.64C261.247 310.363 261.284 310.101 261.284 309.856C261.284 309.205 261.06 308.693 260.612 308.32C260.175 307.947 259.524 307.76 258.66 307.76C257.999 307.76 257.412 307.861 256.9 308.064C256.399 308.267 255.967 308.581 255.604 309.008L254.788 308.304C255.225 307.792 255.785 307.397 256.468 307.12C257.151 306.843 257.913 306.704 258.756 306.704C259.513 306.704 260.169 306.827 260.724 307.072C261.279 307.307 261.705 307.653 262.004 308.112C262.313 308.571 262.468 309.109 262.468 309.728C262.468 310.091 262.415 310.448 262.308 310.8C262.212 311.152 262.031 311.525 261.764 311.92C261.508 312.304 261.129 312.741 260.628 313.232L256.356 317.424L256.036 316.976H262.98V318H255.124ZM267.77 318.096C266.959 318.096 266.191 317.968 265.466 317.712C264.751 317.445 264.175 317.093 263.738 316.656L264.298 315.744C264.66 316.117 265.146 316.427 265.754 316.672C266.372 316.917 267.044 317.04 267.77 317.04C268.698 317.04 269.407 316.837 269.898 316.432C270.399 316.027 270.65 315.483 270.65 314.8C270.65 314.117 270.404 313.573 269.914 313.168C269.434 312.763 268.671 312.56 267.626 312.56H266.826V311.712L270.282 307.376L270.442 307.824H264.202V306.8H271.402V307.616L267.946 311.952L267.386 311.584H267.818C269.162 311.584 270.164 311.883 270.826 312.48C271.498 313.077 271.834 313.845 271.834 314.784C271.834 315.413 271.684 315.979 271.386 316.48C271.087 316.981 270.634 317.376 270.026 317.664C269.428 317.952 268.676 318.096 267.77 318.096Z" fill="#222222"/>
<circle cx="301" cy="323" r="8" fill="white" stroke="#F5BD00" stroke-width="4"/>
<path d="M29.4778 320V310.2H31.3538L35.5258 317.116H34.5318L38.6338 310.2H40.5098L40.5238 320H38.3958L38.3818 313.462H38.7878L35.4978 318.964H34.4898L31.1298 313.462H31.6058V320H29.4778ZM47.2982 320V318.53L47.1582 318.208V315.576C47.1582 315.109 47.0136 314.745 46.7242 314.484C46.4442 314.223 46.0102 314.092 45.4222 314.092C45.0209 314.092 44.6242 314.157 44.2322 314.288C43.8496 314.409 43.5229 314.577 43.2522 314.792L42.4682 313.266C42.8789 312.977 43.3736 312.753 43.9522 312.594C44.5309 312.435 45.1189 312.356 45.7162 312.356C46.8642 312.356 47.7556 312.627 48.3902 313.168C49.0249 313.709 49.3422 314.554 49.3422 315.702V320H47.2982ZM45.0022 320.112C44.4142 320.112 43.9102 320.014 43.4902 319.818C43.0702 319.613 42.7482 319.337 42.5242 318.992C42.3002 318.647 42.1882 318.259 42.1882 317.83C42.1882 317.382 42.2956 316.99 42.5102 316.654C42.7342 316.318 43.0842 316.057 43.5602 315.87C44.0362 315.674 44.6569 315.576 45.4222 315.576H47.4242V316.85H45.6602C45.1469 316.85 44.7922 316.934 44.5962 317.102C44.4096 317.27 44.3162 317.48 44.3162 317.732C44.3162 318.012 44.4236 318.236 44.6382 318.404C44.8622 318.563 45.1656 318.642 45.5482 318.642C45.9122 318.642 46.2389 318.558 46.5282 318.39C46.8176 318.213 47.0276 317.956 47.1582 317.62L47.4942 318.628C47.3356 319.113 47.0462 319.482 46.6262 319.734C46.2062 319.986 45.6649 320.112 45.0022 320.112ZM55.6775 320.112C55.0428 320.112 54.4875 319.972 54.0115 319.692C53.5355 319.412 53.1621 318.987 52.8915 318.418C52.6301 317.839 52.4995 317.111 52.4995 316.234C52.4995 315.347 52.6255 314.619 52.8775 314.05C53.1295 313.481 53.4935 313.056 53.9695 312.776C54.4455 312.496 55.0148 312.356 55.6775 312.356C56.3868 312.356 57.0215 312.519 57.5815 312.846C58.1508 313.163 58.5988 313.611 58.9255 314.19C59.2615 314.769 59.4295 315.45 59.4295 316.234C59.4295 317.027 59.2615 317.713 58.9255 318.292C58.5988 318.871 58.1508 319.319 57.5815 319.636C57.0215 319.953 56.3868 320.112 55.6775 320.112ZM51.2255 322.716V312.468H53.3115V314.008L53.2695 316.248L53.4095 318.474V322.716H51.2255ZM55.2995 318.32C55.6635 318.32 55.9855 318.236 56.2655 318.068C56.5548 317.9 56.7835 317.662 56.9515 317.354C57.1288 317.037 57.2175 316.663 57.2175 316.234C57.2175 315.795 57.1288 315.422 56.9515 315.114C56.7835 314.806 56.5548 314.568 56.2655 314.4C55.9855 314.232 55.6635 314.148 55.2995 314.148C54.9355 314.148 54.6088 314.232 54.3195 314.4C54.0301 314.568 53.8015 314.806 53.6335 315.114C53.4655 315.422 53.3815 315.795 53.3815 316.234C53.3815 316.663 53.4655 317.037 53.6335 317.354C53.8015 317.662 54.0301 317.9 54.3195 318.068C54.6088 318.236 54.9355 318.32 55.2995 318.32ZM66.2942 320L63.7742 316.43L65.5522 315.38L68.8702 320H66.2942ZM60.9602 320V312.468H63.1442V320H60.9602ZM62.5002 317.144V315.394H65.1322V317.144H62.5002ZM65.7622 316.486L63.7182 316.262L66.3642 312.468H68.6882L65.7622 316.486ZM73.3922 320.112C72.5335 320.112 71.7775 319.944 71.1242 319.608C70.4802 319.272 69.9808 318.815 69.6262 318.236C69.2715 317.648 69.0942 316.981 69.0942 316.234C69.0942 315.478 69.2668 314.811 69.6122 314.232C69.9668 313.644 70.4475 313.187 71.0542 312.86C71.6608 312.524 72.3468 312.356 73.1122 312.356C73.8495 312.356 74.5122 312.515 75.1002 312.832C75.6975 313.14 76.1688 313.588 76.5142 314.176C76.8595 314.755 77.0322 315.45 77.0322 316.262C77.0322 316.346 77.0275 316.444 77.0182 316.556C77.0088 316.659 76.9995 316.757 76.9902 316.85H70.8722V315.576H75.8422L75.0022 315.954C75.0022 315.562 74.9228 315.221 74.7642 314.932C74.6055 314.643 74.3862 314.419 74.1062 314.26C73.8262 314.092 73.4995 314.008 73.1262 314.008C72.7528 314.008 72.4215 314.092 72.1322 314.26C71.8522 314.419 71.6328 314.647 71.4742 314.946C71.3155 315.235 71.2362 315.581 71.2362 315.982V316.318C71.2362 316.729 71.3248 317.093 71.5022 317.41C71.6888 317.718 71.9455 317.956 72.2722 318.124C72.6082 318.283 73.0002 318.362 73.4482 318.362C73.8495 318.362 74.1995 318.301 74.4982 318.18C74.8062 318.059 75.0862 317.877 75.3382 317.634L76.5002 318.894C76.1548 319.286 75.7208 319.589 75.1982 319.804C74.6755 320.009 74.0735 320.112 73.3922 320.112ZM80.0565 320V313.756L80.5465 314.26H77.5085V312.468H84.7745V314.26H81.7365L82.2265 313.756V320H80.0565ZM85.9387 320V312.468H88.1087V316.948L91.7767 312.468H93.7787V320H91.6087V315.52L87.9547 320H85.9387ZM95.8781 320V312.468H98.0481V315.408H101.324V312.468H103.508V320H101.324V317.186H98.0481V320H95.8781ZM105.599 320V312.468H111.633V314.26H107.279L107.769 313.784V320H105.599Z" fill="#222222"/>
<path d="M36.7356 344.096C35.893 344.096 35.109 343.957 34.3836 343.68C33.669 343.392 33.045 342.992 32.5116 342.48C31.989 341.957 31.5783 341.355 31.2796 340.672C30.9916 339.979 30.8476 339.221 30.8476 338.4C30.8476 337.579 30.9916 336.827 31.2796 336.144C31.5783 335.451 31.989 334.848 32.5116 334.336C33.045 333.813 33.669 333.413 34.3836 333.136C35.0983 332.848 35.8823 332.704 36.7356 332.704C37.5783 332.704 38.357 332.848 39.0716 333.136C39.7863 333.413 40.405 333.808 40.9276 334.32C41.461 334.832 41.8716 335.435 42.1596 336.128C42.4583 336.821 42.6076 337.579 42.6076 338.4C42.6076 339.221 42.4583 339.979 42.1596 340.672C41.8716 341.365 41.461 341.968 40.9276 342.48C40.405 342.992 39.7863 343.392 39.0716 343.68C38.357 343.957 37.5783 344.096 36.7356 344.096ZM40.3996 346.224C40.0583 346.224 39.7276 346.181 39.4076 346.096C39.0876 346.011 38.7623 345.872 38.4316 345.68C38.1116 345.499 37.781 345.259 37.4396 344.96C37.0983 344.661 36.725 344.299 36.3196 343.872L37.6156 343.552C37.9463 343.947 38.2663 344.272 38.5756 344.528C38.8956 344.784 39.205 344.971 39.5036 345.088C39.813 345.216 40.117 345.28 40.4156 345.28C41.2476 345.28 41.957 344.939 42.5436 344.256L43.1196 344.944C42.4156 345.797 41.509 346.224 40.3996 346.224ZM36.7356 343.04C37.4076 343.04 38.0263 342.928 38.5916 342.704C39.1676 342.469 39.6636 342.139 40.0796 341.712C40.5063 341.285 40.837 340.795 41.0716 340.24C41.3063 339.675 41.4236 339.061 41.4236 338.4C41.4236 337.728 41.3063 337.115 41.0716 336.56C40.837 335.995 40.5063 335.504 40.0796 335.088C39.6636 334.661 39.1676 334.336 38.5916 334.112C38.0263 333.877 37.4076 333.76 36.7356 333.76C36.0636 333.76 35.4396 333.877 34.8636 334.112C34.2876 334.336 33.7863 334.661 33.3596 335.088C32.9436 335.504 32.613 335.995 32.3676 336.56C32.133 337.115 32.0156 337.728 32.0156 338.4C32.0156 339.061 32.133 339.675 32.3676 340.24C32.613 340.795 32.9436 341.285 33.3596 341.712C33.7863 342.139 34.2876 342.469 34.8636 342.704C35.4396 342.928 36.0636 343.04 36.7356 343.04ZM44.0775 341.056V340.224L50.0135 332.8H51.2935L45.4055 340.224L44.7815 340.032H53.7895V341.056H44.0775ZM50.3975 344V341.056L50.4295 340.032V337.44H51.5495V344H50.3975ZM58.8271 344V343.184L63.4831 338.624C63.9098 338.208 64.2298 337.845 64.4431 337.536C64.6565 337.216 64.8005 336.917 64.8751 336.64C64.9498 336.363 64.9871 336.101 64.9871 335.856C64.9871 335.205 64.7631 334.693 64.3151 334.32C63.8778 333.947 63.2271 333.76 62.3631 333.76C61.7018 333.76 61.1151 333.861 60.6031 334.064C60.1018 334.267 59.6698 334.581 59.3071 335.008L58.4911 334.304C58.9285 333.792 59.4885 333.397 60.1711 333.12C60.8538 332.843 61.6165 332.704 62.4591 332.704C63.2165 332.704 63.8725 332.827 64.4271 333.072C64.9818 333.307 65.4085 333.653 65.7071 334.112C66.0165 334.571 66.1711 335.109 66.1711 335.728C66.1711 336.091 66.1178 336.448 66.0111 336.8C65.9151 337.152 65.7338 337.525 65.4671 337.92C65.2111 338.304 64.8325 338.741 64.3311 339.232L60.0591 343.424L59.7391 342.976H66.6831V344H58.8271ZM72.5616 344.096C71.6976 344.096 70.9296 343.872 70.2576 343.424C69.5856 342.965 69.0576 342.315 68.6736 341.472C68.2896 340.619 68.0976 339.595 68.0976 338.4C68.0976 337.205 68.2896 336.187 68.6736 335.344C69.0576 334.491 69.5856 333.84 70.2576 333.392C70.9296 332.933 71.6976 332.704 72.5616 332.704C73.4256 332.704 74.1936 332.933 74.8656 333.392C75.5376 333.84 76.0656 334.491 76.4496 335.344C76.8443 336.187 77.0416 337.205 77.0416 338.4C77.0416 339.595 76.8443 340.619 76.4496 341.472C76.0656 342.315 75.5376 342.965 74.8656 343.424C74.1936 343.872 73.4256 344.096 72.5616 344.096ZM72.5616 343.04C73.223 343.04 73.799 342.864 74.2896 342.512C74.7803 342.149 75.1643 341.627 75.4416 340.944C75.719 340.251 75.8576 339.403 75.8576 338.4C75.8576 337.397 75.719 336.555 75.4416 335.872C75.1643 335.179 74.7803 334.656 74.2896 334.304C73.799 333.941 73.223 333.76 72.5616 333.76C71.9216 333.76 71.351 333.941 70.8496 334.304C70.3483 334.656 69.959 335.179 69.6816 335.872C69.4043 336.555 69.2656 337.397 69.2656 338.4C69.2656 339.403 69.4043 340.251 69.6816 340.944C69.959 341.627 70.3483 342.149 70.8496 342.512C71.351 342.864 71.9216 343.04 72.5616 343.04ZM78.4834 344V343.184L83.1394 338.624C83.566 338.208 83.886 337.845 84.0994 337.536C84.3127 337.216 84.4567 336.917 84.5314 336.64C84.606 336.363 84.6434 336.101 84.6434 335.856C84.6434 335.205 84.4194 334.693 83.9714 334.32C83.534 333.947 82.8834 333.76 82.0194 333.76C81.358 333.76 80.7714 333.861 80.2594 334.064C79.758 334.267 79.326 334.581 78.9634 335.008L78.1474 334.304C78.5847 333.792 79.1447 333.397 79.8274 333.12C80.51 332.843 81.2727 332.704 82.1154 332.704C82.8727 332.704 83.5287 332.827 84.0834 333.072C84.638 333.307 85.0647 333.653 85.3634 334.112C85.6727 334.571 85.8274 335.109 85.8274 335.728C85.8274 336.091 85.774 336.448 85.6674 336.8C85.5714 337.152 85.39 337.525 85.1234 337.92C84.8674 338.304 84.4887 338.741 83.9874 339.232L79.7154 343.424L79.3954 342.976H86.3394V344H78.4834ZM91.1291 344.096C90.3185 344.096 89.5505 343.968 88.8251 343.712C88.1105 343.445 87.5345 343.093 87.0971 342.656L87.6571 341.744C88.0198 342.117 88.5051 342.427 89.1131 342.672C89.7318 342.917 90.4038 343.04 91.1291 343.04C92.0571 343.04 92.7665 342.837 93.2571 342.432C93.7585 342.027 94.0091 341.483 94.0091 340.8C94.0091 340.117 93.7638 339.573 93.2731 339.168C92.7931 338.763 92.0305 338.56 90.9851 338.56H90.1851V337.712L93.6411 333.376L93.8011 333.824H87.5611V332.8H94.7611V333.616L91.3051 337.952L90.7451 337.584H91.1771C92.5211 337.584 93.5238 337.883 94.1851 338.48C94.8571 339.077 95.1931 339.845 95.1931 340.784C95.1931 341.413 95.0438 341.979 94.7451 342.48C94.4465 342.981 93.9931 343.376 93.3851 343.664C92.7878 343.952 92.0358 344.096 91.1291 344.096Z" fill="#222222"/>
<circle cx="14" cy="321" r="8" fill="white" stroke="#F5BD00" stroke-width="4"/>
<path d="M45.851 620.168C45.095 620.168 44.3904 620.047 43.737 619.804C43.093 619.552 42.533 619.197 42.057 618.74C41.581 618.283 41.2077 617.746 40.937 617.13C40.6757 616.514 40.545 615.837 40.545 615.1C40.545 614.363 40.6757 613.686 40.937 613.07C41.2077 612.454 41.581 611.917 42.057 611.46C42.5424 611.003 43.107 610.653 43.751 610.41C44.395 610.158 45.0997 610.032 45.865 610.032C46.7144 610.032 47.4797 610.181 48.161 610.48C48.8517 610.769 49.4304 611.199 49.897 611.768L48.441 613.112C48.105 612.729 47.7317 612.445 47.321 612.258C46.9104 612.062 46.4624 611.964 45.977 611.964C45.5197 611.964 45.0997 612.039 44.717 612.188C44.3344 612.337 44.003 612.552 43.723 612.832C43.443 613.112 43.2237 613.443 43.065 613.826C42.9157 614.209 42.841 614.633 42.841 615.1C42.841 615.567 42.9157 615.991 43.065 616.374C43.2237 616.757 43.443 617.088 43.723 617.368C44.003 617.648 44.3344 617.863 44.717 618.012C45.0997 618.161 45.5197 618.236 45.977 618.236C46.4624 618.236 46.9104 618.143 47.321 617.956C47.7317 617.76 48.105 617.466 48.441 617.074L49.897 618.418C49.4304 618.987 48.8517 619.421 48.161 619.72C47.4797 620.019 46.7097 620.168 45.851 620.168ZM54.4755 620.112C53.6728 620.112 52.9588 619.944 52.3335 619.608C51.7175 619.272 51.2275 618.815 50.8635 618.236C50.5088 617.648 50.3315 616.981 50.3315 616.234C50.3315 615.478 50.5088 614.811 50.8635 614.232C51.2275 613.644 51.7175 613.187 52.3335 612.86C52.9588 612.524 53.6728 612.356 54.4755 612.356C55.2688 612.356 55.9781 612.524 56.6035 612.86C57.2288 613.187 57.7188 613.639 58.0735 614.218C58.4281 614.797 58.6055 615.469 58.6055 616.234C58.6055 616.981 58.4281 617.648 58.0735 618.236C57.7188 618.815 57.2288 619.272 56.6035 619.608C55.9781 619.944 55.2688 620.112 54.4755 620.112ZM54.4755 618.32C54.8395 618.32 55.1661 618.236 55.4555 618.068C55.7448 617.9 55.9735 617.662 56.1415 617.354C56.3095 617.037 56.3935 616.663 56.3935 616.234C56.3935 615.795 56.3095 615.422 56.1415 615.114C55.9735 614.806 55.7448 614.568 55.4555 614.4C55.1661 614.232 54.8395 614.148 54.4755 614.148C54.1115 614.148 53.7848 614.232 53.4955 614.4C53.2061 614.568 52.9728 614.806 52.7955 615.114C52.6275 615.422 52.5435 615.795 52.5435 616.234C52.5435 616.663 52.6275 617.037 52.7955 617.354C52.9728 617.662 53.2061 617.9 53.4955 618.068C53.7848 618.236 54.1115 618.32 54.4755 618.32ZM65.1782 619.02V614.26H62.7142L62.6722 615.226C62.6536 615.627 62.6302 616.01 62.6022 616.374C62.5742 616.738 62.5182 617.069 62.4342 617.368C62.3596 617.657 62.2476 617.905 62.0982 618.11C61.9489 618.306 61.7482 618.441 61.4962 618.516L59.3402 618.208C59.6109 618.208 59.8302 618.129 59.9982 617.97C60.1662 617.802 60.2969 617.573 60.3902 617.284C60.4836 616.985 60.5536 616.649 60.6002 616.276C60.6469 615.893 60.6796 615.492 60.6982 615.072L60.7962 612.468H67.3622V619.02H65.1782ZM59.0882 621.624V618.208H68.4402V621.624H66.4102V620H61.1182V621.624H59.0882ZM73.4966 620.112C72.638 620.112 71.882 619.944 71.2286 619.608C70.5846 619.272 70.0853 618.815 69.7306 618.236C69.376 617.648 69.1986 616.981 69.1986 616.234C69.1986 615.478 69.3713 614.811 69.7166 614.232C70.0713 613.644 70.552 613.187 71.1586 612.86C71.7653 612.524 72.4513 612.356 73.2166 612.356C73.954 612.356 74.6166 612.515 75.2046 612.832C75.802 613.14 76.2733 613.588 76.6186 614.176C76.964 614.755 77.1366 615.45 77.1366 616.262C77.1366 616.346 77.132 616.444 77.1226 616.556C77.1133 616.659 77.104 616.757 77.0946 616.85H70.9766V615.576H75.9466L75.1066 615.954C75.1066 615.562 75.0273 615.221 74.8686 614.932C74.71 614.643 74.4906 614.419 74.2106 614.26C73.9306 614.092 73.604 614.008 73.2306 614.008C72.8573 614.008 72.526 614.092 72.2366 614.26C71.9566 614.419 71.7373 614.647 71.5786 614.946C71.42 615.235 71.3406 615.581 71.3406 615.982V616.318C71.3406 616.729 71.4293 617.093 71.6066 617.41C71.7933 617.718 72.05 617.956 72.3766 618.124C72.7126 618.283 73.1046 618.362 73.5526 618.362C73.954 618.362 74.304 618.301 74.6026 618.18C74.9106 618.059 75.1906 617.877 75.4426 617.634L76.6046 618.894C76.2593 619.286 75.8253 619.589 75.3026 619.804C74.78 620.009 74.178 620.112 73.4966 620.112ZM83.2487 620.112C82.6141 620.112 82.0587 619.972 81.5827 619.692C81.1067 619.412 80.7334 618.987 80.4627 618.418C80.2014 617.839 80.0707 617.111 80.0707 616.234C80.0707 615.347 80.1967 614.619 80.4487 614.05C80.7007 613.481 81.0647 613.056 81.5407 612.776C82.0167 612.496 82.5861 612.356 83.2487 612.356C83.9581 612.356 84.5927 612.519 85.1527 612.846C85.7221 613.163 86.1701 613.611 86.4967 614.19C86.8327 614.769 87.0007 615.45 87.0007 616.234C87.0007 617.027 86.8327 617.713 86.4967 618.292C86.1701 618.871 85.7221 619.319 85.1527 619.636C84.5927 619.953 83.9581 620.112 83.2487 620.112ZM78.7967 622.716V612.468H80.8827V614.008L80.8407 616.248L80.9807 618.474V622.716H78.7967ZM82.8707 618.32C83.2347 618.32 83.5567 618.236 83.8367 618.068C84.1261 617.9 84.3547 617.662 84.5227 617.354C84.7001 617.037 84.7887 616.663 84.7887 616.234C84.7887 615.795 84.7001 615.422 84.5227 615.114C84.3547 614.806 84.1261 614.568 83.8367 614.4C83.5567 614.232 83.2347 614.148 82.8707 614.148C82.5067 614.148 82.1801 614.232 81.8907 614.4C81.6014 614.568 81.3727 614.806 81.2047 615.114C81.0367 615.422 80.9527 615.795 80.9527 616.234C80.9527 616.663 81.0367 617.037 81.2047 617.354C81.3727 617.662 81.6014 617.9 81.8907 618.068C82.1801 618.236 82.5067 618.32 82.8707 618.32ZM97.357 620L95.355 616.43L97.119 615.38L99.947 620H97.357ZM94.067 617.144V615.394H96.685V617.144H94.067ZM97.343 616.486L95.285 616.262L97.455 612.468H99.765L97.343 616.486ZM89.909 620H87.333L90.147 615.38L91.911 616.43L89.909 620ZM94.711 620H92.555V612.468H94.711V620ZM93.199 617.144H90.595V615.394H93.199V617.144ZM89.923 616.486L87.501 612.468H89.811L91.967 616.262L89.923 616.486ZM105.454 620V618.53L105.314 618.208V615.576C105.314 615.109 105.169 614.745 104.88 614.484C104.6 614.223 104.166 614.092 103.578 614.092C103.176 614.092 102.78 614.157 102.388 614.288C102.005 614.409 101.678 614.577 101.408 614.792L100.624 613.266C101.034 612.977 101.529 612.753 102.108 612.594C102.686 612.435 103.274 612.356 103.872 612.356C105.02 612.356 105.911 612.627 106.546 613.168C107.18 613.709 107.498 614.554 107.498 615.702V620H105.454ZM103.158 620.112C102.57 620.112 102.066 620.014 101.646 619.818C101.226 619.613 100.904 619.337 100.68 618.992C100.456 618.647 100.344 618.259 100.344 617.83C100.344 617.382 100.451 616.99 100.666 616.654C100.89 616.318 101.24 616.057 101.716 615.87C102.192 615.674 102.812 615.576 103.578 615.576H105.58V616.85H103.816C103.302 616.85 102.948 616.934 102.752 617.102C102.565 617.27 102.472 617.48 102.472 617.732C102.472 618.012 102.579 618.236 102.794 618.404C103.018 618.563 103.321 618.642 103.704 618.642C104.068 618.642 104.394 618.558 104.684 618.39C104.973 618.213 105.183 617.956 105.314 617.62L105.65 618.628C105.491 619.113 105.202 619.482 104.782 619.734C104.362 619.986 103.82 620.112 103.158 620.112ZM109.395 620V612.468H111.565V615.408H114.841V612.468H117.025V620H114.841V617.186H111.565V620H109.395ZM119.115 620V612.468H121.285V616.948L124.953 612.468H126.955V620H124.785V615.52L121.131 620H119.115ZM132.737 620.112C131.878 620.112 131.122 619.944 130.469 619.608C129.825 619.272 129.326 618.815 128.971 618.236C128.616 617.648 128.439 616.981 128.439 616.234C128.439 615.478 128.612 614.811 128.957 614.232C129.312 613.644 129.792 613.187 130.399 612.86C131.006 612.524 131.692 612.356 132.457 612.356C133.194 612.356 133.857 612.515 134.445 612.832C135.042 613.14 135.514 613.588 135.859 614.176C136.204 614.755 136.377 615.45 136.377 616.262C136.377 616.346 136.372 616.444 136.363 616.556C136.354 616.659 136.344 616.757 136.335 616.85H130.217V615.576H135.187L134.347 615.954C134.347 615.562 134.268 615.221 134.109 614.932C133.95 614.643 133.731 614.419 133.451 614.26C133.171 614.092 132.844 614.008 132.471 614.008C132.098 614.008 131.766 614.092 131.477 614.26C131.197 614.419 130.978 614.647 130.819 614.946C130.66 615.235 130.581 615.581 130.581 615.982V616.318C130.581 616.729 130.67 617.093 130.847 617.41C131.034 617.718 131.29 617.956 131.617 618.124C131.953 618.283 132.345 618.362 132.793 618.362C133.194 618.362 133.544 618.301 133.843 618.18C134.151 618.059 134.431 617.877 134.683 617.634L135.845 618.894C135.5 619.286 135.066 619.589 134.543 619.804C134.02 620.009 133.418 620.112 132.737 620.112Z" fill="#222222"/>
<path d="M45.1184 644.096C44.2758 644.096 43.4918 643.957 42.7664 643.68C42.0518 643.392 41.4278 642.992 40.8944 642.48C40.3718 641.957 39.9611 641.355 39.6624 640.672C39.3744 639.979 39.2304 639.221 39.2304 638.4C39.2304 637.579 39.3744 636.827 39.6624 636.144C39.9611 635.451 40.3718 634.848 40.8944 634.336C41.4278 633.813 42.0518 633.413 42.7664 633.136C43.4811 632.848 44.2651 632.704 45.1184 632.704C45.9611 632.704 46.7398 632.848 47.4544 633.136C48.1691 633.413 48.7878 633.808 49.3104 634.32C49.8438 634.832 50.2544 635.435 50.5424 636.128C50.8411 636.821 50.9904 637.579 50.9904 638.4C50.9904 639.221 50.8411 639.979 50.5424 640.672C50.2544 641.365 49.8438 641.968 49.3104 642.48C48.7878 642.992 48.1691 643.392 47.4544 643.68C46.7398 643.957 45.9611 644.096 45.1184 644.096ZM48.7824 646.224C48.4411 646.224 48.1104 646.181 47.7904 646.096C47.4704 646.011 47.1451 645.872 46.8144 645.68C46.4944 645.499 46.1638 645.259 45.8224 644.96C45.4811 644.661 45.1078 644.299 44.7024 643.872L45.9984 643.552C46.3291 643.947 46.6491 644.272 46.9584 644.528C47.2784 644.784 47.5878 644.971 47.8864 645.088C48.1958 645.216 48.4998 645.28 48.7984 645.28C49.6304 645.28 50.3398 644.939 50.9264 644.256L51.5024 644.944C50.7984 645.797 49.8918 646.224 48.7824 646.224ZM45.1184 643.04C45.7904 643.04 46.4091 642.928 46.9744 642.704C47.5504 642.469 48.0464 642.139 48.4624 641.712C48.8891 641.285 49.2198 640.795 49.4544 640.24C49.6891 639.675 49.8064 639.061 49.8064 638.4C49.8064 637.728 49.6891 637.115 49.4544 636.56C49.2198 635.995 48.8891 635.504 48.4624 635.088C48.0464 634.661 47.5504 634.336 46.9744 634.112C46.4091 633.877 45.7904 633.76 45.1184 633.76C44.4464 633.76 43.8224 633.877 43.2464 634.112C42.6704 634.336 42.1691 634.661 41.7424 635.088C41.3264 635.504 40.9958 635.995 40.7504 636.56C40.5158 637.115 40.3984 637.728 40.3984 638.4C40.3984 639.061 40.5158 639.675 40.7504 640.24C40.9958 640.795 41.3264 641.285 41.7424 641.712C42.1691 642.139 42.6704 642.469 43.2464 642.704C43.8224 642.928 44.4464 643.04 45.1184 643.04ZM54.4481 644V633.28L54.9601 633.824H51.8081V632.8H55.6001V644H54.4481ZM62.2568 644V643.184L66.9128 638.624C67.3395 638.208 67.6595 637.845 67.8728 637.536C68.0861 637.216 68.2301 636.917 68.3048 636.64C68.3795 636.363 68.4168 636.101 68.4168 635.856C68.4168 635.205 68.1928 634.693 67.7448 634.32C67.3075 633.947 66.6568 633.76 65.7928 633.76C65.1315 633.76 64.5448 633.861 64.0328 634.064C63.5315 634.267 63.0995 634.581 62.7368 635.008L61.9208 634.304C62.3581 633.792 62.9181 633.397 63.6008 633.12C64.2835 632.843 65.0461 632.704 65.8888 632.704C66.6461 632.704 67.3021 632.827 67.8568 633.072C68.4115 633.307 68.8381 633.653 69.1368 634.112C69.4461 634.571 69.6008 635.109 69.6008 635.728C69.6008 636.091 69.5475 636.448 69.4408 636.8C69.3448 637.152 69.1635 637.525 68.8968 637.92C68.6408 638.304 68.2621 638.741 67.7608 639.232L63.4888 643.424L63.1688 642.976H70.1128V644H62.2568ZM75.9913 644.096C75.1273 644.096 74.3593 643.872 73.6873 643.424C73.0153 642.965 72.4873 642.315 72.1033 641.472C71.7193 640.619 71.5273 639.595 71.5273 638.4C71.5273 637.205 71.7193 636.187 72.1033 635.344C72.4873 634.491 73.0153 633.84 73.6873 633.392C74.3593 632.933 75.1273 632.704 75.9913 632.704C76.8553 632.704 77.6233 632.933 78.2953 633.392C78.9673 633.84 79.4953 634.491 79.8793 635.344C80.274 636.187 80.4713 637.205 80.4713 638.4C80.4713 639.595 80.274 640.619 79.8793 641.472C79.4953 642.315 78.9673 642.965 78.2953 643.424C77.6233 643.872 76.8553 644.096 75.9913 644.096ZM75.9913 643.04C76.6526 643.04 77.2286 642.864 77.7193 642.512C78.21 642.149 78.594 641.627 78.8713 640.944C79.1486 640.251 79.2873 639.403 79.2873 638.4C79.2873 637.397 79.1486 636.555 78.8713 635.872C78.594 635.179 78.21 634.656 77.7193 634.304C77.2286 633.941 76.6526 633.76 75.9913 633.76C75.3513 633.76 74.7806 633.941 74.2793 634.304C73.778 634.656 73.3886 635.179 73.1113 635.872C72.834 636.555 72.6953 637.397 72.6953 638.4C72.6953 639.403 72.834 640.251 73.1113 640.944C73.3886 641.627 73.778 642.149 74.2793 642.512C74.7806 642.864 75.3513 643.04 75.9913 643.04ZM81.9131 644V643.184L86.5691 638.624C86.9957 638.208 87.3157 637.845 87.5291 637.536C87.7424 637.216 87.8864 636.917 87.9611 636.64C88.0357 636.363 88.0731 636.101 88.0731 635.856C88.0731 635.205 87.8491 634.693 87.4011 634.32C86.9637 633.947 86.3131 633.76 85.4491 633.76C84.7877 633.76 84.2011 633.861 83.6891 634.064C83.1877 634.267 82.7557 634.581 82.3931 635.008L81.5771 634.304C82.0144 633.792 82.5744 633.397 83.2571 633.12C83.9397 632.843 84.7024 632.704 85.5451 632.704C86.3024 632.704 86.9584 632.827 87.5131 633.072C88.0677 633.307 88.4944 633.653 88.7931 634.112C89.1024 634.571 89.2571 635.109 89.2571 635.728C89.2571 636.091 89.2037 636.448 89.0971 636.8C89.0011 637.152 88.8197 637.525 88.5531 637.92C88.2971 638.304 87.9184 638.741 87.4171 639.232L83.1451 643.424L82.8251 642.976H89.7691V644H81.9131ZM90.6634 641.056V640.224L96.5994 632.8H97.8794L91.9914 640.224L91.3674 640.032H100.375V641.056H90.6634ZM96.9834 644V641.056L97.0154 640.032V637.44H98.1354V644H96.9834Z" fill="#222222"/>
<circle cx="14" cy="627" r="8" fill="white" stroke="#FD7E14" stroke-width="4"/>
<path d="M218.596 619V609.2H222.838C223.715 609.2 224.471 609.345 225.106 609.634C225.741 609.914 226.231 610.32 226.576 610.852C226.921 611.384 227.094 612.019 227.094 612.756C227.094 613.484 226.921 614.114 226.576 614.646C226.231 615.178 225.741 615.589 225.106 615.878C224.471 616.158 223.715 616.298 222.838 616.298H219.856L220.864 615.276V619H218.596ZM220.864 615.528L219.856 614.45H222.712C223.412 614.45 223.935 614.301 224.28 614.002C224.625 613.703 224.798 613.288 224.798 612.756C224.798 612.215 224.625 611.795 224.28 611.496C223.935 611.197 223.412 611.048 222.712 611.048H219.856L220.864 609.97V615.528ZM232.862 619V617.53L232.722 617.208V614.576C232.722 614.109 232.577 613.745 232.288 613.484C232.008 613.223 231.574 613.092 230.986 613.092C230.584 613.092 230.188 613.157 229.796 613.288C229.413 613.409 229.086 613.577 228.816 613.792L228.032 612.266C228.442 611.977 228.937 611.753 229.516 611.594C230.094 611.435 230.682 611.356 231.28 611.356C232.428 611.356 233.319 611.627 233.954 612.168C234.588 612.709 234.906 613.554 234.906 614.702V619H232.862ZM230.566 619.112C229.978 619.112 229.474 619.014 229.054 618.818C228.634 618.613 228.312 618.337 228.088 617.992C227.864 617.647 227.752 617.259 227.752 616.83C227.752 616.382 227.859 615.99 228.074 615.654C228.298 615.318 228.648 615.057 229.124 614.87C229.6 614.674 230.22 614.576 230.986 614.576H232.988V615.85H231.224C230.71 615.85 230.356 615.934 230.16 616.102C229.973 616.27 229.88 616.48 229.88 616.732C229.88 617.012 229.987 617.236 230.202 617.404C230.426 617.563 230.729 617.642 231.112 617.642C231.476 617.642 231.802 617.558 232.092 617.39C232.381 617.213 232.591 616.956 232.722 616.62L233.058 617.628C232.899 618.113 232.61 618.482 232.19 618.734C231.77 618.986 231.228 619.112 230.566 619.112ZM239.283 619.14C238.704 619.14 238.125 619.079 237.547 618.958C236.977 618.837 236.45 618.655 235.965 618.412L236.553 616.886C236.935 617.073 237.351 617.217 237.799 617.32C238.256 617.413 238.718 617.46 239.185 617.46C239.521 617.46 239.81 617.427 240.053 617.362C240.305 617.287 240.496 617.185 240.627 617.054C240.757 616.923 240.823 616.765 240.823 616.578C240.823 616.335 240.72 616.153 240.515 616.032C240.309 615.901 240.011 615.836 239.619 615.836H238.079V614.478H239.437C239.689 614.478 239.903 614.45 240.081 614.394C240.258 614.338 240.389 614.259 240.473 614.156C240.566 614.044 240.613 613.913 240.613 613.764C240.613 613.605 240.557 613.47 240.445 613.358C240.333 613.246 240.169 613.162 239.955 613.106C239.74 613.041 239.469 613.008 239.143 613.008C238.769 613.008 238.382 613.055 237.981 613.148C237.579 613.232 237.169 613.358 236.749 613.526L236.217 612.014C236.711 611.809 237.201 611.645 237.687 611.524C238.172 611.403 238.653 611.337 239.129 611.328C239.829 611.309 240.459 611.384 241.019 611.552C241.579 611.72 242.017 611.963 242.335 612.28C242.661 612.597 242.825 612.985 242.825 613.442C242.825 613.806 242.713 614.133 242.489 614.422C242.274 614.711 241.975 614.94 241.593 615.108C241.21 615.267 240.781 615.346 240.305 615.346L240.361 614.912C241.191 614.912 241.845 615.08 242.321 615.416C242.797 615.743 243.035 616.191 243.035 616.76C243.035 617.245 242.867 617.67 242.531 618.034C242.204 618.389 241.756 618.664 241.187 618.86C240.627 619.047 239.992 619.14 239.283 619.14ZM244.596 619V611.468H248.446C249.389 611.468 250.126 611.641 250.658 611.986C251.19 612.322 251.456 612.798 251.456 613.414C251.456 614.03 251.204 614.515 250.7 614.87C250.205 615.215 249.547 615.388 248.726 615.388L248.95 614.884C249.865 614.884 250.546 615.052 250.994 615.388C251.451 615.724 251.68 616.214 251.68 616.858C251.68 617.521 251.428 618.043 250.924 618.426C250.42 618.809 249.65 619 248.614 619H244.596ZM246.598 617.516H248.432C248.833 617.516 249.132 617.451 249.328 617.32C249.533 617.18 249.636 616.97 249.636 616.69C249.636 616.401 249.543 616.191 249.356 616.06C249.169 615.92 248.875 615.85 248.474 615.85H246.598V617.516ZM246.598 614.562H248.25C248.633 614.562 248.917 614.492 249.104 614.352C249.3 614.212 249.398 614.011 249.398 613.75C249.398 613.479 249.3 613.279 249.104 613.148C248.917 613.017 248.633 612.952 248.25 612.952H246.598V614.562ZM253.305 619V611.468H255.475V615.948L259.143 611.468H261.145V619H258.975V614.52L255.321 619H253.305ZM264.854 619V612.756L265.344 613.26H262.306V611.468H269.572V613.26H266.534L267.024 612.756V619H264.854ZM270.737 619V611.468H272.907V615.948L276.575 611.468H278.577V619H276.407V614.52L272.753 619H270.737ZM284.358 619.112C283.499 619.112 282.743 618.944 282.09 618.608C281.446 618.272 280.947 617.815 280.592 617.236C280.237 616.648 280.06 615.981 280.06 615.234C280.06 614.478 280.233 613.811 280.578 613.232C280.933 612.644 281.413 612.187 282.02 611.86C282.627 611.524 283.313 611.356 284.078 611.356C284.815 611.356 285.478 611.515 286.066 611.832C286.663 612.14 287.135 612.588 287.48 613.176C287.825 613.755 287.998 614.45 287.998 615.262C287.998 615.346 287.993 615.444 287.984 615.556C287.975 615.659 287.965 615.757 287.956 615.85H281.838V614.576H286.808L285.968 614.954C285.968 614.562 285.889 614.221 285.73 613.932C285.571 613.643 285.352 613.419 285.072 613.26C284.792 613.092 284.465 613.008 284.092 613.008C283.719 613.008 283.387 613.092 283.098 613.26C282.818 613.419 282.599 613.647 282.44 613.946C282.281 614.235 282.202 614.581 282.202 614.982V615.318C282.202 615.729 282.291 616.093 282.468 616.41C282.655 616.718 282.911 616.956 283.238 617.124C283.574 617.283 283.966 617.362 284.414 617.362C284.815 617.362 285.165 617.301 285.464 617.18C285.772 617.059 286.052 616.877 286.304 616.634L287.466 617.894C287.121 618.286 286.687 618.589 286.164 618.804C285.641 619.009 285.039 619.112 284.358 619.112Z" fill="#222222"/>
<path d="M228.962 643.096C228.12 643.096 227.336 642.957 226.61 642.68C225.896 642.392 225.272 641.992 224.738 641.48C224.216 640.957 223.805 640.355 223.506 639.672C223.218 638.979 223.074 638.221 223.074 637.4C223.074 636.579 223.218 635.827 223.506 635.144C223.805 634.451 224.216 633.848 224.738 633.336C225.272 632.813 225.896 632.413 226.61 632.136C227.325 631.848 228.109 631.704 228.962 631.704C229.805 631.704 230.584 631.848 231.298 632.136C232.013 632.413 232.632 632.808 233.154 633.32C233.688 633.832 234.098 634.435 234.386 635.128C234.685 635.821 234.834 636.579 234.834 637.4C234.834 638.221 234.685 638.979 234.386 639.672C234.098 640.365 233.688 640.968 233.154 641.48C232.632 641.992 232.013 642.392 231.298 642.68C230.584 642.957 229.805 643.096 228.962 643.096ZM232.626 645.224C232.285 645.224 231.954 645.181 231.634 645.096C231.314 645.011 230.989 644.872 230.658 644.68C230.338 644.499 230.008 644.259 229.666 643.96C229.325 643.661 228.952 643.299 228.546 642.872L229.842 642.552C230.173 642.947 230.493 643.272 230.802 643.528C231.122 643.784 231.432 643.971 231.73 644.088C232.04 644.216 232.344 644.28 232.642 644.28C233.474 644.28 234.184 643.939 234.77 643.256L235.346 643.944C234.642 644.797 233.736 645.224 232.626 645.224ZM228.962 642.04C229.634 642.04 230.253 641.928 230.818 641.704C231.394 641.469 231.89 641.139 232.306 640.712C232.733 640.285 233.064 639.795 233.298 639.24C233.533 638.675 233.65 638.061 233.65 637.4C233.65 636.728 233.533 636.115 233.298 635.56C233.064 634.995 232.733 634.504 232.306 634.088C231.89 633.661 231.394 633.336 230.818 633.112C230.253 632.877 229.634 632.76 228.962 632.76C228.29 632.76 227.666 632.877 227.09 633.112C226.514 633.336 226.013 633.661 225.586 634.088C225.17 634.504 224.84 634.995 224.594 635.56C224.36 636.115 224.242 636.728 224.242 637.4C224.242 638.061 224.36 638.675 224.594 639.24C224.84 639.795 225.17 640.285 225.586 640.712C226.013 641.139 226.514 641.469 227.09 641.704C227.666 641.928 228.29 642.04 228.962 642.04ZM236.132 643V642.184L240.788 637.624C241.214 637.208 241.534 636.845 241.748 636.536C241.961 636.216 242.105 635.917 242.18 635.64C242.254 635.363 242.292 635.101 242.292 634.856C242.292 634.205 242.068 633.693 241.62 633.32C241.182 632.947 240.532 632.76 239.668 632.76C239.006 632.76 238.42 632.861 237.908 633.064C237.406 633.267 236.974 633.581 236.612 634.008L235.796 633.304C236.233 632.792 236.793 632.397 237.476 632.12C238.158 631.843 238.921 631.704 239.764 631.704C240.521 631.704 241.177 631.827 241.732 632.072C242.286 632.307 242.713 632.653 243.012 633.112C243.321 633.571 243.476 634.109 243.476 634.728C243.476 635.091 243.422 635.448 243.316 635.8C243.22 636.152 243.038 636.525 242.772 636.92C242.516 637.304 242.137 637.741 241.636 638.232L237.364 642.424L237.044 641.976H243.988V643H236.132ZM249.413 643V642.184L254.069 637.624C254.496 637.208 254.816 636.845 255.029 636.536C255.242 636.216 255.386 635.917 255.461 635.64C255.536 635.363 255.573 635.101 255.573 634.856C255.573 634.205 255.349 633.693 254.901 633.32C254.464 632.947 253.813 632.76 252.949 632.76C252.288 632.76 251.701 632.861 251.189 633.064C250.688 633.267 250.256 633.581 249.893 634.008L249.077 633.304C249.514 632.792 250.074 632.397 250.757 632.12C251.44 631.843 252.202 631.704 253.045 631.704C253.802 631.704 254.458 631.827 255.013 632.072C255.568 632.307 255.994 632.653 256.293 633.112C256.602 633.571 256.757 634.109 256.757 634.728C256.757 635.091 256.704 635.448 256.597 635.8C256.501 636.152 256.32 636.525 256.053 636.92C255.797 637.304 255.418 637.741 254.917 638.232L250.645 642.424L250.325 641.976H257.269V643H249.413ZM263.148 643.096C262.284 643.096 261.516 642.872 260.844 642.424C260.172 641.965 259.644 641.315 259.26 640.472C258.876 639.619 258.684 638.595 258.684 637.4C258.684 636.205 258.876 635.187 259.26 634.344C259.644 633.491 260.172 632.84 260.844 632.392C261.516 631.933 262.284 631.704 263.148 631.704C264.012 631.704 264.78 631.933 265.452 632.392C266.124 632.84 266.652 633.491 267.036 634.344C267.43 635.187 267.628 636.205 267.628 637.4C267.628 638.595 267.43 639.619 267.036 640.472C266.652 641.315 266.124 641.965 265.452 642.424C264.78 642.872 264.012 643.096 263.148 643.096ZM263.148 642.04C263.809 642.04 264.385 641.864 264.876 641.512C265.366 641.149 265.75 640.627 266.028 639.944C266.305 639.251 266.444 638.403 266.444 637.4C266.444 636.397 266.305 635.555 266.028 634.872C265.75 634.179 265.366 633.656 264.876 633.304C264.385 632.941 263.809 632.76 263.148 632.76C262.508 632.76 261.937 632.941 261.436 633.304C260.934 633.656 260.545 634.179 260.268 634.872C259.99 635.555 259.852 636.397 259.852 637.4C259.852 638.403 259.99 639.251 260.268 639.944C260.545 640.627 260.934 641.149 261.436 641.512C261.937 641.864 262.508 642.04 263.148 642.04ZM269.069 643V642.184L273.725 637.624C274.152 637.208 274.472 636.845 274.685 636.536C274.899 636.216 275.043 635.917 275.117 635.64C275.192 635.363 275.229 635.101 275.229 634.856C275.229 634.205 275.005 633.693 274.557 633.32C274.12 632.947 273.469 632.76 272.605 632.76C271.944 632.76 271.357 632.861 270.845 633.064C270.344 633.267 269.912 633.581 269.549 634.008L268.733 633.304C269.171 632.792 269.731 632.397 270.413 632.12C271.096 631.843 271.859 631.704 272.701 631.704C273.459 631.704 274.115 631.827 274.669 632.072C275.224 632.307 275.651 632.653 275.949 633.112C276.259 633.571 276.413 634.109 276.413 634.728C276.413 635.091 276.36 635.448 276.253 635.8C276.157 636.152 275.976 636.525 275.709 636.92C275.453 637.304 275.075 637.741 274.573 638.232L270.301 642.424L269.981 641.976H276.925V643H269.069ZM277.82 640.056V639.224L283.756 631.8H285.036L279.148 639.224L278.524 639.032H287.532V640.056H277.82ZM284.14 643V640.056L284.172 639.032V636.44H285.292V643H284.14Z" fill="#222222"/>
<circle cx="301" cy="627" r="8" fill="white" stroke="#FD7E14" stroke-width="4"/>
<path d="M37.4829 17L34.4309 12.282L36.2649 11.176L40.0589 17H37.4829ZM31.1129 17V7.2H33.3669V17H31.1129ZM32.7089 13.052V11.162H36.1249V13.052H32.7089ZM36.4749 12.352L34.3889 12.1L37.5669 7.2H39.9609L36.4749 12.352ZM44.3719 17.112C43.5693 17.112 42.8553 16.944 42.2299 16.608C41.6139 16.272 41.1239 15.8147 40.7599 15.236C40.4053 14.648 40.2279 13.9807 40.2279 13.234C40.2279 12.478 40.4053 11.8107 40.7599 11.232C41.1239 10.644 41.6139 10.1867 42.2299 9.86C42.8553 9.524 43.5693 9.356 44.3719 9.356C45.1653 9.356 45.8746 9.524 46.4999 9.86C47.1253 10.1867 47.6153 10.6393 47.9699 11.218C48.3246 11.7967 48.5019 12.4687 48.5019 13.234C48.5019 13.9807 48.3246 14.648 47.9699 15.236C47.6153 15.8147 47.1253 16.272 46.4999 16.608C45.8746 16.944 45.1653 17.112 44.3719 17.112ZM44.3719 15.32C44.7359 15.32 45.0626 15.236 45.3519 15.068C45.6413 14.9 45.8699 14.662 46.0379 14.354C46.2059 14.0367 46.2899 13.6633 46.2899 13.234C46.2899 12.7953 46.2059 12.422 46.0379 12.114C45.8699 11.806 45.6413 11.568 45.3519 11.4C45.0626 11.232 44.7359 11.148 44.3719 11.148C44.0079 11.148 43.6813 11.232 43.3919 11.4C43.1026 11.568 42.8693 11.806 42.6919 12.114C42.5239 12.422 42.4399 12.7953 42.4399 13.234C42.4399 13.6633 42.5239 14.0367 42.6919 14.354C42.8693 14.662 43.1026 14.9 43.3919 15.068C43.6813 15.236 44.0079 15.32 44.3719 15.32ZM50.0041 17V9.468H52.1741V12.408H55.4501V9.468H57.6341V17H55.4501V14.186H52.1741V17H50.0041ZM63.3088 17.112C62.4968 17.112 61.7735 16.9487 61.1388 16.622C60.5041 16.286 60.0048 15.824 59.6408 15.236C59.2861 14.648 59.1088 13.9807 59.1088 13.234C59.1088 12.478 59.2861 11.8107 59.6408 11.232C60.0048 10.644 60.5041 10.1867 61.1388 9.86C61.7735 9.524 62.4968 9.356 63.3088 9.356C64.1021 9.356 64.7928 9.524 65.3808 9.86C65.9688 10.1867 66.4028 10.658 66.6828 11.274L64.9888 12.184C64.7928 11.8293 64.5455 11.568 64.2468 11.4C63.9575 11.232 63.6401 11.148 63.2948 11.148C62.9215 11.148 62.5855 11.232 62.2868 11.4C61.9881 11.568 61.7501 11.806 61.5728 12.114C61.4048 12.422 61.3208 12.7953 61.3208 13.234C61.3208 13.6727 61.4048 14.046 61.5728 14.354C61.7501 14.662 61.9881 14.9 62.2868 15.068C62.5855 15.236 62.9215 15.32 63.2948 15.32C63.6401 15.32 63.9575 15.2407 64.2468 15.082C64.5455 14.914 64.7928 14.648 64.9888 14.284L66.6828 15.208C66.4028 15.8147 65.9688 16.286 65.3808 16.622C64.7928 16.9487 64.1021 17.112 63.3088 17.112ZM72.518 17V15.53L72.378 15.208V12.576C72.378 12.1093 72.2333 11.7453 71.944 11.484C71.664 11.2227 71.23 11.092 70.642 11.092C70.2406 11.092 69.844 11.1573 69.452 11.288C69.0693 11.4093 68.7426 11.5773 68.472 11.792L67.688 10.266C68.0986 9.97667 68.5933 9.75267 69.172 9.594C69.7506 9.43533 70.3386 9.356 70.936 9.356C72.084 9.356 72.9753 9.62667 73.61 10.168C74.2446 10.7093 74.562 11.554 74.562 12.702V17H72.518ZM70.222 17.112C69.634 17.112 69.13 17.014 68.71 16.818C68.29 16.6127 67.968 16.3373 67.744 15.992C67.52 15.6467 67.408 15.2593 67.408 14.83C67.408 14.382 67.5153 13.99 67.73 13.654C67.954 13.318 68.304 13.0567 68.78 12.87C69.256 12.674 69.8766 12.576 70.642 12.576H72.644V13.85H70.88C70.3666 13.85 70.012 13.934 69.816 14.102C69.6293 14.27 69.536 14.48 69.536 14.732C69.536 15.012 69.6433 15.236 69.858 15.404C70.082 15.5627 70.3853 15.642 70.768 15.642C71.132 15.642 71.4586 15.558 71.748 15.39C72.0373 15.2127 72.2473 14.956 72.378 14.62L72.714 15.628C72.5553 16.1133 72.266 16.482 71.846 16.734C71.426 16.986 70.8846 17.112 70.222 17.112ZM75.5072 16.986L75.6192 15.194C75.6752 15.2033 75.7312 15.2127 75.7872 15.222C75.8432 15.222 75.8945 15.222 75.9412 15.222C76.2025 15.222 76.4078 15.1473 76.5572 14.998C76.7065 14.8487 76.8185 14.648 76.8932 14.396C76.9678 14.1347 77.0192 13.8407 77.0472 13.514C77.0845 13.1873 77.1125 12.8467 77.1312 12.492L77.2432 9.468H83.6832V17H81.4992V10.728L81.9892 11.26H78.6852L79.1472 10.7L79.0492 12.59C79.0212 13.262 78.9652 13.878 78.8812 14.438C78.8065 14.998 78.6805 15.4833 78.5032 15.894C78.3258 16.2953 78.0878 16.608 77.7892 16.832C77.4905 17.0467 77.1078 17.154 76.6412 17.154C76.4732 17.154 76.2958 17.14 76.1092 17.112C75.9225 17.084 75.7218 17.042 75.5072 16.986ZM87.3934 17V10.756L87.8834 11.26H84.8454V9.468H92.1114V11.26H89.0734L89.5634 10.756V17H87.3934ZM93.2756 17V9.468H95.4456V13.948L99.1136 9.468H101.116V17H98.9456V12.52L95.2916 17H93.2756ZM103.215 17V9.468H105.385V12.408H108.661V9.468H110.845V17H108.661V14.186H105.385V17H103.215ZM112.936 17V9.468H118.97V11.26H114.616L115.106 10.784V17H112.936Z" fill="#222222"/>
<path d="M37.2122 41.096C36.3695 41.096 35.5855 40.9573 34.8602 40.68C34.1455 40.392 33.5215 39.992 32.9882 39.48C32.4655 38.9573 32.0549 38.3547 31.7562 37.672C31.4682 36.9787 31.3242 36.2213 31.3242 35.4C31.3242 34.5787 31.4682 33.8267 31.7562 33.144C32.0549 32.4507 32.4655 31.848 32.9882 31.336C33.5215 30.8133 34.1455 30.4133 34.8602 30.136C35.5749 29.848 36.3589 29.704 37.2122 29.704C38.0549 29.704 38.8335 29.848 39.5482 30.136C40.2629 30.4133 40.8815 30.808 41.4042 31.32C41.9375 31.832 42.3482 32.4347 42.6362 33.128C42.9349 33.8213 43.0842 34.5787 43.0842 35.4C43.0842 36.2213 42.9349 36.9787 42.6362 37.672C42.3482 38.3653 41.9375 38.968 41.4042 39.48C40.8815 39.992 40.2629 40.392 39.5482 40.68C38.8335 40.9573 38.0549 41.096 37.2122 41.096ZM40.8762 43.224C40.5349 43.224 40.2042 43.1813 39.8842 43.096C39.5642 43.0107 39.2389 42.872 38.9082 42.68C38.5882 42.4987 38.2575 42.2587 37.9162 41.96C37.5749 41.6613 37.2015 41.2987 36.7962 40.872L38.0922 40.552C38.4229 40.9467 38.7429 41.272 39.0522 41.528C39.3722 41.784 39.6815 41.9707 39.9802 42.088C40.2895 42.216 40.5935 42.28 40.8922 42.28C41.7242 42.28 42.4335 41.9387 43.0202 41.256L43.5962 41.944C42.8922 42.7973 41.9855 43.224 40.8762 43.224ZM37.2122 40.04C37.8842 40.04 38.5029 39.928 39.0682 39.704C39.6442 39.4693 40.1402 39.1387 40.5562 38.712C40.9829 38.2853 41.3135 37.7947 41.5482 37.24C41.7829 36.6747 41.9002 36.0613 41.9002 35.4C41.9002 34.728 41.7829 34.1147 41.5482 33.56C41.3135 32.9947 40.9829 32.504 40.5562 32.088C40.1402 31.6613 39.6442 31.336 39.0682 31.112C38.5029 30.8773 37.8842 30.76 37.2122 30.76C36.5402 30.76 35.9162 30.8773 35.3402 31.112C34.7642 31.336 34.2629 31.6613 33.8362 32.088C33.4202 32.504 33.0895 32.9947 32.8442 33.56C32.6095 34.1147 32.4922 34.728 32.4922 35.4C32.4922 36.0613 32.6095 36.6747 32.8442 37.24C33.0895 37.7947 33.4202 38.2853 33.8362 38.712C34.2629 39.1387 34.7642 39.4693 35.3402 39.704C35.9162 39.928 36.5402 40.04 37.2122 40.04ZM46.5418 41V30.28L47.0538 30.824H43.9018V29.8H47.6938V41H46.5418ZM54.3506 41V40.184L59.0066 35.624C59.4332 35.208 59.7532 34.8453 59.9666 34.536C60.1799 34.216 60.3239 33.9173 60.3986 33.64C60.4732 33.3627 60.5106 33.1013 60.5106 32.856C60.5106 32.2053 60.2866 31.6933 59.8386 31.32C59.4012 30.9467 58.7506 30.76 57.8866 30.76C57.2252 30.76 56.6386 30.8613 56.1266 31.064C55.6252 31.2667 55.1932 31.5813 54.8306 32.008L54.0146 31.304C54.4519 30.792 55.0119 30.3973 55.6946 30.12C56.3772 29.8427 57.1399 29.704 57.9826 29.704C58.7399 29.704 59.3959 29.8267 59.9506 30.072C60.5052 30.3067 60.9319 30.6533 61.2306 31.112C61.5399 31.5707 61.6946 32.1093 61.6946 32.728C61.6946 33.0907 61.6412 33.448 61.5346 33.8C61.4386 34.152 61.2572 34.5253 60.9906 34.92C60.7346 35.304 60.3559 35.7413 59.8546 36.232L55.5826 40.424L55.2626 39.976H62.2066V41H54.3506ZM68.0851 41.096C67.2211 41.096 66.4531 40.872 65.7811 40.424C65.1091 39.9653 64.5811 39.3147 64.1971 38.472C63.8131 37.6187 63.6211 36.5947 63.6211 35.4C63.6211 34.2053 63.8131 33.1867 64.1971 32.344C64.5811 31.4907 65.1091 30.84 65.7811 30.392C66.4531 29.9333 67.2211 29.704 68.0851 29.704C68.9491 29.704 69.7171 29.9333 70.3891 30.392C71.0611 30.84 71.5891 31.4907 71.9731 32.344C72.3677 33.1867 72.5651 34.2053 72.5651 35.4C72.5651 36.5947 72.3677 37.6187 71.9731 38.472C71.5891 39.3147 71.0611 39.9653 70.3891 40.424C69.7171 40.872 68.9491 41.096 68.0851 41.096ZM68.0851 40.04C68.7464 40.04 69.3224 39.864 69.8131 39.512C70.3037 39.1493 70.6877 38.6267 70.9651 37.944C71.2424 37.2507 71.3811 36.4027 71.3811 35.4C71.3811 34.3973 71.2424 33.5547 70.9651 32.872C70.6877 32.1787 70.3037 31.656 69.8131 31.304C69.3224 30.9413 68.7464 30.76 68.0851 30.76C67.4451 30.76 66.8744 30.9413 66.3731 31.304C65.8717 31.656 65.4824 32.1787 65.2051 32.872C64.9277 33.5547 64.7891 34.3973 64.7891 35.4C64.7891 36.4027 64.9277 37.2507 65.2051 37.944C65.4824 38.6267 65.8717 39.1493 66.3731 39.512C66.8744 39.864 67.4451 40.04 68.0851 40.04ZM74.0068 41V40.184L78.6628 35.624C79.0895 35.208 79.4095 34.8453 79.6228 34.536C79.8361 34.216 79.9801 33.9173 80.0548 33.64C80.1295 33.3627 80.1668 33.1013 80.1668 32.856C80.1668 32.2053 79.9428 31.6933 79.4948 31.32C79.0575 30.9467 78.4068 30.76 77.5428 30.76C76.8815 30.76 76.2948 30.8613 75.7828 31.064C75.2815 31.2667 74.8495 31.5813 74.4868 32.008L73.6708 31.304C74.1081 30.792 74.6681 30.3973 75.3508 30.12C76.0335 29.8427 76.7961 29.704 77.6388 29.704C78.3961 29.704 79.0521 29.8267 79.6068 30.072C80.1615 30.3067 80.5881 30.6533 80.8868 31.112C81.1961 31.5707 81.3508 32.1093 81.3508 32.728C81.3508 33.0907 81.2975 33.448 81.1908 33.8C81.0948 34.152 80.9135 34.5253 80.6468 34.92C80.3908 35.304 80.0121 35.7413 79.5108 36.232L75.2388 40.424L74.9188 39.976H81.8628V41H74.0068ZM86.6526 41.096C85.8419 41.096 85.0739 40.968 84.3486 40.712C83.6339 40.4453 83.0579 40.0933 82.6206 39.656L83.1806 38.744C83.5432 39.1173 84.0286 39.4267 84.6366 39.672C85.2552 39.9173 85.9272 40.04 86.6526 40.04C87.5806 40.04 88.2899 39.8373 88.7806 39.432C89.2819 39.0267 89.5326 38.4827 89.5326 37.8C89.5326 37.1173 89.2872 36.5733 88.7966 36.168C88.3166 35.7627 87.5539 35.56 86.5086 35.56H85.7086V34.712L89.1646 30.376L89.3246 30.824H83.0846V29.8H90.2846V30.616L86.8286 34.952L86.2686 34.584H86.7006C88.0446 34.584 89.0472 34.8827 89.7086 35.48C90.3806 36.0773 90.7166 36.8453 90.7166 37.784C90.7166 38.4133 90.5672 38.9787 90.2686 39.48C89.9699 39.9813 89.5166 40.376 88.9086 40.664C88.3112 40.952 87.5592 41.096 86.6526 41.096Z" fill="#222222"/>
<circle cx="14" cy="21" r="8" fill="white" stroke="#F5BD00" stroke-width="4"/>
<path d="M18.2156 17.2704C18.647 16.9099 19.3465 16.9099 19.778 17.2704C20.2041 17.6264 20.2094 18.201 19.7937 18.5624L13.913 24.7043C13.9045 24.7131 13.8954 24.7216 13.8858 24.7296C13.4544 25.0901 12.7549 25.0901 12.3235 24.7296L8.42514 21.4725C7.9937 21.112 7.9937 20.5275 8.42514 20.167C8.85659 19.8066 9.55609 19.8066 9.98753 20.167L13.0714 22.7437L18.1863 17.298C18.1954 17.2883 18.2052 17.2791 18.2156 17.2704Z" fill="#FD7E14"/>
<defs>
<linearGradient id="paint0_linear_945_731" x1="155.5" y1="21" x2="155.5" y2="627" gradientUnits="userSpaceOnUse">
<stop stop-color="#F5BD00"/>
<stop offset="1" stop-color="#FD7E14"/>
</linearGradient>
<linearGradient id="paint1_linear_945_731" x1="143" y1="118" x2="143" y2="207" gradientUnits="userSpaceOnUse">
<stop stop-color="#F5BD00"/>
<stop offset="1" stop-color="#FD7E14"/>
</linearGradient>
<linearGradient id="paint2_linear_945_731" x1="168" y1="431" x2="168" y2="520" gradientUnits="userSpaceOnUse">
<stop stop-color="#F5BD00"/>
<stop offset="1" stop-color="#FD7E14"/>
</linearGradient>
</defs>
</svg>
