<?xml version="1.0" standalone="no"?>
<!DOCTYPE svg PUBLIC "-//W3C//DTD SVG 20010904//EN"
 "http://www.w3.org/TR/2001/REC-SVG-20010904/DTD/svg10.dtd">
<svg version="1.0" xmlns="http://www.w3.org/2000/svg"
 width="972.000000pt" height="972.000000pt" viewBox="0 0 972.000000 972.000000"
 preserveAspectRatio="xMidYMid meet">
<metadata>
Created by potrace 1.14, written by Peter Selinger 2001-2017
</metadata>
<g transform="translate(0.000000,972.000000) scale(0.100000,-0.100000)"
fill="#000000" stroke="none">
<path d="M4739 9627 c-30 -45 -97 -145 -149 -222 -52 -77 -97 -142 -100 -145
-3 -3 -45 -66 -95 -140 -49 -74 -92 -137 -95 -140 -3 -3 -32 -45 -64 -95 -33
-49 -62 -92 -65 -95 -3 -3 -10 -13 -16 -22 -12 -21 -264 -392 -301 -443 -7
-11 -50 -74 -93 -140 -44 -66 -84 -124 -88 -130 -8 -9 -43 -61 -231 -340 -45
-66 -85 -124 -89 -130 -8 -9 -73 -105 -244 -360 -41 -60 -76 -112 -79 -115 -3
-3 -52 -75 -109 -160 -57 -85 -107 -156 -112 -158 -5 -2 -9 -8 -9 -14 0 -8
-95 -153 -110 -168 -13 -13 -70 -102 -70 -109 0 -5 -3 -11 -7 -13 -11 -5 -53
-66 -53 -77 0 -5 -3 -11 -8 -13 -7 -3 -63 -83 -156 -223 -22 -33 -43 -62 -46
-65 -3 -3 -9 -13 -15 -22 -5 -10 -68 -103 -140 -208 -71 -105 -134 -198 -140
-208 -5 -9 -16 -21 -22 -25 -7 -4 -13 -12 -13 -17 0 -5 -18 -35 -40 -66 -22
-32 -40 -60 -40 -63 0 -3 296 -6 657 -6 l657 0 28 45 c15 25 32 56 38 68 6 13
28 54 49 90 21 37 53 94 71 127 18 33 75 135 126 228 52 92 94 171 94 176 0 5
4 11 9 13 5 2 11 10 13 18 2 8 6 17 9 20 3 3 28 45 55 95 27 49 57 103 66 120
9 16 20 37 24 45 4 8 18 32 31 53 13 20 21 37 18 37 -3 0 -1 6 5 13 6 6 56 93
110 192 55 99 104 185 110 192 5 7 10 15 10 18 0 5 53 102 116 214 11 20 35
63 53 96 57 102 106 189 116 207 6 9 25 45 44 80 31 59 94 171 127 228 7 14
39 72 71 130 31 58 59 107 62 110 3 3 17 28 30 55 14 28 27 52 30 55 34 29 35
51 35 771 1 391 -1 712 -4 714 -3 2 -30 -33 -61 -78z"/>
<path d="M4903 8993 l0 -718 23 -37 c13 -21 24 -40 24 -42 0 -3 17 -33 37 -68
21 -35 38 -65 38 -68 0 -3 10 -21 21 -40 24 -41 58 -100 104 -185 58 -105 160
-289 176 -315 8 -14 23 -41 32 -60 9 -19 20 -37 23 -40 4 -3 9 -15 13 -27 4
-13 12 -23 17 -23 5 0 9 -7 9 -16 0 -9 8 -28 19 -42 10 -15 37 -63 61 -107 23
-44 61 -111 83 -150 23 -38 39 -70 36 -70 -2 0 5 -13 17 -30 11 -16 24 -37 28
-45 3 -8 17 -33 29 -55 13 -22 41 -71 62 -110 21 -38 47 -83 56 -100 10 -16
30 -52 44 -80 14 -27 35 -66 46 -85 12 -19 57 -100 101 -180 44 -80 92 -165
106 -190 15 -25 27 -47 27 -50 0 -3 10 -21 21 -40 41 -67 154 -272 154 -280 0
-4 7 -13 15 -20 8 -6 13 -15 12 -18 -1 -4 14 -34 33 -67 19 -33 42 -73 50 -90
8 -16 22 -34 30 -40 16 -10 1294 -15 1311 -4 5 3 0 15 -11 27 -11 11 -20 26
-20 32 0 5 -4 10 -9 10 -5 0 -11 8 -14 18 -4 9 -48 78 -100 152 -133 192 -340
497 -352 518 -5 9 -12 19 -15 22 -3 3 -46 66 -96 140 -50 74 -120 178 -155
230 -35 52 -70 101 -76 108 -7 7 -13 17 -13 22 0 5 -6 15 -13 22 -7 7 -60 83
-117 168 -58 85 -136 201 -175 258 -38 57 -74 111 -80 120 -5 9 -12 19 -15 22
-5 5 -77 110 -225 330 -38 58 -72 107 -75 110 -3 3 -36 52 -74 110 -38 58 -74
110 -80 115 -6 6 -18 23 -26 37 -24 44 -134 203 -142 206 -5 2 -8 8 -8 13 0 7
-56 95 -70 109 -15 15 -70 100 -70 108 0 6 -4 12 -8 14 -5 2 -60 80 -123 173
-62 94 -116 172 -119 175 -3 3 -66 95 -139 205 -74 110 -138 202 -143 203 -4
2 -8 8 -8 12 0 5 -26 47 -57 93 -32 46 -62 90 -68 99 -40 61 -156 228 -159
228 -2 0 -3 -323 -3 -717z"/>
<path d="M4155 5847 c-27 -45 -51 -87 -53 -94 -2 -7 -8 -13 -13 -13 -5 0 -9
-7 -9 -15 0 -8 -5 -15 -12 -15 -6 0 -8 -3 -5 -7 4 -3 1 -13 -6 -22 -8 -9 -52
-79 -98 -156 -46 -77 -87 -141 -91 -143 -5 -2 -8 -8 -8 -14 0 -5 -20 -41 -45
-79 -25 -38 -45 -71 -45 -74 0 -2 -25 -43 -55 -91 -30 -49 -55 -93 -55 -100 0
-6 12 -20 27 -30 14 -10 33 -26 42 -34 9 -9 35 -29 56 -45 22 -17 56 -45 75
-62 19 -18 38 -33 41 -33 3 0 17 -10 31 -22 14 -13 34 -30 44 -38 98 -78 120
-96 124 -100 3 -3 50 -41 105 -85 55 -44 102 -82 105 -85 5 -5 83 -67 120 -97
8 -6 44 -36 80 -65 36 -30 110 -90 165 -134 55 -43 111 -89 125 -102 45 -42
55 -43 88 -14 41 36 45 39 212 172 79 63 152 122 161 130 8 8 91 76 184 150
93 74 187 151 210 170 88 73 128 105 144 114 9 5 21 15 26 21 6 6 58 51 118
99 59 48 107 89 107 92 0 2 -26 46 -58 97 -32 51 -61 99 -65 107 -4 8 -15 27
-25 42 -9 15 -66 108 -127 207 -60 99 -122 200 -137 223 -14 24 -46 77 -71
118 -71 119 -66 114 -107 87 -114 -76 -161 -107 -166 -107 -3 0 -26 -15 -52
-32 -26 -18 -55 -37 -64 -43 -10 -5 -63 -39 -119 -75 -233 -150 -196 -139
-281 -84 -252 162 -319 204 -326 204 -4 1 -23 14 -42 30 -19 17 -40 30 -46 30
-7 0 -19 6 -26 13 -13 12 -125 87 -130 87 -2 0 -25 -37 -53 -83z"/>
<path d="M1950 5391 c0 -2 28 -38 63 -80 34 -42 67 -83 74 -91 6 -8 35 -44 65
-80 29 -36 82 -101 118 -145 35 -44 67 -82 70 -85 3 -3 17 -21 32 -42 15 -20
34 -42 41 -50 7 -7 40 -47 72 -88 81 -101 111 -138 210 -255 22 -27 44 -55 49
-64 5 -9 14 -20 20 -26 7 -5 79 -93 161 -195 83 -102 157 -194 167 -205 9 -11
44 -54 78 -95 62 -76 132 -159 160 -190 15 -16 90 -106 120 -144 8 -10 22 -26
31 -35 8 -9 39 -45 69 -81 29 -36 56 -67 59 -70 3 -3 12 -16 19 -30 7 -14 26
-40 42 -58 16 -19 39 -47 52 -64 13 -16 28 -35 34 -41 9 -10 122 -149 159
-195 5 -7 17 -21 25 -30 13 -14 57 -68 104 -128 4 -7 21 -26 36 -44 15 -18 32
-37 36 -44 5 -6 41 -50 79 -97 39 -47 86 -105 105 -129 19 -24 43 -51 53 -59
9 -9 17 -19 17 -23 0 -8 28 -43 60 -77 9 -9 28 -32 42 -51 14 -19 34 -44 45
-55 10 -11 45 -54 78 -95 65 -82 78 -98 113 -138 12 -15 37 -46 55 -69 18 -23
34 -43 37 -43 8 0 4 363 -4 388 -4 12 -12 22 -17 22 -5 0 -9 7 -9 15 0 8 -4
15 -8 15 -4 0 -15 12 -24 28 -9 15 -26 38 -37 52 -23 29 -180 240 -406 546
-88 119 -165 221 -170 228 -6 6 -26 34 -45 61 -19 28 -37 52 -40 55 -3 3 -61
79 -128 170 -67 91 -125 170 -130 175 -4 6 -19 26 -32 45 -14 19 -27 37 -30
40 -3 3 -30 39 -60 80 -30 41 -57 77 -60 80 -3 3 -55 73 -115 155 -60 83 -115
157 -122 165 -12 14 -178 238 -413 555 -57 77 -107 142 -112 143 -4 2 -8 8 -8
12 0 5 -43 67 -96 137 -53 70 -105 139 -115 153 -10 14 -35 45 -54 70 -19 25
-35 48 -35 53 0 4 -10 17 -22 29 -23 23 -27 23 -290 23 -148 0 -268 -2 -268
-4z"/>
<path d="M7069 5195 c-82 -110 -158 -211 -169 -223 -11 -13 -20 -26 -20 -28 0
-3 -30 -45 -67 -94 -38 -48 -77 -100 -87 -115 -34 -46 -236 -319 -256 -345
-11 -14 -57 -77 -104 -140 -47 -63 -123 -167 -171 -230 -123 -165 -283 -381
-303 -409 -9 -13 -24 -31 -32 -40 -9 -9 -26 -32 -37 -51 -12 -19 -33 -47 -45
-62 -13 -15 -41 -52 -63 -84 -22 -31 -45 -62 -50 -68 -6 -6 -28 -36 -50 -66
-22 -30 -45 -62 -52 -70 -15 -18 -283 -380 -373 -503 -36 -49 -72 -97 -80
-107 -8 -10 -22 -28 -30 -40 -15 -22 -123 -167 -138 -185 -38 -47 -40 -58 -39
-243 0 -100 3 -182 7 -182 4 0 18 14 31 32 13 17 29 36 34 42 6 6 21 25 35 42
36 45 168 207 285 349 18 22 49 60 69 85 20 25 51 63 69 84 18 22 39 47 48 57
9 9 18 21 20 26 2 6 23 32 46 59 37 43 168 203 356 434 107 132 142 174 155
188 6 7 17 23 24 35 9 19 91 121 109 137 3 3 29 34 58 69 29 35 58 70 64 77 7
6 28 31 47 55 19 24 42 50 50 59 21 21 156 185 247 299 16 19 36 43 46 53 9
10 17 23 17 28 0 6 4 10 8 10 5 0 22 19 39 43 17 23 39 51 50 62 10 11 36 43
58 70 22 28 44 55 50 62 5 7 15 18 20 25 37 46 249 307 263 323 9 11 35 43 56
70 22 28 45 55 51 61 5 6 21 26 35 44 14 18 35 44 48 56 12 13 22 27 22 33 0
5 4 11 8 13 4 2 39 41 76 88 38 47 72 87 75 90 4 3 31 37 61 75 30 39 59 75
65 81 37 41 54 64 47 65 -4 1 -126 2 -271 3 l-264 1 -148 -200z"/>
<path d="M3020 3634 c-102 -24 -198 -45 -215 -48 -16 -3 -30 -5 -30 -6 0 -1
-13 -4 -30 -6 -16 -3 -43 -9 -60 -14 -16 -5 -43 -12 -60 -15 -16 -3 -63 -13
-104 -23 l-74 -17 -168 -270 c-93 -148 -172 -277 -177 -285 -4 -8 -54 -89
-110 -180 -57 -91 -108 -172 -113 -180 -5 -8 -45 -73 -89 -144 -44 -72 -80
-135 -80 -140 0 -8 50 -10 152 -8 84 2 158 3 163 3 63 -2 157 -3 490 -2 l390
1 29 48 c16 26 40 67 54 92 14 25 60 106 102 180 43 74 89 156 104 182 14 26
55 97 91 158 36 61 65 113 65 115 0 2 29 53 65 114 36 60 65 114 65 120 0 6 5
11 11 11 10 0 -20 48 -51 81 -8 9 -22 25 -30 35 -8 11 -35 44 -60 74 -25 30
-52 63 -60 73 -8 11 -31 36 -50 57 l-35 37 -185 -43z"/>
<path d="M6463 3642 c-15 -20 -38 -47 -50 -61 -13 -15 -26 -31 -30 -36 -5 -6
-45 -56 -91 -112 l-82 -102 20 -35 c11 -20 30 -53 41 -73 12 -21 33 -58 47
-83 13 -25 40 -72 60 -105 53 -92 103 -178 140 -245 14 -25 49 -86 78 -137 30
-50 54 -96 54 -102 0 -6 4 -11 9 -11 5 0 14 -15 22 -32 7 -18 15 -35 18 -38 8
-7 46 -74 73 -127 l22 -43 160 -1 c89 -1 166 0 171 1 6 1 17 2 25 2 56 -3 845
-1 848 3 2 2 -11 28 -30 57 -34 52 -123 195 -143 230 -5 10 -48 78 -95 153
-47 74 -89 143 -95 153 -5 10 -29 48 -52 85 -24 37 -62 97 -85 135 -86 139
-98 157 -108 169 -5 7 -10 15 -10 19 0 3 -10 20 -22 37 -13 18 -23 34 -23 37
-1 3 -18 33 -40 67 -40 62 -44 65 -120 79 -16 3 -48 10 -70 16 -22 5 -49 12
-60 14 -11 2 -40 8 -65 14 -25 6 -60 12 -79 15 -18 2 -48 9 -66 15 -19 6 -46
13 -62 16 -15 2 -41 7 -58 11 -35 8 -25 5 -137 31 l-86 19 -29 -35z"/>
<path d="M3542 3198 c-12 -23 -36 -65 -52 -93 -17 -27 -36 -61 -42 -75 -7 -14
-23 -39 -36 -57 -13 -17 -23 -35 -22 -38 0 -3 -15 -32 -34 -64 -20 -32 -36
-64 -36 -70 0 -6 -3 -11 -8 -11 -4 0 -14 -15 -21 -32 -8 -18 -22 -44 -31 -58
-15 -21 -262 -454 -294 -515 -6 -11 -16 -27 -22 -35 -31 -42 -26 -49 29 -45
85 7 199 16 247 19 158 12 236 18 240 21 13 8 35 -24 200 -290 95 -154 188
-302 205 -330 70 -110 139 -222 154 -250 9 -16 18 -32 21 -35 8 -7 314 -501
319 -514 2 -6 7 -13 10 -16 3 -3 11 -14 18 -25 7 -11 31 -51 55 -89 24 -39 52
-85 63 -103 69 -113 184 -298 220 -353 23 -36 48 -75 54 -87 6 -13 15 -23 19
-23 5 0 8 1627 3 1686 -1 10 -113 158 -131 174 -4 3 -62 75 -131 160 -68 84
-131 161 -139 170 -8 9 -27 32 -42 51 -14 19 -35 44 -45 56 -10 12 -29 36 -43
53 -14 18 -29 37 -35 44 -11 13 -93 113 -112 136 -63 78 -131 162 -158 195
-44 54 -103 127 -118 145 -115 142 -207 255 -240 293 l-42 49 -23 -44z"/>
<path d="M6120 3222 c-8 -9 -42 -51 -75 -92 -69 -87 -61 -76 -165 -205 -45
-55 -89 -109 -98 -120 -9 -11 -37 -45 -62 -75 -25 -30 -48 -56 -52 -58 -5 -2
-8 -8 -8 -13 0 -6 -10 -20 -22 -33 -13 -13 -30 -32 -38 -42 -44 -57 -185 -230
-190 -234 -3 -3 -21 -25 -40 -50 -19 -25 -39 -50 -45 -56 -5 -6 -21 -25 -35
-43 -14 -18 -33 -42 -43 -54 -11 -12 -71 -87 -135 -166 -65 -80 -124 -152
-132 -160 -8 -9 -29 -34 -46 -56 l-31 -40 0 -852 c0 -469 3 -853 6 -853 4 0
12 12 19 28 6 15 22 43 34 63 13 19 36 57 53 85 16 27 33 51 37 52 4 2 8 8 8
13 0 6 8 22 19 37 10 15 45 70 77 122 32 52 77 125 101 162 24 37 43 70 43 73
0 3 5 11 10 18 18 20 150 238 150 247 0 5 4 10 8 12 5 2 28 36 53 76 24 40 51
84 59 98 8 13 76 122 150 241 73 120 137 220 141 223 3 3 9 15 13 28 4 12 12
22 17 22 5 0 9 6 9 14 0 8 6 21 13 28 12 13 65 97 99 158 11 19 26 42 34 51 8
8 14 19 14 23 0 4 11 22 25 40 14 18 25 36 25 40 0 4 14 27 30 51 17 24 30 48
30 54 0 6 5 11 10 11 6 0 10 7 10 15 0 8 5 15 10 15 6 0 10 6 10 13 0 8 12 12
33 10 35 -2 151 -11 232 -18 28 -3 88 -8 135 -11 47 -3 102 -7 123 -9 39 -2
48 11 25 37 -7 7 -23 31 -35 53 -24 45 -43 80 -98 175 -20 36 -53 94 -72 130
-20 36 -42 72 -49 81 -8 8 -14 18 -14 22 0 4 -20 41 -45 83 -25 41 -45 77 -45
78 0 2 -45 80 -99 174 -55 95 -105 185 -113 202 -7 16 -16 30 -20 30 -5 0 -8
6 -8 13 0 6 -8 22 -18 35 -16 21 -18 21 -32 4z"/>
</g>
</svg>
