<svg width="120" height="120" viewBox="0 0 120 120" fill="none" xmlns="http://www.w3.org/2000/svg">
<rect x="1" y="1" width="118" height="118" rx="59" fill="#FBFBFB" stroke="#FD7E14" stroke-width="2"/>
<path fill-rule="evenodd" clip-rule="evenodd" d="M47.9445 67.5146L38.5041 55.8154H42.6267L59.0527 78.1171V81.1962L50.4517 70.5694L50.4818 70.5162L50.3698 70.3822L48.0663 67.6271L47.9679 67.5094L47.9445 67.5146ZM70.5446 55.3111L59.557 35.352V24.7061L80.1594 55.3111H75.8556H70.5446ZM38.4503 55.3111L59.0527 24.7061V35.352L48.0651 55.3111H42.7541H38.4503ZM75.983 55.8154H80.1056L70.6652 67.5146L70.6418 67.5094L70.5433 67.6271L68.2399 70.3822L68.1278 70.5162L68.158 70.5694L59.557 81.1962V78.1171L75.983 55.8154ZM42.2305 69.3033L47.7485 68.0749L49.8265 70.65L45.5931 78.1265H36.8066L42.2305 69.3033ZM59.0527 82.0838L50.196 71.1079L45.4246 79.5543L49.389 79.2465L49.5427 79.2346L49.6234 79.3659L59.0527 94.7061V82.0838ZM59.557 82.0838V94.7061L68.9863 79.3659L69.067 79.2346L69.2207 79.2465L73.1851 79.5543L68.4137 71.1079L59.557 82.0838ZM70.8611 68.0749L68.7832 70.65L73.0166 78.1265H81.803L76.3791 69.3033L70.8611 68.0749ZM50.6759 58.6058L54.6944 51.955L59.1686 54.8284L59.3048 54.9159L59.4411 54.8284L63.9153 51.955L67.9337 58.6058L59.3048 65.6552L50.6759 58.6058Z" fill="#F5BD00"/>
</svg>
