<svg width="120" height="120" viewBox="0 0 120 120" fill="none" xmlns="http://www.w3.org/2000/svg">
<rect x="1" y="1" width="118" height="118" rx="59" fill="#FBFBFB" stroke="#FD7E14" stroke-width="2"/>
<path fill-rule="evenodd" clip-rule="evenodd" d="M47.9444 67.5147L38.504 55.8155H42.6266L59.0526 78.1173V81.1964L50.4517 70.5695L50.4818 70.5163L50.3698 70.3823L48.0663 67.6272L47.9679 67.5095L47.9444 67.5147ZM70.5445 55.3112L59.557 35.3521V24.7062L80.1593 55.3112H75.8555H70.5445ZM38.4503 55.3112L59.0526 24.7062V35.3521L48.0651 55.3112H42.7541H38.4503ZM75.983 55.8155H80.1056L70.6652 67.5147L70.6417 67.5095L70.5433 67.6272L68.2398 70.3823L68.1278 70.5163L68.1579 70.5695L59.557 81.1964V78.1173L75.983 55.8155ZM42.2305 69.3034L47.7485 68.075L49.8265 70.6501L45.593 78.1266H36.8066L42.2305 69.3034ZM59.0526 82.0839L50.1959 71.1081L45.4245 79.5544L49.389 79.2466L49.5426 79.2347L49.6233 79.366L59.0526 94.7062V82.0839ZM59.557 82.0839V94.7062L68.9863 79.366L69.067 79.2347L69.2206 79.2466L73.1851 79.5544L68.4136 71.1081L59.557 82.0839ZM70.8611 68.075L68.7831 70.6502L73.0166 78.1266H81.803L76.3791 69.3034L70.8611 68.075ZM50.6759 58.606L54.6944 51.9552L59.1685 54.8285L59.3048 54.916L59.4411 54.8285L63.9152 51.9552L67.9337 58.606L59.3048 65.6554L50.6759 58.606Z" fill="#F5BD00"/>
</svg>
