<svg width="27" height="22" viewBox="0 0 27 22" fill="none" xmlns="http://www.w3.org/2000/svg">
<path d="M26.6527 3.05489C25.8119 3.41675 24.9279 3.66872 24.0227 3.80459C24.4459 3.73204 25.0687 2.97025 25.3165 2.66191C25.6931 2.1968 25.9801 1.66585 26.163 1.09601C26.163 1.05369 26.2053 0.99323 26.163 0.963001C26.1417 0.951359 26.1177 0.945258 26.0935 0.945258C26.0692 0.945258 26.0452 0.951359 26.0239 0.963001C25.041 1.4953 23.9948 1.90156 22.9103 2.17219C22.8725 2.18374 22.8322 2.18477 22.7939 2.17519C22.7555 2.1656 22.7205 2.14575 22.6926 2.11777C22.6082 2.01725 22.5173 1.92233 22.4205 1.83362C21.9782 1.43727 21.4763 1.11288 20.9332 0.872312C20.2002 0.571573 19.4084 0.44133 18.6177 0.491418C17.8504 0.539875 17.1013 0.745672 16.4169 1.09601C15.743 1.46537 15.1508 1.96716 14.6757 2.57122C14.176 3.19295 13.8152 3.91449 13.6177 4.6873C13.4548 5.42239 13.4363 6.18215 13.5633 6.92429C13.5633 7.05126 13.5633 7.0694 13.4544 7.05126C9.14367 6.41643 5.6068 4.88681 2.71685 1.60387C2.58988 1.45877 2.52338 1.45877 2.42059 1.60387C1.16304 3.51439 1.77368 6.53735 3.34562 8.0307C3.55723 8.23022 3.77488 8.42369 4.00463 8.60506C3.2839 8.5539 2.58078 8.35858 1.93692 8.0307C1.816 7.9521 1.7495 7.99442 1.74345 8.13953C1.72631 8.34069 1.72631 8.54295 1.74345 8.74412C1.8696 9.7082 2.24954 10.6215 2.84441 11.3906C3.43929 12.1597 4.22775 12.757 5.12917 13.1214C5.34892 13.2155 5.57789 13.2864 5.81236 13.333C5.14515 13.4643 4.46084 13.4848 3.78698 13.3934C3.64187 13.3632 3.58746 13.4418 3.64187 13.5809C4.53063 15.9992 6.45928 16.7368 7.87403 17.148C8.0675 17.1782 8.26097 17.1782 8.47862 17.2266C8.47862 17.2266 8.47862 17.2266 8.44235 17.2628C8.02518 18.0246 6.33836 18.5385 5.56448 18.8046C4.15195 19.3119 2.64593 19.5059 1.15095 19.3729C0.915157 19.3366 0.860743 19.3426 0.800284 19.3729C0.739825 19.4031 0.800284 19.4696 0.866789 19.5301C1.16909 19.7296 1.47138 19.9049 1.78577 20.0742C2.72171 20.5847 3.71118 20.9902 4.73619 21.2834C10.0445 22.7465 16.0179 21.6703 20.0022 17.7102C23.134 14.6026 24.2343 10.3161 24.2343 6.02345C24.2343 5.86021 24.4338 5.76347 24.5487 5.67883C25.341 5.06148 26.0396 4.3324 26.6225 3.51439C26.7234 3.39245 26.7752 3.2372 26.7676 3.07908C26.7676 2.98839 26.7676 3.00653 26.6527 3.05489Z" fill="#F7F7F7"/>
</svg>
