<svg width="732" height="208" viewBox="0 0 732 208" fill="none" xmlns="http://www.w3.org/2000/svg">
<g clip-path="url(#clip0_963_1755)">
<path d="M632.034 171.931C655.541 148.392 655.541 110.227 632.034 86.6872C608.526 63.1478 570.412 63.1478 546.904 86.6872C523.397 110.227 523.397 148.392 546.904 171.931C570.412 195.47 608.526 195.47 632.034 171.931Z" fill="#8986B2"/>
<path d="M589.132 134.854C600.226 132.395 607.228 121.396 604.773 110.288C602.317 99.1789 591.333 92.1669 580.239 94.6258C569.146 97.0847 562.143 108.083 564.599 119.192C567.054 130.301 578.038 137.313 589.132 134.854Z" fill="#222222"/>
<path d="M577.836 116.124C581.534 115.304 583.868 111.638 583.049 107.935C582.231 104.232 578.569 101.895 574.871 102.715C571.174 103.534 568.839 107.201 569.658 110.904C570.476 114.606 574.138 116.944 577.836 116.124Z" fill="#8986B2"/>
<path d="M587.091 88.5592C562.473 88.5137 545.191 84.1106 545.232 61.777C545.274 39.4434 565.264 21.3753 589.882 21.4209C614.5 21.4664 634.424 39.6083 634.383 61.9419C634.341 84.2756 611.709 88.6047 587.091 88.5592Z" fill="#F5BD00"/>
<path d="M683.816 139.385C676.755 163.914 656.137 181.085 634.629 195.672C631.626 197.709 628.622 199.699 625.617 201.643C625.597 201.651 625.576 201.671 625.555 201.68C625.411 201.773 625.266 201.866 625.131 201.959C624.511 202.36 623.891 202.76 623.276 203.156L623.613 203.308C623.613 203.308 623.945 203.485 623.582 203.336C623.474 203.291 623.361 203.251 623.253 203.205C610.759 198.159 598.042 192.741 588.467 183.288C578.534 173.472 572.73 158.076 578.108 145.18C578.815 143.491 579.708 141.886 580.77 140.395C581.207 139.77 581.677 139.172 582.166 138.585C585.133 134.959 589.01 132.19 593.4 130.562C597.79 128.934 602.534 128.507 607.143 129.323C611.753 130.14 616.062 132.171 619.628 135.209C623.193 138.246 625.887 142.179 627.431 146.604C629.011 131.872 616.88 119.532 605.206 110.427C593.526 101.327 580.255 91.416 577.997 76.7661C576.736 68.6151 579.567 60.716 584.723 54.3748C584.883 54.1822 585.042 53.9898 585.207 53.8024C591.484 46.4168 600.312 41.6742 609.928 40.5219C627.837 38.6581 645.233 48.1505 658.244 60.6192C679.184 80.6804 691.844 111.494 683.816 139.385Z" fill="#E6E6E6"/>
<path d="M650.153 107.3C653.59 112.655 656.229 118.483 657.986 124.6C659.472 130.068 660.134 135.727 659.948 141.391C659.469 153.045 656.202 164.413 650.421 174.539C646.067 182.222 640.761 189.322 634.628 195.672C631.625 197.709 628.621 199.699 625.616 201.643C625.596 201.651 625.575 201.671 625.554 201.68C625.41 201.773 625.265 201.866 625.13 201.959C624.51 202.36 623.89 202.76 623.275 203.156C623.275 203.156 623.944 203.485 623.581 203.336C623.473 203.291 623.36 203.251 623.252 203.205C624.372 194.012 623.275 184.683 620.053 176.002C616.831 167.32 611.578 159.539 604.734 153.309C597.874 147.174 589.662 142.749 580.77 140.395C581.206 139.77 581.676 139.172 582.165 138.585C585.599 139.549 588.942 140.816 592.154 142.37C603.635 147.89 613.035 156.966 618.964 168.253C624.285 178.502 626.575 190.058 625.565 201.565C626.078 201.099 626.592 200.623 627.091 200.152C636.585 191.288 645.018 181.114 650.725 169.372C655.677 159.428 658.11 148.418 657.812 137.311C657.346 125.2 652.527 113.982 645.55 104.216C637.903 93.7975 628.869 84.4747 618.699 76.5068C608.45 68.287 597.235 61.3539 585.305 55.8621C585.036 55.7363 584.825 55.5118 584.717 55.235C584.608 54.9582 584.61 54.6502 584.722 54.3748C584.802 54.1277 584.976 53.922 585.206 53.8024C585.324 53.7513 585.453 53.7275 585.582 53.733C585.71 53.7385 585.836 53.773 585.95 53.834C587.423 54.5131 588.886 55.2014 590.337 55.9195C602.423 61.9014 613.72 69.3636 623.969 78.1347C633.869 86.5862 643.189 96.2419 650.153 107.3Z" fill="#222222"/>
<path d="M94.4913 207.369C102.908 207.369 109.731 204.807 109.731 201.646C109.731 198.486 102.908 195.924 94.4913 195.924C86.0749 195.924 79.252 198.486 79.252 201.646C79.252 204.807 86.0749 207.369 94.4913 207.369Z" fill="#8986B2"/>
<path d="M131.066 206.606C139.482 206.606 146.305 204.044 146.305 200.883C146.305 197.723 139.482 195.161 131.066 195.161C122.649 195.161 115.826 197.723 115.826 200.883C115.826 204.044 122.649 206.606 131.066 206.606Z" fill="#8986B2"/>
<path d="M179.621 110.422C194.022 102.109 203.583 91.7003 200.977 87.1733C198.371 82.6463 184.584 85.7155 170.183 94.0286C155.782 102.342 146.22 112.75 148.826 117.277C151.433 121.804 165.22 118.735 179.621 110.422Z" fill="#8986B2"/>
<path d="M166.102 130.806C171.427 97.946 149.142 66.985 116.326 61.6526C83.51 56.3201 52.5906 78.6355 47.2653 111.495C41.94 144.355 64.2255 175.316 97.0413 180.649C129.857 185.981 160.776 163.666 166.102 130.806Z" fill="#8986B2"/>
<path d="M97.5392 168.456H79.252V201.265H97.5392V168.456Z" fill="#8986B2"/>
<path d="M134.113 168.456H115.826V201.265H134.113V168.456Z" fill="#8986B2"/>
<path d="M108.206 126.492C119.568 126.492 128.779 117.268 128.779 105.891C128.779 94.5132 119.568 85.2899 108.206 85.2899C96.8437 85.2899 87.6328 94.5132 87.6328 105.891C87.6328 117.268 96.8437 126.492 108.206 126.492Z" fill="#222222"/>
<path d="M108.207 112.758C111.995 112.758 115.065 109.683 115.065 105.891C115.065 102.098 111.995 99.0237 108.207 99.0237C104.42 99.0237 101.35 102.098 101.35 105.891C101.35 109.683 104.42 112.758 108.207 112.758Z" fill="#8986B2"/>
<path d="M48.2903 65.0952C43.4298 43.2983 58.9669 21.2735 82.9934 15.9013C107.02 10.5292 130.437 23.8441 135.298 45.641C140.158 67.4378 124.235 75.4768 100.209 80.8489C76.1822 86.221 53.1508 86.8921 48.2903 65.0952Z" fill="#E6E6E6"/>
<path d="M66.0759 106.097C68.3121 101.376 57.9497 91.7663 42.9308 84.6335C27.9118 77.5007 13.9239 75.5457 11.6877 80.267C9.45147 84.9882 19.8138 94.5978 34.8328 101.731C49.8517 108.863 63.8397 110.818 66.0759 106.097Z" fill="#8986B2"/>
<path d="M77.1152 142.896C77.1152 148.795 92.2849 160.445 109.118 160.445C125.951 160.445 141.734 143.836 141.734 137.936C141.734 132.037 125.951 139.081 109.118 139.081C92.2849 139.081 77.1152 136.996 77.1152 142.896Z" fill="#222222"/>
<path d="M316.579 207.369C324.996 207.369 331.819 204.807 331.819 201.646C331.819 198.486 324.996 195.924 316.579 195.924C308.163 195.924 301.34 198.486 301.34 201.646C301.34 204.807 308.163 207.369 316.579 207.369Z" fill="#8986B2"/>
<path d="M280.005 206.606C288.421 206.606 295.244 204.044 295.244 200.883C295.244 197.723 288.421 195.161 280.005 195.161C271.589 195.161 264.766 197.723 264.766 200.883C264.766 204.044 271.589 206.606 280.005 206.606Z" fill="#8986B2"/>
<path d="M262.244 117.277C264.851 112.75 255.289 102.342 240.888 94.0285C226.487 85.7154 212.7 82.6462 210.094 87.1732C207.488 91.7002 217.049 102.109 231.45 110.422C245.851 118.735 259.638 121.804 262.244 117.277Z" fill="#8986B2"/>
<path d="M304.387 181.427C337.632 181.427 364.582 154.44 364.582 121.151C364.582 87.8608 337.632 60.8741 304.387 60.8741C271.142 60.8741 244.191 87.8608 244.191 121.151C244.191 154.44 271.142 181.427 304.387 181.427Z" fill="#8986B2"/>
<path d="M331.818 168.456H313.531V201.265H331.818V168.456Z" fill="#8986B2"/>
<path d="M295.244 168.456H276.957V201.265H295.244V168.456Z" fill="#8986B2"/>
<path d="M290.284 126.492C301.646 126.492 310.857 117.268 310.857 105.891C310.857 94.5132 301.646 85.2899 290.284 85.2899C278.922 85.2899 269.711 94.5132 269.711 105.891C269.711 117.268 278.922 126.492 290.284 126.492Z" fill="#222222"/>
<path d="M285.327 107.929C288.014 105.241 288.032 100.896 285.366 98.224C282.7 95.5523 278.361 95.5657 275.674 98.2539C272.987 100.942 272.97 105.287 275.635 107.959C278.301 110.631 282.64 110.617 285.327 107.929Z" fill="#8986B2"/>
<path d="M310.862 80.849C286.835 75.4769 270.912 67.4379 275.772 45.641C280.633 23.8441 304.05 10.5292 328.077 15.9013C352.103 21.2735 367.64 43.2983 362.78 65.0952C357.919 86.892 334.888 86.221 310.862 80.849Z" fill="#F5BD00"/>
<path d="M367.334 167.097C372.378 165.756 373.007 151.627 368.74 135.54C364.473 119.453 356.925 107.499 351.882 108.841C346.839 110.182 346.209 124.311 350.476 140.398C354.743 156.485 362.291 168.439 367.334 167.097Z" fill="#8986B2"/>
<path d="M290.751 139.082C279.7 139.082 269.338 132.038 269.338 137.937C269.338 143.837 279.7 160.445 290.751 160.445C301.802 160.445 311.761 148.796 311.761 142.897C311.761 136.997 301.802 139.082 290.751 139.082Z" fill="#222222"/>
<path d="M202.844 98.8753H199.743C196.965 98.8722 194.302 97.7682 192.337 95.8055C190.373 93.8428 189.268 91.1817 189.265 88.4061V85.8048C189.265 79.3616 190.487 73.9668 192.897 69.7701C195.817 64.8885 199.224 60.3146 203.066 56.1181C205.616 53.5554 207.93 50.7684 209.98 47.7908C211.45 45.4776 212.21 42.7841 212.164 40.0439C212.164 33.5806 207.949 30.4386 199.28 30.4386C194.47 30.4929 189.692 31.2096 185.079 32.5683C183.3 33.0758 181.427 33.1637 179.608 32.8252C177.789 32.4867 176.074 31.731 174.597 30.6176C173.12 29.5042 171.922 28.0634 171.097 26.4088C170.271 24.7541 169.842 22.9307 169.842 21.082V15.8161C169.832 13.5492 170.48 11.3281 171.708 9.42187C172.936 7.51567 174.691 6.00628 176.76 5.07668C184.907 1.60247 193.694 -0.124648 202.551 0.00699774C211.83 0.00699774 220.206 1.56437 227.448 4.63522C234.702 7.71319 240.434 12.0534 244.483 17.5357C248.52 22.9791 250.666 29.5919 250.594 36.3666C250.594 43.6417 248.606 49.978 244.686 55.1995C240.808 60.3681 235.25 66.0264 228.165 72.0182C224.432 75.1201 220.895 78.4499 217.573 81.9883C215.428 84.2972 213.912 87.1177 213.17 90.1798C212.756 92.6156 211.492 94.826 209.601 96.4181C207.711 98.0103 205.316 98.8809 202.844 98.8753Z" fill="#FD7E14"/>
<path d="M201.068 148.313H200.66C195.522 148.31 190.595 146.276 186.963 142.658C183.331 139.04 181.291 134.135 181.291 129.02C181.291 123.906 183.331 119 186.963 115.383C190.595 111.765 195.522 109.731 200.66 109.728H201.068C203.615 109.726 206.136 110.224 208.489 111.193C210.842 112.161 212.98 113.582 214.781 115.374C216.582 117.166 218.011 119.293 218.986 121.634C219.961 123.976 220.462 126.486 220.462 129.02C220.462 131.555 219.961 134.065 218.986 136.406C218.011 138.748 216.582 140.875 214.781 142.667C212.98 144.458 210.842 145.879 208.489 146.848C206.136 147.817 203.615 148.315 201.068 148.313Z" fill="#FD7E14"/>
<path d="M427.545 208H-7.14136C-7.51205 208 -7.86754 207.853 -8.12966 207.59C-8.39178 207.328 -8.53906 206.972 -8.53906 206.6C-8.53906 206.229 -8.39178 205.873 -8.12966 205.611C-7.86754 205.348 -7.51205 205.201 -7.14136 205.201H427.545C427.916 205.201 428.271 205.348 428.533 205.611C428.796 205.873 428.943 206.229 428.943 206.6C428.943 206.972 428.796 207.328 428.533 207.59C428.271 207.853 427.916 208 427.545 208Z" fill="#CCCCCC"/>
<path d="M721.063 208H489.044C488.673 208 488.318 207.853 488.056 207.59C487.794 207.328 487.646 206.972 487.646 206.6C487.646 206.229 487.794 205.873 488.056 205.611C488.318 205.348 488.673 205.201 489.044 205.201H721.063C721.434 205.201 721.79 205.348 722.052 205.611C722.314 205.873 722.461 206.229 722.461 206.6C722.461 206.972 722.314 207.328 722.052 207.59C721.79 207.853 721.434 208 721.063 208Z" fill="#CCCCCC"/>
<path d="M577.059 167.118C593.679 166.793 607.068 162.294 606.966 157.07C606.864 151.845 593.309 147.874 576.69 148.199C560.07 148.525 546.68 153.024 546.782 158.248C546.884 163.473 560.44 167.444 577.059 167.118Z" fill="#8986B2"/>
</g>
<defs>
<clipPath id="clip0_963_1755">
<rect width="731" height="208" fill="white" transform="translate(0.5)"/>
</clipPath>
</defs>
</svg>
