<svg width="401" height="942" viewBox="0 0 401 942" fill="none" xmlns="http://www.w3.org/2000/svg">
<path d="M124.795 848.222H-539.8C-541.152 848.222 -542.25 847.287 -542.25 846.135C-542.25 844.982 -541.152 844.047 -539.8 844.047H124.795C126.147 844.047 127.245 844.982 127.245 846.135C127.245 847.287 126.147 848.222 124.795 848.222Z" fill="#FD7E14" fill-opacity="0.5"/>
<path d="M87.119 754.438H-502.112C-503.465 754.438 -504.562 753.503 -504.562 752.351C-504.562 751.199 -503.465 750.264 -502.112 750.264H87.119C88.4715 750.264 89.5692 751.199 89.5692 752.351C89.5692 753.503 88.4715 754.438 87.119 754.438Z" fill="#FD7E14" fill-opacity="0.5"/>
<path d="M107.028 660.649H-522.028C-523.381 660.649 -524.479 659.714 -524.479 658.562C-524.479 657.409 -523.381 656.474 -522.028 656.474H107.028C108.38 656.474 109.478 657.409 109.478 658.562C109.478 659.714 108.38 660.649 107.028 660.649Z" fill="#FD7E14" fill-opacity="0.5"/>
<path d="M165.331 566.871H-580.331C-581.684 566.871 -582.781 565.936 -582.781 564.784C-582.781 563.631 -581.684 562.696 -580.331 562.696H165.338C166.69 562.696 167.788 563.631 167.788 564.784C167.788 565.936 166.69 566.871 165.331 566.871Z" fill="#FD7E14" fill-opacity="0.5"/>
<path d="M242.831 473.087H-657.831C-659.184 473.087 -660.281 472.152 -660.281 471C-660.281 469.848 -659.184 468.913 -657.831 468.913H242.831C244.184 468.913 245.281 469.848 245.281 471C245.281 472.152 244.184 473.087 242.831 473.087Z" fill="#FD7E14" fill-opacity="0.5"/>
<path d="M320.338 379.309H-735.331C-736.684 379.309 -737.781 378.374 -737.781 377.222C-737.781 376.07 -736.684 375.135 -735.331 375.135H320.338C321.69 375.135 322.788 376.07 322.788 377.222C322.788 378.374 321.69 379.309 320.338 379.309Z" fill="#FD7E14" fill-opacity="0.5"/>
<path d="M378.64 285.526H-793.642C-794.994 285.526 -796.092 284.59 -796.092 283.438C-796.092 282.286 -794.994 281.351 -793.642 281.351H378.64C379.992 281.351 381.09 282.286 381.09 283.438C381.09 284.59 379.992 285.526 378.64 285.526Z" fill="#FD7E14" fill-opacity="0.5"/>
<path d="M398.55 191.742H-813.55C-814.902 191.742 -816 190.807 -816 189.655C-816 188.502 -814.902 187.567 -813.55 187.567H398.55C399.902 187.567 401 188.502 401 189.655C401 190.807 399.902 191.742 398.55 191.742Z" fill="#FD7E14" fill-opacity="0.5"/>
<path d="M360.868 97.9638H-775.868C-777.221 97.9638 -778.318 97.0287 -778.318 95.8765C-778.318 94.7243 -777.221 93.7892 -775.868 93.7892H360.868C362.221 93.7892 363.318 94.7243 363.318 95.8765C363.318 97.0287 362.221 97.9638 360.868 97.9638Z" fill="#FD7E14" fill-opacity="0.5"/>
<path d="M149.91 942C149.342 942 148.773 941.833 148.309 941.493C-65.5816 784.05 44.3467 624.363 150.655 469.942C203.437 393.269 258.016 313.985 271.75 236.232C287.099 149.356 248.594 73.2836 154.02 3.67362C152.994 2.91663 152.883 1.59746 153.765 0.729144C154.654 -0.144738 156.196 -0.233796 157.222 0.512065C371.113 157.95 261.185 317.636 154.883 472.057C102.101 548.731 47.5157 628.02 33.7812 705.768C18.4328 792.65 56.9378 868.722 151.511 938.332C152.537 939.089 152.648 940.408 151.766 941.276C151.282 941.755 150.596 942 149.91 942Z" fill="#FD7E14" fill-opacity="0.5"/>
<path d="M60.5586 942C59.8725 942 59.1929 941.755 58.7094 941.282C-101.57 783.972 -19.1956 624.441 60.4606 470.154C139.503 317.063 221.237 158.763 62.9958 3.45656C62.1072 2.58824 62.2182 1.26351 63.244 0.512079C64.2568 -0.25048 65.812 -0.144724 66.7006 0.718026C226.98 158.022 144.606 317.553 64.9494 471.84C-14.0926 624.931 -95.8266 783.232 62.4142 938.543C63.3029 939.412 63.1918 940.736 62.166 941.488C61.7021 941.833 61.1336 942 60.5586 942Z" fill="#FD7E14" fill-opacity="0.5"/>
<path d="M-28.7878 942C-29.6307 942 -30.4539 941.627 -30.9113 940.954C-137.612 783.872 -82.7588 624.519 -29.7091 470.41C23.0466 317.147 77.5926 158.662 -28.0559 3.13372C-28.7355 2.13738 -28.3304 0.86274 -27.1608 0.283863C-25.9912 -0.295014 -24.4949 0.0445192 -23.8089 1.04642C82.8916 158.122 28.0386 317.481 -25.0046 471.584C-77.7602 624.848 -132.313 783.338 -26.6642 938.866C-25.9847 939.863 -26.3898 941.137 -27.5594 941.716C-27.9514 941.911 -28.3761 942 -28.7878 942Z" fill="#FD7E14" fill-opacity="0.5"/>
</svg>
