<svg width="401" height="942" viewBox="0 0 401 942" fill="none" xmlns="http://www.w3.org/2000/svg">
<path d="M940.795 848.222H276.2C274.848 848.222 273.75 847.287 273.75 846.135C273.75 844.982 274.848 844.047 276.2 844.047H940.795C942.147 844.047 943.245 844.982 943.245 846.135C943.245 847.287 942.147 848.222 940.795 848.222Z" fill="#FD7E14" fill-opacity="0.5"/>
<path d="M903.119 754.438H313.888C312.535 754.438 311.438 753.503 311.438 752.351C311.438 751.199 312.535 750.264 313.888 750.264H903.119C904.471 750.264 905.569 751.199 905.569 752.351C905.569 753.503 904.471 754.438 903.119 754.438Z" fill="#FD7E14" fill-opacity="0.5"/>
<path d="M923.028 660.649H293.972C292.619 660.649 291.521 659.714 291.521 658.562C291.521 657.409 292.619 656.474 293.972 656.474H923.028C924.38 656.474 925.478 657.409 925.478 658.562C925.478 659.714 924.38 660.649 923.028 660.649Z" fill="#FD7E14" fill-opacity="0.5"/>
<path d="M981.331 566.871H235.669C234.316 566.871 233.219 565.936 233.219 564.784C233.219 563.631 234.316 562.696 235.669 562.696H981.338C982.69 562.696 983.788 563.631 983.788 564.784C983.788 565.936 982.69 566.871 981.331 566.871Z" fill="#FD7E14" fill-opacity="0.5"/>
<path d="M1058.83 473.087H158.169C156.816 473.087 155.719 472.152 155.719 471C155.719 469.848 156.816 468.913 158.169 468.913H1058.83C1060.18 468.913 1061.28 469.848 1061.28 471C1061.28 472.152 1060.18 473.087 1058.83 473.087Z" fill="#FD7E14" fill-opacity="0.5"/>
<path d="M1136.34 379.309H80.669C79.3165 379.309 78.2188 378.374 78.2188 377.222C78.2188 376.07 79.3165 375.135 80.669 375.135H1136.34C1137.69 375.135 1138.79 376.07 1138.79 377.222C1138.79 378.374 1137.69 379.309 1136.34 379.309Z" fill="#FD7E14" fill-opacity="0.5"/>
<path d="M1194.64 285.526H22.3585C21.0059 285.526 19.9082 284.59 19.9082 283.438C19.9082 282.286 21.0059 281.351 22.3585 281.351H1194.64C1195.99 281.351 1197.09 282.286 1197.09 283.438C1197.09 284.59 1195.99 285.526 1194.64 285.526Z" fill="#FD7E14" fill-opacity="0.5"/>
<path d="M1214.55 191.742H2.45026C1.09772 191.742 0 190.807 0 189.655C0 188.502 1.09772 187.567 2.45026 187.567H1214.55C1215.9 187.567 1217 188.502 1217 189.655C1217 190.807 1215.9 191.742 1214.55 191.742Z" fill="#FD7E14" fill-opacity="0.5"/>
<path d="M1176.87 97.9638H40.1319C38.7794 97.9638 37.6816 97.0287 37.6816 95.8765C37.6816 94.7243 38.7794 93.7892 40.1319 93.7892H1176.87C1178.22 93.7892 1179.32 94.7243 1179.32 95.8765C1179.32 97.0287 1178.22 97.9638 1176.87 97.9638Z" fill="#FD7E14" fill-opacity="0.5"/>
<path d="M429.795 942C429.383 942 428.958 941.905 428.566 941.716C427.397 941.137 426.998 939.863 427.671 938.866C533.313 783.338 478.767 624.848 426.011 471.584C372.968 317.475 318.115 158.122 424.816 1.04644C425.495 0.0501023 426.992 -0.289431 428.168 0.28388C429.344 0.857191 429.736 2.1374 429.063 3.13374C323.414 158.662 377.967 317.147 430.716 470.41C483.759 624.525 538.612 783.872 431.918 940.954C431.461 941.627 430.638 942 429.795 942Z" fill="#FD7E14" fill-opacity="0.5"/>
<path d="M340.443 942C339.874 942 339.299 941.833 338.836 941.488C337.81 940.731 337.705 939.412 338.587 938.543C496.828 783.237 415.094 624.931 336.052 471.84C256.402 317.559 174.035 158.028 334.314 0.723573C335.203 -0.139176 336.751 -0.239366 337.77 0.517627C338.796 1.27462 338.901 2.59379 338.019 3.46211C179.778 158.763 261.512 317.069 340.554 470.159C420.21 624.447 502.578 783.978 342.305 941.287C341.808 941.755 341.129 942 340.443 942Z" fill="#FD7E14" fill-opacity="0.5"/>
<path d="M251.088 942C250.402 942 249.723 941.755 249.233 941.276C248.351 940.408 248.462 939.083 249.487 938.332C344.061 868.722 382.572 792.65 367.217 705.768C353.483 628.015 298.898 548.731 246.116 472.057C139.814 317.631 29.8857 157.95 243.777 0.512065C244.796 -0.233796 246.345 -0.144738 247.233 0.729144C248.115 1.59746 248.004 2.9222 246.978 3.67362C152.412 73.2836 113.9 149.356 129.248 236.232C142.983 313.991 197.562 393.269 250.343 469.942C356.652 624.363 466.58 784.05 252.689 941.493C252.232 941.833 251.657 942 251.088 942Z" fill="#FD7E14" fill-opacity="0.5"/>
</svg>
