<svg width="140" height="170" viewBox="0 0 140 170" fill="none" xmlns="http://www.w3.org/2000/svg">
<path d="M-41.7063 60.3838L-19.9394 39.9791L-12.9598 33.8102L-1.83974 32.8611L8.57051 29.3022L19.3357 31.7934L26.7885 24.3196L29.7459 20.642H40.866L42.2855 16.6085L49.9749 20.642L59.0839 18.9812L65.9452 12.575L75.4091 10.321L83.5717 5.81298L89.25 8.54152H92.2075L95.7564 6.40614L105.812 0L113.619 0.830426L116.459 6.40614L115.394 20.1675L121.782 23.9637V33.217L140 47.3343L139.172 51.8423L137.871 52.4355V54.9267L132.192 59.4348L132.902 65.6036L126.277 63.7055L113.501 69.3999L97.8858 81.2631L89.3683 90.7537L97.8858 104.515V128.716L107.823 146.274L97.8858 154.815L89.3683 170L68.5478 163.357V148.646L58.1375 146.274L64.289 166.204L54.352 170H37.317L10.8182 166.204L13.6573 154.815L6.08624 136.783L-4.32401 146.274H-19.9394L-35.5548 166.204H-55.9021L-63 157.662L-60.634 136.783L-63 123.022L-55.9021 115.904V100.244L-38.3939 85.5338H-48.331L-41.7063 69.3999L-24.6713 55.6385L-41.7063 60.3838Z" fill="url(#paint0_linear_963_2105)"/>
<defs>
<linearGradient id="paint0_linear_963_2105" x1="73.225" y1="0" x2="73.225" y2="170" gradientUnits="userSpaceOnUse">
<stop stop-color="#FFEAA1"/>
<stop offset="1" stop-color="#FFDD65" stop-opacity="0"/>
<stop offset="1" stop-color="#FFE794" stop-opacity="0"/>
</linearGradient>
</defs>
</svg>
