<svg width="288" height="83" viewBox="0 0 288 83" fill="none" xmlns="http://www.w3.org/2000/svg">
<g clip-path="url(#clip0_948_1471)">
<path fill-rule="evenodd" clip-rule="evenodd" d="M47.6409 53.2761L54.1166 51.8485L56.4569 54.72L51.459 63.4595H41.3184L47.6409 53.2761ZM51.7766 65.1438L57.202 55.6344L67.6988 68.5143V82.8326L56.6604 65.0518L56.4924 64.7812L56.1744 64.8057L51.7766 65.1438ZM68.7476 82.8326V68.5143L79.2442 55.6344L84.6696 65.1438L80.2718 64.8057L79.954 64.7812L79.7858 65.0518L68.7476 82.8326ZM84.9872 63.4595L79.9894 54.72L82.3295 51.8485L88.8052 53.2761L95.1278 63.4595H84.9872ZM78.6627 54.5123L78.7005 54.5785L68.7476 66.7545V63.7431L88.5697 37.0959H93L81.9243 50.6861L81.8985 50.6804L81.6942 50.9223L78.8991 54.2324L78.6627 54.5123ZM67.6988 63.7431V66.7545L57.7457 54.5785L57.7834 54.5123L57.5473 54.2324L54.7522 50.9223L54.5477 50.6804L54.5219 50.6861L43.4462 37.0959H47.8765L67.6988 63.7431ZM67.6988 0.209717L43.3331 36.0479H48.1402H54.4569L67.6988 12.2311V0.209717ZM81.9893 36.0479L68.7476 12.2311V0.209717L93.1131 36.0479H88.3062H81.9893ZM58.04 40.1769L62.6989 32.5424L67.9415 35.876L68.2232 36.055L68.5047 35.876L73.7472 32.5424L78.4062 40.1769L68.2232 48.4138L58.04 40.1769Z" fill="#222222"/>
<path fill-rule="evenodd" clip-rule="evenodd" d="M225.091 36.3033C228.931 36.3033 231.994 35.3697 234.276 33.4509C236.56 31.532 237.701 29.0427 237.701 25.9828C237.701 23.3379 236.976 21.2115 235.522 19.5001C234.068 17.7886 232.357 16.6995 230.332 16.2846C232.824 15.2474 234.899 12.758 234.899 9.07582C234.899 3.26731 230.54 0 223.897 0H206.82V36.3033H225.091ZM214.294 20.3817H223.689C227.373 20.3817 229.605 22.0931 229.605 25.153C229.605 28.2129 227.373 29.8725 223.689 29.8725H214.294V20.3817ZM214.294 6.22343H222.704C225.816 6.22343 227.685 7.72743 227.685 10.2687C227.685 12.758 225.816 14.2102 222.704 14.2102H214.294V6.22343ZM251.655 13.6656V0H244.233V36.3033H251.655V24.428L247.713 19.0117L251.655 13.6656ZM268.92 6.69018H257.45V0H287.916V6.69018H276.394V36.3033H268.92V6.69018Z" fill="#F5BD00"/>
<path fill-rule="evenodd" clip-rule="evenodd" d="M7.47395 36.4698V11.628L15.9859 23.2969H20.1381L28.4944 11.628V36.4698H35.8645V0.166504H28.4944L17.9582 15.2065L7.42203 0.166504H0V36.4698H7.47395ZM108.721 36.4698V0.166504H101.299V36.4698H108.721ZM124.273 13.132V36.4698H116.955V0.166504H123.339L141.661 23.4006V0.166504H148.927V36.4698H142.751L124.273 13.132ZM155.492 0.166504L167.481 16.9179L153.312 36.4698H161.928L171.703 22.9817L171.682 22.9509L176.192 16.8726L175.794 28.5022L181.599 36.4698H190.319L176.201 16.866L188.19 0.166504H179.575L171.841 11.0056L164.212 0.166504H155.492Z" fill="#222222"/>
<path fill-rule="evenodd" clip-rule="evenodd" d="M54.1205 51.8485L47.6446 53.2761L41.3223 63.4595H51.4629L56.4606 54.72L54.1205 51.8485ZM57.2057 55.6344L51.7803 65.1438L56.1783 64.8057L56.4961 64.7812L56.6641 65.052L67.7025 82.8326V68.5143L57.2057 55.6344ZM68.7513 68.5143V82.8326L79.7897 65.052L79.9577 64.7812L80.2755 64.8057L84.6735 65.1438L79.2481 55.6344L68.7513 68.5143ZM79.9931 54.72L84.9911 63.4595H95.1315L88.8091 53.2761L82.3332 51.8485L79.9931 54.72ZM78.7044 54.5787L78.6664 54.5125L78.9028 54.2324L81.6978 50.9223L81.9022 50.6804L81.9282 50.6861L93.0037 37.0959H88.5736L68.7513 63.7431V66.7545L78.7044 54.5787ZM67.7025 66.7545V63.7431L47.8802 37.0959H43.4501L54.5258 50.6861L54.5516 50.6804L54.7559 50.9223L57.551 54.2324L57.7873 54.5125L57.7494 54.5787L67.7025 66.7545ZM67.7025 0.209717L67.3276 0.761002H67.7025V0.209717ZM68.7513 0.761002H69.1261L68.7513 0.209717V0.761002ZM62.7027 32.5424L58.0439 40.1769L68.2269 48.4138L78.4099 40.1769L73.7511 32.5424L68.5084 35.876L68.2269 36.055L67.9454 35.876L62.7027 32.5424Z" fill="#F5BD00"/>
</g>
<defs>
<clipPath id="clip0_948_1471">
<rect width="288" height="83" fill="white"/>
</clipPath>
</defs>
</svg>
