<svg width="316" height="486" viewBox="0 0 316 486" fill="none" xmlns="http://www.w3.org/2000/svg">
<path fill-rule="evenodd" clip-rule="evenodd" d="M77.6552 296.634L12.2184 216.249H39.4552L155.141 371.943V391.233L95.969 318.764L96.1863 318.384L95.0601 317.048L78.7866 297.754L77.8124 296.599L77.6552 296.634ZM237.466 211.249L160.141 72.0146V0L303.602 211.249H274.569L237.466 211.249ZM11.6794 211.249L155.141 0V72.0146L77.8152 211.249H40.7122H11.6794ZM275.826 216.249H303.063L237.626 296.634L237.469 296.599L236.494 297.754L220.221 317.048L219.095 318.384L219.312 318.764L160.141 391.233V371.943L275.826 216.249ZM37.4591 310.624L75.7231 302.181L89.8033 319.477L60.3564 371.027H0L37.4591 310.624ZM155.141 399.74L93.3921 323.886L60.8869 380.923L87.5328 378.873L89.0482 378.756L89.8492 380.048L155.141 485.339V399.74ZM160.141 399.74V485.339L225.432 380.048L226.233 378.756L227.748 378.873L254.394 380.923L221.889 323.886L160.141 399.74ZM239.558 302.181L225.478 319.477L254.925 371.027H315.281L277.822 310.624L239.558 302.181ZM97.6276 234.889L125.299 189.492L156.298 209.226L157.641 210.081L158.983 209.226L189.982 189.492L217.653 234.889L157.641 283.488L97.6276 234.889Z" fill="#F5BD00"/>
</svg>
