<svg width="40" height="40" viewBox="0 0 40 40" fill="none" xmlns="http://www.w3.org/2000/svg">
<path fill-rule="evenodd" clip-rule="evenodd" d="M6.25 30C6.25 29.3096 6.80964 28.75 7.5 28.75H32.5C33.1904 28.75 33.75 29.3096 33.75 30C33.75 30.6904 33.1904 31.25 32.5 31.25H7.5C6.80964 31.25 6.25 30.6904 6.25 30Z" fill="#F7F7F7"/>
<path fill-rule="evenodd" clip-rule="evenodd" d="M6.25 20C6.25 19.3096 6.80964 18.75 7.5 18.75H32.5C33.1904 18.75 33.75 19.3096 33.75 20C33.75 20.6904 33.1904 21.25 32.5 21.25H7.5C6.80964 21.25 6.25 20.6904 6.25 20Z" fill="#F7F7F7"/>
<path fill-rule="evenodd" clip-rule="evenodd" d="M6.25 10C6.25 9.30964 6.80964 8.75 7.5 8.75H32.5C33.1904 8.75 33.75 9.30964 33.75 10C33.75 10.6904 33.1904 11.25 32.5 11.25H7.5C6.80964 11.25 6.25 10.6904 6.25 10Z" fill="#F7F7F7"/>
</svg>
