<svg width="301" height="190" viewBox="0 0 301 190" fill="none" xmlns="http://www.w3.org/2000/svg">
<path fill-rule="evenodd" clip-rule="evenodd" d="M206.997 -437.467C265.727 -388.568 290.759 -309.616 299.084 -233.649C307.13 -160.226 285.33 -88.7181 252.465 -22.5702C219.297 44.1844 176.163 106.842 111.493 143.91C44.6915 182.201 -33.8834 196.628 -110.03 185.21C-186.605 173.728 -262.695 141.051 -311.025 80.5546C-356.995 23.0139 -352.924 -55.8914 -361.121 -129.083C-368.889 -198.441 -384.296 -268.909 -357.377 -333.3C-329.23 -400.63 -277.818 -459.742 -210.807 -488.64C-145.835 -516.657 -73.9844 -494.395 -3.75322 -485.793C69.5799 -476.811 150.219 -484.741 206.997 -437.467Z" fill="url(#paint0_linear_963_2335)"/>
<defs>
<linearGradient id="paint0_linear_963_2335" x1="293.771" y1="-351.854" x2="-225.853" y2="167.771" gradientUnits="userSpaceOnUse">
<stop stop-color="#FFEAA1"/>
<stop offset="1" stop-color="#FFDD65" stop-opacity="0"/>
<stop offset="1" stop-color="#FFE794" stop-opacity="0"/>
</linearGradient>
</defs>
</svg>
