<svg width="46" height="50" viewBox="0 0 46 50" fill="none" xmlns="http://www.w3.org/2000/svg">
<mask id="path-1-outside-1_307_1611" maskUnits="userSpaceOnUse" x="-0.228516" y="0.266602" width="46" height="50" fill="black">
<rect fill="white" x="-0.228516" y="0.266602" width="46" height="50"/>
<path d="M20.8399 49C14.5545 49 8.62111 46.5773 4.13287 42.1775L3.77148 41.8237L4.26404 41.9386C5.54856 42.2383 6.86823 42.3899 8.18601 42.3899C17.7012 42.3899 25.4426 34.6485 25.4426 25.1337C25.4426 15.6181 17.7012 7.87704 8.18601 7.87704C6.86785 7.87704 5.54818 8.02863 4.26404 8.3284L3.77148 8.44294L4.13287 8.08874C8.62149 3.68934 14.5549 1.2666 20.8399 1.2666C33.9999 1.2666 44.7066 11.9733 44.7066 25.1337C44.7066 38.2941 33.9999 49 20.8399 49ZM4.69272 42.3219C9.08229 46.4495 14.7965 48.7165 20.8399 48.7165C33.8438 48.7165 44.423 38.1372 44.423 25.1333C44.423 12.1294 33.8438 1.54974 20.8399 1.54974C14.7968 1.54974 9.08229 3.81673 4.69272 7.94433C5.8419 7.71109 7.0149 7.59277 8.18676 7.59277C17.8584 7.59277 25.7269 15.4613 25.7269 25.1329C25.7269 34.8046 17.8584 42.6727 8.18676 42.6727C7.0149 42.6734 5.8419 42.5555 4.69272 42.3219Z"/>
</mask>
<path d="M20.8399 49C14.5545 49 8.62111 46.5773 4.13287 42.1775L3.77148 41.8237L4.26404 41.9386C5.54856 42.2383 6.86823 42.3899 8.18601 42.3899C17.7012 42.3899 25.4426 34.6485 25.4426 25.1337C25.4426 15.6181 17.7012 7.87704 8.18601 7.87704C6.86785 7.87704 5.54818 8.02863 4.26404 8.3284L3.77148 8.44294L4.13287 8.08874C8.62149 3.68934 14.5549 1.2666 20.8399 1.2666C33.9999 1.2666 44.7066 11.9733 44.7066 25.1337C44.7066 38.2941 33.9999 49 20.8399 49ZM4.69272 42.3219C9.08229 46.4495 14.7965 48.7165 20.8399 48.7165C33.8438 48.7165 44.423 38.1372 44.423 25.1333C44.423 12.1294 33.8438 1.54974 20.8399 1.54974C14.7968 1.54974 9.08229 3.81673 4.69272 7.94433C5.8419 7.71109 7.0149 7.59277 8.18676 7.59277C17.8584 7.59277 25.7269 15.4613 25.7269 25.1329C25.7269 34.8046 17.8584 42.6727 8.18676 42.6727C7.0149 42.6734 5.8419 42.5555 4.69272 42.3219Z" fill="black"/>
<path d="M4.13287 42.1775L4.83291 41.4634L4.83246 41.4629L4.13287 42.1775ZM3.77148 41.8237L3.99869 40.8498L0.517989 40.0377L3.07189 42.5382L3.77148 41.8237ZM4.26405 41.9386L4.49131 40.9647L4.49125 40.9647L4.26405 41.9386ZM4.26405 8.3284L4.49054 9.30241L4.49137 9.30222L4.26405 8.3284ZM3.77148 8.44294L3.07151 7.72877L0.525145 10.2245L3.99798 9.41695L3.77148 8.44294ZM4.13287 8.08874L4.83285 8.80291H4.83285L4.13287 8.08874ZM4.69272 42.3219L4.89193 41.3419L1.44575 40.6414L4.00769 43.0504L4.69272 42.3219ZM4.69272 7.94433L4.00769 7.21582L1.44729 9.62342L4.89163 8.92435L4.69272 7.94433ZM8.18676 42.6727V41.6727H8.18612L8.18676 42.6727ZM20.8399 48C14.8162 48 9.13417 45.6799 4.83291 41.4634L3.43284 42.8916C8.10804 47.4747 14.2928 50 20.8399 50V48ZM4.83246 41.4629L4.47108 41.1091L3.07189 42.5382L3.43328 42.892L4.83246 41.4629ZM3.54428 42.7975L4.03684 42.9124L4.49125 40.9647L3.99869 40.8498L3.54428 42.7975ZM4.03678 42.9124C5.39594 43.2296 6.79187 43.3899 8.18601 43.3899V41.3899C6.94459 41.3899 5.70118 41.2471 4.49131 40.9647L4.03678 42.9124ZM8.18601 43.3899C18.2534 43.3899 26.4426 35.2008 26.4426 25.1337H24.4426C24.4426 34.0962 17.1489 41.3899 8.18601 41.3899V43.3899ZM26.4426 25.1337C26.4426 15.0658 18.2534 6.87704 8.18601 6.87704V8.87704C17.1489 8.87704 24.4426 16.1704 24.4426 25.1337H26.4426ZM8.18601 6.87704C6.79151 6.87704 5.39556 7.03737 4.03672 7.35458L4.49137 9.30222C5.7008 9.01989 6.94419 8.87704 8.18601 8.87704V6.87704ZM4.03755 7.35439L3.54499 7.46893L3.99798 9.41695L4.49054 9.30241L4.03755 7.35439ZM4.47146 9.15711L4.83285 8.80291L3.4329 7.37457L3.07151 7.72877L4.47146 9.15711ZM4.83285 8.80291C9.13452 4.58672 14.8166 2.2666 20.8399 2.2666V0.266602C14.2932 0.266602 8.10845 2.79195 3.4329 7.37457L4.83285 8.80291ZM20.8399 2.2666C33.4476 2.2666 43.7066 12.5255 43.7066 25.1337H45.7066C45.7066 11.421 34.5522 0.266602 20.8399 0.266602V2.2666ZM43.7066 25.1337C43.7066 37.7418 33.4476 48 20.8399 48V50C34.5521 50 45.7066 38.8464 45.7066 25.1337H43.7066ZM4.00769 43.0504C8.58282 47.3525 14.542 49.7165 20.8399 49.7165V47.7165C15.0509 47.7165 9.58177 45.5465 5.37775 41.5934L4.00769 43.0504ZM20.8399 49.7165C34.3961 49.7165 45.423 38.6895 45.423 25.1333H43.423C43.423 37.5849 33.2915 47.7165 20.8399 47.7165V49.7165ZM45.423 25.1333C45.423 11.5771 34.3961 0.549739 20.8399 0.549739V2.54974C33.2915 2.54974 43.423 12.6817 43.423 25.1333H45.423ZM20.8399 0.549739C14.5424 0.549739 8.58283 2.91372 4.00769 7.21582L5.37775 8.67284C9.58176 4.71973 15.0513 2.54974 20.8399 2.54974V0.549739ZM4.89163 8.92435C5.97563 8.70434 7.082 8.59277 8.18676 8.59277V6.59277C6.9478 6.59277 5.70817 6.71785 4.49382 6.96431L4.89163 8.92435ZM8.18676 8.59277C17.3061 8.59277 24.7269 16.0136 24.7269 25.1329H26.7269C26.7269 14.909 18.4107 6.59277 8.18676 6.59277V8.59277ZM24.7269 25.1329C24.7269 34.2523 17.3062 41.6727 8.18676 41.6727V43.6727C18.4107 43.6727 26.7269 35.3569 26.7269 25.1329H24.7269ZM8.18612 41.6727C7.08157 41.6734 5.97553 41.5622 4.89193 41.3419L4.49351 43.3018C5.70828 43.5488 6.94823 43.6735 8.18741 43.6727L8.18612 41.6727Z" fill="black" mask="url(#path-1-outside-1_307_1611)"/>
</svg>
