<svg width="571" height="398" viewBox="0 0 571 398" fill="none" xmlns="http://www.w3.org/2000/svg">
<path fill-rule="evenodd" clip-rule="evenodd" d="M476.997 -229.467C535.727 -180.568 560.759 -101.616 569.084 -25.6488C577.13 47.7743 555.33 119.282 522.465 185.43C489.297 252.184 446.163 314.842 381.493 351.91C314.691 390.201 236.117 404.628 159.97 393.21C83.3947 381.728 7.30537 349.051 -41.0255 288.555C-86.9953 231.014 -82.9238 152.109 -91.1212 78.9174C-98.8893 9.55916 -114.296 -60.9086 -87.3772 -125.3C-59.2297 -192.63 -7.81846 -251.742 59.193 -280.64C124.165 -308.657 196.016 -286.395 266.247 -277.793C339.58 -268.811 420.219 -276.741 476.997 -229.467Z" fill="url(#paint0_linear_963_2080)"/>
<defs>
<linearGradient id="paint0_linear_963_2080" x1="563.771" y1="-143.854" x2="44.1466" y2="375.771" gradientUnits="userSpaceOnUse">
<stop stop-color="#FFEAA1"/>
<stop offset="1" stop-color="#FFDD65" stop-opacity="0"/>
<stop offset="1" stop-color="#FFE794" stop-opacity="0"/>
</linearGradient>
</defs>
</svg>
