<svg width="46" height="50" viewBox="0 0 46 50" fill="none" xmlns="http://www.w3.org/2000/svg">
<mask id="path-1-outside-1_307_1833" maskUnits="userSpaceOnUse" x="-0.227539" y="0.266602" width="46" height="50" fill="black">
<rect fill="white" x="-0.227539" y="0.266602" width="46" height="50"/>
<path d="M20.8408 49C14.5555 49 8.62209 46.5773 4.13385 42.1775L3.77246 41.8237L4.26502 41.9386C5.54953 42.2383 6.8692 42.3899 8.18698 42.3899C17.7021 42.3899 25.4436 34.6485 25.4436 25.1337C25.4436 15.6181 17.7021 7.87704 8.18698 7.87704C6.86883 7.87704 5.54916 8.02863 4.26502 8.3284L3.77246 8.44294L4.13385 8.08874C8.62246 3.68934 14.5559 1.2666 20.8408 1.2666C34.0009 1.2666 44.7075 11.9733 44.7075 25.1337C44.7075 38.2941 34.0009 49 20.8408 49ZM4.6937 42.3219C9.08327 46.4495 14.7974 48.7165 20.8408 48.7165C33.8447 48.7165 44.424 38.1372 44.424 25.1333C44.424 12.1294 33.8447 1.54974 20.8408 1.54974C14.7978 1.54974 9.08327 3.81673 4.6937 7.94433C5.84288 7.71109 7.01588 7.59277 8.18774 7.59277C17.8594 7.59277 25.7279 15.4613 25.7279 25.1329C25.7279 34.8046 17.8594 42.6727 8.18774 42.6727C7.01588 42.6734 5.84288 42.5555 4.6937 42.3219Z"/>
</mask>
<path d="M20.8408 49C14.5555 49 8.62209 46.5773 4.13385 42.1775L3.77246 41.8237L4.26502 41.9386C5.54953 42.2383 6.8692 42.3899 8.18698 42.3899C17.7021 42.3899 25.4436 34.6485 25.4436 25.1337C25.4436 15.6181 17.7021 7.87704 8.18698 7.87704C6.86883 7.87704 5.54916 8.02863 4.26502 8.3284L3.77246 8.44294L4.13385 8.08874C8.62246 3.68934 14.5559 1.2666 20.8408 1.2666C34.0009 1.2666 44.7075 11.9733 44.7075 25.1337C44.7075 38.2941 34.0009 49 20.8408 49ZM4.6937 42.3219C9.08327 46.4495 14.7974 48.7165 20.8408 48.7165C33.8447 48.7165 44.424 38.1372 44.424 25.1333C44.424 12.1294 33.8447 1.54974 20.8408 1.54974C14.7978 1.54974 9.08327 3.81673 4.6937 7.94433C5.84288 7.71109 7.01588 7.59277 8.18774 7.59277C17.8594 7.59277 25.7279 15.4613 25.7279 25.1329C25.7279 34.8046 17.8594 42.6727 8.18774 42.6727C7.01588 42.6734 5.84288 42.5555 4.6937 42.3219Z" fill="#FD7E14"/>
<path d="M4.13385 42.1775L4.83388 41.4634L4.83344 41.4629L4.13385 42.1775ZM3.77246 41.8237L3.99967 40.8498L0.518966 40.0377L3.07287 42.5382L3.77246 41.8237ZM4.26502 41.9386L4.49229 40.9647L4.49223 40.9647L4.26502 41.9386ZM4.26502 8.3284L4.49152 9.30241L4.49235 9.30222L4.26502 8.3284ZM3.77246 8.44294L3.07249 7.72877L0.526122 10.2245L3.99896 9.41695L3.77246 8.44294ZM4.13385 8.08874L4.83382 8.80291H4.83382L4.13385 8.08874ZM4.6937 42.3219L4.89291 41.3419L1.44673 40.6414L4.00866 43.0504L4.6937 42.3219ZM4.6937 7.94433L4.00866 7.21582L1.44826 9.62342L4.8926 8.92435L4.6937 7.94433ZM8.18774 42.6727V41.6727H8.18709L8.18774 42.6727ZM20.8408 48C14.8172 48 9.13515 45.6799 4.83388 41.4634L3.43381 42.8916C8.10902 47.4747 14.2938 50 20.8408 50V48ZM4.83344 41.4629L4.47205 41.1091L3.07287 42.5382L3.43426 42.892L4.83344 41.4629ZM3.54525 42.7975L4.03781 42.9124L4.49223 40.9647L3.99967 40.8498L3.54525 42.7975ZM4.03776 42.9124C5.39692 43.2296 6.79284 43.3899 8.18698 43.3899V41.3899C6.94557 41.3899 5.70215 41.2471 4.49229 40.9647L4.03776 42.9124ZM8.18698 43.3899C18.2544 43.3899 26.4436 35.2008 26.4436 25.1337H24.4436C24.4436 34.0962 17.1499 41.3899 8.18698 41.3899V43.3899ZM26.4436 25.1337C26.4436 15.0658 18.2544 6.87704 8.18698 6.87704V8.87704C17.1499 8.87704 24.4436 16.1704 24.4436 25.1337H26.4436ZM8.18698 6.87704C6.79249 6.87704 5.39654 7.03737 4.03769 7.35458L4.49235 9.30222C5.70178 9.01989 6.94517 8.87704 8.18698 8.87704V6.87704ZM4.03852 7.35439L3.54596 7.46893L3.99896 9.41695L4.49152 9.30241L4.03852 7.35439ZM4.47243 9.15711L4.83382 8.80291L3.43387 7.37457L3.07249 7.72877L4.47243 9.15711ZM4.83382 8.80291C9.1355 4.58672 14.8176 2.2666 20.8408 2.2666V0.266602C14.2941 0.266602 8.10943 2.79195 3.43387 7.37457L4.83382 8.80291ZM20.8408 2.2666C33.4486 2.2666 43.7075 12.5255 43.7075 25.1337H45.7075C45.7075 11.421 34.5532 0.266602 20.8408 0.266602V2.2666ZM43.7075 25.1337C43.7075 37.7418 33.4486 48 20.8408 48V50C34.5531 50 45.7075 38.8464 45.7075 25.1337H43.7075ZM4.00866 43.0504C8.5838 47.3525 14.543 49.7165 20.8408 49.7165V47.7165C15.0519 47.7165 9.58274 45.5465 5.37873 41.5934L4.00866 43.0504ZM20.8408 49.7165C34.397 49.7165 45.424 38.6895 45.424 25.1333H43.424C43.424 37.5849 33.2925 47.7165 20.8408 47.7165V49.7165ZM45.424 25.1333C45.424 11.5771 34.397 0.549739 20.8408 0.549739V2.54974C33.2924 2.54974 43.424 12.6817 43.424 25.1333H45.424ZM20.8408 0.549739C14.5434 0.549739 8.5838 2.91372 4.00866 7.21582L5.37873 8.67284C9.58274 4.71973 15.0522 2.54974 20.8408 2.54974V0.549739ZM4.8926 8.92435C5.97661 8.70434 7.08298 8.59277 8.18774 8.59277V6.59277C6.94878 6.59277 5.70915 6.71785 4.49479 6.96431L4.8926 8.92435ZM8.18774 8.59277C17.3071 8.59277 24.7279 16.0136 24.7279 25.1329H26.7279C26.7279 14.909 18.4117 6.59277 8.18774 6.59277V8.59277ZM24.7279 25.1329C24.7279 34.2523 17.3071 41.6727 8.18774 41.6727V43.6727C18.4116 43.6727 26.7279 35.3569 26.7279 25.1329H24.7279ZM8.18709 41.6727C7.08255 41.6734 5.97651 41.5622 4.89291 41.3419L4.49448 43.3018C5.70925 43.5488 6.9492 43.6735 8.18839 43.6727L8.18709 41.6727Z" fill="#FD7E14" mask="url(#path-1-outside-1_307_1833)"/>
</svg>
