<svg width="352" height="231" viewBox="0 0 352 231" fill="none" xmlns="http://www.w3.org/2000/svg">
<path fill-rule="evenodd" clip-rule="evenodd" d="M257.997 -396.467C316.727 -347.568 341.759 -268.616 350.084 -192.649C358.13 -119.226 336.33 -47.7181 303.465 18.4298C270.297 85.1844 227.163 147.842 162.493 184.91C95.6915 223.201 17.1166 237.628 -59.0297 226.21C-135.605 214.728 -211.695 182.051 -260.025 121.555C-305.995 64.0139 -301.924 -14.8914 -310.121 -88.0826C-317.889 -157.441 -333.296 -227.909 -306.377 -292.3C-278.23 -359.63 -226.818 -418.742 -159.807 -447.64C-94.8347 -475.657 -22.9844 -453.395 47.2468 -444.793C120.58 -435.811 201.219 -443.741 257.997 -396.467Z" fill="url(#paint0_linear_963_2333)"/>
<defs>
<linearGradient id="paint0_linear_963_2333" x1="344.771" y1="-310.854" x2="-174.853" y2="208.771" gradientUnits="userSpaceOnUse">
<stop stop-color="#FFEAA1"/>
<stop offset="1" stop-color="#FFDD65" stop-opacity="0"/>
<stop offset="1" stop-color="#FFE794" stop-opacity="0"/>
</linearGradient>
</defs>
</svg>
