<svg width="444" height="484" viewBox="0 0 444 484" fill="none" xmlns="http://www.w3.org/2000/svg">
<path fill-rule="evenodd" clip-rule="evenodd" d="M349.997 -143.467C408.727 -94.5682 433.759 -15.6163 442.084 60.3512C450.13 133.774 428.33 205.282 395.465 271.43C362.297 338.184 319.163 400.842 254.493 437.91C187.691 476.201 109.117 490.628 32.9703 479.21C-43.6053 467.728 -119.695 435.051 -168.025 374.555C-213.995 317.014 -209.924 238.109 -218.121 164.917C-225.889 95.5592 -241.296 25.0914 -214.377 -39.3002C-186.23 -106.63 -134.818 -165.742 -67.807 -194.64C-2.83466 -222.657 69.0156 -200.395 139.247 -191.793C212.58 -182.811 293.219 -190.741 349.997 -143.467Z" fill="url(#paint0_linear_963_2079)"/>
<defs>
<linearGradient id="paint0_linear_963_2079" x1="436.771" y1="-57.8538" x2="-82.8534" y2="461.771" gradientUnits="userSpaceOnUse">
<stop stop-color="#FFEAA1"/>
<stop offset="1" stop-color="#FFDD65" stop-opacity="0"/>
<stop offset="1" stop-color="#FFE794" stop-opacity="0"/>
</linearGradient>
</defs>
</svg>
