<svg width="360" height="191" viewBox="0 0 360 191" fill="none" xmlns="http://www.w3.org/2000/svg">
<path fill-rule="evenodd" clip-rule="evenodd" d="M382.997 -436.467C441.727 -387.568 466.759 -308.616 475.084 -232.649C483.13 -159.226 461.33 -87.7181 428.465 -21.5702C395.297 45.1844 352.163 107.842 287.493 144.91C220.691 183.201 142.117 197.628 65.9703 186.21C-10.6053 174.728 -86.6946 142.051 -135.025 81.5546C-180.995 24.0139 -176.924 -54.8914 -185.121 -128.083C-192.889 -197.441 -208.296 -267.909 -181.377 -332.3C-153.23 -399.63 -101.818 -458.742 -34.807 -487.64C30.1653 -515.657 102.016 -493.395 172.247 -484.793C245.58 -475.811 326.219 -483.741 382.997 -436.467Z" fill="url(#paint0_linear_963_2334)"/>
<defs>
<linearGradient id="paint0_linear_963_2334" x1="469.771" y1="-350.854" x2="-49.8534" y2="168.771" gradientUnits="userSpaceOnUse">
<stop stop-color="#FFEAA1"/>
<stop offset="1" stop-color="#FFDD65" stop-opacity="0"/>
<stop offset="1" stop-color="#FFE794" stop-opacity="0"/>
</linearGradient>
</defs>
</svg>
