<svg width="444" height="417" viewBox="0 0 444 417" fill="none" xmlns="http://www.w3.org/2000/svg">
<path fill-rule="evenodd" clip-rule="evenodd" d="M349.997 -210.467C408.727 -161.568 433.759 -82.6163 442.084 -6.64882C450.13 66.7743 428.33 138.282 395.465 204.43C362.297 271.184 319.163 333.842 254.493 370.91C187.691 409.201 109.117 423.628 32.9703 412.21C-43.6053 400.728 -119.695 368.051 -168.025 307.555C-213.995 250.014 -209.924 171.109 -218.121 97.9174C-225.889 28.5592 -241.296 -41.9086 -214.377 -106.3C-186.23 -173.63 -134.818 -232.742 -67.807 -261.64C-2.83466 -289.657 69.0156 -267.395 139.247 -258.793C212.58 -249.811 293.219 -257.741 349.997 -210.467Z" fill="url(#paint0_linear_963_2078)"/>
<defs>
<linearGradient id="paint0_linear_963_2078" x1="436.771" y1="-124.854" x2="-82.8534" y2="394.771" gradientUnits="userSpaceOnUse">
<stop stop-color="#FFEAA1"/>
<stop offset="1" stop-color="#FFDD65" stop-opacity="0"/>
<stop offset="1" stop-color="#FFE794" stop-opacity="0"/>
</linearGradient>
</defs>
</svg>
