<svg width="359" height="474" viewBox="0 0 359 474" fill="none" xmlns="http://www.w3.org/2000/svg">
<path d="M359 474V244.925V15.3353L343.415 41.103L334.881 0L325.234 65.0588L316.699 31.6L308.165 97.5882L302.97 65.0588L298.888 110.6L286.643 142.628L276.625 157.573L274.398 137.989L263.267 167.365L251.393 224.569L247.311 213.746L242.487 229.207H233.953L227.645 219.415L217.997 259.613L215.771 229.207L209.834 270.924L208.35 259.613L204.268 266.828L202.042 250.852L198.331 276.104L193.136 307.025L184.973 328.67L179.407 364.745V351.861L170.131 371.96L166.049 391.543L156.402 418.857L147.867 432.256L105.195 438.956H42.8574L0 442.563V474H359Z" fill="url(#paint0_linear_963_2338)"/>
<defs>
<linearGradient id="paint0_linear_963_2338" x1="240.91" y1="0" x2="240.91" y2="474" gradientUnits="userSpaceOnUse">
<stop stop-color="#FFEAA1"/>
<stop offset="1" stop-color="#FFDD65" stop-opacity="0"/>
<stop offset="1" stop-color="#FFE794" stop-opacity="0"/>
</linearGradient>
</defs>
</svg>
