<svg width="359" height="378" viewBox="0 0 359 378" fill="none" xmlns="http://www.w3.org/2000/svg">
<path d="M146.173 321.874L0 326.126V378H359V0L350.508 66.3307L347.324 60.8032L343.078 96.9449L341.486 85.0394L338.036 129.685L336.178 124.157L334.321 169.228L330.605 163.276L327.156 178.583L325.563 208.346L323.971 199.843L321.052 188.787L319.46 147.118L317.337 204.52L315.745 188.787L314.418 217.701L312.56 211.748L310.968 244.063L309.641 262.772L308.314 305.717L304.068 321.874L300.353 317.622L291.861 321.874L288.677 312.52L287.35 294.236L286.023 279.354L281.777 294.236L278.327 312.52L274.082 326.126L265.59 317.622L256.567 330.378L253.383 317.622H248.075L242.237 321.874L237.461 330.378H220.477L204.555 321.874H178.548L163.688 326.126L146.173 321.874Z" fill="url(#paint0_linear_963_2337)"/>
<defs>
<linearGradient id="paint0_linear_963_2337" x1="240.91" y1="0" x2="240.91" y2="378" gradientUnits="userSpaceOnUse">
<stop stop-color="#FFEAA1"/>
<stop offset="1" stop-color="#FFDD65" stop-opacity="0"/>
<stop offset="1" stop-color="#FFE794" stop-opacity="0"/>
</linearGradient>
</defs>
</svg>
