<svg width="359" height="398" viewBox="0 0 359 398" fill="none" xmlns="http://www.w3.org/2000/svg">
<path d="M359 398V139.547V0L345.456 74.4251L341.746 6.39591L323.564 92.45L317.998 41.2827L302.413 152.92L293.879 130.244L286.829 172.108L280.521 130.244L273.1 172.108L270.131 208.158L266.792 236.067L260.484 208.158L258.257 184.9L246.755 267.465V247.696L224.12 314.562L218.925 295.956L207.422 334.332H190.353L179.222 347.705L152.134 351.775L136.55 339.565L126.531 351.775L102.041 358.752L98.7018 347.705L78.6646 351.775L63.0801 358.752L51.9483 351.775L22.2636 362.532H0V398H359Z" fill="url(#paint0_linear_963_2336)"/>
<defs>
<linearGradient id="paint0_linear_963_2336" x1="240.91" y1="0" x2="240.91" y2="398" gradientUnits="userSpaceOnUse">
<stop stop-color="#FFEAA1"/>
<stop offset="1" stop-color="#FFDD65" stop-opacity="0"/>
<stop offset="1" stop-color="#FFE794" stop-opacity="0"/>
</linearGradient>
</defs>
</svg>
