<svg width="1920" height="732" viewBox="0 0 1920 732" fill="none" xmlns="http://www.w3.org/2000/svg">
<path d="M2017 732V362.291V-8.25L1929.44 33.3371L1881.49 -33L1827.29 72L1779.34 18L1731.39 124.5L1702.2 72L1679.27 145.5L1610.47 197.19L1554.18 221.311L1541.68 189.704L1479.13 237.114L1412.42 329.437L1389.49 311.97L1362.39 336.923H1314.44L1279 321.12L1224.79 385.995L1212.28 336.923L1178.93 404.25L1170.59 385.995L1147.66 397.64L1135.15 371.856L1114.3 412.611L1085.11 462.516L1039.25 497.449L1007.98 555.671V534.877L955.86 567.315L932.928 598.921L878.724 643.004L830.775 664.629L591.028 675.442H240.789L0 681.264V732H2017Z" fill="url(#paint0_linear_963_2076)"/>
<defs>
<linearGradient id="paint0_linear_963_2076" x1="1353.53" y1="-33" x2="1353.53" y2="732" gradientUnits="userSpaceOnUse">
<stop stop-color="#FFEAA1"/>
<stop offset="1" stop-color="#FFDD65" stop-opacity="0"/>
<stop offset="1" stop-color="#FFE794" stop-opacity="0"/>
</linearGradient>
</defs>
</svg>
