<svg width="1920" height="667" viewBox="0 0 1920 667" fill="none" xmlns="http://www.w3.org/2000/svg">
<path d="M772.87 567.963L-15 575.466V667H1920V0L1874.23 117.044L1857.07 107.29L1834.18 171.064L1825.6 150.056L1807 228.836L1796.99 219.082L1786.98 298.612L1766.95 288.108L1748.36 315.118L1739.78 367.638L1731.2 352.632L1715.46 333.125L1706.88 259.597L1695.44 360.885L1686.86 333.125L1679.7 384.144L1669.69 373.64L1661.11 430.661L1653.96 463.674L1646.81 539.452L1623.92 567.963L1603.9 560.46L1558.12 567.963L1540.96 551.457L1533.81 519.195L1526.66 492.935L1503.77 519.195L1485.18 551.457L1462.29 575.466L1416.52 560.46L1367.89 582.969L1350.73 560.46H1322.12L1290.65 567.963L1264.91 582.969H1173.36L1087.54 567.963H947.371L867.272 575.466L772.87 567.963Z" fill="url(#paint0_linear_963_2081)"/>
<defs>
<linearGradient id="paint0_linear_963_2081" x1="1283.5" y1="0" x2="1283.5" y2="667" gradientUnits="userSpaceOnUse">
<stop stop-color="#FFEAA1"/>
<stop offset="1" stop-color="#FFDD65" stop-opacity="0"/>
<stop offset="1" stop-color="#FFE794" stop-opacity="0"/>
</linearGradient>
</defs>
</svg>
