<svg width="61" height="61" viewBox="0 0 61 61" fill="none" xmlns="http://www.w3.org/2000/svg">
<path d="M34.2711 23.3701L34.7308 23.6019L34.9491 23.1356L35.54 21.873L35.5401 21.8729L35.5547 21.8415C37.5289 17.6221 40.2284 11.8522 43.7973 4.44077L44.0144 3.99L43.5635 3.77321L43.3025 3.64776L42.8522 3.43125L42.6354 3.88146C39.0696 11.2865 36.2417 16.9945 34.1756 21.1634L34.1755 21.1635L33.5363 22.4539L33.3087 22.9134L33.7739 23.1293L33.9086 23.1919L33.9101 23.1926C33.9855 23.2273 34.0613 23.2642 34.1377 23.3028L34.1379 23.3029L34.2711 23.3701ZM43.3468 4.22384L43.086 4.09823L42.8963 4.00691C42.8963 4.00697 42.8963 4.00702 42.8962 4.00707C39.7323 10.5775 37.2511 15.8589 35.3533 19.9126C35.1004 20.4234 34.8571 20.9142 34.6236 21.3854L43.3468 4.22384Z" fill="#D7D7D7" stroke="#D7D7D7"/>
<path d="M35.764 24.3804L36.1629 24.7089L36.4781 24.2993L36.5695 24.1805L36.5701 24.1798C38.693 21.411 41.2932 18.0409 44.4892 14.0332L44.8007 13.6425L44.4103 13.3307L44.1841 13.1501L43.7883 12.834L43.4801 13.2303L43.4777 13.2332L43.4731 13.2391L43.473 13.239C40.2717 17.253 37.5708 20.5309 35.3492 23.2093L35.3491 23.2095L35.2537 23.3245L34.924 23.7223L35.3324 24.0388L35.4918 24.1623L35.4934 24.1635C35.55 24.207 35.6003 24.246 35.6488 24.2856C35.649 24.2858 35.6492 24.2859 35.6494 24.2861L35.764 24.3804Z" fill="#D7D7D7" stroke="#D7D7D7"/>
<path d="M30.8063 22.4553L31.3215 22.4651L31.3158 21.9499L31.3 20.5186L31.3 20.5186L31.2984 20.3769C31.2468 15.7354 31.1765 9.40847 31.1765 1.2666V0.766602H30.6765H30.387H29.887V1.2666C29.887 9.42949 29.8167 15.7648 29.7651 20.4128L29.7635 20.5553L30.2635 20.5608L29.7635 20.5553L29.7481 21.9499L29.7424 22.4652L30.2576 22.4553L30.5317 22.4501L30.8063 22.4553Z" fill="#D7D7D7" stroke="#D7D7D7"/>
<path d="M27.8643 22.3325L27.9698 22.8401L28.4732 22.7163L28.6179 22.6807C28.6181 22.6806 28.6183 22.6806 28.6186 22.6805C28.7033 22.6599 28.7821 22.6411 28.8602 22.6248L28.8607 22.6247L29.0077 22.5938L29.5157 22.4872L29.3901 21.9836L29.3539 21.8384C29.3539 21.8384 29.3539 21.8384 29.3539 21.8384C28.514 18.4593 27.502 14.331 26.3581 9.32084L26.2468 8.83317L25.7591 8.94472L25.4774 9.00918L24.9902 9.12063L25.1014 9.60785C26.2429 14.6094 27.1231 18.772 27.8338 22.1858C27.8338 22.1859 27.8338 22.1859 27.8338 22.186L27.8643 22.3325Z" fill="#D7D7D7" stroke="#D7D7D7"/>
<path d="M33.0963 22.8401L32.5929 22.7163L32.447 22.6804L32.4462 22.6802C32.3645 22.6599 32.2851 22.6414 32.206 22.6248L32.2055 22.6247L32.0584 22.5938L31.5504 22.4872L31.676 21.9836L31.7122 21.8384L33.0963 22.8401ZM33.0963 22.8401L33.2019 22.3325M33.0963 22.8401L33.2019 22.3325M33.2019 22.3325L33.2323 22.186M33.2019 22.3325L33.2323 22.186M33.2323 22.186C33.2323 22.1859 33.2324 22.1859 33.2324 22.1858C33.9431 18.7723 34.8232 14.6094 35.9647 9.60785L36.0759 9.12063L35.5888 9.00918L35.307 8.94472L34.8194 8.83317L34.708 9.32084C33.5642 14.3308 32.5522 18.459 31.7123 21.838L33.2323 22.186Z" fill="#D7D7D7" stroke="#D7D7D7"/>
<path d="M26.118 23.1356L26.3352 23.5999L26.794 23.3712L26.9272 23.3048L26.9272 23.3048L26.9311 23.3028C27.0051 23.2651 27.0806 23.2286 27.157 23.1934L27.1586 23.1927L27.2933 23.1302L27.7584 22.9143L27.5308 22.4547L26.8916 21.1643L26.8916 21.1643C24.8258 16.995 21.9979 11.2866 18.4321 3.88194L18.2153 3.43174L17.765 3.64825L17.5041 3.7737L17.0531 3.99049L17.2702 4.44126C20.8244 11.8218 23.5165 17.5752 25.4884 21.7896L25.5274 21.873L25.5275 21.873L26.118 23.1356Z" fill="#D7D7D7" stroke="#D7D7D7"/>
<path d="M36.9986 25.7L37.3125 26.106L37.7102 25.7816L38.8258 24.8718L38.8258 24.8718C42.4193 21.9399 47.3351 17.9293 53.73 12.8286L53.7314 12.8274L53.7626 12.8025L53.7955 12.7761L54.1837 12.4642L53.8733 12.0747L53.6931 11.8485L53.3879 11.4656L52.9987 11.7627C52.9842 11.7738 52.9648 11.7893 52.9544 11.7975C52.9516 11.7998 52.9494 11.8015 52.9482 11.8025L52.9463 11.804C46.5833 16.8784 41.595 20.766 37.9406 23.614L37.8832 23.6588L37.8832 23.6588L36.7337 24.5547L36.3274 24.8714L36.6559 25.2681L36.7504 25.3821C36.7505 25.3822 36.7505 25.3823 36.7506 25.3824C36.7919 25.4323 36.8323 25.4847 36.8786 25.5447L36.879 25.5452L36.9986 25.7Z" fill="#D7D7D7" stroke="#D7D7D7"/>
<path d="M38.4398 28.9806L38.5475 29.481L39.0452 29.3615L40.3738 29.0427L40.3739 29.0427C44.9103 27.9535 51.1214 26.4621 59.1755 24.6239L59.6624 24.5127L59.5518 24.0257L59.4878 23.7435L59.3746 23.2453L58.8789 23.3692L58.8704 23.3713L58.8704 23.3712L58.8611 23.3733C50.8679 25.1974 44.6547 26.5427 40.1125 27.5261L40.0904 27.5309L40.0903 27.5309L38.6949 27.8331L38.1924 27.942L38.3153 28.4412L38.3504 28.5839C38.3504 28.5842 38.3505 28.5845 38.3505 28.5847C38.3714 28.6708 38.3909 28.7534 38.4083 28.8348L38.4085 28.8355L38.4398 28.9806Z" fill="#D7D7D7" stroke="#D7D7D7"/>
<path d="M37.8994 27.2571L38.1177 27.7272L38.5796 27.4922L38.712 27.4249C38.7122 27.4247 38.7124 27.4246 38.7127 27.4245C41.8133 25.8578 45.6036 23.9565 50.2229 21.7316C50.2288 21.7289 50.2335 21.7266 50.2358 21.7256C50.2376 21.7247 50.2385 21.7243 50.2388 21.7241L50.239 21.724L50.7063 21.5138L50.4833 21.0513L50.3574 20.7904L50.1469 20.3538L49.704 20.5507C49.6878 20.5578 49.6731 20.5652 49.6658 20.5688C45.0552 22.7886 41.2003 24.57 38.0354 26.0203L38.0351 26.0204L37.8989 26.083L37.4296 26.2984L37.6599 26.7605L37.7267 26.8944L37.7274 26.8958C37.7642 26.9691 37.8002 27.0442 37.8369 27.1225C37.837 27.1228 37.8372 27.123 37.8373 27.1233L37.8994 27.2571Z" fill="#D7D7D7" stroke="#D7D7D7"/>
<path d="M21.9793 31.283L22.4968 31.2925L22.4883 30.7749L22.4838 30.5006L22.4883 30.2262L22.4968 29.7087L21.9793 29.7181L21.8307 29.7208L21.8302 29.7208C18.3388 29.7876 14.0805 29.8558 8.95703 29.8558H8.45703V30.3558V30.6453V31.1453H8.95703C14.072 31.1453 18.3338 31.2136 21.8302 31.2803L21.8307 31.2803L21.9793 31.283Z" fill="#D7D7D7" stroke="#D7D7D7"/>
<path d="M22.4819 27.4927L22.9446 27.7274L23.162 27.2564L23.225 27.1201L23.225 27.1201C23.2599 27.0445 23.2956 26.9703 23.3324 26.8973L23.3327 26.8966L23.4003 26.7623L23.6333 26.2989L23.1617 26.083L23.0252 26.0206C19.8506 24.566 15.9849 22.7795 11.3701 20.5573L10.9199 20.3405L10.7028 20.7906L10.577 21.0516L10.3597 21.5022L10.8104 21.7192C15.4275 23.9426 19.2334 25.8509 22.3486 27.4251L22.4819 27.4927Z" fill="#D7D7D7" stroke="#D7D7D7"/>
<path d="M38.5821 30.7754L38.5743 31.2922L39.0911 31.2828L39.2397 31.2801L39.2402 31.2801C42.7363 31.2133 46.9976 31.1451 52.1134 31.1451H52.6134V30.6451V30.3556V29.8556H52.1134C46.9892 29.8556 42.7313 29.7873 39.2402 29.7206L39.2397 29.7206L39.0911 29.7179L38.5743 29.7085L38.5821 30.2253L38.5862 30.5003L38.5821 30.7754Z" fill="#D7D7D7" stroke="#D7D7D7"/>
<path d="M10.9199 40.6601L10.7028 40.21L10.577 39.9491L10.3597 39.4985L10.8104 39.2814C15.4273 37.0582 19.233 35.1499 22.3482 33.5758C22.3483 33.5757 22.3485 33.5756 22.3486 33.5755L22.4819 33.5079L22.9451 33.273L23.1623 33.7447L23.225 33.881L10.9199 40.6601ZM10.9199 40.6601L11.3701 40.4433C15.9849 38.2211 19.8506 36.4351 23.0249 34.9801M10.9199 40.6601L23.0249 34.9801M23.0249 34.9801L23.1613 34.9176L23.6324 34.702L23.4002 34.2389L23.333 34.1049L23.3324 34.1037C23.2956 34.0309 23.26 33.9568 23.2252 33.8814L23.0249 34.9801Z" fill="#D7D7D7" stroke="#D7D7D7"/>
<path d="M49.6831 40.4399L50.1367 40.6667L50.357 40.2099L50.4829 39.9489L50.7059 39.4865L50.2387 39.2762C50.2387 39.2762 50.2386 39.2762 50.2385 39.2761C50.2381 39.276 50.2372 39.2755 50.2354 39.2747L50.2331 39.2736C50.2305 39.2724 50.2268 39.2706 50.2225 39.2687C45.6029 37.0436 41.8125 35.1422 38.7118 33.5755C38.7117 33.5754 38.7116 33.5754 38.7116 33.5754L38.5782 33.5079L38.1168 33.2746L37.899 33.7435L37.8365 33.8781C37.7998 33.9564 37.7638 34.0316 37.727 34.1048L37.727 34.1048L37.7258 34.1072L37.6594 34.2412L37.4303 34.7034L37.8994 34.9179L38.0349 34.9799C38.035 34.9799 38.0351 34.98 38.0352 34.98C38.0352 34.98 38.0353 34.9801 38.0353 34.9801C41.2011 36.4312 45.057 38.2126 49.6689 40.4332L49.6758 40.4365L49.6828 40.4396L49.6831 40.4399Z" fill="#D7D7D7" stroke="#D7D7D7"/>
<path d="M34.708 51.6797L34.8195 52.168L35.3076 52.0556L35.5894 51.9908L36.0758 51.8789L35.9647 51.3923C34.8239 46.3945 33.9434 42.2304 33.2323 38.8142L33.2323 38.814L33.2018 38.6677L33.0963 38.1614L32.5938 38.284L32.4487 38.3194C32.3635 38.3401 32.2839 38.359 32.2046 38.376L32.0584 38.4067L31.5504 38.5133L31.676 39.017L31.7122 39.1621C31.7122 39.1622 31.7122 39.1622 31.7122 39.1623C32.5522 42.5426 33.5646 46.672 34.708 51.6797ZM35.6828 51.4566C34.7093 47.1933 33.8308 43.5658 33.0729 40.496L35.1955 51.5684L35.4774 51.504L35.6829 51.4571C35.6829 51.4569 35.6829 51.4568 35.6828 51.4566Z" fill="#D7D7D7" stroke="#D7D7D7"/>
<path d="M25.7591 52.0557L26.2467 52.1672L26.3581 51.6795C27.5016 46.6717 28.514 42.5423 29.354 39.1624L29.3901 39.0172L29.5157 38.5136L29.0077 38.4069L28.8622 38.3764C28.862 38.3763 28.8617 38.3763 28.8615 38.3762C28.7822 38.3593 28.7026 38.3403 28.6174 38.3197C28.6173 38.3196 28.6171 38.3196 28.617 38.3196L28.4723 38.2843L27.9699 38.1617L27.8643 38.668L27.8338 38.8143L27.8338 38.8144C27.1227 42.2306 26.2422 46.3948 25.1014 51.3925L24.9902 51.8797L25.4774 51.9912L25.7591 52.0557Z" fill="#D7D7D7" stroke="#D7D7D7"/>
<path d="M42.635 57.1182L42.8518 57.5684L43.3021 57.3519L43.5631 57.2264L44.0152 57.0091L43.7963 56.5577L43.7887 56.5417L43.7788 56.5211C40.208 49.1056 37.5085 43.3358 35.5366 39.1202L35.5366 39.1202L34.9491 37.8645L34.7309 37.3981L34.2711 37.63L34.1379 37.6971L34.1377 37.6972C34.0632 37.7348 33.9863 37.7719 33.908 37.8084L33.7739 37.8707L33.3086 38.0866L33.5364 38.5462L34.176 39.837C34.176 39.837 34.176 39.837 34.176 39.837C36.2417 44.0059 39.0696 49.7139 42.635 57.1182Z" fill="#D7D7D7" stroke="#D7D7D7"/>
<path d="M30.6765 60.2335H31.1765V59.7335C31.1765 51.5123 31.2478 45.1419 31.2999 40.488L31.3 40.4816L31.3 40.4815L31.3158 39.0502L31.3215 38.535L30.8063 38.5448L30.5318 38.55L30.2576 38.5448L29.7424 38.535L29.7481 39.0502L29.7635 40.4452L29.7635 40.4452L29.7651 40.5884C29.8167 45.2363 29.887 51.571 29.887 59.7335V60.2335H30.387H30.6765Z" fill="#D7D7D7" stroke="#D7D7D7"/>
<path d="M43.4872 47.7787L43.8006 48.1582L44.185 47.8507L44.4108 47.67L44.8006 47.3582L44.4894 46.9679C41.2935 42.9602 38.6932 39.5901 36.5704 36.8214C36.5703 36.8213 36.5703 36.8213 36.5703 36.8213L36.4793 36.7025L36.1643 36.2915L35.7646 36.6206L35.6488 36.7159C35.6488 36.7159 35.6488 36.7159 35.6488 36.7159C35.6488 36.7159 35.6488 36.7159 35.6488 36.7159C35.608 36.7495 35.5665 36.7816 35.518 36.8191C35.5079 36.8269 35.4974 36.835 35.4866 36.8433L35.3338 36.9616L34.9253 37.2774L35.2542 37.6755L35.3495 37.7909L35.3495 37.7909L35.3501 37.7916C37.5702 40.4694 40.2684 43.7434 43.4597 47.7446L43.4597 47.7447L43.4651 47.7512C43.4651 47.7512 43.4659 47.7522 43.4696 47.7569C43.4727 47.7608 43.4796 47.7695 43.4872 47.7787Z" fill="#D7D7D7" stroke="#D7D7D7"/>
<path d="M58.8889 37.6339L59.3769 37.7453L59.4878 37.2572L59.5518 36.975L59.6624 36.488L59.1755 36.3769C51.106 34.5347 44.8892 33.0421 40.348 31.9517L40.3453 31.9511L40.3453 31.9511L39.0449 31.6388L38.5459 31.519L38.4391 32.021L38.4083 32.166C38.4083 32.166 38.4082 32.166 38.4082 32.166C38.4082 32.166 38.4082 32.1661 38.4082 32.1661C38.3906 32.2488 38.3714 32.3315 38.3508 32.4148L38.3508 32.4151L38.3153 32.5595L38.1924 33.0587L38.6949 33.1676L40.0903 33.4698L40.0904 33.4698L40.1086 33.4738C44.6565 34.4584 50.8799 35.8059 58.8889 37.6339Z" fill="#D7D7D7" stroke="#D7D7D7"/>
<path d="M53.0017 49.2398L53.3898 49.5308L53.6924 49.1517L53.8727 48.9259L54.1848 48.5349L53.7937 48.223C47.3971 43.1219 42.4761 39.1069 38.8758 36.1695L38.8351 36.1362L38.8351 36.1362L37.7099 35.2183L37.3117 34.8934L36.9979 35.3004L36.8848 35.4471L36.8846 35.4473L36.8837 35.4485C36.835 35.5116 36.7933 35.5659 36.7503 35.6179L36.7499 35.6183L36.6553 35.733L36.3282 36.1295L36.7336 36.4455L37.8542 37.319L37.8542 37.3191L37.8574 37.3215C41.5239 40.1787 46.5413 44.0886 52.9583 49.2059L52.9582 49.206L52.963 49.2097L52.976 49.2199C52.9821 49.2247 52.9913 49.2319 53.0017 49.2398Z" fill="#D7D7D7" stroke="#D7D7D7"/>
<path d="M1.57646 37.2572L1.68949 37.7557L2.18534 37.6317C2.18582 37.6316 2.18683 37.6313 2.18824 37.631C2.19276 37.6299 2.20137 37.6277 2.20944 37.6257C10.1741 35.8082 16.3707 34.4665 20.9078 33.4842L20.9735 33.47L20.9736 33.4699L22.3698 33.1673L22.8722 33.0584L22.7494 32.5592L22.7143 32.4166C22.7142 32.4163 22.7141 32.416 22.7141 32.4158C22.6932 32.3297 22.6738 32.2474 22.6564 32.1658C22.6564 32.1658 22.6564 32.1658 22.6564 32.1657L22.6255 32.0207L22.5187 31.5188L22.0198 31.6386L20.6977 31.9559L20.6977 31.9559C16.1602 33.0455 9.94745 34.5372 1.88874 36.3766L1.40196 36.4877L1.51238 36.9746L1.57646 37.2572Z" fill="#D7D7D7" stroke="#D7D7D7"/>
<path d="M22.0194 29.3615L22.5171 29.4809L22.6249 28.9806L22.6561 28.8355L22.6563 28.8348C22.674 28.7521 22.6932 28.6692 22.7138 28.5859L22.7139 28.5856L22.7494 28.4413L22.8722 27.9421L22.3698 27.8332L20.9736 27.5305L20.9734 27.5305C16.4297 26.5472 10.211 25.2008 2.20707 23.3742C2.19995 23.3725 2.19378 23.3711 2.19046 23.3703L2.18968 23.3702C2.18637 23.3694 2.18514 23.3691 2.1849 23.3691L1.68964 23.2453L1.57649 23.7435L1.51241 24.0257L1.40181 24.5127L1.88874 24.6239C9.93048 26.4594 16.1366 27.9492 20.6695 29.0377L20.6696 29.0377L22.0194 29.3615Z" fill="#D7D7D7" stroke="#D7D7D7"/>
<path d="M24.585 24.2985L24.8999 24.7096L25.2997 24.3804L25.4143 24.2861C25.4145 24.2859 25.4147 24.2857 25.4149 24.2855C25.4576 24.2507 25.501 24.2171 25.5509 24.1785C25.5577 24.1733 25.5646 24.1679 25.5716 24.1625L25.5718 24.1623L25.7313 24.0388L26.1397 23.7223L25.81 23.3245L25.7146 23.2095L25.7146 23.2094C23.4859 20.5216 20.7777 17.2356 17.5829 13.229L17.271 12.8378L16.88 13.1501L16.6538 13.3307L16.2634 13.6425L16.5749 14.0332C19.7709 18.0409 22.3711 21.411 24.494 24.1798L24.585 24.2985Z" fill="#D7D7D7" stroke="#D7D7D7"/>
<path d="M23.3604 25.782L23.7593 26.1074L24.0729 25.6991L24.1941 25.5413C24.1945 25.5407 24.195 25.5401 24.1955 25.5395C24.2048 25.5276 24.2137 25.5162 24.2224 25.5051C24.2572 25.4604 24.2871 25.422 24.3189 25.3835C24.3192 25.3832 24.3194 25.3829 24.3196 25.3827L24.4137 25.27L24.7452 24.8731L24.3373 24.5552L23.1855 23.6573L23.1855 23.6573C19.5245 20.8044 14.5143 16.9 8.1138 11.7958C8.09943 11.7842 8.08409 11.7721 8.06815 11.7602L7.67973 11.4688L7.37713 11.8485L7.19687 12.0747L6.88536 12.4656L7.27615 12.7773C13.7042 17.9034 18.6409 21.9314 22.2467 24.8737L22.2467 24.8738L23.3604 25.782Z" fill="#D7D7D7" stroke="#D7D7D7"/>
<path d="M7.37713 49.1517L7.68345 49.5361L8.07302 49.2364C8.0908 49.2227 8.10828 49.209 8.12545 49.1951C14.5202 44.0959 19.523 40.1971 23.1842 37.3439L23.2137 37.321L23.2137 37.3209L24.3366 36.4455L24.7428 36.1288L24.4142 35.7322L24.3196 35.6179C24.2783 35.568 24.2377 35.5155 24.1928 35.4568L24.1928 35.4568L24.1912 35.4547L24.0716 35.2999L23.7576 34.8938L23.3599 35.2183L22.2367 36.1346L22.2366 36.1347C18.6451 39.0655 13.7321 43.0741 7.34155 48.1707C7.32493 48.1837 7.30598 48.199 7.29117 48.2109C7.28513 48.2158 7.27977 48.2201 7.27554 48.2235L6.88584 48.5352L7.19687 48.9255L7.37713 49.1517Z" fill="#D7D7D7" stroke="#D7D7D7"/>
<path d="M16.881 47.8509L17.272 48.1632L17.5839 47.772C20.7752 43.77 23.4846 40.4817 25.7152 37.7916L25.7157 37.7909L25.8111 37.6755L26.14 37.2774L25.7315 36.9615L25.5782 36.843L25.577 36.8421C25.5179 36.7967 25.4657 36.7565 25.4165 36.7159C25.4165 36.7159 25.4164 36.7159 25.4164 36.7159L25.3007 36.6206L24.9009 36.2915L24.586 36.7025L24.495 36.8213C24.4949 36.8213 24.4949 36.8213 24.4949 36.8214C22.372 39.5901 19.7718 42.9602 16.5759 46.9679L16.2644 47.3585L16.6548 47.6703L16.881 47.8509Z" fill="#D7D7D7" stroke="#D7D7D7"/>
<path d="M17.765 57.3519L18.2153 57.5684L18.4321 57.1182C21.994 49.722 24.8196 44.0184 26.8844 39.8507L26.8912 39.837L26.8912 39.837L27.5308 38.5462L27.7585 38.0866L27.2933 37.8707L27.1596 37.8087C27.1594 37.8086 27.1593 37.8085 27.1591 37.8085C27.0809 37.7719 27.0039 37.7349 26.9294 37.6972L26.9292 37.6971L26.7961 37.63L26.3363 37.3981L26.118 37.8645L25.5305 39.1202L25.5305 39.1202C23.5586 43.3358 20.8595 49.1052 17.2887 56.5207L17.2708 56.5577L17.052 57.0091L17.5041 57.2264L17.765 57.3519Z" fill="#D7D7D7" stroke="#D7D7D7"/>
</svg>
