<svg width="31" height="31" viewBox="0 0 31 31" fill="none" xmlns="http://www.w3.org/2000/svg">
<path d="M10.5191 15.1943C10.5191 12.3989 12.7859 10.1321 15.583 10.1321C18.3801 10.1321 20.6482 12.3989 20.6482 15.1943C20.6482 17.9897 18.3801 20.2564 15.583 20.2564C12.7859 20.2564 10.5191 17.9897 10.5191 15.1943ZM7.78091 15.1943C7.78091 19.5008 11.2739 22.9917 15.583 22.9917C19.8921 22.9917 23.3851 19.5008 23.3851 15.1943C23.3851 10.8877 19.8921 7.39684 15.583 7.39684C11.2739 7.39684 7.78091 10.8877 7.78091 15.1943ZM21.8707 7.08767C21.8706 7.44807 21.9773 7.80042 22.1776 8.10016C22.3778 8.39991 22.6625 8.63358 22.9956 8.77164C23.3287 8.90969 23.6953 8.94592 24.049 8.87575C24.4027 8.80558 24.7277 8.63216 24.9828 8.37742C25.2379 8.12268 25.4117 7.79806 25.4822 7.44461C25.5527 7.09116 25.5167 6.72475 25.3788 6.39173C25.241 6.05871 25.0074 5.77402 24.7076 5.57367C24.4078 5.37332 24.0554 5.26631 23.6947 5.26616H23.694C23.2106 5.26639 22.7471 5.45835 22.4052 5.79987C22.0634 6.1414 21.8711 6.60458 21.8707 7.08767ZM9.44451 27.5547C7.96312 27.4873 7.15794 27.2407 6.62286 27.0323C5.91346 26.7563 5.40731 26.4276 4.87514 25.8965C4.34297 25.3654 4.01356 24.86 3.7386 24.151C3.53001 23.6165 3.28326 22.8116 3.21592 21.3311C3.14225 19.7304 3.12755 19.2496 3.12755 15.1944C3.12755 11.1392 3.14347 10.6597 3.21592 9.05774C3.28338 7.57724 3.53196 6.77388 3.7386 6.23778C4.01477 5.52881 4.3437 5.02296 4.87514 4.49111C5.40658 3.95926 5.91225 3.63005 6.62286 3.35525C7.1577 3.14679 7.96312 2.90018 9.44451 2.83288C11.0461 2.75926 11.5272 2.74456 15.583 2.74456C19.6388 2.74456 20.1204 2.76048 21.7234 2.83288C23.2048 2.9003 24.0086 3.14873 24.545 3.35525C25.2544 3.63005 25.7606 3.95999 26.2927 4.49111C26.8249 5.02223 27.1531 5.52881 27.4293 6.23778C27.6379 6.7723 27.8846 7.57724 27.952 9.05774C28.0256 10.6597 28.0403 11.1392 28.0403 15.1944C28.0403 19.2496 28.0256 19.7291 27.952 21.3311C27.8845 22.8116 27.6365 23.6163 27.4293 24.151C27.1531 24.86 26.8242 25.3658 26.2927 25.8965C25.7613 26.4271 25.2544 26.7563 24.545 27.0323C24.0102 27.2408 23.2048 27.4874 21.7234 27.5547C20.1218 27.6283 19.6406 27.643 15.583 27.643C11.5254 27.643 11.0456 27.6283 9.44451 27.5547ZM9.3187 0.100995C7.70117 0.174613 6.59587 0.43094 5.6306 0.806319C4.63094 1.19397 3.78467 1.71403 2.93901 2.55785C2.09336 3.40166 1.57432 4.24875 1.18644 5.24782C0.810832 6.21312 0.554351 7.31714 0.480689 8.93371C0.405811 10.5528 0.388672 11.0705 0.388672 15.1943C0.388672 19.3181 0.405811 19.8357 0.480689 21.4549C0.554351 23.0715 0.810832 24.1754 1.18644 25.1407C1.57432 26.1392 2.09348 26.9873 2.93901 27.8307C3.78455 28.6742 4.63094 29.1935 5.6306 29.5822C6.59769 29.9576 7.70117 30.2139 9.3187 30.2876C10.9396 30.3612 11.4567 30.3795 15.583 30.3795C19.7093 30.3795 20.2273 30.3624 21.8474 30.2876C23.465 30.2139 24.5696 29.9576 25.5355 29.5822C26.5345 29.1935 27.3814 28.6745 28.227 27.8307C29.0727 26.9869 29.5906 26.1392 29.9796 25.1407C30.3552 24.1754 30.6129 23.0714 30.6854 21.4549C30.759 19.8345 30.7762 19.3181 30.7762 15.1943C30.7762 11.0705 30.759 10.5528 30.6854 8.93371C30.6117 7.31702 30.3552 6.21251 29.9796 5.24782C29.5906 4.24936 29.0714 3.403 28.227 2.55785C27.3827 1.7127 26.5345 1.19397 25.5367 0.806319C24.5696 0.43094 23.4649 0.173398 21.8486 0.100995C20.2285 0.027377 19.7105 0.0090332 15.5842 0.0090332C11.4579 0.0090332 10.9396 0.0261622 9.3187 0.100995Z" fill="#F7F7F7"/>
</svg>
