<svg width="291" height="85" viewBox="0 0 291 85" fill="none" xmlns="http://www.w3.org/2000/svg">
<g clip-path="url(#clip0_963_2001)">
<path fill-rule="evenodd" clip-rule="evenodd" d="M48.1365 54.5597L54.6796 53.0977L57.0443 56.0383L51.9943 64.9885H41.748L48.1365 54.5597ZM52.3152 66.7134L57.7971 56.9748L68.4033 70.1651V84.8284L57.2499 66.6191L57.0801 66.342L56.7588 66.3671L52.3152 66.7134ZM69.463 84.8284V70.1651L80.0689 56.9748L85.5509 66.7134L81.1072 66.3671L80.7861 66.342L80.6162 66.6191L69.463 84.8284ZM85.8717 64.9885L80.822 56.0383L83.1864 53.0977L89.7296 54.5597L96.118 64.9885H85.8717ZM79.4814 55.8256L79.5196 55.8935L69.463 68.3629V65.2789L89.4916 37.9896H93.968L82.7769 51.9073L82.7509 51.9015L82.5444 52.1492L79.7203 55.5391L79.4814 55.8256ZM68.4033 65.2789V68.3629L58.3465 55.8935L58.3846 55.8256L58.146 55.5391L55.3218 52.1492L55.1152 51.9015L55.0891 51.9073L43.898 37.9896H48.3745L68.4033 65.2789ZM68.4033 0.2146L43.7838 36.9164H48.6409H55.0234L68.4033 12.5257V0.2146ZM82.8426 36.9164L69.463 12.5257V0.2146L94.0823 36.9164H89.2253H82.8426ZM58.6438 41.1449L63.3514 33.3264L68.6485 36.7403L68.9331 36.9237L69.2176 36.7403L74.5147 33.3264L79.2222 41.1449L68.9331 49.5803L58.6438 41.1449Z" fill="#F7F7F7"/>
<path fill-rule="evenodd" clip-rule="evenodd" d="M227.435 37.1781C231.316 37.1781 234.41 36.222 236.716 34.2569C239.024 32.2918 240.177 29.7425 240.177 26.6089C240.177 23.9002 239.444 21.7227 237.975 19.97C236.506 18.2173 234.777 17.1019 232.732 16.677C235.25 15.6148 237.346 13.0654 237.346 9.29451C237.346 3.34604 232.942 0 226.229 0H208.975V37.1781H227.435ZM216.526 20.8728H226.019C229.741 20.8728 231.996 22.6255 231.996 25.7591C231.996 28.8927 229.741 30.5923 226.019 30.5923H216.526V20.8728ZM216.526 6.37339H225.023C228.169 6.37339 230.057 7.91363 230.057 10.5161C230.057 13.0654 228.169 14.5526 225.023 14.5526H216.526V6.37339ZM254.276 13.9949V0H246.777V37.1781H254.276V25.0166L250.293 19.4698L254.276 13.9949ZM271.721 6.85139H260.132V0H290.915V6.85139H279.273V37.1781H271.721V6.85139Z" fill="#F5BD00"/>
<path fill-rule="evenodd" clip-rule="evenodd" d="M7.5518 37.3485V11.9081L16.1525 23.8582H20.3479L28.7912 11.9081V37.3485H36.2381V0.17041H28.7912L18.1453 15.5728L7.49934 0.17041H0V37.3485H7.5518ZM109.854 37.3485V0.17041H102.354V37.3485H109.854ZM125.568 13.4483V37.3485H118.174V0.17041H124.624L143.136 23.9644V0.17041H150.478V37.3485H144.238L125.568 13.4483ZM157.112 0.17041L169.226 17.3254L154.909 37.3485H163.614L173.491 23.5353L173.471 23.5038L178.027 17.2791L177.625 29.1889L183.49 37.3485H192.301L178.036 17.2723L190.151 0.17041H181.445L173.631 11.2707L165.922 0.17041H157.112Z" fill="#F7F7F7"/>
<path fill-rule="evenodd" clip-rule="evenodd" d="M54.6855 53.0977L48.1421 54.5597L41.7539 64.9885H52.0002L57.05 56.0383L54.6855 53.0977ZM57.8028 56.9748L52.3208 66.7134L56.7647 66.3671L57.0858 66.342L57.2555 66.6193L68.4089 84.8284V70.1651L57.8028 56.9748ZM69.4686 70.1651V84.8284L80.622 66.6193L80.7918 66.342L81.1129 66.3671L85.5567 66.7134L80.0748 56.9748L69.4686 70.1651ZM80.8276 56.0383L85.8776 64.9885H96.1236L89.7354 54.5597L83.1921 53.0977L80.8276 56.0383ZM79.5254 55.8937L79.487 55.8259L79.7259 55.5391L82.5501 52.1492L82.7565 51.9015L82.7828 51.9073L93.9737 37.9896H89.4974L69.4686 65.2789V68.3629L79.5254 55.8937ZM68.4089 68.3629V65.2789L48.3801 37.9896H43.9039L55.095 51.9073L55.121 51.9015L55.3275 52.1492L58.1516 55.5391L58.3905 55.8259L58.3521 55.8937L68.4089 68.3629ZM68.4089 0.2146L68.0302 0.779169H68.4089V0.2146ZM69.4686 0.779169H69.8474L69.4686 0.2146V0.779169ZM63.357 33.3264L58.6497 41.1449L68.9388 49.5803L79.2278 41.1449L74.5205 33.3264L69.2232 36.7403L68.9388 36.9237L68.6543 36.7403L63.357 33.3264Z" fill="#F5BD00"/>
</g>
<defs>
<clipPath id="clip0_963_2001">
<rect width="291" height="85" fill="white"/>
</clipPath>
</defs>
</svg>
