<svg width="31" height="31" viewBox="0 0 31 31" fill="none" xmlns="http://www.w3.org/2000/svg">
<path fill-rule="evenodd" clip-rule="evenodd" d="M30.3887 15.1944C30.3887 23.586 23.586 30.3887 15.1944 30.3887C6.80276 30.3887 0 23.586 0 15.1944C0 6.80276 6.80276 0 15.1944 0C23.586 0 30.3887 6.80276 30.3887 15.1944ZM16.6504 10.532C14.0401 11.6595 6.51357 14.8616 6.51357 14.8616C4.72984 15.5832 5.77392 16.2597 5.77392 16.2597C5.77392 16.2597 7.29662 16.8009 8.60184 17.2067C9.907 17.6126 10.6031 17.1616 10.6031 17.1616C10.6031 17.1616 13.6485 15.0871 16.7374 12.8772C18.9127 11.3438 18.3906 12.6066 17.8685 13.1478C16.7374 14.3204 14.8667 16.1695 13.3004 17.6577C12.6044 18.2892 12.9524 18.8303 13.257 19.1009C14.1427 19.8778 16.2288 21.2908 17.1759 21.9322C17.4383 22.11 17.6133 22.2285 17.6511 22.2579C17.8685 22.4383 19.0868 23.2501 19.8263 23.0697C20.5659 22.8893 20.6529 21.852 20.6529 21.852C20.6529 21.852 21.2185 18.1538 21.7406 14.7714C21.8373 14.1073 21.934 13.4571 22.0242 12.8508C22.2585 11.275 22.4488 9.99581 22.4802 9.53983C22.6107 8.00647 21.0445 8.63783 21.0445 8.63783C21.0445 8.63783 17.6511 10.0811 16.6504 10.532Z" fill="#F7F7F7"/>
</svg>
