<svg width="23" height="27" viewBox="0 0 23 27" fill="none" xmlns="http://www.w3.org/2000/svg">
<path fill-rule="evenodd" clip-rule="evenodd" d="M17.0704 9.58934C18.7347 10.8266 20.7277 11.4876 22.7695 11.4796V7.24771C22.3681 7.24887 21.9678 7.20393 21.5758 7.1137V10.4851C19.5293 10.4889 17.5334 9.82027 15.8699 8.57369V17.2772C15.8649 18.7054 15.4904 20.1055 14.7861 21.3291C14.0818 22.5527 13.074 23.5542 11.8695 24.2274C10.6651 24.9005 9.30885 25.2203 7.9447 25.1527C6.58054 25.0852 5.25929 24.6328 4.12106 23.8436C5.17389 24.9576 6.51917 25.7198 7.98652 26.0338C9.45387 26.3477 10.9773 26.1992 12.3639 25.6071C13.7505 25.015 14.9379 24.0059 15.7757 22.7076C16.6136 21.4093 17.0642 19.8803 17.0704 18.314V9.58934ZM18.5475 5.27285C17.7012 4.31356 17.1819 3.08859 17.0704 1.78863V1.23848H15.9374C16.0774 2.06481 16.3822 2.85106 16.8319 3.54612C17.2816 4.24119 17.8661 4.82951 18.5475 5.27285ZM6.74466 20.4934C6.35194 19.9564 6.11127 19.3148 6.05004 18.6418C5.98881 17.9687 6.10949 17.2912 6.39833 16.6864C6.68717 16.0815 7.13258 15.5736 7.68386 15.2204C8.23515 14.8673 8.87016 14.683 9.51664 14.6887C9.87356 14.6886 10.2284 14.7457 10.5688 14.858V10.4851C10.1709 10.43 9.76956 10.4064 9.36826 10.4145V13.8141C8.53944 13.5402 7.64238 13.6025 6.85549 13.9886C6.0686 14.3748 5.44954 15.0566 5.12144 15.8984C4.79335 16.7402 4.78026 17.6802 5.08477 18.5317C5.38928 19.3831 5.98909 20.0834 6.76489 20.4934H6.74466Z" fill="white"/>
<path fill-rule="evenodd" clip-rule="evenodd" d="M15.8694 8.54548C17.5328 9.79205 19.5287 10.4607 21.5752 10.4569V7.08549C20.4092 6.82768 19.35 6.19367 18.5469 5.27285C17.8655 4.82951 17.281 4.24119 16.8313 3.54612C16.3816 2.85106 16.0769 2.06481 15.9368 1.23848H12.9557V18.314C12.953 19.0698 12.7239 19.8058 12.3008 20.4185C11.8776 21.0312 11.2816 21.49 10.5964 21.7304C9.91116 21.9708 9.17115 21.9808 8.48024 21.759C7.78932 21.5371 7.18219 21.0945 6.74408 20.4934C6.04975 20.127 5.49371 19.5267 5.16565 18.7893C4.8376 18.052 4.75667 17.2205 4.93592 16.4291C5.11517 15.6377 5.54416 14.9326 6.15365 14.4274C6.76314 13.9223 7.51761 13.6466 8.2953 13.6449C8.65213 13.646 9.00677 13.7031 9.34744 13.8141V10.4145C7.87552 10.4515 6.44595 10.9371 5.2342 11.8117C4.02246 12.6863 3.08128 13.9119 2.5262 15.338C1.97113 16.7641 1.8263 18.3287 2.10951 19.8396C2.39272 21.3506 3.09164 22.7422 4.12048 23.8436C5.25894 24.6385 6.58227 25.0955 7.94949 25.166C9.31672 25.2366 10.6766 24.9179 11.8844 24.2441C13.0921 23.5702 14.1025 22.5664 14.8078 21.3396C15.5131 20.1127 15.887 18.7087 15.8896 17.2772L15.8694 8.54548Z" fill="white"/>
<path fill-rule="evenodd" clip-rule="evenodd" d="M21.5752 7.08549L21.5756 6.17535C20.5048 6.18011 19.4549 5.86735 18.5475 5.27285C19.3485 6.19632 20.408 6.83086 21.5752 7.08549ZM15.9374 1.23848C15.9374 1.07626 15.89 0.906697 15.8697 0.744476V0.194336H11.7556V17.2769C11.752 18.2334 11.3857 19.1494 10.737 19.8238C10.0884 20.4981 9.21035 20.8759 8.29568 20.874C7.75711 20.8768 7.22575 20.7466 6.74466 20.4934C7.18277 21.0945 7.78932 21.5371 8.48024 21.759C9.17115 21.9808 9.91116 21.9708 10.5964 21.7304C11.2816 21.49 11.8776 21.0312 12.3008 20.4185C12.7239 19.8058 12.953 19.0698 12.9557 18.314V1.23848H15.9374ZM9.34782 10.4072V9.44093C7.65488 9.20042 5.93396 9.56664 4.46553 10.4799C2.99709 11.3931 1.86773 12.7996 1.2615 14.47C0.655272 16.1404 0.607921 17.9763 1.12716 19.6784C1.64641 21.3806 2.70183 22.8489 4.12106 23.8436C3.10001 22.7396 2.40833 21.3483 2.1309 19.8401C1.85347 18.3319 2.0021 16.7718 2.55863 15.3505C3.11516 13.9292 4.05549 12.7081 5.26475 11.8365C6.47401 10.9649 7.89984 10.4805 9.36805 10.4425L9.34782 10.4072Z" fill="white"/>
</svg>
