<svg width="51" height="97" viewBox="0 0 51 97" fill="none" xmlns="http://www.w3.org/2000/svg">
<path d="M14.4947 84.3668H4.4361V96.2498H48.3879V84.3668H42.2652L33.5733 83.3264V50.404L39.7096 45.5828L47.073 40.3232L50.3164 34.8884V26.2101L45.2321 20.4246L43.7419 17.0935L42.2652 10.1685L38.57 2.89275L29.8041 1.05191L25.8595 0L14.4947 2.89275L8.94124 11.834L5.96082 23.5803L0 31.0313L2.62978 43.3036L15.691 48.3002L23.8427 50.404V83.3264L14.4947 84.3668Z" fill="url(#paint0_linear_963_2019)"/>
<circle cx="34.7142" cy="41.901" r="2.45446" fill="url(#paint1_linear_963_2019)"/>
<circle cx="5.61071" cy="33.4857" r="2.45446" fill="url(#paint2_linear_963_2019)"/>
<circle cx="16.6556" cy="17.3566" r="2.45446" fill="url(#paint3_linear_963_2019)"/>
<circle cx="38.3959" cy="18.5839" r="2.45446" fill="url(#paint4_linear_963_2019)"/>
<circle cx="25.2474" cy="7.1881" r="2.45446" fill="url(#paint5_linear_963_2019)"/>
<circle cx="21.5658" cy="38.3946" r="2.45446" fill="url(#paint6_linear_963_2019)"/>
<circle cx="14.2006" cy="66.0951" r="2.45446" fill="url(#paint7_linear_963_2019)"/>
<circle cx="27.7006" cy="25.2457" r="2.45446" fill="url(#paint8_linear_963_2019)"/>
<circle cx="38.3959" cy="34.5377" r="2.45446" fill="url(#paint9_linear_963_2019)"/>
<defs>
<linearGradient id="paint0_linear_963_2019" x1="33.7653" y1="0" x2="33.7653" y2="96.2498" gradientUnits="userSpaceOnUse">
<stop stop-color="#FFEAA1"/>
<stop offset="1" stop-color="#FFDD65" stop-opacity="0"/>
<stop offset="1" stop-color="#FFE794" stop-opacity="0"/>
</linearGradient>
<linearGradient id="paint1_linear_963_2019" x1="35.5539" y1="39.4465" x2="35.5539" y2="44.3554" gradientUnits="userSpaceOnUse">
<stop stop-color="#FFEAA1"/>
<stop offset="1" stop-color="#FFDD65" stop-opacity="0"/>
<stop offset="1" stop-color="#FFE794" stop-opacity="0"/>
</linearGradient>
<linearGradient id="paint2_linear_963_2019" x1="6.45042" y1="31.0312" x2="6.45042" y2="35.9402" gradientUnits="userSpaceOnUse">
<stop stop-color="#FFEAA1"/>
<stop offset="1" stop-color="#FFDD65" stop-opacity="0"/>
<stop offset="1" stop-color="#FFE794" stop-opacity="0"/>
</linearGradient>
<linearGradient id="paint3_linear_963_2019" x1="17.4953" y1="14.9021" x2="17.4953" y2="19.811" gradientUnits="userSpaceOnUse">
<stop stop-color="#FFEAA1"/>
<stop offset="1" stop-color="#FFDD65" stop-opacity="0"/>
<stop offset="1" stop-color="#FFE794" stop-opacity="0"/>
</linearGradient>
<linearGradient id="paint4_linear_963_2019" x1="39.2356" y1="16.1294" x2="39.2356" y2="21.0383" gradientUnits="userSpaceOnUse">
<stop stop-color="#FFEAA1"/>
<stop offset="1" stop-color="#FFDD65" stop-opacity="0"/>
<stop offset="1" stop-color="#FFE794" stop-opacity="0"/>
</linearGradient>
<linearGradient id="paint5_linear_963_2019" x1="26.0871" y1="4.73364" x2="26.0871" y2="9.64256" gradientUnits="userSpaceOnUse">
<stop stop-color="#FFEAA1"/>
<stop offset="1" stop-color="#FFDD65" stop-opacity="0"/>
<stop offset="1" stop-color="#FFE794" stop-opacity="0"/>
</linearGradient>
<linearGradient id="paint6_linear_963_2019" x1="22.4055" y1="35.9402" x2="22.4055" y2="40.8491" gradientUnits="userSpaceOnUse">
<stop stop-color="#FFEAA1"/>
<stop offset="1" stop-color="#FFDD65" stop-opacity="0"/>
<stop offset="1" stop-color="#FFE794" stop-opacity="0"/>
</linearGradient>
<linearGradient id="paint7_linear_963_2019" x1="15.0403" y1="63.6406" x2="15.0403" y2="68.5495" gradientUnits="userSpaceOnUse">
<stop stop-color="#FFEAA1"/>
<stop offset="1" stop-color="#FFDD65" stop-opacity="0"/>
<stop offset="1" stop-color="#FFE794" stop-opacity="0"/>
</linearGradient>
<linearGradient id="paint8_linear_963_2019" x1="28.5403" y1="22.7913" x2="28.5403" y2="27.7002" gradientUnits="userSpaceOnUse">
<stop stop-color="#FFEAA1"/>
<stop offset="1" stop-color="#FFDD65" stop-opacity="0"/>
<stop offset="1" stop-color="#FFE794" stop-opacity="0"/>
</linearGradient>
<linearGradient id="paint9_linear_963_2019" x1="39.2356" y1="32.0833" x2="39.2356" y2="36.9922" gradientUnits="userSpaceOnUse">
<stop stop-color="#FFEAA1"/>
<stop offset="1" stop-color="#FFDD65" stop-opacity="0"/>
<stop offset="1" stop-color="#FFE794" stop-opacity="0"/>
</linearGradient>
</defs>
</svg>
