<svg width="27" height="22" viewBox="0 0 27 22" fill="none" xmlns="http://www.w3.org/2000/svg">
<path d="M26.6537 3.05489C25.8129 3.41675 24.9289 3.66872 24.0237 3.80459C24.4469 3.73204 25.0696 2.97025 25.3175 2.66191C25.6941 2.1968 25.9811 1.66585 26.164 1.09601C26.164 1.05369 26.2063 0.99323 26.164 0.963001C26.1426 0.951359 26.1187 0.945258 26.0944 0.945258C26.0701 0.945258 26.0462 0.951359 26.0249 0.963001C25.042 1.4953 23.9958 1.90156 22.9112 2.17219C22.8734 2.18374 22.8332 2.18477 22.7949 2.17519C22.7565 2.1656 22.7215 2.14575 22.6936 2.11777C22.6092 2.01725 22.5183 1.92233 22.4215 1.83362C21.9792 1.43727 21.4773 1.11288 20.9342 0.872312C20.2012 0.571573 19.4094 0.44133 18.6186 0.491418C17.8514 0.539875 17.1023 0.745672 16.4179 1.09601C15.744 1.46537 15.1517 1.96716 14.6767 2.57122C14.177 3.19295 13.8162 3.91449 13.6186 4.6873C13.4557 5.42239 13.4373 6.18215 13.5642 6.92429C13.5642 7.05126 13.5642 7.0694 13.4554 7.05126C9.14465 6.41643 5.60778 4.88681 2.71782 1.60387C2.59086 1.45877 2.52435 1.45877 2.42157 1.60387C1.16402 3.51439 1.77466 6.53735 3.3466 8.0307C3.55821 8.23022 3.77586 8.42369 4.00561 8.60506C3.28488 8.5539 2.58176 8.35858 1.9379 8.0307C1.81698 7.9521 1.75047 7.99442 1.74443 8.13953C1.72729 8.34069 1.72729 8.54295 1.74443 8.74412C1.87058 9.7082 2.25052 10.6215 2.84539 11.3906C3.44026 12.1597 4.22873 12.757 5.13015 13.1214C5.34989 13.2155 5.57887 13.2864 5.81334 13.333C5.14613 13.4643 4.46181 13.4848 3.78795 13.3934C3.64285 13.3632 3.58844 13.4418 3.64285 13.5809C4.5316 15.9992 6.46026 16.7368 7.875 17.148C8.06847 17.1782 8.26194 17.1782 8.4796 17.2266C8.4796 17.2266 8.4796 17.2266 8.44332 17.2628C8.02615 18.0246 6.33934 18.5385 5.56546 18.8046C4.15293 19.3119 2.64691 19.5059 1.15192 19.3729C0.916133 19.3366 0.86172 19.3426 0.801261 19.3729C0.740801 19.4031 0.801261 19.4696 0.867766 19.5301C1.17006 19.7296 1.47236 19.9049 1.78675 20.0742C2.72269 20.5847 3.71216 20.9902 4.73716 21.2834C10.0455 22.7465 16.0189 21.6703 20.0032 17.7102C23.1349 14.6026 24.2353 10.3161 24.2353 6.02345C24.2353 5.86021 24.4348 5.76347 24.5497 5.67883C25.342 5.06148 26.0406 4.3324 26.6234 3.51439C26.7244 3.39245 26.7761 3.2372 26.7686 3.07908C26.7686 2.98839 26.7686 3.00653 26.6537 3.05489Z" fill="#F7F7F7"/>
</svg>
