<svg width="1920" height="168" viewBox="0 0 1920 168" fill="none" xmlns="http://www.w3.org/2000/svg">
<path d="M1760.48 168C1752.63 168 1749.14 162.333 1745.44 156.337C1742.17 151.037 1738.8 145.555 1732.82 145.555C1726.34 145.555 1723.15 146.766 1719.76 148.05C1716.19 149.404 1712.51 150.804 1705.16 150.804C1697.82 150.804 1694.92 132.608 1690.07 91.0887C1687.22 66.6811 1683.31 33.2522 1677.49 32.5406C1669.83 32.5406 1666.13 29.0271 1662.56 25.6276C1659.19 22.4196 1656.01 19.3882 1649.87 19.3882C1644 19.3882 1640.43 28.474 1637.28 36.4882C1633.46 46.2014 1630.17 54.5904 1622.21 54.5904C1614.5 54.5904 1610.81 50.7237 1607.25 46.9873C1603.87 43.4441 1600.68 40.0974 1594.58 40.0974C1586.95 40.0974 1583.25 37.0909 1579.67 34.1817C1576.31 31.4476 1573.13 28.8653 1566.93 28.8653C1560.67 28.8653 1557.49 31.0728 1554.13 33.4107C1550.55 35.9038 1546.84 38.4811 1539.27 38.4811C1533.54 38.4811 1529.42 69.3426 1526.7 89.7662C1521.84 126.235 1518.94 142.219 1511.61 142.219C1504.15 142.219 1500.94 133.473 1496.53 119.069C1493.53 109.224 1489.78 96.9714 1483.96 96.9714C1476.2 96.9714 1472.52 92.5746 1468.97 88.3215C1465.58 84.2682 1462.37 80.4394 1456.31 80.4394C1448.64 80.4394 1445.58 67.718 1441.22 46.9642C1438.36 33.3066 1434.43 14.5985 1428.66 14.5985C1422.84 14.5985 1419.1 27.5494 1416.08 37.9544C1411.69 53.1458 1408.48 62.3702 1401.01 62.3702C1395.21 62.3702 1391.46 76.954 1388.44 88.6749C1384.05 105.714 1380.85 116.061 1373.36 116.061C1367.42 116.061 1363.88 122.543 1360.76 128.262C1357.07 135.008 1353.6 141.38 1345.71 141.38C1339.62 141.38 1336.42 144.809 1333.04 148.44C1329.48 152.269 1325.8 156.228 1318.08 156.228C1310.8 156.228 1307.12 155.084 1303.57 153.977C1300.17 152.919 1296.97 151.92 1290.43 151.92C1282.78 151.92 1279.72 141.117 1275.35 123.491C1272.49 111.953 1268.58 96.1492 1262.78 96.1492C1256.84 96.1492 1253.46 102.189 1250.19 108.03C1246.5 114.608 1243.02 120.823 1235.15 120.823C1227.86 120.823 1224.82 104.578 1220.07 70.0972C1217.34 50.3588 1213.24 20.5291 1207.5 20.5291C1200.48 20.5291 1196.91 20.2154 1193.46 19.91C1189.97 19.6012 1186.66 19.3106 1179.87 19.3106C1173.01 19.3106 1169.52 19.4328 1166.15 19.5517C1162.73 19.6722 1159.19 19.7961 1152.24 19.7961C1146.51 19.7961 1142.4 46.6868 1139.69 64.4803C1134.93 95.639 1131.89 110.32 1124.61 110.32C1117.27 110.32 1114.38 93.9632 1109.52 56.6361C1106.8 35.7205 1102.68 4.11266 1096.95 4.11266C1089.79 4.11266 1086.16 3.35813 1082.64 2.62671C1079.21 1.91345 1075.97 1.23982 1069.32 1.23982C1063.6 1.23982 1059.49 30.2852 1056.77 49.5035C1052.02 83.0943 1048.99 98.9197 1041.7 98.9197C1034.42 98.9197 1031.38 84.6314 1026.63 54.3048C1023.92 36.9902 1019.81 10.8242 1014.08 10.8242C1008.27 10.8242 1004.52 23.6826 1001.51 34.015C997.114 49.1056 993.909 58.2673 986.442 58.2673C980.523 58.2673 976.973 65.3471 973.848 71.593C970.171 78.9303 966.702 85.8615 958.801 85.8615C951.914 85.8615 948.472 85.9093 945.027 85.9589C941.565 86.0084 938.104 86.0579 931.18 86.0579C923.71 86.0579 920.507 76.2473 916.122 60.0901C913.112 48.9966 909.367 35.1922 903.569 35.1922C897.697 35.1922 894.137 43.6241 890.999 51.0638C887.341 59.7318 883.89 67.9194 875.958 67.9194C870.227 67.9194 866.122 94.5691 863.408 112.202C858.655 143.082 855.618 157.631 848.337 157.631C840.638 157.631 836.947 153.936 833.377 150.362C830.003 146.982 826.814 143.789 820.692 143.789C813.35 143.789 810.458 124.057 805.611 79.0327C802.766 52.6356 798.872 16.4807 793.011 15.4472C786.373 15.4505 783.12 16.0498 779.679 16.6855C776.176 17.3327 772.556 17.9997 765.42 17.9997C759.605 18.9045 755.708 53.8177 752.86 79.3134C748.013 122.756 745.12 141.798 737.779 141.798C730.862 141.798 727.406 141.788 723.948 141.778C720.496 141.77 717.038 141.76 710.131 141.76C702.799 141.76 699.907 124.404 695.053 84.8048C692.349 62.7549 688.264 29.43 682.489 29.004C676.607 29.004 673.051 37.1866 669.916 44.4051C666.252 52.8304 662.793 60.7868 654.862 60.7868C649.003 60.7868 645.278 70.5991 642.285 78.4845C638.476 88.5213 635.189 97.1894 627.227 97.1894C619.75 97.1894 616.545 87.4976 612.149 71.5369C609.136 60.5871 605.387 46.9576 599.579 46.9576C593.784 46.9576 590.033 61.3432 587.016 72.9039C582.63 89.72 579.428 99.9301 571.945 99.9301C566.177 99.9301 562.253 118.486 559.385 132.035C555.029 152.63 551.972 165.251 544.31 165.251C536.975 165.251 534.083 146.967 529.232 105.248C526.38 80.73 522.477 47.1524 516.662 46.4127C508.703 46.4127 505.417 36.9885 501.614 26.0783C498.614 17.4747 494.883 6.76921 489.038 6.76921C483.31 6.76921 479.201 36.092 476.481 55.4952C471.731 89.4063 468.691 105.384 461.4 105.384C455.592 105.384 451.847 118.564 448.833 129.154C444.441 144.609 441.235 153.994 433.765 153.994C426.316 153.994 423.106 145.722 418.704 132.099C415.701 122.807 411.966 111.245 406.134 111.245C398.853 111.245 395.812 96.7898 391.056 66.1099C388.339 48.5921 384.24 22.1174 378.5 22.1174C372.671 22.1174 368.936 33.8713 365.93 43.317C361.527 57.1628 358.318 65.57 350.862 65.57C345.124 65.57 341.019 92.076 338.302 109.617C333.545 140.333 330.508 154.806 323.22 154.806C315.892 154.806 313 138.685 308.142 101.901C305.419 81.2963 301.313 50.1557 295.586 50.1557C289.333 50.1557 286.158 52.3301 282.804 54.6334C279.224 57.0901 275.519 59.6295 267.962 59.6295C260.225 59.6295 256.548 55.4869 252.991 51.4815C249.61 47.6725 246.415 44.0781 240.337 44.0781C232.513 44.0781 228.856 38.5768 225.32 33.2571C222.064 28.3584 218.696 23.2946 212.709 23.2946C206.888 24.282 202.994 59.9861 200.149 86.0579C195.302 130.509 192.41 149.992 185.068 149.992C178.502 149.992 175.289 150.908 171.885 151.877C168.342 152.888 164.681 153.931 157.43 153.931C150.085 153.931 147.196 131.829 142.352 81.3953C139.359 50.2069 135.634 11.3938 129.711 10.0185C123.138 10.0267 119.892 10.6608 116.454 11.3327C112.948 12.0179 109.324 12.7262 102.175 12.7262C96.3498 13.8886 92.6249 49.9873 89.6282 78.9947C84.7809 125.895 81.892 146.449 74.5502 146.449C67.0332 146.449 63.3286 144.164 59.7453 141.953C56.3913 139.882 53.2193 137.928 46.9258 137.928C38.9604 137.928 35.6705 128.896 31.8647 118.44C28.868 110.215 25.1432 99.9763 19.2947 99.9763C11.6394 99.9763 8.57866 87.6958 4.2201 67.6569C1.35485 54.4831 -2.56886 36.4387 -8.34319 36.4387C-15.8333 36.4387 -19.5379 34.3287 -23.1211 32.2863C-26.4785 30.3744 -29.6539 28.5665 -35.9777 28.5665C-36.6114 28.5648 -37.1777 28.2874 -37.1777 27.9457C-37.1777 27.6039 -36.6114 27.3265 -35.9137 27.3265C-28.4235 27.3265 -24.7223 29.4366 -21.1391 31.4773C-17.7817 33.3909 -14.6063 35.1988 -8.27914 35.1988C-0.623859 35.1988 2.44027 47.481 6.79883 67.5248C9.66408 80.6969 13.5878 98.7364 19.3587 98.7364C27.3208 98.7364 30.6108 107.766 34.4165 118.221C37.4132 126.448 41.138 136.688 46.9865 136.688C54.5002 136.688 58.2048 138.973 61.7881 141.183C65.1421 143.254 68.3141 145.209 74.6109 145.209C80.4392 144.046 84.164 107.941 87.1641 78.9287C92.0081 32.037 94.8935 11.4846 102.235 11.4846C108.9 11.4846 112.142 10.8506 115.581 10.1786C119.086 9.49346 122.71 8.78515 129.86 8.78515C137.208 8.78515 140.097 30.8928 144.941 81.3326C147.934 112.514 151.659 151.321 157.579 152.698C164.057 152.69 167.27 151.773 170.674 150.806C174.217 149.795 177.878 148.752 185.129 148.752C190.95 147.765 194.844 112.06 197.689 85.9886C202.536 41.5372 205.428 22.0547 212.77 22.0547C220.594 22.0547 224.248 27.5544 227.784 32.8741C231.04 37.7728 234.408 42.8382 240.398 42.8382C248.134 42.8382 251.812 46.9807 255.368 50.9862C258.749 54.7952 261.944 58.3895 268.022 58.3895C274.275 58.3895 277.451 56.2151 280.808 53.9118C284.388 51.4551 288.089 48.9157 295.647 48.9157C302.975 48.9157 305.867 65.0367 310.725 101.821C313.448 122.426 317.554 153.566 323.281 153.566C329.018 153.566 333.124 127.06 335.841 109.519C340.597 78.8032 343.635 64.33 350.922 64.33C356.751 64.33 360.489 52.5728 363.492 43.1255C367.895 29.283 371.104 20.8775 378.557 20.8775C385.838 20.8775 388.879 35.3325 393.635 66.0124C396.352 83.5302 400.451 110.005 406.191 110.005C413.641 110.005 416.853 118.278 421.256 131.904C424.259 141.193 427.994 152.754 433.823 152.754C439.631 152.754 443.376 139.574 446.389 128.984C450.781 113.528 453.987 104.144 461.457 104.144C467.188 104.144 471.297 74.8159 474.017 55.4077C478.767 21.5032 481.804 5.52927 489.095 5.52927C497.074 5.52927 500.36 14.9552 504.166 25.867C507.163 34.469 510.894 45.1728 516.736 45.1728C524.071 45.1728 526.963 63.4566 531.814 105.176C534.666 129.694 538.569 163.271 544.384 164.011C550.135 164.011 554.062 145.455 556.927 131.906C561.282 111.311 564.34 98.6902 572.002 98.6902C577.796 98.6902 581.548 84.3045 584.565 72.7438C588.951 55.9278 592.153 45.7176 599.636 45.7176C607.113 45.7176 610.319 55.4094 614.714 71.3701C617.728 82.3199 621.476 95.9494 627.284 95.9494C633.14 95.9494 636.864 86.1388 639.854 78.255C643.667 68.2166 646.957 59.5469 654.919 59.5469C660.804 59.5469 664.361 51.3643 667.496 44.1458C671.16 35.7205 674.618 27.7641 682.55 27.7641C689.885 27.7641 692.777 45.1233 697.631 84.7288C700.335 106.775 704.417 140.089 710.191 140.52C710.235 140.52 710.276 140.52 710.319 140.52C717.145 140.52 720.58 140.53 724.015 140.54C727.467 140.548 730.926 140.558 737.833 140.558C743.647 139.653 747.544 104.74 750.392 79.244C755.24 35.8014 758.132 16.7598 765.474 16.7598C772.148 16.7598 775.401 16.1604 778.846 15.5248C782.348 14.8776 785.969 14.2105 793.108 14.2105C800.45 14.2105 803.342 33.9423 808.19 78.9666C811.035 105.364 814.928 141.519 820.79 142.552H820.797C828.452 142.552 832.136 146.244 835.703 149.817C839.077 153.198 842.266 156.391 848.391 156.391C854.121 156.391 858.227 129.742 860.941 112.108C865.694 81.2286 868.731 66.6795 876.012 66.6795C881.884 66.6795 885.44 58.2492 888.578 50.8112C892.236 42.1415 895.688 33.9522 903.623 33.9522C911.096 33.9522 914.295 43.7644 918.684 59.9233C921.694 71.0151 925.439 84.8163 931.234 84.8163C938.124 84.8163 941.565 84.7684 945.01 84.7189C948.472 84.6694 951.934 84.6199 958.855 84.6199C964.774 84.6199 968.32 77.5418 971.445 71.2958C975.123 63.9585 978.591 57.0257 986.496 57.0257C992.307 57.0257 996.052 44.1673 999.063 33.835C1003.46 18.7443 1006.66 9.58261 1014.13 9.58261C1021.41 9.58261 1024.45 23.8725 1029.21 54.2057C1031.92 71.5171 1036.02 97.6781 1041.75 97.6781C1047.48 97.6781 1051.59 68.6327 1054.3 49.4144C1059.01 15.8253 1062.05 -0.00012207 1069.34 -0.00012207C1076.5 -0.00012207 1080.13 0.756062 1083.64 1.48583C1087.08 2.19909 1090.32 2.87272 1096.97 2.87272C1104.3 2.87272 1107.19 19.2297 1112.05 56.5568C1114.78 77.4724 1118.89 109.08 1124.62 109.08C1130.36 109.08 1134.46 82.1845 1137.18 64.3878C1141.93 33.234 1144.97 18.5561 1152.25 18.5561C1159.12 18.5561 1162.6 18.4339 1165.98 18.3151C1169.4 18.1962 1172.93 18.0723 1179.88 18.0723C1186.9 18.0723 1190.47 18.386 1193.92 18.6915C1197.42 19.0002 1200.72 19.2908 1207.52 19.2908C1214.81 19.2908 1217.85 35.5356 1222.6 70.0163C1225.33 89.7546 1229.43 119.584 1235.17 119.584C1241.11 119.584 1244.49 113.545 1247.76 107.703C1251.45 101.125 1254.93 94.9109 1262.8 94.9109C1270.44 94.9109 1273.5 105.714 1277.87 123.34C1280.73 134.878 1284.65 150.682 1290.44 150.682C1297.72 150.682 1301.39 151.826 1304.94 152.932C1308.34 153.991 1311.55 154.99 1318.09 154.99C1324.19 154.99 1327.38 151.559 1330.76 147.928C1334.32 144.101 1338.01 140.142 1345.72 140.142C1351.67 140.142 1355.2 133.66 1358.33 127.94C1362.01 121.194 1365.49 114.823 1373.38 114.823C1379.17 114.823 1382.93 100.239 1385.95 88.518C1390.33 71.4791 1393.54 61.1319 1401.02 61.1319C1406.84 61.1319 1410.58 48.1843 1413.59 37.7794C1417.99 22.5863 1421.2 13.3602 1428.67 13.3602C1436.33 13.3602 1439.39 26.0816 1443.75 46.8354C1446.62 60.493 1450.55 79.2011 1456.32 79.2011C1464.08 79.2011 1467.76 83.5995 1471.32 87.8526C1474.71 91.906 1477.91 95.7331 1483.97 95.7331C1491.44 95.7331 1494.65 104.48 1499.05 118.884C1502.06 128.728 1505.8 140.979 1511.62 140.979C1517.35 140.979 1521.47 110.111 1524.19 89.6853C1529.05 53.2234 1531.95 37.2428 1539.28 37.2428C1545.54 37.2428 1548.72 35.0353 1552.08 32.6974C1555.66 30.2043 1559.37 27.627 1566.94 27.627C1574.57 27.627 1578.27 30.6336 1581.85 33.5411C1585.22 36.2753 1588.39 38.8592 1594.6 38.8592C1602.31 38.8592 1605.99 42.7243 1609.56 46.4623C1612.93 50.0054 1616.12 53.3521 1622.23 53.3521C1628.1 53.3521 1631.67 44.268 1634.81 36.2554C1638.63 26.5406 1641.92 18.1499 1649.88 18.1499C1657.56 18.1499 1661.26 21.6634 1664.83 25.0629C1668.2 28.2709 1671.38 31.3023 1677.52 31.3023C1684.87 31.3023 1687.76 49.4986 1692.61 91.0177C1695.47 115.425 1699.37 148.854 1705.19 149.566C1711.66 149.566 1714.85 148.354 1718.23 147.071C1721.8 145.717 1725.49 144.317 1732.84 144.317C1740.69 144.317 1744.18 149.984 1747.88 155.979C1751.15 161.28 1754.53 166.762 1760.5 166.762C1766.33 166.762 1770.08 154.872 1773.09 145.318C1777.49 131.322 1780.7 122.825 1788.17 122.825C1793.97 122.825 1797.73 108.291 1800.75 96.6148C1805.14 79.632 1808.34 69.3212 1815.84 69.3212C1823.51 69.3212 1826.57 82.3728 1830.93 103.668C1833.8 117.689 1837.73 136.892 1843.5 136.892C1850.04 136.892 1853.25 135.864 1856.65 134.776C1860.2 133.636 1863.88 132.458 1871.18 132.458C1877.02 131.373 1880.92 94.4882 1883.76 67.5562C1888.62 21.6139 1891.52 1.47923 1898.87 1.47923C1906.16 1.47923 1909.2 13.7169 1913.98 39.6929C1916.86 55.3417 1920.8 76.7707 1926.57 76.7707C1927.27 76.7707 1927.84 77.0481 1927.84 77.3899C1927.84 77.7316 1927.27 78.009 1926.57 78.009C1919.29 78.009 1916.24 65.7747 1911.47 39.8036C1908.59 24.1532 1904.64 2.71752 1898.87 2.71752C1893.03 3.80226 1889.13 40.6869 1886.29 67.6189C1881.43 113.561 1878.53 133.696 1871.18 133.696C1864.64 133.696 1861.43 134.724 1858.03 135.813C1854.48 136.952 1850.8 138.131 1843.5 138.131C1835.83 138.131 1832.77 125.082 1828.41 103.79C1825.54 89.7662 1821.61 70.5594 1815.84 70.5594C1810.04 70.5594 1806.28 85.0937 1803.26 96.77C1798.87 113.753 1795.66 124.064 1788.17 124.064C1782.34 124.064 1778.59 135.953 1775.59 145.506C1771.16 159.502 1767.95 168 1760.48 168Z" fill="#FD7E14" fill-opacity="0.5"/>
</svg>
