<svg width="444" height="309" viewBox="0 0 444 309" fill="none" xmlns="http://www.w3.org/2000/svg">
<g clip-path="url(#clip0_963_1618)">
<path d="M45.8656 274.904L52.7187 275.066L50.1301 295.923L45.4863 295.813L45.8656 274.904Z" fill="#FFB6B6"/>
<path d="M61.4184 305.499C61.4184 304.933 61.1237 304.42 60.6685 304.196L55.5539 301.67L52.0669 293.585L52.0141 285.439L44.8288 284.595L43.7896 289.784C43.7896 289.784 45.9292 289.465 43.2876 291.757C40.6459 294.05 41.9179 298.535 41.9179 298.535L41.3418 306.919H46.0968L46.352 301.705C50.0503 303.274 50.9574 306.919 50.9574 306.919H60.1749C60.8617 306.919 61.4184 306.283 61.4184 305.499Z" fill="#2C2A4E"/>
<path d="M55.9066 275.134L62.7597 275.296L60.1711 296.153L55.5273 296.043L55.9066 275.134Z" fill="#FFB6B6"/>
<path d="M71.4595 305.728C71.4595 305.162 71.1647 304.65 70.7095 304.425L65.5949 301.899L62.108 293.814L62.0551 285.669L54.8698 284.824L53.8306 290.013C53.8306 290.013 55.9703 289.694 53.3286 291.987C50.6869 294.28 51.9589 298.765 51.9589 298.765L51.3828 307.149H56.1378L56.3931 301.935C60.0914 303.503 60.9984 307.149 60.9984 307.149H70.216C70.9027 307.149 71.4595 306.513 71.4595 305.728Z" fill="#2C2A4E"/>
<path d="M48.0462 152.797L40.2772 171.342C37.6875 177.524 36.8668 184.303 37.9067 190.924L41.6826 282.03H56.6114L63.1277 200.9L64.4136 232.947L49.4686 278.607H64.1675L83.0346 232.947L84.4333 197.789L77.7304 170.507L48.0462 152.797Z" fill="#2C2A4E"/>
<path d="M258.521 73.4443V27.1221C258.521 12.3154 246.514 0.312256 231.703 0.312256H133.533C118.722 0.312011 106.715 12.315 106.715 27.1217V281.249C106.715 296.056 118.721 308.059 133.532 308.059H231.702C246.513 308.059 258.52 296.056 258.52 281.249V106.417C259.452 106.417 260.209 105.661 260.209 104.729L260.21 75.1331C260.21 74.2004 259.454 73.4443 258.521 73.4443Z" fill="#3F3D56"/>
<path d="M253.483 24.893V282.61C237.811 281.648 245.783 302.292 233.151 302.941H132.967C121.733 302.943 112.624 293.841 112.621 282.61V24.893C112.624 13.6629 121.733 4.56131 132.966 4.56274H140.354C138.342 9.50929 154.581 11.1186 155.826 11.1202H207.135C212.476 11.1135 225.363 5.71558 224.894 4.56274H233.147C244.376 4.56466 253.479 13.6634 253.483 24.8891V24.893Z" fill="#222222"/>
<path d="M105.924 79.1183C105.21 79.1183 104.629 79.6991 104.629 80.4134V90.7741C104.629 91.4883 105.21 92.0691 105.924 92.0691C106.639 92.0691 107.22 91.4883 107.22 90.7741V80.4134C107.22 79.6991 106.639 79.1183 105.924 79.1183Z" fill="#3F3D56"/>
<path d="M105.924 110.2C105.21 110.2 104.629 110.781 104.629 111.495V131.569C104.629 132.283 105.21 132.864 105.924 132.864C106.639 132.864 107.22 132.283 107.22 131.569V111.495C107.22 110.781 106.639 110.2 105.924 110.2Z" fill="#3F3D56"/>
<path d="M105.924 138.692C105.21 138.692 104.629 139.273 104.629 139.987V160.061C104.629 160.775 105.21 161.356 105.924 161.356C106.639 161.356 107.22 160.775 107.22 160.061V139.987C107.22 139.273 106.639 138.692 105.924 138.692Z" fill="#3F3D56"/>
<path d="M411.48 291.678L405.332 295.887L386.164 274.186L395.237 267.973L411.48 291.678Z" fill="#FFB6B6"/>
<path d="M390.322 305.963C390.352 306.416 390.964 307.526 391.221 307.9C392.01 309.052 393.584 309.346 394.736 308.557L413.773 295.519C414.559 294.98 414.76 293.907 414.221 293.121L413.678 292.328C413.678 292.328 412.988 289.302 409.038 287.695C409.038 287.695 408.203 291.644 402.135 290.51L399.756 289.314L395.921 300.198L392.019 303.641C391.166 304.394 390.249 304.827 390.322 305.963Z" fill="#2C2A4E"/>
<path d="M366.158 302.853L358.707 302.853L355.162 274.12L364.283 275.255L366.158 302.853Z" fill="#FFB6B6"/>
<path d="M340.628 302.684C340.396 303.075 340.273 304.336 340.273 304.79C340.273 306.186 341.406 307.318 342.802 307.318H365.879C366.831 307.318 367.604 306.546 367.604 305.594V304.633C367.604 304.633 368.745 301.746 366.395 298.188C366.395 298.188 363.474 300.974 359.109 296.611L357.822 294.28L348.505 301.092L343.341 301.727C342.211 301.866 341.209 301.706 340.628 302.684Z" fill="#2C2A4E"/>
<path d="M340.032 193.659L340.592 200.435L339.477 205.823L341.508 211.503L343.994 241.538L356.948 293.321L366.84 295.403L362.091 243.678L365.775 201.013L340.032 193.659Z" fill="#2C2A4E"/>
<path d="M382.064 164.244L344.235 164.769L340.031 193.657L365.774 205.739L364.953 246.997L393.623 288.487L408.892 279.765L383.306 244.531L390.47 185.778L382.064 164.244Z" fill="#2C2A4E"/>
<path d="M354.061 96.327L347.387 104.89L350.539 170.546L375.233 170.021L379.437 112.769L374.183 98.0616L372.282 94.7656L370.008 90.498L355.431 91.5389L354.061 96.327Z" fill="#E6E6E6"/>
<path d="M344.206 136.93L345.54 150.349L343.901 165.79L341.851 169.976L337.166 186.63C337.166 186.63 332.384 193.914 342.892 194.437C353.4 194.961 387.843 191.553 387.843 191.553C387.843 191.553 392.138 191.447 390.266 182.467C387.243 177.273 389.192 169.954 389.192 169.954L385.216 155.311L386.267 141.654L393.623 105.937C387.09 100.805 379.773 97.1312 371.818 94.6433L364.851 112.958L354.478 96.2192L350.538 99.1082C345.223 100.501 340.546 102.644 336.846 105.936L344.206 136.93Z" fill="#2C2A4E"/>
<path d="M219.495 105.072H145.344C140.261 105.067 136.142 100.949 136.137 95.8679V64.0038C136.142 58.9227 140.261 54.805 145.344 54.7993C169.005 48.2459 193.82 48.86 219.495 54.7993C224.577 54.8053 228.696 58.9229 228.701 64.0038V95.8679C228.696 100.949 224.577 105.066 219.495 105.072Z" fill="#F2F2F2"/>
<path d="M227.048 138.467H137.79C136.877 138.466 136.138 137.727 136.137 136.815V114.68C136.138 113.768 136.877 113.029 137.79 113.028H227.048C227.961 113.029 228.7 113.768 228.701 114.68V136.815C228.7 137.727 227.961 138.467 227.048 138.468V138.467ZM137.79 113.689C137.242 113.689 136.798 114.133 136.798 114.68V136.815C136.798 137.363 137.242 137.806 137.79 137.807H227.048C227.596 137.806 228.04 137.363 228.04 136.815V114.68C228.04 114.133 227.596 113.689 227.048 113.689H137.79Z" fill="#E6E6E6"/>
<path d="M165.393 121.119C164.754 121.132 164.247 121.661 164.26 122.3C164.273 122.92 164.773 123.419 165.393 123.432H219.939C220.578 123.457 221.116 122.959 221.14 122.32C221.164 121.682 220.666 121.144 220.028 121.12H165.393V121.119Z" fill="#E6E6E6"/>
<path d="M165.393 128.061C164.754 128.074 164.247 128.603 164.26 129.242C164.273 129.862 164.773 130.361 165.393 130.374H219.939C220.578 130.399 221.116 129.901 221.14 129.262C221.164 128.624 220.666 128.086 220.028 128.062H165.393V128.061Z" fill="#E6E6E6"/>
<path d="M150.072 130.375C152.628 130.375 154.701 128.304 154.701 125.748C154.701 123.193 152.628 121.121 150.072 121.121C147.516 121.121 145.443 123.193 145.443 125.748C145.443 128.304 147.516 130.375 150.072 130.375Z" fill="#E6E6E6"/>
<path d="M227.048 247.113H137.79C136.877 247.112 136.138 246.372 136.137 245.46V223.326C136.138 222.414 136.877 221.675 137.79 221.673H227.048C227.961 221.675 228.7 222.414 228.701 223.326V245.461C228.7 246.373 227.961 247.112 227.048 247.113V247.113ZM137.79 222.334C137.242 222.335 136.798 222.778 136.798 223.326V245.461C136.798 246.008 137.242 246.452 137.79 246.452L216.909 245.673C217.456 245.672 225.758 242.577 225.759 242.03L228.04 223.326C228.039 222.778 227.596 222.335 227.048 222.334H137.79Z" fill="#E6E6E6"/>
<path d="M165.395 233.064C164.756 233.05 164.227 233.557 164.213 234.196C164.2 234.835 164.707 235.364 165.346 235.377C165.362 235.377 165.378 235.377 165.395 235.377H219.941C220.58 235.402 221.118 234.904 221.142 234.265C221.166 233.627 220.669 233.089 220.03 233.065H165.395V233.064Z" fill="#E6E6E6"/>
<path d="M150.072 239.021C152.628 239.021 154.701 236.949 154.701 234.393C154.701 231.838 152.628 229.766 150.072 229.766C147.516 229.766 145.443 231.838 145.443 234.393C145.443 236.949 147.516 239.021 150.072 239.021Z" fill="#E6E6E6"/>
<path d="M227.048 201.314H137.79C136.877 201.313 136.138 200.574 136.137 199.661V177.527C136.138 176.615 136.877 175.876 137.79 175.875H227.048C227.961 175.876 228.7 176.615 228.701 177.527V199.662C228.7 200.574 227.961 201.313 227.048 201.314V201.314ZM137.79 176.535C137.242 176.536 136.798 176.98 136.798 177.527V199.662C136.798 200.209 137.242 200.653 137.79 200.653L216.909 199.874C217.456 199.873 225.758 196.778 225.759 196.231L228.04 177.527C228.039 176.98 227.596 176.536 227.048 176.535H137.79Z" fill="#E6E6E6"/>
<path d="M165.395 187.265C164.756 187.251 164.227 187.758 164.213 188.397C164.2 189.036 164.707 189.565 165.346 189.578C165.362 189.579 165.378 189.579 165.395 189.578H219.941C220.58 189.603 221.118 189.105 221.142 188.466C221.166 187.828 220.669 187.29 220.03 187.266H165.395V187.265Z" fill="#E6E6E6"/>
<path d="M150.072 193.222C152.628 193.222 154.701 191.15 154.701 188.595C154.701 186.039 152.628 183.967 150.072 183.967C147.516 183.967 145.443 186.039 145.443 188.595C145.443 191.15 147.516 193.222 150.072 193.222Z" fill="#E6E6E6"/>
<path d="M361.419 89.8908C368.621 89.8908 374.46 84.0541 374.46 76.8541C374.46 69.6541 368.621 63.8174 361.419 63.8174C354.217 63.8174 348.379 69.6541 348.379 76.8541C348.379 84.0541 354.217 89.8908 361.419 89.8908Z" fill="#FFB6B6"/>
<path d="M370.997 87.5656C371.715 87.688 372.558 85.9475 373.364 84.2523C375.051 80.7036 376.123 78.4477 376.205 75.2589C376.275 72.5412 375.519 73.2545 374.785 67.2123C374.542 65.2194 371.137 65.2232 370.444 64.2769C369.273 62.6784 371.069 62.0192 368.156 61.0589C362.7 59.2603 360.232 62.0544 356.767 62.2951C356.68 62.3012 354.962 63.9806 354.002 64.0675C352.321 64.2196 349.897 63.9579 348.81 61.3976C347.793 59.0037 347.12 65.9991 348.028 66.8649C348.8 67.5999 350.13 69.4448 350.164 69.5789C350.203 69.7308 347 66.1845 346.466 67.6459C346.081 68.6977 347.292 74.1089 348.27 74.3123C349.088 74.4823 351.089 71.7867 350.638 72.8923C349.591 75.4562 355.886 77.0922 363.421 71.9456C363.689 71.7631 363.436 72.0542 364.368 74.3123C365.544 77.1602 365.809 77.3145 365.789 78.0989C365.744 79.797 364.469 80.297 364.842 81.4123C365.144 82.3156 366.324 83.0149 367.209 82.8323C368.208 82.6261 368.38 81.3903 369.103 81.4123C369.723 81.4311 370.458 82.364 370.523 83.3056C370.661 85.2893 367.724 85.8348 367.209 88.5123C366.919 90.0234 370.337 87.4531 370.997 87.5656Z" fill="#2C2A4E"/>
<path d="M400.51 191.772C400.566 190.312 400.272 188.86 399.652 187.537L400.996 172.323L393.733 171.896L393.153 187.378C392.468 188.668 392.102 190.104 392.085 191.565C391.994 195.22 393.806 198.229 396.132 198.287C398.458 198.345 400.418 195.43 400.509 191.776L400.51 191.772Z" fill="#FFB6B6"/>
<path d="M385.06 130.423L390.787 148.118L392.431 184.258L402.017 184.062L402.76 144.475C402.76 144.475 397.983 115.223 396.383 108.648C394.784 102.074 380.033 104.51 380.033 104.51L385.06 130.423Z" fill="#2C2A4E"/>
<path d="M147.534 84.2888C150.242 85.1877 153.081 86.0977 155.972 85.9442C157.287 85.8743 158.553 85.5607 159.746 85.0028C160.97 84.4306 162.088 83.6537 163.327 83.1116C167.88 81.1195 172.395 84.5227 176.641 85.8C178.76 86.4373 180.987 86.5898 183.059 85.7022C185.349 84.7215 187.076 82.8501 188.961 81.2875C193.187 77.7842 198.702 75.8954 204.187 76.0382C210.204 76.1949 216.029 78.852 220.173 83.1981C220.52 83.5625 221.072 83.0099 220.725 82.6461C217.103 78.8478 212.224 76.2871 207.027 75.5111C201.82 74.7334 196.414 75.7725 191.835 78.3651C189.518 79.677 187.66 81.4728 185.618 83.1487C183.631 84.7807 181.421 85.8325 178.8 85.4856C174.286 84.8881 170.402 81.4103 165.72 81.7256C162.73 81.927 160.594 84.1762 157.78 84.8933C154.423 85.7488 150.914 84.5893 147.741 83.5361C147.263 83.3774 147.058 84.131 147.534 84.2888Z" fill="#3F3D56"/>
<path d="M156.012 88.4484C157.609 88.4484 158.904 87.1538 158.904 85.5569C158.904 83.9599 157.609 82.6653 156.012 82.6653C154.414 82.6653 153.119 83.9599 153.119 85.5569C153.119 87.1538 154.414 88.4484 156.012 88.4484Z" fill="#F5BD00"/>
<path d="M180.98 88.5765C182.578 88.5765 183.873 87.2819 183.873 85.6849C183.873 84.0879 182.578 82.7933 180.98 82.7933C179.383 82.7933 178.088 84.0879 178.088 85.6849C178.088 87.2819 179.383 88.5765 180.98 88.5765Z" fill="#F5BD00"/>
<path d="M206.338 78.7678C207.935 78.7678 209.23 77.4732 209.23 75.8762C209.23 74.2792 207.935 72.9846 206.338 72.9846C204.74 72.9846 203.445 74.2792 203.445 75.8762C203.445 77.4732 204.74 78.7678 206.338 78.7678Z" fill="#F5BD00"/>
<path d="M38.5037 176.195C29.952 200.537 40.8478 219.715 38.5867 207.344C36.697 197.005 68.897 165.545 78.5894 172.032C78.3863 170.982 72.2257 152.053 71.6218 151.966C72.4667 149.839 71.2891 149.819 71.2412 148.729C71.058 144.519 72.0367 140.15 73.9431 135.653C75.1925 132.178 75.2144 129.193 74.0035 126.786C72.9616 124.808 71.2112 123.295 69.1021 122.551L62.7509 114.883C61.0965 112.887 58.6564 108.58 56.0639 108.597L42.1469 108.099C41.7492 107.861 36.8624 112.062 32.1041 114.123C26.9435 116.361 28.0081 122.469 28.0211 122.547L28.0331 122.62L28.0898 122.672L35.6754 144.992L42.529 151.414C42.1818 152.42 42.2687 153.176 42.919 153.61C41.9855 154.3 37.8332 174.951 38.5037 175.675L38.5037 176.195Z" fill="#F5BD00"/>
<path d="M110.015 132.021C108.98 132.434 108.06 133.088 107.33 133.93L96.3086 137.706L98.2598 142.896L109.229 138.506C110.341 138.584 111.455 138.395 112.478 137.954C115.054 136.885 116.591 134.691 115.91 133.053C115.229 131.414 112.591 130.952 110.015 132.021Z" fill="#FFB6B6"/>
<path d="M51.2246 115.365L76.3666 149.293L105.838 141.179L104.557 133.493L82.115 137.742L69.5953 118.501C65.5071 110.6 57.4493 109.009 51.2246 115.364V115.365Z" fill="#F5BD00"/>
<path d="M231.8 286.444H220.327C218.323 286.444 216.693 284.815 216.693 282.812C214.518 276.904 214.243 271.605 216.693 267.178C216.693 265.175 218.323 263.545 220.327 263.545C223.719 261.085 227.675 261.832 231.8 263.545C233.804 263.545 235.434 265.175 235.434 267.178C234.042 272.187 234.143 277.413 235.434 282.812C235.434 284.815 233.804 286.444 231.8 286.444Z" fill="#F5BD00"/>
<path d="M230.691 270.503H221.425C221.105 270.503 220.846 270.244 220.846 269.924C220.846 269.604 221.105 269.345 221.425 269.345H230.691C231.011 269.345 231.271 269.604 231.271 269.924C231.271 270.244 231.011 270.503 230.691 270.503Z" fill="#222222"/>
<path d="M230.691 275.134H221.425C221.105 275.134 220.846 274.874 220.846 274.555C220.846 274.235 221.105 273.976 221.425 273.976H230.691C231.011 273.976 231.271 274.235 231.271 274.555C231.271 274.874 231.011 275.134 230.691 275.134Z" fill="#222222"/>
<path d="M230.691 279.765H221.425C221.105 279.765 220.846 279.506 220.846 279.186C220.846 278.866 221.105 278.607 221.425 278.607H230.691C231.011 278.607 231.271 278.866 231.271 279.186C231.271 279.506 231.011 279.765 230.691 279.765Z" fill="#222222"/>
<path d="M433.712 307.493H-9.33008V308.369H433.712V307.493Z" fill="#E6E6E6"/>
<path d="M336.449 190.558C336.826 194.194 339.008 196.948 341.321 196.708C343.635 196.468 345.207 193.327 344.83 189.69C344.7 188.235 344.223 186.832 343.439 185.599L341.65 170.21L334.443 171.203L336.971 186.266C336.457 187.633 336.277 189.104 336.448 190.555L336.449 190.558Z" fill="#FFB6B6"/>
<path d="M347.054 128.186L350.04 101.96C350.04 101.96 335.144 100.683 334.063 107.363C332.982 114.042 330.506 143.578 330.506 143.578L334.341 182.986L343.913 182.432L342.728 146.275L347.054 128.186Z" fill="#2C2A4E"/>
<path d="M59.3055 105.211L39.1799 107.043L38.5859 86.1316L60.5115 85.5093L59.3055 105.211Z" fill="#2C2A4E"/>
<path d="M49.1303 102.404C54.9635 102.404 59.6923 97.6767 59.6923 91.8452C59.6923 86.0136 54.9635 81.2863 49.1303 81.2863C43.2971 81.2863 38.5684 86.0136 38.5684 91.8452C38.5684 97.6767 43.2971 102.404 49.1303 102.404Z" fill="#FFB6B6"/>
<path d="M57.6267 81.5568C57.5523 78.9368 54.2913 78.6531 51.7505 78.0065L49.4466 76.8112C47.1851 76.2356 44.7857 76.6404 42.8384 77.926L36.6949 81.6466C33.9363 83.4677 33.4981 86.4111 32.3764 89.5198L30.3461 94.0703C29.2418 97.1305 30.7011 101.185 31.8173 104.241L32.2851 105.522L31.5537 109.713L44.3564 109.115L45.4944 102.645L43.309 100.189C42.5336 99.3179 42.4707 98.024 43.158 97.0816C45.6301 93.6915 45.1719 88.9406 45.1719 88.9406L48.3005 90.6467C50.3561 90.927 52.188 90.8963 53.7998 90.5596C55.5724 90.1892 57.0789 89.4488 58.3239 88.345L59.4393 92.0955C59.7267 96.7635 58.8542 98.0024 54.6924 102.568L61.9906 107.149L61.7206 104.67C61.0786 98.7734 63.0361 94.1235 62.7617 89.3242C62.572 86.0056 60.5978 83.049 57.6267 81.5568Z" fill="#2C2A4E"/>
<path d="M59.3745 170.59C58.3433 170.169 57.2261 170 56.1162 170.098L45.5655 165.158L43.3613 170.245L54.3011 174.708C55.0465 175.537 55.9793 176.174 57.0217 176.568C59.6164 177.589 62.2471 177.079 62.8962 175.428C63.5453 173.776 61.9692 171.611 59.3745 170.59Z" fill="#FFB6B6"/>
<path d="M28.6739 117.773L23.1719 159.637L50.0051 174.275L54.4261 167.858L35.334 155.324L39.7053 132.789C42.2567 124.268 37.568 117.526 28.6743 117.772L28.6739 117.773Z" fill="#F5BD00"/>
</g>
<defs>
<clipPath id="clip0_963_1618">
<rect width="443.042" height="308.688" fill="white" transform="translate(0.5 0.312256)"/>
</clipPath>
</defs>
</svg>
