<svg width="53" height="80" viewBox="0 0 53 80" fill="none" xmlns="http://www.w3.org/2000/svg">
<path fill-rule="evenodd" clip-rule="evenodd" d="M13.1408 48.4395L2.40587 35.4423H6.62796L25.9523 61.0749V63.8546L16.3212 52.2291L16.3584 52.1648L16.1061 51.87L13.3784 48.6826L13.1657 48.4341L13.1408 48.4395ZM39.9531 34.3472L27.0473 11.4437V2.74181e-06L50.7139 34.3472H46.0987H39.9531ZM2.28569 34.3472L25.9523 0V11.4437L13.0465 34.3472H6.90088H2.28569ZM46.3716 35.4423H50.5937L39.8588 48.4395L39.8339 48.4341L39.6212 48.6826L36.8935 51.87L36.6412 52.1648L36.6784 52.2291L27.0473 63.8546V61.0749L46.3716 35.4423ZM6.43368 51.0189L12.7215 49.6514L14.9709 52.3749L10.1213 60.7424H0.31543L6.43368 51.0189ZM25.9523 65.6703L15.7492 53.3172L10.5211 62.3588L14.7395 62.0389L15.0685 62.0139L15.2443 62.2933L25.9523 79.3124V65.6703ZM27.0473 65.6703V79.3124L37.7553 62.2933L37.931 62.0139L38.2602 62.0389L42.4785 62.3588L37.2504 53.3172L27.0473 65.6703ZM40.2781 49.6514L38.0287 52.3749L42.8783 60.7424H52.6842L46.5659 51.0189L40.2781 49.6514ZM16.6133 38.3555L21.1192 31.0697L26.2088 34.263L26.4998 34.4455L26.7908 34.263L31.8804 31.0697L36.3863 38.3555L26.4998 46.2464L16.6133 38.3555Z" fill="#F5BD00"/>
</svg>
